<svg width="996" height="497" viewBox="0 0 996 497" fill="none" xmlns="http://www.w3.org/2000/svg">
<path d="M245.961 322.5H283.461V386.5H245.961V446H176.461V386.5H10.9609V322.5L127.461 96H201.461L85.4609 322.5H176.461V239.5H245.961V322.5ZM951 322.5H988.5V386.5H951V446H881.5V386.5H716V322.5L832.5 96H906.5L790.5 322.5H881.5V239.5H951V322.5Z" fill="#BA2828"/>
<path d="M486.479 80.3977L486.479 80.3977C461.808 81.9959 436.374 89.6724 417.509 99.7979C401.357 108.468 393.934 114.161 381.563 124.409L362.507 144.311C349.882 160.431 341.553 172.743 333.86 193.041C315.968 240.252 318.101 293.754 341.748 338.292L339.098 339.698L341.748 338.292C347.342 348.829 352.521 356.629 358.995 365.24L359.174 365.477C359.909 366.456 360.469 367.201 361.257 368.103L361.287 368.137L361.315 368.172L366.422 374.38C366.423 374.382 366.425 374.384 366.426 374.385C370.456 379.234 380.907 389.18 386.074 393.255C401.717 405.592 415.4 414.59 434.917 421.99C483.612 440.453 534.347 437.479 580.428 414.098M486.479 80.3977L581.785 416.773M486.479 80.3977C513.948 78.6171 539.545 82.88 562.899 91.9035L563.981 89.1051M486.479 80.3977L592.362 106.591M580.428 414.098L581.785 416.773M580.428 414.098C580.428 414.098 580.428 414.098 580.427 414.098L581.785 416.773M580.428 414.098C590.258 409.109 605.987 398.822 613.307 391.979L613.307 391.979C614.849 390.538 616.363 389.224 617.839 387.943C618.287 387.554 618.731 387.168 619.172 386.783C621.085 385.111 622.997 383.387 625.052 381.273M581.785 416.773C591.78 411.701 607.768 401.264 615.355 394.171C616.853 392.771 618.311 391.506 619.779 390.232C622.156 388.169 624.56 386.083 627.203 383.365M625.052 381.273C625.052 381.273 625.052 381.274 625.052 381.274L627.203 383.365M625.052 381.273L627.203 383.365M625.052 381.273C625.842 380.461 626.57 379.603 627.366 378.666C627.447 378.57 627.528 378.474 627.61 378.377C628.475 377.36 629.43 376.25 630.5 375.228M627.203 383.365C628.067 382.476 628.862 381.54 629.647 380.614C630.598 379.493 631.537 378.386 632.572 377.397M632.572 377.397L630.5 375.228C630.5 375.228 630.5 375.228 630.5 375.228M632.572 377.397C634.542 375.515 636.038 373.643 637.639 371.594C650.456 355.209 658.796 343.061 666.809 321.944C685.007 273.982 682.796 219.5 658.747 174.189C653.944 165.142 644.878 150.722 638.846 143.813L633.733 137.586M632.572 377.397L630.5 375.228M630.5 375.228C632.299 373.509 633.68 371.789 635.276 369.747L635.276 369.746C647.996 353.485 656.139 341.606 664.004 320.88C681.915 273.676 679.717 220.098 656.097 175.595C651.341 166.636 642.4 152.445 636.586 145.787L636.556 145.752L636.527 145.717L631.432 139.511L633.733 137.586M633.733 137.586L631.415 139.489L631.424 139.501M633.733 137.586C624.479 126.525 606.066 111.341 593.91 104.021M631.424 139.501L379.516 122.209C392.059 111.815 399.647 105.981 416.09 97.1546C435.331 86.8272 461.183 79.0301 486.285 77.404C514.194 75.5948 540.225 79.9268 563.981 89.1051M631.424 139.501C622.408 128.73 604.269 113.761 592.362 106.591M631.424 139.501L592.362 106.591M593.91 104.021C584.58 98.4044 575.112 93.406 563.981 89.1051M593.91 104.021L592.362 106.591M593.91 104.021L592.363 106.591C592.363 106.591 592.362 106.591 592.362 106.591M563.981 89.1051L562.899 91.9035C573.825 96.1248 583.134 101.036 592.362 106.591" fill="#BA2828" stroke="#8E1313" stroke-width="6"/>
<path fill-rule="evenodd" clip-rule="evenodd" d="M537.23 177.647C525.205 179.749 514.334 192.319 517.681 207.438C520.656 220.865 533.55 229.937 547.26 226.91C579.929 219.699 570.292 171.871 537.23 177.647ZM373.513 303.216C372.535 303.762 372.106 303.403 371.461 305.291C370.085 309.337 374.171 312.649 377.867 310.737C382.366 308.408 379.396 299.941 373.513 303.216ZM605.878 207.102C600.294 210.227 605.381 217.878 610.277 214.693C614.583 211.892 611.287 204.074 605.878 207.102ZM566.767 372.142C564.401 372.56 562.819 374.762 563.242 377.367C563.609 379.621 565.927 381.296 568.518 380.879C573.919 380.01 572.678 371.094 566.767 372.142ZM581.524 290.921C576.188 293.48 579.664 301.133 585.226 298.895C590.399 296.813 587.037 288.276 581.524 290.921ZM532.389 383.115C527.198 385.111 529.662 393.259 535.522 391.436C540.601 389.856 538.325 380.832 532.389 383.115ZM443.718 345.651C438.163 348.61 442.277 355.648 447.492 353.688C452.709 351.728 449.078 342.797 443.718 345.651ZM453.543 178.817C448.078 180.582 450.266 188.871 456.065 187.394C461.276 186.066 459.463 176.904 453.543 178.817ZM535.342 143.632C529.561 145.035 531.24 153.586 537.337 152.278C542.808 151.104 540.994 142.262 535.342 143.632ZM402.521 204.276C396.452 206.633 400.319 214.577 405.596 212.63C410.53 210.809 408.229 202.059 402.521 204.276ZM450.115 306.753C444.249 309.511 448.074 317.147 453.534 314.84C458.751 312.636 455.359 304.288 450.115 306.753ZM524.839 297.056C518.715 298.357 520.721 307.133 526.863 305.716C532.196 304.486 530.265 295.902 524.839 297.056ZM572.113 228.988C567.18 230.96 569.198 239.552 575.344 237.397C580.536 235.576 577.718 226.746 572.113 228.988ZM385.89 169.582C383.72 170.299 381.78 171.812 382.77 175.133C383.429 177.344 385.932 178.822 388.598 177.934C393.551 176.287 391.753 167.643 385.89 169.582ZM634.961 267.264C628.807 268.711 631.434 277.57 637.382 275.803C642.267 274.351 640.937 265.86 634.961 267.264ZM610.376 346.935C605.141 349.18 607.818 357.209 613.604 355.243C618.877 353.452 616.271 344.407 610.376 346.935ZM487.423 125.76C480.489 127.376 482.21 139.459 490.527 137.539C497.584 135.911 495.65 123.844 487.423 125.76ZM409.37 268.697C401.707 272.008 407.021 282.961 414.297 279.665C420.555 276.83 417.215 265.307 409.37 268.697ZM566.87 135.426C560.23 138.214 563.452 149.887 571.555 146.563C578.402 143.754 574.546 132.204 566.87 135.426ZM485.476 177.586C477.357 180.135 481.524 191.506 489.064 189.069C495.996 186.828 493.472 175.077 485.476 177.586ZM499.638 390.062C495.68 391.195 494.158 394.019 495.139 397.53C495.94 400.395 499.004 402.676 502.779 401.668C509.682 399.825 507.446 387.828 499.638 390.062ZM489.735 279.77C481.943 281.775 484.976 293.397 492.717 291.505C500.095 289.702 497.903 277.668 489.735 279.77ZM495.527 321.214C484.108 325.462 491.16 340.721 501.126 337.074C504.807 335.726 507.921 331.305 506.143 326.262C504.854 322.603 500.584 319.332 495.527 321.214ZM565.978 301.578C554.868 303.485 557.789 320.222 568.955 318.221C579.754 316.283 576.862 299.709 565.978 301.578ZM365.045 209.94C354.023 211.542 356.473 228.912 367.96 226.66C372.074 225.853 375.5 221.972 374.626 216.771C373.949 212.745 369.981 209.223 365.045 209.94ZM571.505 341.446C560.299 344.71 565.472 360.832 576.189 357.764C586.612 354.78 582.2 338.331 571.505 341.446ZM586.607 195.738C573.892 198.883 578.991 216.64 590.772 213.751C595.123 212.684 598.893 208.028 597.42 202.411C596.317 198.206 592.047 194.391 586.607 195.738ZM454.519 372.679C449.728 373.915 446.355 377.884 447.626 383.898C448.554 388.291 453.417 391.8 458.744 390.714C463.281 389.79 467.002 385.035 465.674 379.419C464.658 375.119 459.972 371.27 454.519 372.679ZM629.604 237.92C617.716 242.877 624.916 259.463 636.288 255.194C647.389 251.027 640.734 233.278 629.604 237.92ZM507.027 137.14C494.952 139.067 497.62 157.472 510.146 155.403C521.593 153.512 519.425 135.163 507.027 137.14ZM409.875 330.883C398.351 334.098 402.694 351.289 414.3 348.993C418.848 348.094 422.734 343.33 421.365 337.682C420.307 333.322 415.759 329.241 409.875 330.883ZM550.743 250.037C534.62 252.627 538.859 276.397 554.648 273.365C560.522 272.236 565.336 266.575 563.963 259.369C562.898 253.787 557.547 248.944 550.743 250.037ZM524.904 346.933C505.345 351.284 513.155 378.566 530.529 374.583C537.174 373.06 543.265 366.302 541.36 357.654C539.924 351.135 533.17 345.095 524.904 346.933ZM437.107 149.151C417.255 154.751 426.423 183.442 445.115 177.744C463.824 172.039 455.686 143.911 437.107 149.151ZM604.046 301.545C595.719 303.192 588.828 311.202 591.219 321.458C596.074 342.276 627.674 335.857 623.441 314.507C621.842 306.443 614.277 299.521 604.046 301.545ZM366.394 242.825C344.515 247.765 352.08 279.365 373.011 275.146C394.446 270.826 387.575 238.044 366.394 242.825ZM465.975 228.257C453.908 229.386 444.056 239.745 445.252 253.18C446.337 265.354 456.983 275.105 470.332 273.882C482.273 272.789 492.315 262.298 490.933 248.774C489.727 236.984 479.324 227.009 465.975 228.257Z" fill="#EC9190"/>
</svg>
