<svg width="70" height="70" viewBox="0 0 70 70" fill="none" xmlns="http://www.w3.org/2000/svg">
<path d="M26.8798 2C33.4739 2 39.4439 4.67288 43.7653 8.9943C48.0867 13.3157 50.7596 19.2857 50.7596 25.8797C50.7596 31.2599 48.9801 36.2244 45.9777 40.2172L50.8668 45.1062L50.9919 44.9812C51.4993 44.4739 52.1659 44.2201 52.8319 44.2201C53.498 44.2201 54.1647 44.4739 54.672 44.9812L67.2389 57.548C67.7463 58.0554 68 58.722 68 59.3881C68 60.0541 67.7463 60.7208 67.2389 61.2281L62.2281 66.2389C61.7207 66.7463 61.0541 67 60.3881 67C59.722 67 59.0554 66.7463 58.548 66.2389L45.9811 53.672C45.4738 53.1647 45.2201 52.498 45.2201 51.832C45.2201 51.166 45.4738 50.4993 45.9811 49.9919L46.1063 49.8668L41.2172 44.9777C37.2245 47.98 32.2599 49.7596 26.8798 49.7596C20.2857 49.7596 14.3157 47.0867 9.9943 42.7653C5.67288 38.4439 3 32.4738 3 25.8797C3 19.2857 5.67288 13.3157 9.9943 8.9943C14.3157 4.67288 20.2857 2 26.8798 2ZM38.5879 22.8596H37.1028C36.8907 22.1414 36.6028 21.4469 36.2433 20.7876L37.2941 19.7367C37.6088 19.4221 37.7822 19.0039 37.7822 18.5589C37.7822 18.1141 37.6089 17.696 37.2942 17.3811L35.3786 15.4655C34.7293 14.8161 33.6727 14.8159 33.0233 15.4655L31.9723 16.5164C31.3129 16.1569 30.6185 15.869 29.9001 15.6569V14.1719C29.9001 13.2535 29.153 12.5065 28.2346 12.5065H25.5253C24.607 12.5065 23.8598 13.2536 23.8598 14.1719V15.6569C23.1414 15.8689 22.4472 16.1569 21.7876 16.5164L20.7366 15.4655C20.0874 14.8161 19.0308 14.8162 18.3813 15.4655L16.4653 17.3814C15.8163 18.0309 15.8163 19.0875 16.4656 19.7367L17.5165 20.7876C17.1571 21.4469 16.8691 22.1411 16.6569 22.8596H15.1717C14.2533 22.8596 13.5062 23.6069 13.5062 24.5251V27.2344C13.5062 28.1528 14.2533 28.8997 15.1717 28.8997L16.6567 28.8997C16.869 29.6184 17.157 30.313 17.5164 30.9719L16.4652 32.023C15.8162 32.6724 15.8162 33.729 16.4655 34.3782L18.3809 36.2937C18.6956 36.6084 19.1139 36.7816 19.5588 36.7816C20.0039 36.7816 20.4222 36.6083 20.7366 36.2938L21.7876 35.2429C22.4472 35.6026 23.1416 35.8906 23.8598 36.1026V37.5876C23.8598 38.506 24.6069 39.253 25.5253 39.253L28.2346 39.253C29.1528 39.253 29.9001 38.5059 29.9001 37.5877V36.1026C30.6184 35.8905 31.3127 35.6027 31.9723 35.243L33.0229 36.2935C33.3374 36.6083 33.7559 36.7816 34.2008 36.7816C34.6458 36.7816 35.064 36.6083 35.3785 36.2938L37.2941 34.3782C37.6088 34.0636 37.7822 33.6454 37.7822 33.2004C37.7822 32.7556 37.6089 32.3376 37.2942 32.0226L36.2433 30.9719C36.6028 30.3124 36.8909 29.6182 37.1028 28.8997L38.5879 28.8997C39.5061 28.8997 40.2534 28.1526 40.2534 27.2344V24.5251C40.2534 23.6067 39.5062 22.8596 38.5879 22.8596V22.8596ZM26.8797 20.0908C23.6877 20.0908 21.0908 22.6877 21.0908 25.8797C21.0908 29.0716 23.6877 31.6685 26.8797 31.6685C30.0717 31.6685 32.6685 29.0716 32.6685 25.8797C32.6685 22.6877 30.0718 20.0908 26.8797 20.0908ZM26.8797 29.4802C24.8943 29.4802 23.2791 27.8652 23.2791 25.8796C23.2791 23.8941 24.8943 22.279 26.8797 22.279C28.8651 22.279 30.4803 23.8941 30.4803 25.8796C30.4803 27.8652 28.8652 29.4802 26.8797 29.4802ZM38.0651 26.7115H36.7041C35.9418 26.7115 35.2775 27.23 35.0886 27.9728C34.8895 28.7559 34.5779 29.5067 34.1625 30.2044C33.7713 30.8617 33.8743 31.6976 34.4135 32.237L35.3772 33.2006L34.2008 34.377L33.2373 33.4134C32.698 32.874 31.8621 32.771 31.2047 33.1624C30.507 33.5779 29.7562 33.8894 28.9728 34.0884C28.2304 34.2772 27.7118 34.9416 27.7118 35.7039V37.0648L26.048 37.0649V35.7039C26.048 34.9416 25.5295 34.2772 24.7868 34.0884C24.0037 33.8895 23.2529 33.5779 22.5553 33.1626C21.8978 32.7709 21.0618 32.8741 20.5228 33.4133L19.5589 34.3771L18.3825 33.2006L19.3463 32.2369C19.8853 31.6978 19.9885 30.862 19.5971 30.2041C19.1818 29.507 18.8702 28.7563 18.6711 27.9729C18.4825 27.2304 17.8182 26.7115 17.0556 26.7115H15.6945V25.0477H17.0555C17.818 25.0477 18.4823 24.5292 18.6708 23.7866C18.8701 23.0032 19.1817 22.2524 19.5971 21.5547C19.9884 20.8975 19.8854 20.0617 19.3461 19.5224L18.3822 18.5586L19.5587 17.3822L20.5224 18.3459C21.0617 18.8853 21.8975 18.9885 22.555 18.597C23.2527 18.1815 24.0035 17.8699 24.7867 17.6708C25.5293 17.482 26.0479 16.8177 26.0479 16.0554V14.6945H27.7115V16.0554C27.7115 16.8177 28.2301 17.482 28.9725 17.6708C29.7558 17.8699 30.5066 18.1815 31.2041 18.5968C31.8618 18.9886 32.6977 18.8851 33.2366 18.346L34.2004 17.3822L35.3768 18.5586L34.413 19.5225C33.8739 20.0619 33.7707 20.8978 34.1622 21.5549C34.5777 22.2526 34.8892 23.0035 35.0883 23.7867C35.2771 24.5292 35.9414 25.0477 36.7039 25.0477L38.0648 25.0477V26.7115H38.0651ZM44.6193 41.8655C44.3423 42.1727 44.0577 42.4729 43.7653 42.7653C43.4729 43.0576 43.1727 43.3423 42.8655 43.6192L47.6097 48.3634L49.3634 46.6096L44.6193 41.8655ZM65.7355 59.0514L53.1686 46.4845C53.0766 46.3925 52.9545 46.3464 52.8319 46.3464C52.7094 46.3464 52.5873 46.3925 52.4953 46.4845L47.4845 51.4953C47.3925 51.5873 47.3464 51.7095 47.3464 51.832C47.3464 51.9545 47.3925 52.0766 47.4845 52.1686L60.0514 64.7356C60.1434 64.8276 60.2655 64.8737 60.3881 64.8737C60.5106 64.8737 60.6327 64.8276 60.7247 64.7356L65.7355 59.7247C65.8276 59.6327 65.8736 59.5106 65.8736 59.3881C65.8736 59.2655 65.8276 59.1435 65.7355 59.0514ZM26.8798 7.55585C31.9397 7.55585 36.5207 9.60685 39.8367 12.9228C43.1527 16.2388 45.2037 20.8199 45.2037 25.8798C45.2037 30.9397 43.1527 35.5207 39.8367 38.8367C36.5207 42.1527 31.9397 44.2037 26.8798 44.2037C21.8199 44.2037 17.2388 42.1527 13.9228 38.8367C10.6068 35.5207 8.55585 30.9397 8.55585 25.8798C8.55585 20.8199 10.6068 16.2388 13.9228 12.9228C17.2388 9.60685 21.8199 7.55585 26.8798 7.55585ZM38.3333 14.4262C35.4022 11.4951 31.3527 9.68217 26.8798 9.68217C22.4068 9.68217 18.3573 11.4951 15.4262 14.4262C12.4951 17.3573 10.6822 21.4068 10.6822 25.8798C10.6822 30.3527 12.4951 34.4022 15.4262 37.3333C18.3573 40.2645 22.4068 42.0774 26.8798 42.0774C31.3527 42.0774 35.4022 40.2645 38.3333 37.3333C41.2645 34.4022 43.0774 30.3527 43.0774 25.8798C43.0774 21.4068 41.2645 17.3573 38.3333 14.4262ZM42.2619 10.4977C38.3254 6.56118 32.8869 4.12633 26.8798 4.12633C20.8727 4.12633 15.4342 6.56118 11.4977 10.4977C7.56118 14.4342 5.12633 19.8726 5.12633 25.8797C5.12633 31.8869 7.56118 37.3254 11.4977 41.2619C15.4342 45.1984 20.8726 47.6332 26.8798 47.6332C32.887 47.6332 38.3254 45.1984 42.2619 41.2619C46.1984 37.3254 48.6332 31.8869 48.6332 25.8797C48.6332 19.8726 46.1984 14.4342 42.2619 10.4977Z" fill="#295BB8"/>
</svg>
