<svg width="70" height="70" viewBox="0 0 70 70" fill="none" xmlns="http://www.w3.org/2000/svg">
<path fill-rule="evenodd" clip-rule="evenodd" d="M16.2804 31.4436V22.5592C16.2804 22.2654 16.3674 22.0314 16.5416 21.8565C16.7167 21.6807 16.9507 21.5932 17.2438 21.5932C17.5375 21.5932 17.7716 21.6815 17.9459 21.8577C18.12 22.0336 18.2073 22.2686 18.2073 22.5617V25.5571H21.2391V22.5617C21.2391 22.2686 21.3264 22.0336 21.5005 21.8577C21.6747 21.6816 21.9089 21.5932 22.2026 21.5932C22.4956 21.5932 22.7297 21.6807 22.9048 21.8565C23.0789 22.0313 23.166 22.2654 23.166 22.5592V31.4436C23.166 31.7368 23.0788 31.9717 22.9047 32.1477C22.7304 32.3238 22.4962 32.4122 22.2026 32.4122C21.9095 32.4122 21.6755 32.3245 21.5004 32.1488C21.3262 31.974 21.2391 31.7398 21.2391 31.4462V27.484H18.2073V31.4462C18.2073 31.7399 18.1201 31.974 17.946 32.1488C17.7709 32.3245 17.5368 32.4122 17.2438 32.4122C16.9502 32.4122 16.716 32.3238 16.5417 32.1477C16.3676 31.9717 16.2804 31.7368 16.2804 31.4436ZM16.0522 53.3009C15.4289 53.3009 14.9236 52.7956 14.9236 52.1723C14.9236 51.5491 15.4289 51.0438 16.0522 51.0438H53.5441C54.1674 51.0438 54.6727 51.5491 54.6727 52.1723C54.6727 52.7956 54.1674 53.3009 53.5441 53.3009H16.0522ZM16.0522 17.9819C15.4289 17.9819 14.9236 17.4766 14.9236 16.8533C14.9236 16.23 15.4289 15.7247 16.0522 15.7247H53.5441C54.1674 15.7247 54.6727 16.23 54.6727 16.8533C54.6727 17.4766 54.1674 17.9819 53.5441 17.9819H16.0522ZM35.5 0C45.0268 0 53.6518 3.8616 59.8951 10.1049C66.1384 16.3482 70 24.9732 70 34.5C70 44.0268 66.1384 52.6518 59.8951 58.8951C53.6518 65.1384 45.0268 69 35.5 69C25.9732 69 17.3482 65.1384 11.1049 58.8951C4.8616 52.6518 1 44.0268 1 34.5C1 24.9732 4.8616 16.3482 11.1049 10.1049C17.3482 3.8616 25.9732 0 35.5 0ZM58.2992 11.7008C52.4645 5.8661 44.4037 2.25718 35.5 2.25718C26.5963 2.25718 18.5355 5.86605 12.7008 11.7008C6.8661 17.5355 3.25718 25.5963 3.25718 34.5C3.25718 43.4037 6.8661 51.4645 12.7008 57.2992C18.5355 63.1339 26.5963 66.7428 35.5 66.7428C44.4037 66.7428 52.4645 63.1339 58.2992 57.2992C64.1339 51.4644 67.7428 43.4037 67.7428 34.5C67.7428 25.5963 64.1339 17.5355 58.2992 11.7008ZM28.1053 25.6377L27.3112 28.0212H28.9007L28.1053 25.6377ZM32.0327 31.4436C32.0327 31.7376 31.9448 31.9725 31.7699 32.1476V32.1494C31.5949 32.3243 31.3593 32.4122 31.0641 32.4122C30.8442 32.4122 30.6532 32.3544 30.4921 32.2389V32.2371C30.33 32.1207 30.2138 31.9582 30.1451 31.7498L30.1468 31.7493L29.5464 29.9481H26.6665L26.0659 31.7498V31.7535C25.9947 31.9625 25.8794 32.1244 25.7191 32.2392H25.7173C25.5561 32.3545 25.3661 32.4122 25.1462 32.4122C24.8518 32.4122 24.6171 32.3238 24.4421 32.1478C24.2673 31.9722 24.1802 31.7372 24.1802 31.4436C24.1802 31.3936 24.1839 31.3434 24.1915 31.2926C24.199 31.2421 24.2115 31.1907 24.2291 31.1382L24.2296 31.1384L27.1651 22.3142V22.3105C27.2392 22.0924 27.3537 21.9214 27.5073 21.7979C27.6769 21.6617 27.8768 21.5932 28.1052 21.5932C28.3335 21.5932 28.532 21.659 28.6997 21.7907C28.8557 21.9132 28.9701 22.0836 29.042 22.3014L29.0403 22.302L31.9838 31.14C32.0017 31.1937 32.0143 31.2446 32.0214 31.2926C32.0289 31.3434 32.0327 31.3936 32.0327 31.4436ZM33.0647 22.5592C33.0647 22.2654 33.1517 22.0314 33.326 21.8565C33.5011 21.6807 33.7351 21.5932 34.0282 21.5932C34.3218 21.5932 34.556 21.6815 34.7302 21.8577C34.9044 22.0336 34.9916 22.2686 34.9916 22.5617V30.4853H37.9717C38.264 30.4853 38.4985 30.5726 38.6737 30.7468C38.8492 30.9214 38.9377 31.1556 38.9377 31.4488C38.9377 31.7419 38.8492 31.9761 38.6737 32.1507C38.4985 32.325 38.264 32.4122 37.9717 32.4122H34.0282C33.7345 32.4122 33.5003 32.3238 33.3261 32.1477C33.1519 31.9717 33.0647 31.7368 33.0647 31.4436V22.5592ZM43.8872 25.6377L43.0931 28.0212H44.6826L43.8872 25.6377ZM47.8146 31.4436C47.8146 31.7376 47.7267 31.9725 47.5518 32.1476V32.1494C47.3768 32.3243 47.1413 32.4122 46.846 32.4122C46.6261 32.4122 46.4351 32.3544 46.274 32.2389V32.2371C46.1119 32.1207 45.9957 31.9582 45.927 31.7498L45.9287 31.7493L45.3283 29.9481H42.4484L41.8478 31.7498V31.7535C41.7766 31.9625 41.6613 32.1244 41.501 32.2392H41.4992C41.338 32.3545 41.148 32.4122 40.9281 32.4122C40.6337 32.4122 40.399 32.3238 40.224 32.1478C40.0492 31.9722 39.9621 31.7372 39.9621 31.4436C39.9621 31.3936 39.9658 31.3434 39.9734 31.2926C39.9809 31.2421 39.9934 31.1907 40.011 31.1382L40.0116 31.1384L42.947 22.3142V22.3105C43.0211 22.0924 43.1356 21.9214 43.2892 21.7979C43.4589 21.6617 43.6587 21.5932 43.8871 21.5932C44.1155 21.5932 44.3139 21.659 44.4816 21.7907C44.6376 21.9132 44.752 22.0836 44.8239 22.3014L44.8223 22.302L47.7657 31.14C47.7836 31.1937 47.7962 31.2446 47.8033 31.2926C47.8108 31.3434 47.8146 31.3936 47.8146 31.4436ZM48.8466 22.5592C48.8466 22.2654 48.9336 22.0314 49.1079 21.8565C49.283 21.6807 49.517 21.5932 49.8101 21.5932C50.1037 21.5932 50.3379 21.6815 50.5121 21.8577C50.6863 22.0336 50.7735 22.2686 50.7735 22.5617V30.4853H53.7536C54.0459 30.4853 54.2804 30.5726 54.4556 30.7468C54.6311 30.9214 54.7196 31.1556 54.7196 31.4488C54.7196 31.7419 54.6311 31.9761 54.4556 32.1507C54.2804 32.325 54.0459 32.4122 53.7536 32.4122H49.8101C49.5164 32.4122 49.2822 32.3238 49.108 32.1477C48.9338 31.9717 48.8466 31.7368 48.8466 31.4436V22.5592ZM20.7328 46.4409V37.5692C20.7328 37.2754 20.8198 37.0414 20.994 36.8666C21.1692 36.6907 21.4032 36.6032 21.6963 36.6032H25.6398C25.9321 36.6032 26.1666 36.6904 26.3418 36.8647C26.5173 37.0393 26.6058 37.2735 26.6058 37.5666C26.6058 37.8598 26.5173 38.094 26.3418 38.2686C26.1666 38.4428 25.9321 38.5301 25.6398 38.5301H22.6597V40.5518H25.6398C25.9321 40.5518 26.1666 40.6391 26.3418 40.8134C26.5173 40.988 26.6058 41.2221 26.6058 41.5153C26.6058 41.8085 26.5173 42.0426 26.3418 42.2172C26.1666 42.3915 25.9321 42.4788 25.6398 42.4788H22.6597V46.4409C22.6597 46.7346 22.5726 46.9688 22.3985 47.1436C22.2234 47.3193 21.9892 47.4069 21.6963 47.4069C21.4031 47.4069 21.1691 47.3193 20.994 47.1436C20.8198 46.9687 20.7328 46.7346 20.7328 46.4409ZM32.5813 43.9794V40.0307C32.5813 39.8135 32.5458 39.6182 32.4745 39.4447C32.4031 39.2708 32.294 39.1107 32.1473 38.9645C32.0001 38.8192 31.8375 38.7102 31.6594 38.6381C31.4819 38.5662 31.284 38.5301 31.0654 38.5301C30.8468 38.5301 30.6489 38.5662 30.4714 38.6381C30.2933 38.7102 30.1307 38.8192 29.9835 38.9645C29.8367 39.1107 29.7277 39.2707 29.6563 39.4447C29.5851 39.6182 29.5495 39.8135 29.5495 40.0307V43.9794C29.5495 44.1965 29.5851 44.3919 29.6563 44.5654C29.7277 44.7394 29.8367 44.8994 29.9835 45.0456C30.1308 45.1909 30.2933 45.2999 30.4714 45.372C30.6489 45.4439 30.8468 45.48 31.0654 45.48C31.284 45.48 31.4819 45.4439 31.6594 45.372C31.8375 45.2999 32.0001 45.1909 32.1473 45.0456C32.294 44.8994 32.4031 44.7393 32.4745 44.5654C32.5458 44.3919 32.5813 44.1965 32.5813 43.9794ZM34.5083 43.9768C34.5083 44.4464 34.4233 44.8848 34.2537 45.292C34.085 45.6974 33.8331 46.0668 33.4987 46.3999L33.4997 46.4008C33.1678 46.7327 32.7961 46.9834 32.3857 47.1529C31.9756 47.3223 31.5351 47.4069 31.0654 47.4069C30.5957 47.4069 30.1552 47.3223 29.7452 47.1529C29.3348 46.9834 28.963 46.7327 28.6312 46.4008L28.6321 46.3999C28.2977 46.0668 28.0459 45.6974 27.8771 45.292C27.7075 44.8848 27.6226 44.4464 27.6226 43.9768V40.0333C27.6226 39.5637 27.7076 39.1253 27.877 38.7181C28.0459 38.3128 28.2977 37.9433 28.6321 37.6102L28.6312 37.6093C28.963 37.2774 29.3348 37.0267 29.7452 36.8572C30.1552 36.6878 30.5957 36.6032 31.0654 36.6032C31.5367 36.6032 31.9779 36.6875 32.3882 36.8559C32.797 37.0235 33.1678 37.2731 33.5003 37.6041C33.8344 37.9367 34.0858 38.3068 34.2547 38.7149C34.4238 39.1232 34.5083 39.5625 34.5083 40.0333V43.9768ZM40.4736 43.9794V40.0307C40.4736 39.8135 40.438 39.6182 40.3667 39.4447C40.2954 39.2708 40.1863 39.1107 40.0396 38.9645C39.8923 38.8192 39.7297 38.7102 39.5516 38.6381C39.3741 38.5662 39.1762 38.5301 38.9576 38.5301C38.739 38.5301 38.5411 38.5662 38.3637 38.6381C38.1855 38.7102 38.0229 38.8192 37.8757 38.9645C37.7289 39.1107 37.6199 39.2707 37.5485 39.4447C37.4773 39.6182 37.4417 39.8135 37.4417 40.0307V43.9794C37.4417 44.1965 37.4773 44.3919 37.5485 44.5654C37.6199 44.7394 37.7289 44.8994 37.8757 45.0456C38.023 45.1909 38.1855 45.2999 38.3637 45.372C38.5411 45.4439 38.739 45.48 38.9576 45.48C39.1762 45.48 39.3741 45.4439 39.5516 45.372C39.7297 45.2999 39.8923 45.1909 40.0396 45.0456C40.1863 44.8994 40.2954 44.7393 40.3667 44.5654C40.438 44.3919 40.4736 44.1965 40.4736 43.9794ZM42.4005 43.9768C42.4005 44.4464 42.3155 44.8848 42.146 45.292C41.9772 45.6974 41.7253 46.0668 41.3909 46.3999L41.3919 46.4008C41.06 46.7327 40.6883 46.9834 40.2779 47.1529C39.8678 47.3223 39.4273 47.4069 38.9576 47.4069C38.4879 47.4069 38.0475 47.3223 37.6374 47.1529C37.227 46.9834 36.8553 46.7327 36.5234 46.4008L36.5243 46.3999C36.1899 46.0668 35.9381 45.6974 35.7693 45.292C35.5998 44.8848 35.5148 44.4464 35.5148 43.9768V40.0333C35.5148 39.5637 35.5998 39.1253 35.7692 38.7181C35.9381 38.3128 36.1899 37.9433 36.5243 37.6102L36.5234 37.6093C36.8553 37.2774 37.227 37.0267 37.6374 36.8572C38.0475 36.6878 38.4879 36.6032 38.9576 36.6032C39.4289 36.6032 39.8701 36.6875 40.2804 36.8559C40.6892 37.0235 41.06 37.2731 41.3925 37.6041C41.7266 37.9367 41.978 38.3068 42.1469 38.7149C42.3161 39.1232 42.4005 39.5625 42.4005 40.0333V43.9768ZM43.407 37.5692C43.407 37.2743 43.4955 37.0395 43.6716 36.8647C43.8476 36.6901 44.0824 36.6032 44.3756 36.6032H47.3447C47.7527 36.6032 48.1324 36.6744 48.4833 36.817C48.8361 36.9603 49.1542 37.1733 49.4371 37.4562L49.4362 37.4571C49.7193 37.7389 49.9328 38.0553 50.0763 38.4056C50.2204 38.7575 50.2927 39.136 50.2927 39.541V44.4691C50.2927 44.8709 50.2198 45.2469 50.0745 45.5968C49.9292 45.9468 49.714 46.2643 49.4295 46.5488H49.4276C49.1425 46.8324 48.8247 47.0462 48.475 47.19C48.1232 47.3346 47.7463 47.4069 47.3447 47.4069H44.3756C44.0824 47.4069 43.8476 47.3199 43.6716 47.1454C43.4955 46.9705 43.407 46.7357 43.407 46.4409V37.5692ZM45.3339 38.5301V45.48H47.3473C47.4939 45.48 47.6249 45.456 47.7407 45.4083C47.8587 45.3597 47.969 45.2846 48.0721 45.1833C48.1714 45.0845 48.2453 44.9768 48.2937 44.8605C48.3418 44.7451 48.3658 44.6154 48.3658 44.4717V39.5358C48.3658 39.3934 48.3417 39.2643 48.2936 39.149C48.2453 39.0332 48.1714 38.9256 48.0721 38.8268C47.969 38.7255 47.8587 38.6504 47.7407 38.6018C47.6249 38.5541 47.4939 38.5301 47.3473 38.5301H45.3339Z" fill="#295BB8"/>
</svg>
