<svg width="70" height="70" viewBox="0 0 70 70" fill="none" xmlns="http://www.w3.org/2000/svg">
<path d="M26.8798 2C33.4739 2 39.4439 4.67288 43.7653 8.9943C48.0867 13.3157 50.7596 19.2857 50.7596 25.8798C50.7596 31.2599 48.9801 36.2245 45.9778 40.2172L50.8668 45.1063L50.9919 44.9812C51.4993 44.4739 52.166 44.2201 52.832 44.2201C53.498 44.2201 54.1647 44.4739 54.672 44.9812L67.2389 57.5481C67.7463 58.0555 68 58.7221 68 59.3881C68 60.0542 67.7463 60.7209 67.2389 61.2282L62.2282 66.239C61.7208 66.7464 61.0542 67 60.3881 67C59.7221 67 59.0554 66.7464 58.548 66.239L45.9811 53.6721C45.4739 53.1648 45.2201 52.498 45.2201 51.832C45.2201 51.166 45.4739 50.4993 45.9811 49.992L46.1063 49.8668L41.2172 44.9777C37.2245 47.98 32.26 49.7596 26.8798 49.7596C20.2857 49.7596 14.3157 47.0867 9.9943 42.7653C5.67288 38.4439 3 32.4739 3 25.8798C3 19.2857 5.67288 13.3157 9.9943 8.9943C14.3157 4.67288 20.2857 2 26.8798 2ZM21.441 20.441H23.5977V22.5977H21.441V20.441ZM31.2402 27.9428C31.2402 29.3743 32.3049 29.1619 33.4439 29.1619C34.0278 29.1619 34.5223 28.7363 34.5223 28.1773V27.9428C34.5223 26.7691 33.0757 26.9582 32.3187 26.9582C31.7347 26.9582 31.2402 27.3838 31.2402 27.9428ZM27.9582 28.0366C27.9582 28.6804 27.8591 29.4818 28.2041 29.9006C28.7146 30.5206 30.1619 30.3193 30.1619 29.2556C30.1619 28.2983 30.405 26.9582 29.0366 26.9582C28.4096 26.9582 27.9582 27.4096 27.9582 28.0366ZM29.0366 32.397C29.0366 33.028 29.47 33.5223 30.1149 33.5223H33.5376C34.0574 33.5223 34.5223 33.0574 34.5223 32.5376C34.5223 31.8927 34.2247 31.3186 33.4908 31.3186H30.1619C29.5052 31.3186 29.0366 31.8045 29.0366 32.397ZM21.441 29.1619H23.5977V31.3186H21.441V29.1619ZM19.2373 27.9428V32.5376C19.2373 33.0574 19.7022 33.5223 20.222 33.5223H24.8168C25.3758 33.5223 25.8014 33.0278 25.8014 32.4439V28.0366C25.8014 27.4096 25.35 26.9582 24.723 26.9582H20.3157C19.7318 26.9582 19.2373 27.3838 19.2373 27.9428ZM30.1619 20.441H32.3187V22.5977H30.1619V20.441ZM27.9582 19.3157V23.723C27.9582 24.35 28.4096 24.8014 29.0366 24.8014H33.4439C34.0278 24.8014 34.5223 24.3758 34.5223 23.8168V19.222C34.5223 18.7022 34.0574 18.2373 33.5376 18.2373H28.9428C28.3838 18.2373 27.9582 18.7318 27.9582 19.3157ZM19.2373 19.222V23.8168C19.2373 24.3758 19.7318 24.8014 20.3157 24.8014H24.723C25.35 24.8014 25.8014 24.35 25.8014 23.723V19.3157C25.8014 18.7318 25.3758 18.2373 24.8168 18.2373H20.222C19.7022 18.2373 19.2373 18.7022 19.2373 19.222ZM44.6193 41.8655C44.3423 42.1727 44.0577 42.4729 43.7653 42.7653C43.4729 43.0577 43.1727 43.3423 42.8655 43.6193L47.6097 48.3634L49.3635 46.6097L44.6193 41.8655ZM65.7356 59.0515L53.1686 46.4846C53.0766 46.3926 52.9545 46.3465 52.832 46.3465C52.7094 46.3465 52.5873 46.3926 52.4953 46.4846L47.4845 51.4953C47.3925 51.5874 47.3464 51.7095 47.3464 51.832C47.3464 51.9546 47.3925 52.0767 47.4845 52.1687L60.0514 64.7356C60.1435 64.8277 60.2656 64.8737 60.3881 64.8737C60.5107 64.8737 60.6327 64.8277 60.7248 64.7356L65.7356 59.7248C65.8276 59.6327 65.8737 59.5107 65.8737 59.3881C65.8737 59.2656 65.8276 59.1435 65.7356 59.0515ZM26.8798 7.55585C31.9397 7.55585 36.5207 9.60686 39.8367 12.9229C43.1527 16.2389 45.2038 20.8199 45.2038 25.8798C45.2038 30.9397 43.1527 35.5207 39.8367 38.8367C36.5207 42.1527 31.9397 44.2038 26.8798 44.2038C21.8199 44.2038 17.2389 42.1527 13.9229 38.8367C10.6069 35.5207 8.55585 30.9397 8.55585 25.8798C8.55585 20.8199 10.6069 16.2389 13.9229 12.9229C17.2389 9.60686 21.8199 7.55585 26.8798 7.55585ZM38.3334 14.4262C35.4022 11.4951 31.3528 9.68218 26.8798 9.68218C22.4068 9.68218 18.3574 11.4951 15.4262 14.4262C12.4951 17.3574 10.6822 21.4068 10.6822 25.8798C10.6822 30.3528 12.4951 34.4022 15.4262 37.3334C18.3574 40.2645 22.4068 42.0774 26.8798 42.0774C31.3528 42.0774 35.4022 40.2645 38.3334 37.3334C41.2645 34.4022 43.0774 30.3528 43.0774 25.8798C43.0774 21.4068 41.2645 17.3574 38.3334 14.4262ZM42.2619 10.4977C38.3254 6.56118 32.8869 4.12633 26.8798 4.12633C20.8727 4.12633 15.4342 6.56118 11.4977 10.4977C7.56119 14.4342 5.12633 19.8726 5.12633 25.8798C5.12633 31.8869 7.56119 37.3254 11.4977 41.2619C15.4342 45.1984 20.8726 47.6333 26.8798 47.6333C32.887 47.6333 38.3254 45.1984 42.2619 41.2619C46.1984 37.3254 48.6333 31.8869 48.6333 25.8798C48.6333 19.8726 46.1984 14.4342 42.2619 10.4977Z" fill="#295BB8"/>
</svg>
