<svg width="70" height="70" viewBox="0 0 70 70" fill="none" xmlns="http://www.w3.org/2000/svg">
<path d="M44.9532 63.8685L31.7878 36.6601C31.4384 35.938 31.2538 35.1324 31.2538 34.3304V21.9007H32.3269C32.9147 21.9007 33.3914 21.4241 33.3914 20.8362V16.5608C33.3914 15.9728 32.9147 15.4963 32.3269 15.4963H16.2941C15.7062 15.4963 15.2296 15.9728 15.2296 16.5608V20.8362C15.2296 21.4241 15.7062 21.9007 16.2941 21.9007H17.3673V34.3304C17.3673 35.1324 17.1827 35.938 16.8332 36.6601L3.66777 63.8685C2.29688 66.7023 4.35885 70 7.51253 70L41.1085 69.9999C44.2564 69.9999 46.3268 66.7073 44.9533 63.8685H44.9532ZM39.0017 9.44231L40.4958 6.85437L40.4942 6.85341L42.4423 3.47923C42.6194 3.17338 42.9401 3.00242 43.2698 3.00209V3H51.0621C51.4413 3 51.7689 3.22012 51.9244 3.53953L53.8378 6.85341C53.848 6.87106 53.8575 6.88894 53.8665 6.90696L55.5069 9.74831H62.7505C63.1296 9.74831 63.4573 9.96843 63.6128 10.2878L65.5262 13.6018C65.5364 13.6195 65.5459 13.6373 65.5549 13.6553L67.4742 16.9797C67.6523 17.2896 67.6371 17.6576 67.4664 17.9443L65.5245 21.3077L65.5262 21.3087L63.578 24.6828C63.4008 24.9887 63.0802 25.1596 62.7505 25.16V25.1621H55.4667L52.4968 29.5652C52.5278 29.5944 52.5586 29.6241 52.5887 29.6542C53.322 30.3875 53.7756 31.4005 53.7756 32.5193C53.7756 33.3625 53.5179 34.1457 53.077 34.7943L55.9086 37.6259C56.5057 37.2793 57.1994 37.0809 57.9394 37.0809C59.0582 37.0809 60.0712 37.5345 60.8045 38.2678C61.5378 39.0011 61.9914 40.0141 61.9914 41.1329C61.9914 42.2518 61.5378 43.2648 60.8045 43.9981C60.0712 44.7314 59.0582 45.185 57.9394 45.185C56.8205 45.185 55.8075 44.7314 55.0742 43.9981C54.3409 43.2648 53.8873 42.2518 53.8873 41.1329C53.8873 40.3301 54.1209 39.5816 54.5238 38.952L51.6543 36.0826C51.0802 36.3943 50.4225 36.5714 49.7235 36.5714C48.6047 36.5714 47.5917 36.1178 46.8583 35.3845C46.125 34.6512 45.6714 33.6381 45.6714 32.5193C45.6714 31.4005 46.125 30.3875 46.8583 29.6542C47.5917 28.9208 48.6047 28.4672 49.7235 28.4672C50.1054 28.4672 50.4748 28.5201 50.8251 28.6189L53.8306 24.1631L52.1826 21.3087C52.1724 21.2911 52.1628 21.2732 52.1539 21.2552L50.5135 18.4138H43.2698C42.8907 18.4138 42.563 18.1937 42.4075 17.8743L40.4942 14.5603C40.484 14.5427 40.4744 14.5248 40.4655 14.5068L38.6916 11.4344L35.5039 9.81018C35.4373 9.8875 35.368 9.96235 35.2959 10.0344C34.5626 10.7677 33.5495 11.2213 32.4307 11.2213C31.3119 11.2213 30.2989 10.7677 29.5656 10.0344C28.8323 9.30113 28.3786 8.28807 28.3786 7.16926C28.3786 6.0504 28.8323 5.03738 29.5656 4.30408C30.2989 3.57077 31.3119 3.11717 32.4307 3.11717C33.5495 3.11717 34.5626 3.57077 35.2959 4.30408C36.0292 5.03738 36.4828 6.0504 36.4828 7.16926C36.4828 7.49081 36.4453 7.80366 36.3745 8.10362L39.0017 9.44231ZM57.9394 38.9981C57.3497 38.9981 56.816 39.237 56.4297 39.6233C56.0434 40.0096 55.8044 40.5433 55.8044 41.1329C55.8044 41.7226 56.0434 42.2564 56.4297 42.6426C56.816 43.0289 57.3497 43.2679 57.9394 43.2679C58.529 43.2679 59.0627 43.0289 59.4491 42.6426C59.8353 42.2564 60.0743 41.7226 60.0743 41.1329C60.0743 40.5433 59.8353 40.0096 59.4491 39.6233C59.0627 39.237 58.529 38.9981 57.9394 38.9981ZM51.2332 31.0096C50.8469 30.6234 50.3131 30.3844 49.7235 30.3844C49.1339 30.3844 48.6001 30.6234 48.2138 31.0096C47.8276 31.396 47.5886 31.9297 47.5886 32.5193C47.5886 33.1089 47.8276 33.6427 48.2138 34.029C48.6001 34.4153 49.1339 34.6542 49.7235 34.6542C50.3131 34.6542 50.8469 34.4153 51.2332 34.029C51.6195 33.6427 51.8584 33.1089 51.8584 32.5193C51.8584 31.9297 51.6195 31.396 51.2332 31.0096ZM33.9404 5.65956C33.5541 5.27329 33.0203 5.03434 32.4307 5.03434C31.841 5.03434 31.3073 5.27329 30.921 5.65956C30.5347 6.04588 30.2958 6.57961 30.2958 7.16926C30.2958 7.75886 30.5347 8.29263 30.921 8.67895C31.3073 9.06522 31.841 9.30417 32.4307 9.30417C33.0203 9.30417 33.5541 9.06522 33.9404 8.67895C34.3267 8.29263 34.5656 7.75886 34.5656 7.16926C34.5656 6.57961 34.3267 6.04588 33.9404 5.65956ZM53.8377 14.5603H53.8378L52.1652 17.4572L53.8069 20.3007C53.8176 20.3167 53.8279 20.3332 53.8377 20.3501L55.5091 23.2449H62.1997L63.8711 20.3501L63.8727 20.351L65.5446 17.4552L63.9018 14.6098C63.8912 14.5938 63.8808 14.5773 63.8711 14.5604L62.1997 11.6655H55.5091L53.8377 14.5603ZM52.1827 13.6018L52.1826 13.6018L53.8551 10.705L52.2134 7.86143C52.2028 7.84536 52.1924 7.82891 52.1827 7.81202L50.5113 4.91712H43.8207L42.1493 7.81202L42.1476 7.81107L40.4758 10.7069L42.1186 13.5523C42.1292 13.5684 42.1395 13.5848 42.1493 13.6017L43.8207 16.4967H50.5113L52.1827 13.6018ZM17.3587 19.7717V17.6253H31.2625V19.7717H17.3587ZM18.7498 37.5873C19.2381 36.5779 19.4963 35.4516 19.4963 34.3303V21.9007H29.1248V34.3304C29.1248 35.4517 29.383 36.5779 29.8714 37.5874L31.5948 41.1492H17.0263L18.7498 37.5873ZM42.9233 66.8668C42.5231 67.5048 41.8616 67.8709 41.1085 67.8709H7.51248C6.75935 67.8709 6.09784 67.5048 5.69769 66.8668C4.9922 65.7418 5.64262 64.6978 5.65213 64.6555L8.8119 64.6555C9.3997 64.6555 9.87641 64.1788 9.87641 63.591C9.87641 63.0031 9.3997 62.5265 8.8119 62.5265H6.68236L8.23818 59.3112H10.9498C11.5377 59.3112 12.0143 58.8344 12.0143 58.2466C12.0143 57.6588 11.5377 57.1821 10.9498 57.1821L9.26845 57.1821L10.8243 53.9668H14.1563C14.7443 53.9668 15.2208 53.4901 15.2208 52.9023C15.2208 52.3144 14.7443 51.8378 14.1563 51.8378H11.8544L13.4102 48.6225H16.2941C16.882 48.6225 17.3586 48.1457 17.3586 47.5579C17.3586 46.9701 16.882 46.4934 16.2941 46.4934L14.4404 46.4934L15.9962 43.2781L32.625 43.2782L43.0368 64.7958C43.3648 65.4738 43.3234 66.2287 42.9233 66.8668H42.9233Z" fill="#295BB8"/>
</svg>
