<svg width="70" height="70" viewBox="0 0 70 70" fill="none" xmlns="http://www.w3.org/2000/svg">
<path fill-rule="evenodd" clip-rule="evenodd" d="M59.3988 52.245C61.4661 52.2442 63.4204 51.6668 65.1589 50.8411C65.7504 50.5603 65.5899 50.1532 65.5886 48.8735L65.577 47.2888C64.8793 47.1948 63.5854 48.0228 62.8768 48.2837C61.989 48.6104 60.6596 48.8735 59.6607 48.8958C58.8183 48.9146 57.2832 48.6455 56.4631 48.2677C56.2307 48.1608 56.0853 48.0247 55.8806 47.91C55.4858 47.6887 55.6272 47.7916 55.3136 47.5248C54.0853 46.4802 53.424 45.3353 53.4539 43.6113C53.4909 41.4848 54.7354 39.9863 56.5324 39.1203C58.4293 38.2061 61.4496 38.4436 63.3334 39.2521C63.605 39.3688 63.669 39.4354 63.9023 39.5221C64.3977 39.7062 64.7972 39.915 65.3614 39.8361L65.362 36.6199C64.4181 35.8262 62.4728 35.4918 61.1989 35.2479C60.2748 35.071 58.2244 35.1941 57.173 35.3269C56.0943 35.463 56.6916 35.4059 55.9498 35.5771C53.3732 36.1714 51.2766 37.8446 50.0702 40.1609C49.5821 41.0983 49.4806 41.8745 49.2714 42.8946C49.0937 43.7606 49.2485 44.649 49.3821 45.4467C49.8277 48.1066 52.0341 50.5627 54.5142 51.5027C56.2126 52.1465 57.4151 52.2458 59.3988 52.245ZM23.9999 15.3031C23.8985 14.5222 25.0832 11.6968 25.5435 11.0572C27.1555 8.81647 27.6105 7.53868 30.3992 5.6448C30.9658 5.26001 33.3383 3.85697 34.0958 3.97865C34.635 3.92934 37.1387 3.32956 37.7709 3.53109L37.9108 3.60527C37.9311 3.61554 37.9613 3.63428 37.9824 3.65406L37.1754 4.07543C36.8434 4.23687 37.0379 4.3712 35.6324 4.9473C35.6144 4.95472 35.5905 4.9628 35.5735 4.97084L35.3771 5.10189C35.1871 5.24921 35.1139 5.31426 34.867 5.46006C34.6057 5.61404 34.625 5.6274 34.4173 5.77995C34.1398 5.98376 34.0691 5.92879 33.9476 6.24078L32.7872 7.26706C32.7724 7.27795 32.7502 7.29141 32.7357 7.3023C32.4158 7.54177 32.4262 7.68752 32.0115 8.11977C31.2176 8.94748 30.5148 9.86362 29.909 10.8417C29.7733 11.0608 29.7573 11.2639 29.6148 11.5066C29.4352 11.8123 29.4411 11.68 29.3107 12.1149C28.9295 13.3861 28.3913 14.7062 28.6659 16.3906L29.2159 16.3981L29.6278 15.3326C29.7727 14.8644 29.8833 14.596 30.0871 14.2227C30.7703 12.9718 31.0849 12.4125 32.0005 11.3849L32.6847 10.5072C33.0022 10.1193 33.2234 10.1736 33.5439 9.82391C34.3949 8.89521 34.2103 9.32695 34.8645 8.72807C35.6235 8.03318 34.9801 8.45683 35.7609 8.09409C36.6674 7.67292 37.1173 7.20795 37.4203 7.09387L38.3008 6.67517C41.9302 5.37542 42.2927 6.08257 43.7256 5.81856C44.0159 6.12656 44.2184 6.0287 44.6337 6.11985C44.9853 6.19708 45.1086 6.34292 45.5174 6.43755C46.5145 6.66832 47.5593 7.80293 47.9153 8.87933C48.1804 9.68083 47.8937 10.2762 48.9227 10.0236C49.1427 9.11956 49.2182 8.4399 49.1937 7.39231C49.1538 5.68831 49.1669 6.87594 48.6124 5.14093C48.2534 4.01727 46.543 2.77676 45.0268 2.70139C44.1464 2.42692 43.0588 2.86944 42.3302 2.46529C41.9182 2.23694 41.9896 2.51023 41.6036 2.25559C41.6035 2.25559 39.484 1.41039 38.2488 1.21827C37.8975 1.16368 37.5362 1.20462 37.1873 1.12379C35.9003 0.82544 32.952 1.11879 32.0519 1.45009L30.2834 2.02082L27.3865 3.66253C24.9982 5.26957 23.5783 7.3751 22.4768 10.0447C22.1665 10.7968 21.7449 12.8478 21.6303 13.7797C21.5352 14.5534 21.6715 15.3543 21.5795 16.1202C21.4064 17.2342 22.6906 21.1885 23.4802 22.2724C23.6988 22.5726 23.9803 22.5828 24.2656 22.4463C24.3285 22.0923 24.284 21.9487 24.1793 21.6296C24.0727 21.3044 24.1076 21.2118 24.0271 20.8699C23.7547 19.7127 23.7095 18.3491 23.782 17.1348C23.8161 16.5616 23.9956 15.7467 23.9999 15.3031ZM37.6521 27.8246L36.2294 27.9013C36.4232 27.4569 36.1737 27.8824 36.3719 27.6709C36.7082 27.312 37.8364 26.7953 38.1263 26.5653C39.9626 25.1083 38.9313 25.9885 40.3761 24.3331C40.8758 23.7605 41.2988 23.1178 41.8482 22.6084L42.0228 22.3658C42.0355 22.3436 42.0701 22.2765 42.0824 22.2536L43.1821 19.4876C43.3143 18.9804 43.7701 16.7888 43.76 16.2758C43.7526 15.8952 43.7291 15.4963 43.6174 15.2037C43.2891 15.1632 43.036 15.1368 42.8437 15.3285C42.8379 15.3343 42.7536 15.454 42.7429 15.4775L42.3677 16.8181C42.088 18.336 41.9791 17.8689 41.4455 18.9292L40.6184 20.1708C40.1843 20.8412 40.4318 20.4404 40.1889 20.6958C40.0121 20.8817 40.0812 21.1655 38.8308 22.4381C38.6592 22.6126 38.5113 22.7397 38.3324 22.894L37.4718 23.5832C36.3737 24.3313 35.3468 25.1152 34.0118 25.6374C33.2136 25.9497 31.4207 26.2815 30.596 26.2757C29.9867 26.2716 29.307 26.2713 28.7726 26.0917C28.5732 26.0247 28.3012 25.8597 28.1026 25.7423C27.3569 25.3017 27.385 25.0299 27.1308 24.7404C26.3751 23.8799 26.5982 23.2585 26.2172 23.0524C26.1219 23.0008 26.2163 23.0074 26.0326 23.0102C25.38 23.0198 25.6656 25.3579 25.6915 25.477C25.9806 26.8041 26.7182 27.8622 27.8224 28.5242L29.2201 29.101C29.9177 29.2062 30.9866 29.0183 31.5893 29.3323C32.7664 29.9457 34.8885 30.5609 36.3735 30.5509C36.8141 30.5479 38.6453 30.6651 38.9877 30.3842C40.3933 30.3199 42.5876 29.397 43.7589 28.6601C45.5713 27.5198 47.0274 25.9286 48.0135 24.0332C50.144 19.938 49.942 15.7299 47.7171 11.7459C47.1777 10.7799 46.9049 10.5395 46.2709 9.82758C45.6829 9.16717 45.3152 9.52386 45.6869 10.1468C45.8354 10.3957 45.8824 10.5037 45.9989 10.7898C47.0826 13.452 47.6154 15.5436 47.0043 18.6468C46.76 19.8877 46.7296 19.8049 46.3389 20.7266C45.2918 23.196 44.7974 23.4635 43.307 25.112C42.9117 25.5493 41.6489 26.3164 41.1207 26.6175C40.2533 27.1123 38.5665 27.7371 37.6521 27.8246ZM50.0302 61.7228C50.0302 64.5147 50.847 67.7494 54.2239 67.907C55.919 67.9862 57.0065 67.5041 57.8377 66.4514C58.8089 65.2213 59.0765 63.4791 59.074 61.809C59.07 58.9491 57.9459 56.0117 54.573 55.9899C52.8652 55.9789 51.93 56.5869 51.1562 57.7059C50.4822 58.6805 50.0302 60.2447 50.0302 61.7228ZM12.4566 60.4292C12.9373 60.7522 13.2035 60.7003 13.635 60.3747C13.7905 59.1358 13.9073 58.0212 14.9004 57.5035C15.8995 56.9826 17.3046 57.1763 18.1952 57.8135C19.0176 58.4019 18.9949 60.0446 18.2505 60.8505C16.5869 62.6514 14.974 63.254 13.3268 64.7242C13.314 64.7356 13.2934 64.7507 13.2812 64.7624C12.9116 65.1119 12.1323 66.4619 12.2493 67.3198C12.3335 67.9384 13.1679 67.7441 13.8656 67.7441C15.696 67.744 18.5053 67.838 20.1399 67.7252C20.3022 67.5047 20.6707 66.7813 20.1129 66.5907C19.7802 66.3251 14.6498 66.5367 13.7417 66.4976C13.7993 65.963 14.1739 65.7581 14.4866 65.4509C16.3252 63.6448 20.8295 62.1351 19.94 58.3556C19.2979 55.6272 14.7935 55.016 13.0645 57.4718C12.6044 58.1253 12.301 59.3636 12.4566 60.4292ZM23.0765 60.4952C23.3124 60.0836 23.192 59.7042 23.3219 59.1591C23.6463 57.7978 24.6992 57.1209 26.2817 57.2373C28.4734 57.3986 29.0864 59.4943 27.7582 60.9595C27.3149 61.4485 26.628 62.0124 26.0545 62.4391C25.7152 62.6917 25.4126 62.8402 25.0541 63.0839C23.8144 63.9268 21.1814 65.8244 21.8857 67.6932C22.6739 67.8447 27.2729 67.7588 28.6985 67.7596C29.7777 67.7604 30.0642 67.9146 29.9345 66.7246C29.4084 66.3282 27.6361 66.4949 26.8874 66.4974C25.7216 66.5011 24.5548 66.5205 23.3887 66.5071C23.435 65.7571 24.4827 65.1398 25.2368 64.5562C26.543 63.5452 28.4092 62.5409 29.171 61.0555C31.777 55.9752 23.9937 54.1 22.3548 58.0486C22.1818 58.4652 22.0782 59.1782 22.0281 59.6547C21.9328 60.563 22.2749 60.7236 23.0765 60.4952ZM30.8989 61.809C30.8989 63.4472 31.1758 65.2642 32.1608 66.4514C33.0223 67.4898 34.2482 68.1747 35.7352 67.9609C37.0793 67.7676 38.2249 67.2565 38.9183 66.0814C40.478 63.4377 40.7232 56.1872 35.5145 55.992C34.086 55.9385 32.4797 56.6459 31.9685 57.6635C31.3126 58.9689 30.8989 60.0325 30.8989 61.809ZM38.6577 61.8953C38.6529 59.6168 37.9485 57.368 35.413 57.1935C32.7809 57.0123 32.1688 59.8931 32.171 61.9815C32.1734 64.4878 32.959 66.7831 35.5132 66.7219C37.7849 66.6674 38.6627 64.2671 38.6577 61.8953ZM44.3992 56.0127C41.1269 56.5681 40.3387 59.5482 40.4935 62.5856C40.6467 65.5908 42.2967 68.4132 45.541 67.9379C46.9502 67.7313 47.9357 67.1811 48.6092 65.8441C49.8482 63.3848 49.758 59.5082 48.1722 57.3366C47.9157 56.9854 47.0585 56.4127 46.6964 56.2404C46.1001 55.9568 45.0289 55.9059 44.3992 56.0127ZM41.7062 61.7228C41.7016 64.1013 42.3977 66.7267 44.9975 66.7146C48.5885 66.6979 48.8081 61.1272 47.4858 58.6245C46.2567 56.2983 41.7173 56.467 41.7062 61.7228ZM53.718 57.3247C52.6416 57.7625 52.125 58.1557 51.7157 59.2841C50.608 62.3374 51.5883 67.6713 55.4376 66.616C55.8599 66.5002 56.3772 66.0988 56.6447 65.8629C57.0342 65.5192 57.2157 65.1633 57.3966 64.6562C57.7809 63.5785 57.9435 62.4298 57.7886 61.0617C57.6467 59.8096 57.4686 59.0962 56.7653 58.1452C56.3387 57.5685 54.8479 56.8653 53.718 57.3247ZM17.2116 45.0223L17.3403 45.108L17.2859 42.3396C16.4067 42.0371 10.6508 42.3503 10.2717 42.2002C9.90231 42.0539 10.1124 42.269 10.0878 41.9635C9.88357 41.9146 9.90864 42.133 9.92166 41.1133L9.92989 38.4049C10.2149 38.0203 10.4517 38.1546 11.019 38.1539L16.6323 38.1447C17.4352 37.9855 17.2056 36.8879 17.1724 35.5323C13.6081 35.5175 9.61191 35.3238 5.98578 35.4838C5.79643 37.9805 5.96804 41.1319 5.97394 43.6993C5.97679 44.9493 5.87351 51.1467 6.01755 51.856C6.55128 51.9254 9.37124 51.9555 9.7315 51.8056C10.0428 50.6288 9.50353 45.8586 9.92999 45.1314C10.4713 44.8422 12.8471 44.9955 13.6068 44.9956C14.5949 44.9958 16.3153 44.8954 17.2116 45.0223ZM17.3403 45.108L17.2116 45.0223C17.0265 45.1954 16.722 45.1529 16.3676 45.1521C15.3299 45.1496 10.2454 45.0218 10.0394 45.2515C9.69023 46.0742 10.2663 50.9203 9.9065 51.9838C9.64044 52.0449 6.17775 52.1534 5.95521 51.9501C5.69233 51.6254 5.8329 44.729 5.83342 43.6993C5.83414 42.3892 5.66523 36.1512 5.90257 35.391C6.51585 35.2341 17.004 35.3015 17.2435 35.4205C17.4473 35.7665 17.4326 37.8282 17.2288 38.2043C16.5246 38.6169 11.2478 38.0447 9.92989 38.4049L9.92166 41.1133C9.90864 42.133 9.88357 41.9146 10.0878 41.9635C10.1909 41.4094 10.1481 40.7573 10.1425 40.1636C10.1218 37.9763 9.47096 38.4383 13.6932 38.4383C14.4576 38.4383 16.7493 38.5709 17.3151 38.3435C17.6721 37.841 17.6916 35.7882 17.3151 35.211L8.69134 35.1525C7.95028 35.1667 6.44638 35.0971 5.80988 35.217L5.67246 35.415C5.54882 35.7661 5.62695 46.2466 5.62838 48.1836C5.62909 49.0925 5.43731 51.497 5.8455 52.1718L9.93084 52.2087C10.3632 51.5815 10.1258 49.5585 10.1228 48.701L10.194 45.3725C10.8111 45.1075 13.0066 45.3116 13.8656 45.3108L16.6294 45.2996C17.014 45.2972 17.2431 45.3917 17.3403 45.108ZM17.2116 45.0223C16.3153 44.8954 14.5949 44.9958 13.6068 44.9956C12.8471 44.9955 10.4713 44.8422 9.92999 45.1314C9.50353 45.8586 10.0428 50.6288 9.7315 51.8056C9.37124 51.9555 6.55128 51.9254 6.01755 51.856C5.87351 51.1467 5.97679 44.9493 5.97394 43.6993C5.96804 41.1319 5.79643 37.9805 5.98578 35.4838C9.61191 35.3238 13.6081 35.5175 17.1724 35.5323C17.2056 36.8879 17.4352 37.9855 16.6323 38.1447L11.019 38.1539C10.4517 38.1546 10.2149 38.0203 9.92989 38.4049C11.2478 38.0447 16.5246 38.6169 17.2288 38.2043C17.4326 37.8282 17.4473 35.7665 17.2435 35.4205C17.004 35.3015 6.51585 35.2341 5.90257 35.391C5.66523 36.1512 5.83414 42.3892 5.83342 43.6993C5.8329 44.729 5.69233 51.6254 5.95521 51.9501C6.17775 52.1534 9.64044 52.0449 9.9065 51.9838C10.2663 50.9203 9.69023 46.0742 10.0394 45.2515C10.2454 45.0218 15.3299 45.1496 16.3676 45.1521C16.722 45.1529 17.0265 45.1954 17.2116 45.0223ZM17.3403 45.108L17.4973 44.7905C17.5838 44.5037 17.5531 43.927 17.5567 43.6131C17.5704 42.4384 17.6367 42.9267 17.3481 42.1092C15.0483 41.8869 12.4608 42.0297 10.0878 41.9635C10.1124 42.269 9.90231 42.0539 10.2717 42.2002C10.6508 42.3503 16.4067 42.0371 17.2859 42.3396L17.3403 45.108ZM38.4011 35.4573C38.232 35.4805 37.9128 35.6151 37.704 35.7022C35.7419 36.5203 34.4997 37.71 34.5158 40.078C34.5337 42.7195 36.3105 43.8996 38.4557 44.8158C38.791 44.959 38.8451 45.0491 39.1105 45.169C39.6767 45.4249 42.1615 45.9634 42.827 46.904C43.5592 47.9391 42.9679 49.0376 41.4334 49.2626C40.7964 49.356 39.0649 49.293 38.5457 49.0302C38.1422 48.826 36.7304 48.5145 36.2657 48.0055C35.7189 47.8744 35.3825 47.4532 35.0181 47.4304L34.9796 50.6799L36.4504 51.3257C37.2932 51.5774 37.0324 51.5731 38.116 51.8218L39.903 52.1787C42.3335 52.3442 45.6716 51.8727 46.783 49.3404C47.1601 48.4809 46.9645 48.7347 47.239 48.6254C47.177 46.7297 47.5713 46.1122 46.6252 44.6594C45.9364 43.6018 45.067 43.1082 43.953 42.5761C43.4113 42.3174 42.8378 42.0844 42.3279 41.874L41.0023 41.3869C40.1289 41.0069 38.7502 40.5634 38.8391 39.3877C38.8774 38.8817 39.061 38.8781 39.2238 38.637C39.3785 38.3455 39.6337 38.2515 40.0018 38.1572C42.7954 37.4408 45.3214 39.2225 46.494 39.2606L46.4818 36.5186C45.0225 35.8904 45.2874 35.9954 43.779 35.5808C43.4046 35.4779 43.2007 35.4682 42.8274 35.4172C39.7726 34.9992 39.8333 35.5127 38.4011 35.4573ZM47.239 48.6254C46.9645 48.7347 47.1601 48.4809 46.783 49.3404C45.6716 51.8727 42.3335 52.3442 39.903 52.1787L38.116 51.8218C37.0324 51.5731 37.2932 51.5774 36.4504 51.3257L34.9796 50.6799L35.0181 47.4304C35.3825 47.4532 35.7189 47.8744 36.2657 48.0055C36.2535 47.9833 36.2305 47.9275 36.222 47.9431L34.9937 47.1956C34.6328 47.6717 34.7609 48.5342 34.7547 49.5634C34.7458 51.0259 34.7102 50.7612 35.7509 51.2326C38.2453 52.3625 42.2744 52.984 44.698 51.5914C45.0134 51.4101 45.1932 51.3207 45.4984 51.1013C46.3721 50.4732 45.64 51.1243 46.5688 50.0873L47.0914 49.2116C47.1868 48.9691 47.1993 48.8376 47.239 48.6254ZM38.4011 35.4573C39.8333 35.5127 39.7726 34.9992 42.8274 35.4172C43.2007 35.4682 43.4046 35.4779 43.779 35.5808C45.2874 35.9954 45.0225 35.8904 46.4818 36.5186L46.494 39.2606C45.3214 39.2225 42.7954 37.4408 40.0018 38.1572C39.6337 38.2515 39.3785 38.3455 39.2238 38.637C39.5704 38.5444 39.7817 38.3871 40.03 38.3215C40.9236 38.0855 42.7629 38.2725 43.592 38.5421L44.9028 38.9617C45.3911 39.1197 46.1421 39.5535 46.6465 39.4913L46.6783 36.4553C45.7954 35.7816 44.1077 35.4758 42.9707 35.259C42.0133 35.0765 40.0155 34.9998 38.9809 35.2435L38.4742 35.4148C38.4536 35.425 38.4232 35.4399 38.4011 35.4573ZM21.9714 48.3207C21.318 48.1595 21.2959 47.7034 20.3323 47.8139L20.3312 50.6046C21.0042 51.0211 21.6961 51.2102 22.3177 51.4705C23.2778 51.8726 26.2451 52.3482 27.4719 52.1045C28.8323 51.8343 29.3939 51.553 29.8315 51.461C30.1681 51.3132 30.136 51.3974 30.4731 51.1637C31.2008 50.6592 31.6301 50.3419 32.0373 49.5333C32.3155 48.9808 32.4971 48.8387 32.5861 48.0091C32.9603 44.5205 30.8564 43.156 27.9651 42.0205C26.8026 41.5639 24.1339 40.7749 24.0407 39.6413C23.9927 39.0582 24.3559 38.7923 24.7615 38.5458C24.8276 38.5056 24.9634 38.4268 24.9772 38.4187C25.432 38.1531 25.2455 38.3397 25.803 38.1997C27.2889 37.8262 28.7811 38.453 30.2317 38.8874C31.6084 39.2996 32.2463 40.5243 31.8782 36.4659C30.7043 35.8154 28.969 35.4177 27.6506 35.2429C25.912 35.0125 24.066 35.249 22.7444 35.7632C21.5082 36.2442 20.5043 37.2173 20.0631 38.5121C19.588 39.906 19.8432 41.726 20.8667 42.9073C21.329 43.4409 21.7295 43.7953 22.3003 44.14C22.5646 44.2997 22.4088 44.2567 22.7398 44.3825C22.8871 44.4384 23.0774 44.494 23.2491 44.5814C23.5866 44.7533 23.8649 44.8123 24.2411 44.9798C25.2038 45.4084 27.3753 46.0743 27.9582 46.6814C29.1567 47.9298 28.1363 49.179 26.3517 49.3388C23.8849 49.5595 22.6943 48.4074 21.9714 48.3207ZM29.8315 51.461C29.3939 51.553 28.8323 51.8343 27.4719 52.1045C26.2451 52.3482 23.2778 51.8726 22.3177 51.4705C21.6961 51.2102 21.0042 51.0211 20.3312 50.6046L20.3323 47.8139C21.2959 47.7034 21.318 48.1595 21.9714 48.3207C21.8229 48.0258 21.5315 47.9071 21.2611 47.7658C20.8849 47.5694 20.3731 47.5469 20.2139 47.7288C20.0109 48.2173 20.1101 50.0394 20.1687 50.6937C21.0079 51.2958 22.3633 51.6837 23.3538 51.9723C24.4492 52.2915 26.3358 52.392 27.5799 52.2887C28.034 52.251 29.2343 51.969 29.6484 51.6368C29.8287 51.4921 29.6592 51.6874 29.8315 51.461Z" fill="#295BB8"/>
</svg>
