<svg width="70" height="70" viewBox="0 0 70 70" fill="none" xmlns="http://www.w3.org/2000/svg">
<path d="M2.26139 18.5455L2.26088 18.545L15.2609 3.37838C15.4667 3.13826 15.7672 3 16.0834 3H65.9167V3.00258C66.0426 3.00258 66.1697 3.02177 66.2925 3.06731C66.7178 3.22453 67 3.62999 67 4.08334V51.75C67 52.0086 66.9075 52.2588 66.7392 52.455L53.7392 67.6216L53.7387 67.6211C53.54 67.8527 53.2457 68 52.9167 68L3.08334 67.9999C2.48509 67.9999 2 67.5149 2 66.9166V19.25C2 18.9807 2.09891 18.735 2.26139 18.5455ZM35.4866 60.2218V60.22H35.528C37.4818 60.22 39.3542 59.7406 40.3525 59.0814C40.6451 58.8882 40.8462 58.6908 40.9277 58.5013C40.981 58.3773 40.9674 58.2445 40.871 58.108C40.6211 57.7543 39.9765 57.3914 38.8147 57.0528C35.8095 56.1768 32.1558 56.5388 30.1606 57.3825C29.653 57.5971 29.2697 57.836 29.0564 58.0837C28.9205 58.2414 28.8734 58.3975 28.9405 58.5406C29.1117 58.9057 29.7369 59.3045 30.9634 59.7072C32.5312 60.2218 33.818 60.2218 35.4866 60.2218ZM28.899 55.3062C28.9042 55.4905 28.9095 55.6783 28.914 55.8647C29.0629 55.7811 29.2664 55.6842 29.6258 55.5409C30.3982 55.2331 31.2395 55.012 32.1026 54.8658C33.0445 54.7062 34.0125 54.634 34.9454 54.634C38.2767 54.634 40.0728 55.4169 40.974 55.9065L40.9771 55.7097C41.0144 53.3449 41.0516 50.9841 38.9234 49.1839C38.1285 48.5115 37.1818 48.0393 36.1822 47.8197C35.2233 47.609 34.2173 47.6305 33.2522 47.9306C32.5705 48.1426 31.9711 48.4242 31.4418 48.795C30.9135 49.1651 30.4482 49.6279 30.0331 50.2028C28.803 51.9062 28.8449 53.3899 28.899 55.3062ZM32.6239 41.5306C32.3424 41.6812 32.1298 41.963 32.1298 42.3303C32.1298 42.3334 32.1513 42.4058 32.1784 42.4952C32.2185 42.6277 32.2623 42.755 32.2789 42.7864C32.5098 43.2234 32.8961 43.2067 33.2129 43.1931C33.8332 43.1664 34.3357 43.1449 34.4513 44.0218C34.4536 44.0413 34.4549 44.0611 34.4549 44.0813L34.4575 45.8008C34.6056 45.788 34.7578 45.7816 34.909 45.7816C35.0578 45.7816 35.2075 45.7878 35.3533 45.8002C35.3452 45.1113 35.3416 44.059 35.4346 43.8144C35.7048 43.1043 36.0973 43.1473 36.6008 43.2026C36.8086 43.2254 37.0602 43.2531 37.3033 43.0688C37.3579 43.0275 37.4063 42.9831 37.4487 42.9365C37.6134 42.7554 37.6925 42.5357 37.6989 42.3208C37.7052 42.1049 37.6405 41.8942 37.5176 41.732C37.4895 41.6948 37.4582 41.6604 37.4244 41.6296C37.3843 41.5931 37.3409 41.5611 37.2951 41.534C37.1142 41.4264 36.8941 41.3849 36.6799 41.4126C36.4702 41.4397 36.2677 41.5348 36.1165 41.701C36.0765 41.7449 36.0401 41.7937 36.0082 41.8473C35.9712 41.9096 35.9424 42.0508 35.9135 42.1922C35.808 42.7094 35.7022 43.2285 35.0182 43.2285V43.2267L34.9643 43.2269C34.3583 43.2298 34.0983 43.2309 33.9804 42.3144C33.9196 41.8413 33.7034 41.573 33.4417 41.4664C33.3173 41.4158 33.1792 41.3978 33.0403 41.4086C32.8954 41.4199 32.7523 41.462 32.6239 41.5306ZM34.5298 39.9163C34.6842 40.0161 34.7968 40.1204 34.903 40.2245C35.1958 39.9555 35.5686 39.7485 35.9815 39.6303C36.5255 39.4747 37.1462 39.4705 37.7489 39.6807C38.6701 40.0019 39.2263 40.6456 39.4672 41.3835C39.6134 41.8313 39.6406 42.3113 39.5607 42.7715C39.4807 43.232 39.2935 43.6758 39.011 44.0507C38.6134 44.5785 38.0314 44.9704 37.2971 45.0865L37.2904 45.5749C37.2862 45.8637 37.2834 46.0552 37.2884 46.168C37.3622 46.1876 37.4515 46.2117 37.5799 46.2563C37.8975 46.3665 38.232 46.5104 38.5478 46.6705C38.8682 46.8331 39.1756 47.0141 39.4345 47.1962C42.9745 49.6859 42.9466 52.854 42.9124 56.7537C42.9099 57.0334 42.9074 57.32 42.9074 57.9142C42.9074 58.375 42.8495 58.8091 42.699 59.2065C42.5412 59.6233 42.286 59.989 41.8971 60.2881C41.0429 60.9455 40.0053 61.3965 38.8894 61.6905C37.5989 62.0305 36.2043 62.1622 34.8726 62.1622C33.6145 62.1622 31.0735 61.8846 29.2523 61.0811C27.9462 60.5049 26.9834 59.653 26.9834 58.4239V53.6176C26.9834 52.0653 27.4714 50.6085 28.2974 49.3805C29.1556 48.1047 30.379 47.0769 31.7983 46.4477C31.8767 46.4131 31.9731 46.3712 32.1048 46.3168C32.2216 46.2687 32.3293 46.2265 32.4093 46.2001C32.4825 46.1759 32.5461 46.1593 32.602 46.1465C32.6047 46.031 32.6025 45.8545 32.5994 45.6021L32.5933 45.0828C32.0213 44.9849 31.4981 44.7087 31.0933 44.3167C30.5838 43.823 30.2604 43.1441 30.2604 42.4031C30.2604 41.7584 30.4327 41.2169 30.7145 40.7811C30.9882 40.358 31.3644 40.041 31.7862 39.8299C32.2045 39.6206 32.6651 39.516 33.1121 39.516C33.6187 39.516 34.1173 39.6495 34.5298 39.9163ZM37.3006 46.2735C37.3207 46.3426 37.305 46.283 37.2928 46.2289C37.2949 46.2478 37.2974 46.2626 37.3006 46.2735ZM36.1255 33.3333V36.906C36.1255 37.066 36.0923 37.2196 36.0323 37.3598C35.5398 38.5116 33.8108 38.1652 33.8108 36.9085V33.3333H23.6667V65.8333H47.5V33.3333H36.1255ZM5.4388 18.1666H52.4185L63.5612 5.16668H16.5817L5.4388 18.1666ZM64.8333 7.01186L54 19.6507V63.9881L64.8333 51.3493V7.01186ZM8.50004 65.8333H21.5V33.3333H8.50004V65.8333ZM4.16673 65.8333H6.33336V32.25C6.33336 31.6517 6.81845 31.1666 7.4167 31.1666H48.5834C49.1816 31.1666 49.6667 31.6517 49.6667 32.25V65.8333H51.8333V20.3333H4.16673V65.8333ZM19.3334 53.9167V47.4167C19.3334 46.8184 18.8483 46.3333 18.25 46.3333C17.6517 46.3333 17.1667 46.8184 17.1667 47.4167V53.9167C17.1667 54.515 17.6517 55 18.25 55C18.8483 55 19.3334 54.515 19.3334 53.9167Z" fill="#295BB8"/>
<path fill-rule="evenodd" clip-rule="evenodd" d="M32.5423 58.7113C32.5423 60.7646 37.4483 60.5313 37.332 58.7263C37.2069 56.7841 32.5423 56.971 32.5423 58.7113Z" fill="#295BB8"/>
</svg>
