<svg width="70" height="70" viewBox="0 0 70 70" fill="none" xmlns="http://www.w3.org/2000/svg">
<path d="M14.3121 10.0391C14.3121 10.5007 15.163 11.9562 16.1216 13.3341C17.0063 14.6059 17.8397 15.7326 17.9393 15.7326C18.2566 15.7326 19.3972 15.1286 20.4302 14.5816C21.0969 14.2286 21.7248 13.896 22.2094 13.7012C25.0131 12.5741 28.2155 11.7316 31.4689 11.3327C34.4816 10.9634 37.5503 10.9708 40.4052 11.4791C45.6128 12.4063 48.3307 14.9858 49.7535 18.5156C51.1131 21.8885 51.2115 26.0372 51.2115 30.4076V31.7868L49.8673 31.4736C43.436 29.9753 34.6581 29.2716 27.0015 30.9176C21.3274 32.1373 16.2902 34.6509 13.3722 39.1027C12.4217 40.553 11.8473 42.0769 11.5103 43.6903C11.1659 45.3394 11.0649 47.1109 11.0649 49.0048C11.0649 50.4345 11.2044 51.7541 11.4678 52.9704C12.6016 58.2039 16.0756 61.6408 20.6459 63.7744C25.3471 65.969 31.2182 66.8081 36.9553 66.8081C41.5212 66.8081 45.9853 66.2751 49.707 65.4689C50.7954 65.2331 51.7503 65.0138 52.6721 64.7824C53.6215 64.5439 54.5372 64.2939 55.5225 64.0029C55.7999 63.921 56.1223 63.8309 56.4306 63.7448C58.0055 63.3047 59.0563 63.011 59.0563 61.9934V26.57C59.0563 13.9349 53.1545 7.89168 45.6546 5.51054C42.7237 4.58005 39.5415 4.19319 36.3607 4.18353C33.1652 4.17383 29.9593 4.54896 27.002 5.13895C19.8555 6.56467 14.3121 8.94093 14.3121 10.0391ZM39.1934 20.0758C39.1934 23.5657 44.2116 23.5221 44.2116 20.0758C44.2116 16.8857 39.1934 16.8857 39.1934 20.0758ZM14.3235 14.5842C13.1564 12.9064 12.1202 10.9557 12.1202 10.0391C12.1202 8.10765 18.4341 4.61377 26.5739 2.98984C29.638 2.37854 32.9859 1.98998 36.3607 2.0002C39.7502 2.01045 43.1557 2.4273 46.3138 3.42996C54.6715 6.08342 61.2482 12.7364 61.2482 26.57V61.9934C61.2482 64.6674 59.5533 65.141 57.0129 65.851C56.7523 65.9238 56.4793 66.0001 56.139 66.1006C55.0892 66.4107 54.1467 66.6687 53.2029 66.9057C52.2315 67.1497 51.2575 67.3737 50.1694 67.6094C46.305 68.4466 41.6779 69 36.9553 69C30.9456 69 24.7541 68.1017 19.7212 65.7522C14.5576 63.3416 10.6259 59.4272 9.32725 53.4328C9.03023 52.0615 8.87305 50.5875 8.87305 49.0048C8.87305 46.9922 8.98565 45.0843 9.36975 43.2451C9.7613 41.3702 10.4306 39.5965 11.54 37.904C14.8164 32.9053 20.351 30.1091 26.5476 28.777C34.02 27.1706 42.4858 27.7 49.0151 29.0459C48.9868 25.4007 48.7993 21.9959 47.7242 19.329C46.5795 16.4891 44.3479 14.4058 40.0285 13.6367C37.3939 13.1677 34.5442 13.163 31.7343 13.5075C28.6605 13.8844 25.6482 14.6749 23.0227 15.7305C22.6531 15.8791 22.0691 16.1884 21.449 16.5167C20.1855 17.1857 18.7903 17.9245 17.9393 17.9245C17.0761 17.9245 15.5557 16.3554 14.3235 14.5842Z" fill="#295BB8"/>
</svg>
