<svg width="70" height="70" viewBox="0 0 70 70" fill="none" xmlns="http://www.w3.org/2000/svg">
<path d="M2.26139 18.5455L2.26088 18.545L15.2609 3.37838C15.4667 3.13826 15.7672 3 16.0834 3H65.9167V3.00258C66.0426 3.00258 66.1698 3.02177 66.2925 3.06731C66.7179 3.22453 67.0001 3.62999 67.0001 4.08334V51.75C67.0001 52.0086 66.9076 52.2588 66.7392 52.455L53.7392 67.6216L53.7387 67.6211C53.5401 67.8527 53.2458 68 52.9168 68L3.08334 67.9999C2.48509 67.9999 2 67.5149 2 66.9166V19.25C2 18.9807 2.09886 18.735 2.26134 18.5455H2.26139ZM35.421 57.1897C34.8257 56.5943 34.4568 55.772 34.4568 54.8653C34.4568 53.9585 34.8257 53.1364 35.4211 52.5409C36.0165 51.9455 36.8387 51.5767 37.7455 51.5767C38.6521 51.5767 39.4744 51.9455 40.0698 52.5409C40.6653 53.1364 41.0341 53.9586 41.0341 54.8653C41.0341 55.772 40.6653 56.5942 40.0699 57.1897C39.4744 57.785 38.6522 58.1539 37.7455 58.1539C36.8387 58.1539 36.0165 57.785 35.421 57.1897ZM36.1255 33.3333V36.906C36.1255 37.066 36.0923 37.2196 36.0324 37.3598C35.9704 37.5048 35.8797 37.6348 35.7677 37.7423C35.5977 37.9054 35.393 38.0089 35.1759 38.0486C34.9585 38.0883 34.7304 38.064 34.5141 37.9718C34.2972 37.8794 34.1218 37.7317 34.0002 37.5477C33.8782 37.363 33.8109 37.1436 33.8109 36.9085V33.3333H23.6667V65.8333H47.5V33.3333H36.1255ZM28.6317 42.2878C28.7907 42.4468 29.0111 42.5454 29.2545 42.5454H29.4852V44.86H29.2545C28.3734 44.86 27.5743 44.5016 26.9956 43.9229C26.417 43.3443 26.0585 42.5452 26.0585 41.664V39.8108C26.0585 39.4912 26.1881 39.2018 26.3975 38.9924C26.6069 38.783 26.8963 38.6534 27.2159 38.6534C27.5346 38.6534 27.8239 38.7831 28.0338 38.9929L28.0342 38.9925C28.2436 39.2019 28.3732 39.4912 28.3732 39.8108V41.664C28.3732 41.9069 28.4721 42.1273 28.6317 42.2869V42.2878ZM30.8557 48.0508L30.8554 44.6239C30.8661 44.2328 30.8882 43.8767 30.9239 43.5633C30.961 43.239 31.0125 42.9533 31.081 42.7128L31.0837 42.7057C31.1688 42.4406 31.283 42.1662 31.4344 41.8897C31.5861 41.6127 31.7746 41.3343 32.0078 41.0619C32.4606 40.533 33.0194 40.1173 33.6414 39.8342C34.2637 39.5511 34.9499 39.3998 35.657 39.3998C36.1908 39.3998 36.7191 39.4892 37.2175 39.6599C37.7166 39.8308 38.1854 40.0831 38.5994 40.4082C39.1071 40.807 39.5217 41.2935 39.828 41.8411C40.134 42.388 40.3309 42.9947 40.4039 43.6344C40.5559 44.9673 40.8878 46.2889 41.3854 47.5633C41.8836 48.8395 42.5479 50.0687 43.3642 51.2153C43.776 51.7937 44.0921 52.4248 44.3061 53.0898C44.52 53.754 44.6319 54.4523 44.6358 55.1662C44.6463 57.0505 43.89 58.7699 42.6604 60.0244C41.431 61.2787 39.7277 62.0687 37.8441 62.0949L37.7337 62.0958L37.7327 62.0967C36.8264 62.0967 35.9447 61.9207 35.126 61.5841C34.3092 61.2482 33.5569 60.7524 32.9076 60.1121C32.2456 59.4592 31.7323 58.6969 31.3845 57.8655C31.0366 57.0339 30.8542 56.1336 30.8542 55.2052H30.8551L30.8557 48.0508ZM34.6065 41.9379C34.2928 42.0795 34.0116 42.2851 33.7836 42.5452H34.9682C35.2877 42.5452 35.5772 42.6748 35.7866 42.8842C35.996 43.0936 36.1255 43.3831 36.1255 43.7026C36.1255 44.0222 35.996 44.3115 35.7866 44.5209C35.5772 44.7303 35.2877 44.8599 34.9682 44.8599H33.1681L33.168 52.1062H33.1689V52.2576H33.168L33.1678 55.2053H33.1687C33.1687 55.8235 33.2897 56.4218 33.5205 56.9733C33.7513 57.5251 34.0921 58.0312 34.5315 58.4645C34.972 58.8989 35.483 59.2326 36.0373 59.4553C36.5934 59.6788 37.1937 59.7911 37.8109 59.7824C39.0614 59.7651 40.1929 59.2399 41.0102 58.406C41.8274 57.5724 42.3299 56.4301 42.323 55.1784C42.3204 54.705 42.2461 54.2413 42.1041 53.7998C41.9624 53.3593 41.7528 52.9408 41.4795 52.5569C40.5504 51.252 39.794 49.8507 39.2261 48.3936C38.658 46.9357 38.2789 45.4232 38.1047 43.8968C38.0669 43.5656 37.9651 43.2519 37.8071 42.9697C37.6489 42.6872 37.434 42.4355 37.17 42.2282C36.9593 42.0626 36.7199 41.9342 36.4643 41.8473C36.2083 41.7602 35.935 41.7145 35.657 41.7145C35.2867 41.7145 34.929 41.7924 34.6065 41.9379ZM38.4338 54.1769C38.2574 54.0006 38.0139 53.8913 37.7455 53.8913C37.4771 53.8913 37.2336 54.0006 37.0572 54.177C36.8808 54.3533 36.7715 54.5969 36.7715 54.8653C36.7715 55.1337 36.8808 55.3772 37.0572 55.5535C37.2335 55.7299 37.4771 55.8392 37.7455 55.8392C38.0139 55.8392 38.2574 55.7299 38.4338 55.5535C38.6101 55.3772 38.7194 55.1337 38.7194 54.8653C38.7194 54.5969 38.6101 54.3533 38.4338 54.1769ZM5.4388 18.1666H52.4185L63.5613 5.16668H16.5817L5.4388 18.1666ZM64.8334 7.01186L54.0001 19.6507V63.9881L64.8334 51.3493V7.01186ZM8.50005 65.8333H21.5V33.3333H8.50005V65.8333ZM4.16673 65.8333H6.33336V32.25C6.33336 31.6517 6.81845 31.1666 7.41671 31.1666H48.5834C49.1816 31.1666 49.6667 31.6517 49.6667 32.25V65.8333H51.8334V20.3333H4.16673V65.8333ZM19.3334 53.9167V47.4167C19.3334 46.8184 18.8483 46.3333 18.25 46.3333C17.6517 46.3333 17.1667 46.8184 17.1667 47.4167V53.9167C17.1667 54.515 17.6517 55 18.25 55C18.8483 55 19.3334 54.515 19.3334 53.9167Z" fill="#295BB8"/>
</svg>
