<svg width="541" height="421" viewBox="0 0 541 421" fill="none" xmlns="http://www.w3.org/2000/svg">
<path fill-rule="evenodd" clip-rule="evenodd" d="M270.036 -1.18088e-05C296.338 16.7763 306.231 85.0972 303.697 104.426C327.825 87.5287 369.809 85.3405 397.074 94.8227C428.802 105.764 433.99 125.944 401.417 128.254C340.131 132.873 301.767 189.038 308.643 257.479C309.915 277.67 317.983 296.818 331.519 311.761C345.053 326.704 363.242 336.546 383.079 339.66C418.065 345.859 453.534 336.985 463.187 297.111C471.029 264.653 453.172 242.892 431.095 241.676C396.591 239.488 409.258 269.151 387.181 273.892C383.506 274.627 379.716 274.562 376.069 273.702C372.42 272.841 368.996 271.204 366.026 268.902C363.056 266.602 360.608 263.686 358.847 260.353C357.086 257.019 356.052 253.347 355.814 249.578C353.522 186.485 411.43 168.493 450.639 176.638C476.022 181.196 498.968 194.707 515.369 214.752C531.769 234.798 540.556 260.071 540.156 286.048C541.604 355.221 495.398 420.989 401.899 420.989C375.271 421.287 349.04 414.469 325.877 401.23C302.713 387.99 283.446 368.8 270.036 345.617C256.647 368.817 237.383 388.02 214.216 401.263C191.049 414.505 164.807 421.312 138.175 420.989C44.6759 420.989 -1.52986 355.221 0.0384396 286.048C-0.366161 260.089 8.40355 234.83 24.7793 214.787C41.1569 194.744 64.0731 181.221 89.4339 176.638C128.644 168.614 185.949 186.485 184.381 249.578C184.104 253.332 183.046 256.984 181.274 260.297C179.501 263.611 177.055 266.509 174.095 268.804C171.132 271.099 167.725 272.739 164.092 273.616C160.46 274.493 156.685 274.586 153.014 273.892C130.816 269.028 143.604 239.366 108.857 241.311C87.021 242.77 69.0454 264.531 76.7665 297.111C86.6591 336.863 122.128 345.739 156.995 339.538C176.804 336.361 194.958 326.501 208.481 311.57C222.004 296.64 230.095 277.528 231.431 257.359C238.307 189.524 200.064 132.752 138.657 128.132C105.962 125.822 111.27 105.642 143.001 94.5794C170.266 85.2188 212.49 87.2854 236.377 104.305C232.758 85.0972 243.616 16.7763 270.036 -1.18088e-05Z" fill="#162238"/>
</svg>
