<svg width="370" height="478" viewBox="0 0 370 478" fill="none" xmlns="http://www.w3.org/2000/svg">
<path fill-rule="evenodd" clip-rule="evenodd" d="M0 238.71C14.8237 215.47 75.1928 206.729 92.2724 208.967C77.3412 187.647 75.4077 150.55 83.7863 126.459C93.454 98.4228 111.285 93.8389 113.326 122.621C117.408 176.774 167.036 210.673 227.511 204.597C245.353 203.473 262.272 196.344 275.475 184.383C288.68 172.425 297.376 156.353 300.128 138.824C305.605 107.91 297.764 76.5697 262.53 68.0401C233.85 61.111 214.622 76.8895 213.547 96.3973C211.614 126.885 237.824 115.692 242.014 135.2C242.663 138.447 242.606 141.796 241.846 145.019C241.086 148.243 239.639 151.269 237.605 153.893C235.572 156.517 232.995 158.68 230.05 160.236C227.105 161.792 223.86 162.706 220.53 162.916C164.78 164.941 148.882 113.773 156.079 79.1281C160.106 56.6995 172.045 36.4241 189.757 21.9314C207.47 7.44033 229.801 -0.323453 252.755 0.0291475C313.877 -1.25005 371.99 39.5778 371.99 122.195C372.254 145.724 366.229 168.902 354.531 189.369C342.832 209.836 325.875 226.861 305.39 238.71C325.89 250.541 342.858 267.563 354.56 288.033C366.261 308.504 372.275 331.692 371.99 355.224C371.99 437.841 313.877 478.669 252.755 477.283C229.818 477.641 207.498 469.892 189.788 455.422C172.078 440.95 160.129 420.701 156.079 398.292C148.989 363.646 164.78 313.011 220.53 314.396C223.847 314.641 227.074 315.576 230.001 317.142C232.93 318.708 235.49 320.869 237.518 323.485C239.546 326.103 240.995 329.114 241.77 332.323C242.545 335.533 242.627 338.868 242.014 342.112C237.716 361.727 211.506 350.427 213.225 381.13C214.514 400.424 233.742 416.308 262.53 409.485C297.656 400.744 305.499 369.404 300.019 338.595C297.212 321.091 288.499 305.05 275.307 293.101C262.114 281.152 245.226 274.003 227.405 272.822C167.465 266.746 117.301 300.538 113.219 354.798C111.178 383.688 93.3465 378.998 83.5714 350.96C75.3003 326.869 77.1263 289.559 92.1649 268.452C75.1928 271.65 14.8237 262.056 0 238.71Z" fill="#EDF1F7"/>
</svg>
