<svg width="208" height="162" viewBox="0 0 208 162" fill="none" xmlns="http://www.w3.org/2000/svg">
<path fill-rule="evenodd" clip-rule="evenodd" d="M103.954 -1.23964e-06C93.8336 6.45549 90.0269 32.7453 91.0018 40.1831C81.7173 33.6809 65.5622 32.8388 55.0707 36.4876C42.8615 40.6977 40.8653 48.463 53.3995 49.3518C76.9822 51.1294 91.7446 72.7415 89.0985 99.0775C88.6093 106.847 85.5047 114.215 80.296 119.965C75.0881 125.715 68.089 129.502 60.4557 130.701C46.9931 133.086 33.3449 129.671 29.6303 114.328C26.6129 101.838 33.4841 93.4643 41.9795 92.9964C55.2564 92.1547 50.382 103.569 58.8773 105.393C60.2914 105.676 61.7498 105.651 63.1532 105.32C64.5573 104.989 65.875 104.359 67.0177 103.473C68.1604 102.588 69.1025 101.466 69.7802 100.183C70.458 98.9006 70.8558 97.4875 70.9472 96.0373C71.8293 71.7592 49.5464 64.8356 34.459 67.9698C24.6917 69.7237 15.8621 74.9228 9.55077 82.636C3.24015 90.35 -0.140857 100.075 0.0126946 110.071C-0.544377 136.688 17.2355 161.996 53.2138 161.996C63.4603 162.111 73.554 159.487 82.4672 154.392C91.3803 149.298 98.7944 141.913 103.954 132.993C109.107 141.92 116.519 149.309 125.434 154.405C134.348 159.501 144.446 162.12 154.694 161.996C190.673 161.996 208.453 136.688 207.849 110.071C208.005 100.082 204.63 90.3621 198.329 82.6496C192.027 74.9371 183.209 69.7336 173.45 67.9698C158.362 64.8824 136.311 71.7592 136.915 96.0373C137.021 97.4818 137.428 98.8871 138.11 100.162C138.792 101.437 139.733 102.552 140.873 103.435C142.012 104.318 143.324 104.95 144.721 105.287C146.119 105.624 147.572 105.66 148.984 105.393C157.526 103.522 152.605 92.1076 165.976 92.8559C174.378 93.4173 181.295 101.791 178.324 114.328C174.518 129.624 160.869 133.04 147.452 130.654C139.83 129.431 132.844 125.637 127.641 119.892C122.437 114.147 119.324 106.792 118.81 99.0311C116.164 72.9284 130.88 51.0826 154.509 49.305C167.09 48.4162 165.047 40.6509 152.838 36.394C142.346 32.7921 126.098 33.5873 116.906 40.1363C118.299 32.7453 114.121 6.45549 103.954 -1.23964e-06Z" fill="#EDF1F7"/>
</svg>
