<svg width="208" height="162" viewBox="0 0 208 162" fill="none" xmlns="http://www.w3.org/2000/svg">
<path fill-rule="evenodd" clip-rule="evenodd" d="M103.954 162C93.8336 155.545 90.0269 129.255 91.0018 121.817C81.7173 128.319 65.5622 129.161 55.0707 125.512C42.8615 121.302 40.8653 113.537 53.3995 112.648C76.9822 110.871 91.7446 89.2585 89.0985 62.9225C88.6093 55.1529 85.5047 47.785 80.296 42.0349C75.0881 36.2847 68.089 32.4977 60.4557 31.2993C46.9931 28.9139 33.3449 32.3286 29.6303 47.6723C26.6129 60.1619 33.4841 68.5357 41.9795 69.0036C55.2564 69.8453 50.382 58.4314 58.8773 56.6067C60.2914 56.3242 61.7498 56.3492 63.1532 56.6802C64.5573 57.0112 65.875 57.641 67.0177 58.527C68.1604 59.4122 69.1025 60.5343 69.7802 61.8168C70.458 63.0994 70.8558 64.5125 70.9472 65.9627C71.8293 90.2408 49.5464 97.1644 34.459 94.0302C24.6917 92.2763 15.8621 87.0772 9.55077 79.364C3.24015 71.65 -0.140857 61.9253 0.0126946 51.9294C-0.544377 25.3116 17.2355 0.00422689 53.2138 0.00422732C63.4603 -0.110625 73.554 2.513 82.4672 7.60758C91.3803 12.7022 98.7944 20.0865 103.954 29.0074C109.107 20.0801 116.519 12.6907 125.434 7.59473C134.348 2.49944 144.446 -0.119902 154.694 0.00422853C190.673 0.00422896 208.453 25.3116 207.849 51.9294C208.005 61.9181 204.63 71.6379 198.329 79.3504C192.027 87.0629 183.209 92.2664 173.45 94.0302C158.362 97.1176 136.311 90.2408 136.915 65.9627C137.021 64.5182 137.428 63.1129 138.11 61.8382C138.792 60.5628 139.733 59.4479 140.873 58.5648C142.012 57.6817 143.324 57.0504 144.721 56.713C146.119 56.3756 147.572 56.3399 148.984 56.6067C157.526 58.4785 152.605 69.8924 165.976 69.1441C174.378 68.5827 181.295 60.209 178.324 47.6723C174.518 32.3757 160.869 28.9603 147.452 31.3464C139.83 32.569 132.844 36.3632 127.641 42.1083C122.437 47.8535 119.324 55.2079 118.81 62.9689C116.164 89.0716 130.88 110.917 154.509 112.695C167.09 113.584 165.047 121.349 152.838 125.606C142.346 129.208 126.098 128.413 116.906 121.864C118.299 129.255 114.121 155.545 103.954 162Z" fill="#EDF1F7"/>
</svg>
