<svg width="372" height="478" viewBox="0 0 372 478" fill="none" xmlns="http://www.w3.org/2000/svg">
<path fill-rule="evenodd" clip-rule="evenodd" d="M372 238.71C357.176 215.47 296.807 206.729 279.728 208.967C294.659 187.647 296.592 150.55 288.214 126.459C278.546 98.4228 260.715 93.8389 258.674 122.621C254.592 176.774 204.964 210.673 144.489 204.597C126.647 203.473 109.728 196.344 96.5245 184.383C83.3205 172.425 74.6243 156.353 71.8724 138.824C66.3949 107.91 74.2361 76.5697 109.47 68.0401C138.15 61.111 157.378 76.8895 158.453 96.3973C160.386 126.885 134.176 115.692 129.986 135.2C129.337 138.447 129.394 141.796 130.154 145.019C130.914 148.243 132.361 151.269 134.395 153.893C136.428 156.517 139.005 158.68 141.95 160.236C144.895 161.792 148.14 162.706 151.47 162.916C207.22 164.941 223.118 113.773 215.921 79.1281C211.894 56.6995 199.955 36.4241 182.243 21.9314C164.53 7.44033 142.199 -0.323453 119.245 0.0291475C58.123 -1.25005 0.00970459 39.5778 0.00970459 122.195C-0.254028 145.724 5.7706 168.902 17.4692 189.369C29.1679 209.836 46.1246 226.861 66.6095 238.71C46.1098 250.541 29.1417 267.563 17.4398 288.033C5.73944 308.504 -0.27533 331.692 0.00970459 355.224C0.00970459 437.841 58.123 478.669 119.245 477.283C142.182 477.641 164.502 469.892 182.212 455.422C199.922 440.95 211.871 420.701 215.921 398.292C223.011 363.646 207.22 313.011 151.47 314.396C148.153 314.641 144.926 315.576 141.999 317.142C139.07 318.708 136.51 320.869 134.482 323.485C132.454 326.103 131.005 329.114 130.23 332.323C129.455 335.533 129.373 338.868 129.986 342.112C134.284 361.727 160.494 350.427 158.775 381.13C157.486 400.424 138.258 416.308 109.47 409.485C74.3442 400.744 66.5014 369.404 71.9806 338.595C74.7881 321.091 83.5007 305.05 96.6932 293.101C109.886 281.152 126.774 274.003 144.595 272.822C204.535 266.746 254.699 300.538 258.781 354.798C260.822 383.688 278.653 378.998 288.429 350.96C296.7 326.869 294.874 289.559 279.835 268.452C296.807 271.65 357.176 262.056 372 238.71Z" fill="#EDF1F7"/>
</svg>
