<svg width="80" height="80" viewBox="0 0 80 80" fill="none" xmlns="http://www.w3.org/2000/svg">
<path fill-rule="evenodd" clip-rule="evenodd" d="M54.944 52.3983H71.7207C71.7207 50.0818 70.7819 47.9846 69.2639 46.4667C67.746 44.9488 65.6488 44.0099 63.3323 44.0099C61.0159 44.0099 58.9187 44.9488 57.4008 46.4667C55.8829 47.9846 54.944 50.0818 54.944 52.3983ZM43.4639 7C46.3585 7 48.7164 9.3579 48.7164 12.2525V17.6472L48.7312 17.647H54.556C55.8265 17.647 56.8564 18.677 56.8564 19.9474V24.6219H63.3323C64.0997 24.6193 64.4987 24.9829 64.4825 25.7721V41.7708C66.9746 42.0375 69.2107 43.1606 70.8904 44.8403C72.8247 46.7746 74.0212 49.4468 74.0212 52.3983L74.0211 53.5485V72.6257C74.0211 73.2609 73.5061 73.7759 72.8709 73.7759H53.7938C53.1586 73.7759 52.6436 73.2609 52.6436 72.6257V53.5485L52.6435 52.3983C52.6435 49.4468 53.84 46.7746 55.7743 44.8403C57.454 43.1606 59.6901 42.0375 62.1822 41.7708V26.9223L56.8564 26.9222V31.5967C56.8564 32.8672 55.8265 33.8971 54.556 33.8971H48.7312L48.7164 33.8969V73.7759L7.1336 73.7758C6.50633 73.7758 6 73.2695 6 72.6422V12.2525C6 9.3579 8.35791 7 11.2525 7H43.4639ZM46.4483 12.1798C46.4483 10.5324 45.1114 9.26724 43.4639 9.26724H11.2525C9.605 9.26724 8.26724 10.605 8.26724 12.2525V71.5086H46.445L46.4472 31.8712C46.4365 31.7812 46.4308 31.6896 46.4308 31.5967V19.9474C46.4308 19.8525 46.4366 19.7589 46.4478 19.667L46.4483 12.1798ZM22.7331 35.4123H14.7824C12.9241 35.4123 11.4124 36.9237 11.4124 38.7818V43.0609C11.4124 44.9188 12.9239 46.4308 14.7824 46.4308H22.7331C24.5915 46.4308 26.1031 44.919 26.1031 43.0609V38.7818C26.1031 36.9237 24.5915 35.4123 22.7331 35.4123ZM40.0291 17.647H32.0784C30.22 17.647 28.7084 19.1585 28.7084 21.0166V25.2956C28.7084 27.1536 30.2198 28.6656 32.0784 28.6656H40.0291C41.8874 28.6656 43.3991 27.1538 43.3991 25.2956V21.0166C43.3989 19.1585 41.8874 17.647 40.0291 17.647ZM41.1316 25.2956C41.1316 25.9037 40.6372 26.3982 40.0291 26.3982L32.0784 26.3981C31.4703 26.3981 30.9758 25.9037 30.9758 25.2956V21.0165C30.9758 20.4088 31.4703 19.9142 32.0784 19.9142L40.0291 19.9143C40.6372 19.9143 41.1317 20.4087 41.1317 21.0166L41.1316 25.2956ZM22.7331 17.647H14.7824C12.9241 17.647 11.4124 19.1585 11.4124 21.0166V25.2956C11.4124 27.1536 12.9239 28.6656 14.7824 28.6656H22.7331C24.5915 28.6656 26.1031 27.1538 26.1031 25.2956V21.0166C26.1031 19.1585 24.5915 17.647 22.7331 17.647ZM23.8357 25.2956C23.8357 25.9037 23.3412 26.3982 22.7331 26.3982L14.7824 26.3981C14.1743 26.3981 13.6798 25.9037 13.6798 25.2956V21.0165C13.6798 20.4088 14.1743 19.9142 14.7824 19.9142L22.7331 19.9143C23.3412 19.9143 23.8357 20.4087 23.8357 21.0166V25.2956ZM40.0291 53.1775H32.0784C30.22 53.1775 28.7084 54.6889 28.7084 56.547V60.8261C28.7084 62.684 30.2198 64.1958 32.0784 64.1958H40.0291C41.8874 64.1958 43.3991 62.684 43.3991 60.8261V56.547C43.3989 54.6889 41.8874 53.1775 40.0291 53.1775ZM41.1316 60.8261C41.1316 61.4342 40.6372 61.9286 40.0291 61.9286L32.0784 61.9286C31.4703 61.9286 30.9758 61.4341 30.9758 60.826V56.547C30.9758 55.9393 31.4703 55.4447 32.0784 55.4447L40.0291 55.4447C40.6372 55.4447 41.1317 55.9392 41.1317 56.547L41.1316 60.8261ZM22.7331 53.1775H14.7824C12.9241 53.1775 11.4124 54.6889 11.4124 56.547V60.8261C11.4124 62.684 12.9239 64.1958 14.7824 64.1958H22.7331C24.5915 64.1958 26.1031 62.684 26.1031 60.8261V56.547C26.1031 54.6889 24.5915 53.1775 22.7331 53.1775ZM23.8357 60.8261C23.8357 61.4342 23.3412 61.9286 22.7331 61.9286L14.7824 61.9286C14.1743 61.9286 13.6798 61.4341 13.6798 60.826V56.547C13.6798 55.9393 14.1743 55.4447 14.7824 55.4447L22.7331 55.4447C23.3412 55.4447 23.8357 55.9392 23.8357 56.547V60.8261ZM40.0291 35.4123H32.0784C30.22 35.4123 28.7084 36.9237 28.7084 38.7818V43.0609C28.7084 44.9188 30.2198 46.4308 32.0784 46.4308H40.0291C41.8874 46.4308 43.3991 44.919 43.3991 43.0609V38.7818C43.3989 36.9237 41.8874 35.4123 40.0291 35.4123ZM41.1316 43.0609C41.1316 43.669 40.6372 44.1634 40.0291 44.1634L32.0784 44.1634C31.4703 44.1634 30.9758 43.6689 30.9758 43.0608V38.7818C30.9758 38.174 31.4703 37.6794 32.0784 37.6794L40.0291 37.6795C40.6372 37.6795 41.1317 38.174 41.1317 38.7818L41.1316 43.0609ZM23.8357 43.0609C23.8357 43.669 23.3412 44.1634 22.7331 44.1634L14.7824 44.1634C14.1743 44.1634 13.6798 43.6689 13.6798 43.0608V38.7818C13.6798 38.174 14.1743 37.6794 14.7824 37.6794L22.7331 37.6795C23.3412 37.6795 23.8357 38.174 23.8357 38.7818V43.0609ZM54.944 60.5572H71.7207V54.6987H54.944V60.5572ZM71.7207 62.8576H54.944V71.4755H71.7207V62.8576ZM48.7312 19.9474H54.556V31.5967H48.7312V19.9474Z" fill="#295BB8"/>
</svg>
