<svg width="57" height="57" viewBox="0 0 57 57" fill="none" xmlns="http://www.w3.org/2000/svg">
<g clip-path="url(#clip0_17_5630)">
<circle cx="33.5" cy="33.5002" r="33.5" fill="white"/>
<path d="M48.0809 8.92341C43.0722 3.9105 36.1466 0.810289 28.4999 0.810289C20.8533 0.810289 13.9319 3.9105 8.91895 8.92341C3.91026 13.9321 0.810044 20.8578 0.810044 28.5044C0.810044 36.151 3.91026 43.0724 8.91895 48.0854C13.9319 53.0983 20.8533 56.1943 28.4999 56.1943C36.1466 56.1943 43.068 53.0941 48.0809 48.0854C53.0938 43.0724 56.1898 36.151 56.1898 28.5044C56.194 20.8578 53.0938 13.9321 48.0809 8.92341ZM28.4999 0.000244141C36.3713 0.000244141 43.4963 3.18952 48.6534 8.34666C53.8105 13.5038 56.9998 20.6287 56.9998 28.5002C56.9998 36.3716 53.8105 43.4966 48.6534 48.6536C43.4963 53.8108 36.3713 57.0001 28.4999 57.0001C20.6285 57.0001 13.5035 53.8108 8.34641 48.6536C3.18927 43.4966 0 36.3716 0 28.5044C0 20.633 3.18927 13.508 8.34641 8.35087C13.5035 3.19376 20.6285 0.000244141 28.4999 0.000244141Z" fill="#BA2828"/>
<path d="M40.421 16.5867C37.3717 13.5373 33.1561 11.65 28.4994 11.65C23.8427 11.65 19.6313 13.5373 16.5778 16.5867C13.5284 19.636 11.6412 23.8516 11.6412 28.5083C11.6412 33.1649 13.5284 37.3763 16.5778 40.4299C19.6271 43.4792 23.8427 45.3665 28.4994 45.3665C33.1561 45.3665 37.3675 43.4792 40.421 40.4299C43.4703 37.3806 45.3576 33.1649 45.3576 28.5083C45.3576 23.8516 43.4703 19.636 40.421 16.5867ZM28.4994 11.2429C33.2663 11.2429 37.5837 13.1768 40.7051 16.2983C43.8308 19.4239 45.7605 23.7371 45.7605 28.504C45.7605 33.2709 43.8265 37.5884 40.7051 40.7098C37.5795 43.8355 33.2663 45.7652 28.4994 45.7652C23.7324 45.7652 19.4151 43.8312 16.2936 40.7098C13.1679 37.5884 11.2383 33.2709 11.2383 28.504C11.2383 23.7371 13.1722 19.4197 16.2936 16.2983C19.4151 13.1768 23.7324 11.2429 28.4994 11.2429Z" fill="#BA2828"/>
<path d="M45.4655 18.6014L44.5791 19.1655C44.4943 19.2206 44.4434 19.263 44.4264 19.2927C44.4095 19.3224 44.4095 19.3563 44.4222 19.3944L44.1295 19.5811L43.7224 18.9449L44.015 18.7583C44.0447 18.7837 44.0787 18.8007 44.1168 18.8007C44.155 18.8007 44.2144 18.7753 44.2992 18.7201L45.1856 18.1561C45.2704 18.1009 45.3213 18.0585 45.334 18.0246C45.351 17.9907 45.351 17.9525 45.3382 17.9144L45.6182 17.7362L46.0253 18.3724L45.7454 18.5505C45.7157 18.5251 45.6818 18.5123 45.6478 18.5123C45.6097 18.5208 45.5503 18.5463 45.4655 18.6014ZM43.9769 17.5242L43.4892 17.838L43.5358 17.9101C43.5994 18.0119 43.6673 18.0755 43.7394 18.0967C43.8115 18.1179 43.8879 18.1009 43.9727 18.0501C44.049 18.0034 44.0914 17.9398 44.1041 17.8634C44.1168 17.7871 44.0914 17.698 44.0235 17.5963L43.9769 17.5242ZM44.4179 16.4809L44.6979 16.3028L45.1177 16.9601L44.8378 17.1382C44.8166 17.1043 44.7827 17.0873 44.7402 17.0873C44.6936 17.0873 44.63 17.1128 44.5494 17.1636L44.3204 17.3121L44.4052 17.4478C44.5367 17.6556 44.5961 17.855 44.5834 18.0374C44.5664 18.224 44.4604 18.3808 44.2653 18.5038C44.066 18.6311 43.8794 18.665 43.7012 18.5971C43.5273 18.5336 43.3704 18.3978 43.2389 18.19L42.8063 17.5115L43.099 17.3249C43.1287 17.3545 43.1626 17.3672 43.1965 17.3672C43.2304 17.3672 43.2898 17.3376 43.3747 17.2824L44.261 16.7184C44.3458 16.6632 44.3968 16.6208 44.4137 16.5911C44.4307 16.5572 44.4306 16.519 44.4179 16.4809ZM43.6885 16.29L43.3789 15.9295L43.451 15.8702C43.5358 15.7981 43.574 15.7302 43.5655 15.6708C43.557 15.6114 43.5316 15.5521 43.4807 15.4927C43.4298 15.4333 43.3704 15.4036 43.3025 15.4079C43.2347 15.4121 43.1541 15.4588 43.0566 15.5393L42.4671 16.044C42.3695 16.1288 42.3144 16.201 42.2974 16.2688C42.2804 16.3366 42.2974 16.4003 42.3526 16.4596C42.4034 16.519 42.4671 16.5529 42.5392 16.5529C42.6112 16.5529 42.6961 16.5106 42.7978 16.43L42.8615 16.3748L43.1711 16.7353L42.6452 17.1849C42.4119 17.0916 42.2083 16.9389 42.0302 16.7353C41.937 16.6251 41.8648 16.5233 41.8267 16.4257C41.7842 16.3324 41.7673 16.2433 41.7715 16.1585C41.7758 16.0737 41.8055 15.9932 41.8521 15.9168C41.903 15.8404 41.9709 15.7641 42.0557 15.6878L42.7978 15.0516C42.9633 14.9074 43.1287 14.8481 43.2898 14.865C43.451 14.882 43.6206 15.0007 43.803 15.2128C43.9684 15.4036 44.0872 15.6284 44.1592 15.8829L43.6885 16.29ZM40.6604 15.2722L40.1302 14.7675L40.3677 14.5172C40.3974 14.53 40.4314 14.5342 40.4695 14.5257C40.5077 14.5172 40.5543 14.4918 40.618 14.4494L41.5679 13.8005C41.6019 13.7793 41.6273 13.7496 41.6486 13.7199C41.6697 13.686 41.6655 13.6606 41.6486 13.6394L41.9157 13.3594L42.7724 14.178L42.5052 14.4579C42.484 14.4367 42.4586 14.4367 42.4247 14.4579C42.3949 14.4791 42.3653 14.5045 42.3441 14.5427L41.7376 15.5224C41.6994 15.586 41.6782 15.6369 41.6697 15.6708C41.6613 15.7048 41.6655 15.7387 41.6824 15.7684L41.445 16.0186L40.8979 15.497L41.1396 15.2467C41.165 15.2722 41.1947 15.2807 41.2245 15.2722C41.2541 15.2637 41.2711 15.251 41.2838 15.2425C41.322 15.2043 41.3517 15.1619 41.3813 15.1195L41.3983 15.0898L41.0463 14.7548L41.0166 14.776C40.9742 14.8056 40.9318 14.8396 40.8979 14.8778C40.8894 14.8862 40.8809 14.9074 40.8724 14.9371C40.8639 14.9668 40.8766 14.9965 40.9021 15.0219L40.6604 15.2722ZM42.0557 14.0253L41.3305 14.5469L41.5891 14.7929L42.0769 14.0423L42.0557 14.0253ZM40.8639 12.507L41.3686 12.9014L41.165 13.1643C41.1439 13.1474 41.1227 13.1389 41.0972 13.1389C41.0717 13.1389 41.0336 13.1474 40.9869 13.1601L40.3677 13.3213C40.4653 13.4316 40.5204 13.5376 40.5331 13.6351C40.5459 13.7369 40.5035 13.8472 40.4059 13.9744L40.2787 14.1398C40.2236 14.2119 40.1896 14.2671 40.1769 14.3094C40.1684 14.3476 40.1726 14.3815 40.1981 14.3985L39.9861 14.67L39.528 14.3094C39.5365 14.2755 39.5534 14.2416 39.5747 14.2076C39.5959 14.1695 39.634 14.1143 39.6977 14.038L39.88 13.8047C39.9521 13.7157 39.9861 13.6351 39.9903 13.563C39.9945 13.4951 39.9521 13.4273 39.8715 13.3637L39.7485 13.2704L39.5322 13.5461C39.4686 13.6266 39.4347 13.686 39.4305 13.7199C39.4262 13.7539 39.4389 13.7878 39.4601 13.8217L39.2481 14.0931L38.6501 13.6266L38.8622 13.3552C38.9003 13.3722 38.9385 13.3722 38.9682 13.3594C39.0021 13.3467 39.0488 13.3001 39.1082 13.2195L39.757 12.3925C39.8207 12.3119 39.8546 12.2567 39.8588 12.2229C39.863 12.1889 39.8546 12.155 39.8291 12.1211L40.0327 11.8581L40.6307 12.3247L40.4271 12.5876C40.4017 12.5663 40.3677 12.5621 40.3338 12.5748C40.2957 12.5876 40.2447 12.6342 40.1769 12.7233L39.9563 13.0074L40.4483 12.8887C40.5035 12.8759 40.5501 12.8548 40.5883 12.8293C40.6265 12.8039 40.6603 12.7699 40.6901 12.736L40.8639 12.507ZM37.4838 12.9354L36.8265 12.5579L37.0003 12.2567C37.0428 12.2695 37.0767 12.2652 37.1063 12.2483C37.1361 12.2313 37.1785 12.1762 37.2294 12.0914L37.7553 11.1795C37.8061 11.0905 37.8316 11.0311 37.8316 10.9972C37.8316 10.9632 37.8146 10.9293 37.7849 10.8997L37.9503 10.6112L38.6077 10.9887L38.4423 11.2771C38.3999 11.2643 38.366 11.2686 38.3363 11.2856C38.3066 11.3026 38.2642 11.3576 38.2133 11.4425L37.9461 11.909L38.6586 11.7139C38.6841 11.6672 38.7052 11.6291 38.718 11.5994C38.7307 11.5697 38.7349 11.54 38.7392 11.5188C38.7392 11.4976 38.7392 11.4807 38.7264 11.4637C38.718 11.4509 38.7052 11.434 38.6925 11.4171L38.8579 11.1329L39.5195 11.5146L39.3541 11.803C39.316 11.7903 39.2778 11.7945 39.2438 11.8115C39.2099 11.8284 39.1675 11.8793 39.1209 11.9684L38.595 12.8802C38.5441 12.9692 38.5186 13.0287 38.5186 13.0668C38.5186 13.105 38.5356 13.1347 38.5696 13.1643L38.3957 13.4655L37.734 13.0837L37.9079 12.7826C37.9503 12.7954 37.9843 12.7911 38.0182 12.7741C38.0521 12.7572 38.0903 12.7063 38.1412 12.6173L38.3999 12.1634L37.6959 12.3458C37.6407 12.4391 37.6153 12.5028 37.6153 12.5409C37.6153 12.5791 37.628 12.6088 37.662 12.6385L37.4838 12.9354ZM35.9146 9.66969L37.4669 10.3695L37.3311 10.6706C37.2887 10.6621 37.2548 10.6706 37.2251 10.6918C37.1954 10.713 37.1615 10.7682 37.1191 10.8615L36.6865 11.82C36.6441 11.9133 36.6271 11.9768 36.6314 12.0108C36.6356 12.0447 36.6526 12.0786 36.6865 12.1041L36.5466 12.4179L35.8552 12.1083L35.9952 11.7945C36.0376 11.803 36.0715 11.7945 36.1012 11.7775C36.131 11.7563 36.1648 11.7012 36.2073 11.6079L36.7119 10.484L36.3218 10.3101L35.8044 11.4637C35.7238 11.6418 35.6263 11.7605 35.5075 11.8242C35.3887 11.8878 35.2572 11.8878 35.1131 11.8242C35.0706 11.803 35.0283 11.7818 34.9901 11.7563C34.9519 11.7309 34.9138 11.7012 34.8798 11.6672L35.0198 11.3619L35.0749 11.3874C35.1343 11.4128 35.1852 11.4128 35.2276 11.3874C35.2742 11.3619 35.3167 11.2941 35.3633 11.1923L35.7789 10.2677C35.8213 10.1744 35.8383 10.1108 35.8341 10.0769C35.8298 10.0387 35.8086 10.009 35.7789 9.98356L35.9146 9.66969ZM34.0104 10.3653L33.828 10.9166L33.968 10.9632C34.0867 11.0014 34.1801 11.0099 34.2479 10.9802C34.3158 10.9547 34.3666 10.8912 34.3964 10.7936C34.426 10.7088 34.4218 10.6324 34.3836 10.5688C34.3454 10.501 34.2691 10.4501 34.1503 10.4077L34.0104 10.3653ZM33.6966 9.27528L33.8026 8.96147L35.3252 9.46616L35.1173 10.0938L34.7187 9.96237L34.7568 9.8436C34.7695 9.80544 34.761 9.77149 34.7356 9.73332C34.7102 9.69516 34.6508 9.66548 34.5575 9.63153L34.2861 9.54249L34.1418 9.98356L34.3539 10.0557C34.5872 10.132 34.7568 10.2507 34.8586 10.4034C34.9646 10.5561 34.9773 10.7469 34.9053 10.9675C34.8289 11.1923 34.706 11.3364 34.5278 11.3959C34.3497 11.4552 34.1461 11.4467 33.9129 11.3704L33.0901 11.0947L33.2003 10.7682C33.2428 10.7724 33.2767 10.7597 33.3021 10.7384C33.3276 10.713 33.3573 10.6536 33.3912 10.5603L33.722 9.55947C33.7559 9.46189 33.7644 9.39832 33.7602 9.36437C33.7517 9.3262 33.7305 9.29653 33.6966 9.27528ZM31.5887 8.5204L32.3479 8.65608L32.2885 8.98266C32.2419 8.98693 32.2164 9.02082 32.2037 9.08024C32.1994 9.10564 32.1994 9.12689 32.1994 9.15229L32.2631 9.8436L32.56 9.2202C32.5685 9.19895 32.5769 9.17354 32.5812 9.15229C32.5854 9.1184 32.5854 9.09294 32.5769 9.07596C32.5685 9.05899 32.5515 9.04207 32.526 9.0251L32.5854 8.69852L33.3106 8.82999L33.2512 9.15657C33.2215 9.16078 33.2003 9.17354 33.1792 9.19046C33.158 9.20743 33.1325 9.24139 33.107 9.29653L32.5642 10.3101C32.4963 10.4416 32.4285 10.5476 32.3691 10.6282C32.3097 10.7088 32.2461 10.7682 32.1825 10.8106C32.1189 10.853 32.0468 10.8742 31.9705 10.8827C31.8941 10.8869 31.805 10.8827 31.7032 10.8657C31.6482 10.8572 31.5845 10.8317 31.5166 10.7936L31.5802 10.4458L31.6354 10.4543C31.6947 10.467 31.7457 10.4628 31.7796 10.4458C31.8135 10.4288 31.8432 10.3992 31.8687 10.3483L31.6312 9.04207C31.6057 8.92751 31.5718 8.85967 31.5336 8.8427L31.5887 8.5204ZM29.9686 10.5985L29.2138 10.5391L29.2392 10.1956C29.2816 10.1872 29.3113 10.1702 29.3325 10.1405C29.3537 10.1108 29.3664 10.0472 29.3749 9.9454L29.4555 8.89362C29.464 8.79183 29.4597 8.7282 29.4427 8.69425C29.4258 8.66036 29.4004 8.63917 29.3579 8.62641L29.3834 8.29562L31.1519 8.4313L31.1265 8.76215C31.0883 8.77064 31.0544 8.78755 31.0332 8.81729C31.012 8.84697 30.995 8.9106 30.9907 9.01233L30.9102 10.0642C30.9017 10.1659 30.9059 10.2295 30.9229 10.2635C30.9399 10.2974 30.9653 10.3186 31.0077 10.3313L30.9823 10.6749L30.2232 10.6155L30.2486 10.272C30.291 10.2635 30.3207 10.2465 30.3419 10.2168C30.3631 10.1872 30.3758 10.1235 30.3843 10.0217L30.4776 8.79183L29.9899 8.75366L29.8966 9.98356C29.8881 10.0854 29.8923 10.1532 29.9051 10.1829C29.9178 10.2126 29.9474 10.238 29.9899 10.2507L29.9686 10.5985ZM28.8278 9.01661L28.3528 9.02931L28.3486 8.936C28.3443 8.82572 28.3189 8.75366 28.268 8.71971C28.2171 8.68582 28.1535 8.67306 28.0772 8.67306C27.9966 8.67733 27.9372 8.70274 27.899 8.75788C27.8609 8.81302 27.8439 8.90633 27.8481 9.03358L27.8694 9.80965C27.8736 9.93691 27.8948 10.0302 27.9372 10.0811C27.9796 10.1362 28.039 10.1617 28.1195 10.1574C28.2001 10.1532 28.2638 10.1277 28.3104 10.0684C28.3571 10.0132 28.3783 9.91993 28.374 9.78846L28.3698 9.70364L28.8448 9.69094L28.8617 10.3822C28.6412 10.5052 28.3952 10.5688 28.1238 10.5773C27.9796 10.5816 27.8566 10.5688 27.7548 10.5434C27.6573 10.5179 27.5725 10.4755 27.5131 10.4161C27.4495 10.361 27.4028 10.2889 27.3774 10.1999C27.3477 10.115 27.3307 10.0132 27.3307 9.89874L27.3052 8.91903C27.301 8.69852 27.3519 8.5331 27.4707 8.4186C27.5852 8.30411 27.7845 8.24475 28.0687 8.23627C28.3231 8.22778 28.5691 8.27864 28.8151 8.38044L28.8278 9.01661ZM27.0508 10.5816L25.4562 10.7809L25.4138 10.4373C25.4519 10.4204 25.4816 10.3992 25.4943 10.3653C25.5071 10.3313 25.5071 10.2677 25.4943 10.1659L25.3628 9.12262C25.3501 9.02082 25.3332 8.95725 25.312 8.92751C25.2908 8.89784 25.2611 8.88086 25.2187 8.87665L25.1763 8.55007L26.7709 8.35076L26.8642 9.08445L26.3722 9.1438L26.3638 9.06326C26.3511 8.96568 26.3214 8.90211 26.2789 8.86816C26.2323 8.83421 26.1602 8.82572 26.0626 8.83848L25.8718 8.86395L25.9312 9.35588L26.3892 9.30074L26.4359 9.68667L25.9778 9.74181L26.0457 10.3016L26.2789 10.272C26.3638 10.2635 26.4189 10.2338 26.4529 10.1956C26.4825 10.1532 26.4952 10.0811 26.4825 9.97929L26.4656 9.8309L26.9575 9.77149L27.0508 10.5816ZM24.0736 10.3016L24.1118 10.4586C24.133 10.5603 24.1626 10.6197 24.1966 10.6451C24.2305 10.6706 24.2687 10.6791 24.3154 10.6749L24.3917 11.0099L23.6156 11.188L23.5392 10.853C23.5774 10.8317 23.6029 10.8063 23.6113 10.7724C23.6198 10.7384 23.6156 10.6706 23.5944 10.5731L23.3569 9.54671C23.3356 9.44919 23.3102 9.38556 23.289 9.36009C23.2636 9.33469 23.2296 9.32193 23.1915 9.31772L23.1151 8.99542L23.993 8.79183C24.2559 8.73247 24.4595 8.74939 24.6037 8.8427C24.7437 8.936 24.8412 9.09715 24.8921 9.32193C24.9261 9.46616 24.9388 9.59336 24.9261 9.70364C24.9176 9.81393 24.8879 9.90723 24.8455 9.98356C24.8031 10.0599 24.7437 10.1235 24.6716 10.1702C24.5995 10.2168 24.5189 10.2507 24.4256 10.272C24.4044 10.2762 24.3789 10.2805 24.3492 10.2847C24.3196 10.2889 24.2857 10.2932 24.2517 10.2932C24.2178 10.2932 24.1839 10.2974 24.1542 10.2974C24.116 10.3059 24.0906 10.3016 24.0736 10.3016ZM23.8403 9.29225L23.9888 9.92842L24.1754 9.89026C24.2857 9.86479 24.3535 9.82663 24.3789 9.76727C24.4044 9.71213 24.4044 9.6231 24.3789 9.50854C24.3492 9.38556 24.3111 9.30502 24.2602 9.27106C24.2093 9.2329 24.133 9.22862 24.0312 9.24987L23.8403 9.29225ZM20.8546 10.4755L20.3966 10.6536L20.2185 10.2041C20.3711 10.0005 20.5789 9.84782 20.8504 9.74181C21.0794 9.65278 21.2703 9.63153 21.4272 9.68245C21.5841 9.73332 21.6986 9.85209 21.7707 10.0344C21.8173 10.1574 21.8258 10.272 21.7919 10.378C21.758 10.484 21.6647 10.5901 21.5162 10.7003C21.6943 10.6579 21.8386 10.6664 21.9403 10.7215C22.0421 10.7766 22.1227 10.8784 22.1778 11.0226C22.339 11.434 22.1779 11.7351 21.6859 11.9302C21.5671 11.9768 21.4357 12.0066 21.3042 12.0235C21.1685 12.0362 21.0328 12.0362 20.897 12.0193L20.7104 11.5442L21.1939 11.3534C21.2279 11.4425 21.2787 11.5019 21.3381 11.5315C21.3975 11.5612 21.4653 11.5612 21.5375 11.5315C21.6053 11.5061 21.6477 11.4594 21.6732 11.4001C21.6943 11.3364 21.6901 11.2643 21.6562 11.1753C21.618 11.0778 21.5671 11.0099 21.4992 10.9802C21.4357 10.9505 21.3509 10.9547 21.2406 10.9972L20.9734 11.1032L20.8462 10.7809L21.1303 10.6706C21.2194 10.6367 21.2787 10.5901 21.3127 10.5264C21.3466 10.467 21.3466 10.395 21.3169 10.3101C21.283 10.2295 21.2363 10.1744 21.1727 10.1447C21.1091 10.1192 21.0413 10.1192 20.9691 10.1447C20.9098 10.1702 20.8673 10.2083 20.8419 10.2677C20.825 10.3271 20.8292 10.395 20.8546 10.4755ZM19.7562 10.8912L20.2821 11.803C20.333 11.892 20.3754 11.9429 20.4008 11.9641C20.4305 11.9811 20.4644 11.9853 20.5026 11.9726L20.6765 12.2737L20.0234 12.6512L19.8495 12.3543C19.8792 12.3247 19.8919 12.2949 19.8962 12.2567C19.9004 12.2186 19.8749 12.1592 19.8241 12.0701L19.2982 11.1583C19.2472 11.0693 19.2049 11.0184 19.1709 11.0014C19.137 10.9845 19.1031 10.9802 19.0606 10.993L18.8953 10.7046L19.5484 10.3271L19.7138 10.6155C19.6841 10.6451 19.6714 10.6749 19.6714 10.7088C19.6841 10.7427 19.7096 10.8063 19.7562 10.8912ZM18.6154 12.3331L18.908 12.8336L18.9801 12.7911C19.0861 12.7318 19.1497 12.6639 19.1752 12.596C19.2006 12.5282 19.1879 12.4476 19.137 12.3628C19.0946 12.2864 19.0352 12.2398 18.9589 12.2229C18.8825 12.2059 18.7935 12.2271 18.6875 12.2907L18.6154 12.3331ZM17.5933 11.8454L17.4278 11.557L18.1022 11.1668L18.2676 11.4552C18.2336 11.4764 18.2167 11.5061 18.2124 11.5527C18.2082 11.5994 18.2294 11.663 18.2803 11.7478L18.416 11.9853L18.556 11.9048C18.768 11.7818 18.9674 11.7309 19.1539 11.7563C19.3406 11.7818 19.489 11.892 19.6078 12.0956C19.7265 12.2992 19.7477 12.49 19.6798 12.6597C19.6078 12.8336 19.4635 12.9777 19.2515 13.105L18.556 13.5079L18.3821 13.211C18.4118 13.1813 18.4287 13.1474 18.4287 13.1135C18.4287 13.0795 18.4033 13.0159 18.3524 12.9311L17.8265 12.0193C17.7756 11.9302 17.7374 11.8793 17.7035 11.8623C17.6696 11.8369 17.6314 11.8327 17.5933 11.8454ZM17.7799 14.0847L17.1564 14.5766L16.9486 14.3137C16.9698 14.2755 16.9783 14.2373 16.9741 14.2034C16.9698 14.1695 16.9359 14.1101 16.8723 14.0295L16.2192 13.2025C16.164 13.1304 16.1174 13.088 16.0792 13.071C16.041 13.0541 16.0071 13.0541 15.9689 13.071L15.7654 12.8124L16.9656 11.8666L17.4236 12.4476L17.0589 12.736L16.9741 12.63C16.9316 12.5791 16.885 12.5494 16.8299 12.5409C16.7747 12.5325 16.7111 12.5579 16.639 12.6173L16.516 12.7106L17.2921 13.6945C17.3515 13.7708 17.4066 13.8217 17.4448 13.8387C17.4872 13.8599 17.5296 13.8514 17.5721 13.8175L17.7799 14.0847ZM15.7017 14.8311L15.812 14.9456C15.8841 15.0219 15.9393 15.0601 15.9816 15.0644C16.0241 15.0686 16.0622 15.0559 16.0961 15.0304L16.3337 15.2807L15.7569 15.8319L15.5194 15.5818C15.5406 15.5478 15.5491 15.5097 15.5406 15.4758C15.5321 15.4418 15.4939 15.3867 15.4218 15.3145L14.6966 14.5512C14.6288 14.4791 14.5736 14.4367 14.5397 14.4282C14.5058 14.4197 14.4718 14.4239 14.4337 14.4452L14.2047 14.2076L14.8577 13.5842C15.0529 13.3976 15.2352 13.3085 15.4049 13.317C15.5745 13.3255 15.7399 13.4146 15.9011 13.5842C16.0028 13.6902 16.0792 13.7962 16.1259 13.8938C16.1725 13.9913 16.1979 14.0847 16.2022 14.1737C16.2064 14.2628 16.1852 14.3476 16.1513 14.4239C16.1131 14.5003 16.0622 14.5724 15.9944 14.636C15.9774 14.6487 15.9605 14.6657 15.935 14.6869C15.9095 14.7081 15.8841 14.725 15.8544 14.7463C15.8247 14.7633 15.7993 14.7844 15.7696 14.7972C15.7399 14.8141 15.7187 14.8226 15.7017 14.8311ZM14.985 14.0847L15.4388 14.5597L15.5787 14.4282C15.6593 14.3519 15.6975 14.284 15.6932 14.2204C15.689 14.1568 15.6424 14.0847 15.5618 13.9998C15.4769 13.9108 15.4006 13.8599 15.337 13.8557C15.2734 13.8514 15.2055 13.8853 15.1292 13.9575L14.985 14.0847ZM14.2047 15.0431L14.9977 15.7302C15.074 15.7981 15.1292 15.8362 15.1631 15.8404C15.1971 15.8489 15.231 15.8404 15.2649 15.815L15.5279 16.0398L15.0317 16.6124L14.7687 16.3876C14.7857 16.3494 14.7899 16.3155 14.7814 16.2773C14.7729 16.2433 14.7306 16.1925 14.6542 16.1246L13.8611 15.4375C13.7848 15.3697 13.7296 15.3358 13.6915 15.3315C13.6533 15.3273 13.6194 15.3358 13.5855 15.357L13.3352 15.1364L13.8314 14.5639L14.0817 14.7844C14.0647 14.8226 14.0604 14.8565 14.0732 14.8862C14.0859 14.9286 14.1283 14.9753 14.2047 15.0431ZM13.594 16.7777L14.0308 17.1594L14.0859 17.0958C14.1665 17.0025 14.2047 16.9219 14.2089 16.8456C14.2089 16.7735 14.1707 16.7014 14.0986 16.6378C14.0308 16.5784 13.9586 16.5572 13.8823 16.5657C13.806 16.5742 13.7296 16.6251 13.649 16.7184L13.594 16.7777ZM12.4701 16.6505L12.2198 16.43L12.7287 15.8404L12.979 16.061C12.9535 16.0907 12.945 16.1288 12.9578 16.1713C12.9705 16.2137 13.0129 16.2688 13.085 16.3324L13.2928 16.5106L13.3989 16.3876C13.56 16.201 13.7339 16.0907 13.9163 16.0525C14.0986 16.0143 14.2767 16.0737 14.4548 16.2264C14.633 16.3833 14.7178 16.5529 14.7051 16.7395C14.6924 16.9262 14.6076 17.1128 14.4464 17.2994L13.9163 17.9059L13.6533 17.6811C13.6745 17.6429 13.6745 17.609 13.666 17.575C13.6533 17.5411 13.6109 17.4902 13.5345 17.4266L12.7415 16.7395C12.6652 16.6717 12.61 16.6378 12.5761 16.6293C12.5379 16.6166 12.504 16.6251 12.4701 16.6505ZM11.5498 17.4987L11.8975 16.9601L12.1774 17.1425C12.1647 17.1636 12.1562 17.1891 12.1605 17.2146C12.1647 17.24 12.1732 17.2739 12.1901 17.3249L12.4107 17.9228C12.5124 17.8168 12.61 17.7532 12.7075 17.7278C12.8051 17.7065 12.9196 17.7362 13.0553 17.8211L13.2334 17.9356C13.3098 17.9864 13.3692 18.0119 13.4116 18.0204C13.454 18.0289 13.4837 18.0161 13.5007 17.9907L13.789 18.1773L13.4752 18.6692C13.4412 18.665 13.4073 18.6523 13.3692 18.6353C13.331 18.6184 13.2716 18.5844 13.1911 18.5293L12.945 18.3724C12.8475 18.3088 12.7627 18.279 12.6948 18.2833C12.6269 18.2875 12.5634 18.3342 12.5082 18.419L12.4234 18.5505L12.716 18.7414C12.8009 18.7965 12.8645 18.8262 12.8984 18.8262C12.9323 18.8262 12.9663 18.8134 12.996 18.788L13.2886 18.9746L12.8772 19.6107L12.5888 19.4241C12.6015 19.386 12.6015 19.3478 12.5846 19.3181C12.5676 19.2884 12.5167 19.246 12.4319 19.1909L11.5498 18.6226C11.4649 18.5675 11.4055 18.542 11.3716 18.5378C11.3377 18.5378 11.3037 18.5505 11.2741 18.5802L10.9941 18.3978L11.4055 17.7616L11.6855 17.944C11.6685 17.9737 11.6643 18.0034 11.6812 18.0416C11.6982 18.0755 11.7491 18.1222 11.8424 18.1815L12.1477 18.3766L11.9823 17.8974C11.9612 17.8423 11.9399 17.7998 11.9102 17.7616C11.8806 17.7278 11.8466 17.6938 11.8042 17.6683L11.5498 17.4987Z" fill="#BA2828"/>
<path d="M40.4032 43.3606L40.0172 43.6363L39.996 43.6066C39.9324 43.5176 39.8646 43.4624 39.7925 43.4497C39.7203 43.437 39.6525 43.4497 39.5931 43.4921C39.5295 43.5388 39.4956 43.5939 39.4913 43.6618C39.4913 43.7296 39.5253 43.8144 39.6016 43.9205L40.0512 44.5566C40.1232 44.6627 40.1954 44.722 40.259 44.7475C40.3226 44.7687 40.3905 44.756 40.4541 44.7093C40.5177 44.6627 40.5558 44.6032 40.5643 44.5312C40.5728 44.4591 40.5389 44.37 40.4626 44.264L40.4159 44.1961L40.8018 43.9205L41.2005 44.4845C41.086 44.7093 40.9163 44.9001 40.6958 45.0528C40.5771 45.1376 40.4668 45.197 40.3693 45.2309C40.2717 45.2649 40.1784 45.2734 40.0978 45.2607C40.013 45.2479 39.9366 45.214 39.8646 45.1589C39.7925 45.1037 39.7246 45.0274 39.6568 44.9341L39.0884 44.1368C38.9612 43.9586 38.9145 43.789 38.9485 43.6321C38.9824 43.4751 39.1139 43.314 39.3429 43.1528C39.5507 43.0044 39.784 42.9069 40.0427 42.8559L40.4032 43.3606ZM38.7788 44.3021L39.3429 45.1885C39.398 45.2734 39.4447 45.3285 39.4786 45.3455C39.5168 45.3624 39.5465 45.3667 39.572 45.3497L39.7585 45.6423L39.1181 46.0495L38.9315 45.7568C38.957 45.7399 38.9697 45.7102 38.9697 45.6678C38.9697 45.6253 38.9443 45.5618 38.8891 45.477L38.3251 44.5905C38.2699 44.5057 38.2233 44.4549 38.1851 44.4379C38.1469 44.4209 38.113 44.4209 38.0918 44.4336L37.9137 44.1538L38.5541 43.7466L38.7322 44.0265C38.7067 44.0435 38.6982 44.0689 38.6982 44.1113C38.694 44.1538 38.7237 44.2131 38.7788 44.3021ZM36.6159 44.828L37.2945 44.493L37.4429 44.7899C37.4132 44.8153 37.3963 44.845 37.3963 44.8832C37.3963 44.9171 37.4175 44.9807 37.4599 45.0698L38.024 46.2064L38.1172 46.1597C38.2233 46.1089 38.2741 46.0495 38.2741 45.9816C38.2741 45.9137 38.2445 45.8204 38.1851 45.7059L38.1003 45.5363L38.5116 45.3327L38.9358 46.1895L37.6126 46.8425L37.4599 46.5329C37.4938 46.5075 37.5108 46.4736 37.5108 46.4396C37.5108 46.4057 37.4896 46.3421 37.4471 46.2488L36.9806 45.3073C36.934 45.2182 36.9001 45.1631 36.8704 45.1419C36.8407 45.1207 36.8068 45.1164 36.7643 45.1249L36.6159 44.828ZM36.6371 47.2836L35.7932 47.6187L35.6659 47.2964C35.6999 47.2709 35.721 47.2412 35.7253 47.2073C35.7295 47.1733 35.7126 47.1098 35.6786 47.0122L35.2885 46.0325C35.2503 45.9392 35.2206 45.8799 35.1909 45.8586C35.1612 45.8374 35.1273 45.8289 35.0849 45.8332L34.9619 45.5278L35.7762 45.2055C36.0306 45.1037 36.23 45.0783 36.3742 45.1207C36.5226 45.1674 36.6329 45.2861 36.7092 45.4854C36.7516 45.5957 36.7728 45.6932 36.7601 45.7696C36.7516 45.8501 36.705 45.9307 36.6202 46.0113C36.6965 46.0155 36.7601 46.0282 36.8153 46.0495C36.8661 46.0707 36.9128 46.1004 36.9509 46.1343C36.9891 46.1725 37.0231 46.2149 37.0485 46.2658C37.0782 46.3167 37.1036 46.376 37.1291 46.4396C37.2097 46.639 37.2139 46.8044 37.1418 46.9358C37.0697 47.0631 36.9043 47.1776 36.6371 47.2836ZM36.0306 46.4778L36.2384 47.0037L36.4547 46.9189C36.548 46.8807 36.6032 46.8341 36.6286 46.7747C36.654 46.7153 36.6498 46.639 36.6117 46.5457C36.5735 46.4524 36.5268 46.393 36.4632 46.3718C36.4039 46.3506 36.3275 46.3591 36.23 46.3973L36.0306 46.4778ZM35.7083 45.6678L35.8907 46.1258L36.0815 46.0495C36.1706 46.0155 36.23 45.9732 36.2554 45.9222C36.2809 45.8756 36.2809 45.812 36.2512 45.7314C36.2173 45.6423 36.1706 45.5872 36.1155 45.5703C36.0603 45.549 35.9882 45.5575 35.8992 45.5915L35.7083 45.6678ZM34.9279 45.5957L35.017 45.918C34.9364 45.9392 34.9152 46.0325 34.9619 46.1895L35.2206 47.1225C35.2588 47.2582 35.2757 47.3727 35.2757 47.4745C35.2757 47.572 35.2545 47.6568 35.2121 47.7332C35.1697 47.8053 35.1061 47.8689 35.0212 47.9156C34.9364 47.9664 34.8304 48.0089 34.6989 48.047C34.5675 48.0852 34.453 48.1022 34.3554 48.1022C34.2579 48.1022 34.1688 48.0852 34.0967 48.0428C34.0246 48.0004 33.961 47.941 33.9101 47.8562C33.8592 47.7713 33.8125 47.6653 33.7744 47.5296L33.5157 46.5966C33.4733 46.4396 33.4096 46.3718 33.3291 46.393L33.24 46.0707L33.9822 45.8629L34.0713 46.1852C33.9949 46.2064 33.9822 46.3124 34.0331 46.5033L34.2706 47.3557C34.3087 47.4914 34.3512 47.5805 34.4021 47.6145C34.453 47.6526 34.5123 47.6568 34.5929 47.6356C34.6693 47.6145 34.7159 47.5762 34.7413 47.5212C34.7626 47.466 34.7583 47.3684 34.7201 47.2327L34.4827 46.3803C34.4275 46.1895 34.3639 46.1046 34.2876 46.1258L34.1985 45.8035L34.9279 45.5957ZM32.5106 47.7417L32.5403 47.8986C32.5572 48.0004 32.5869 48.064 32.6166 48.0894C32.6505 48.1149 32.6887 48.1276 32.7311 48.1276L32.7947 48.4669L32.0101 48.6153L31.9465 48.276C31.9847 48.2591 32.0101 48.2337 32.0229 48.1997C32.0356 48.1657 32.0313 48.0979 32.0101 48.0004L31.815 46.9655C31.7981 46.868 31.7768 46.8044 31.7514 46.7747C31.7302 46.7492 31.6963 46.7323 31.6538 46.728L31.5945 46.4015L32.4808 46.2361C32.7481 46.1852 32.9516 46.2106 33.0873 46.3124C33.2231 46.4142 33.3164 46.5754 33.3588 46.8044C33.3842 46.9486 33.3927 47.0758 33.38 47.1861C33.3673 47.2964 33.3333 47.3854 33.2866 47.4617C33.24 47.5381 33.1806 47.5975 33.1085 47.6399C33.0365 47.6823 32.9516 47.7162 32.8583 47.7332C32.8372 47.7374 32.8117 47.7417 32.782 47.7417C32.7481 47.7459 32.7184 47.7459 32.6844 47.7459C32.6505 47.7459 32.6166 47.7459 32.5869 47.7459C32.553 47.7501 32.5275 47.7459 32.5106 47.7417ZM32.3197 46.728L32.4385 47.3727L32.6251 47.3387C32.7354 47.3176 32.8032 47.2794 32.8329 47.2243C32.8626 47.1691 32.8668 47.0843 32.8456 46.9655C32.8244 46.8425 32.7862 46.762 32.7354 46.7238C32.6844 46.6856 32.6081 46.6772 32.5063 46.6941L32.3197 46.728ZM31.7175 48.6662L30.1228 48.8571L30.0805 48.5135C30.1186 48.4966 30.1483 48.4753 30.161 48.4415C30.1738 48.4075 30.1737 48.3439 30.1653 48.2421L30.0422 47.1946C30.0295 47.0928 30.0126 47.0292 29.9914 46.9995C29.9702 46.9698 29.9405 46.9528 29.8981 46.9486L29.8599 46.622L31.4545 46.4311L31.5436 47.1691L31.0516 47.2285L31.0431 47.1479C31.0304 47.0503 31.005 46.9868 30.9583 46.9528C30.9117 46.9189 30.8395 46.9104 30.742 46.9231L30.5554 46.9443L30.6148 47.4363L31.0728 47.3812L31.1195 47.7671L30.6615 47.8223L30.7293 48.382L30.9583 48.3566C31.0431 48.3481 31.0983 48.3227 31.1322 48.2803C31.1619 48.2379 31.1746 48.1657 31.1619 48.064L31.1449 47.9156L31.6369 47.8562L31.7175 48.6662ZM28.8505 48.8867L28.0956 48.9122L28.0829 48.5644C28.1168 48.5644 28.1465 48.5432 28.1635 48.5093C28.1847 48.4753 28.1889 48.4033 28.1889 48.3015L28.155 47.2497C28.1508 47.1479 28.138 47.0801 28.1168 47.0461C28.0956 47.0122 28.0659 46.9952 28.032 46.9952L28.0193 46.6602L28.9141 46.6305C29.1856 46.622 29.3764 46.6644 29.4994 46.7662C29.6181 46.8638 29.6818 47.0249 29.6903 47.2454C29.6945 47.3854 29.6691 47.4914 29.6181 47.5762C29.563 47.6568 29.4909 47.7205 29.3934 47.7628C29.4952 47.7968 29.5673 47.8477 29.6054 47.9113C29.6436 47.9791 29.6648 48.0513 29.6648 48.1319L29.6691 48.2548C29.6733 48.3439 29.6818 48.4075 29.6987 48.4415C29.7157 48.4753 29.7411 48.4966 29.7751 48.5051L29.7878 48.8528L29.2322 48.8698C29.2152 48.8401 29.2025 48.8062 29.1898 48.7638C29.1771 48.7214 29.1729 48.6535 29.1686 48.5517L29.1601 48.327C29.1559 48.1997 29.1304 48.1149 29.0838 48.064C29.0371 48.0131 28.9651 47.9876 28.8717 47.9919L28.7063 47.9961L28.7148 48.2803C28.719 48.382 28.7318 48.4499 28.753 48.4838C28.7784 48.5178 28.8038 48.5348 28.8378 48.5348L28.8505 48.8867ZM28.6724 47.0334L28.6936 47.6187L28.8675 47.6145C28.9608 47.6102 29.0371 47.5847 29.0923 47.5339C29.1474 47.483 29.1729 47.4109 29.1729 47.3133C29.1644 47.1182 29.0711 47.0249 28.8929 47.0292L28.6724 47.0334ZM25.8818 48.7044L24.3508 48.416L24.4271 48.0046L25.6655 46.7832L25.4195 46.7365C25.3135 46.7153 25.2414 46.7153 25.1948 46.7365C25.1523 46.7577 25.1184 46.8171 25.1014 46.9231L25.093 46.974L24.6689 46.8935L24.7961 46.2149L26.2974 46.4948L26.2211 46.8935L24.9912 48.1191L25.3008 48.1785C25.3771 48.1912 25.4322 48.1827 25.4746 48.1446C25.5171 48.1106 25.5467 48.0512 25.5595 47.9749L25.5679 47.9198L26.009 48.0046L25.8818 48.7044ZM23.7825 48.2803L22.9724 48.0555L23.0657 47.7205C23.1421 47.7417 23.2014 47.6738 23.2439 47.5212L23.3202 47.2539L23.1336 46.2615C23.1209 46.1937 23.1081 46.147 23.0954 46.1258C23.0827 46.1046 23.0657 46.0919 23.0488 46.0834L23.1378 45.7653L23.7909 45.9477L23.7188 46.2022C23.7018 46.2615 23.6934 46.3124 23.6934 46.3548C23.6934 46.3973 23.6934 46.4396 23.7018 46.4736L23.7443 46.8722L23.9903 46.5542C24.0114 46.5287 24.0327 46.4991 24.0539 46.4609C24.0751 46.4227 24.0963 46.3718 24.109 46.3167L24.1811 46.0622L24.8342 46.2445L24.7452 46.5626C24.7282 46.5584 24.707 46.5626 24.6816 46.5711C24.6561 46.5839 24.6222 46.6135 24.5756 46.6687L23.9054 47.4236L23.8291 47.6908C23.7867 47.8434 23.8036 47.9325 23.88 47.9537L23.7825 48.2803ZM22.7052 46.3803L22.243 46.1937L22.2684 46.1258C22.2981 46.0495 22.3023 45.9816 22.2811 45.9307C22.2557 45.8799 22.209 45.8374 22.137 45.8077C22.0606 45.7781 21.997 45.7781 21.9418 45.8077C21.8867 45.8374 21.8358 45.9095 21.7892 46.0282L21.488 46.7705C21.4414 46.8892 21.4245 46.9825 21.4414 47.0461C21.4583 47.114 21.505 47.1606 21.5771 47.1903C21.6534 47.22 21.7171 47.2158 21.7764 47.1818C21.8358 47.1479 21.8867 47.0673 21.9376 46.9486L22.0055 46.7789L21.8061 46.6984L21.9503 46.3421L22.6077 46.6093L22.1836 47.6568C22.0606 47.6823 21.9334 47.6908 21.8019 47.678C21.6704 47.6653 21.5432 47.6314 21.416 47.5805C21.2802 47.5254 21.17 47.466 21.0894 47.4024C21.0088 47.3387 20.9536 47.2666 20.9198 47.1903C20.8858 47.114 20.8773 47.0292 20.8858 46.9401C20.8943 46.851 20.924 46.7492 20.9664 46.6432L21.3311 45.7356C21.4117 45.5321 21.5305 45.4006 21.6746 45.3412C21.8231 45.2819 22.0267 45.3073 22.2853 45.4133C22.5186 45.5066 22.7307 45.6508 22.913 45.8417L22.7052 46.3803ZM19.6008 46.7365L18.9264 46.3973L19.0834 46.0877C19.113 46.1046 19.147 46.1004 19.1809 46.0792C19.2148 46.058 19.253 46.0028 19.2997 45.9095L19.7704 44.9723C19.8171 44.8832 19.8383 44.8153 19.834 44.7772C19.8298 44.7348 19.8171 44.705 19.7832 44.6923L19.9315 44.3954L20.7331 44.7983C20.9749 44.9213 21.1233 45.0528 21.1827 45.197C21.242 45.3412 21.2209 45.5108 21.1191 45.7102C21.0554 45.8332 20.9834 45.918 20.8943 45.9647C20.8095 46.0113 20.712 46.0282 20.6102 46.0198C20.6823 46.1004 20.7204 46.1767 20.7247 46.253C20.7247 46.3294 20.7077 46.4057 20.6738 46.4778L20.6186 46.5881C20.5762 46.6687 20.555 46.728 20.555 46.7662C20.555 46.8044 20.5677 46.8341 20.5932 46.8595L20.4362 47.1691L19.94 46.9189C19.94 46.885 19.9443 46.8468 19.9528 46.8044C19.9655 46.762 19.991 46.6984 20.0333 46.6093L20.1351 46.4057C20.1903 46.2955 20.2115 46.2022 20.1946 46.1385C20.1776 46.0707 20.1266 46.0155 20.0418 45.9732L19.8977 45.9011L19.7704 46.1555C19.7237 46.2488 19.7026 46.3124 19.7068 46.3548C19.711 46.3973 19.728 46.4227 19.7577 46.4396L19.6008 46.7365ZM20.3302 45.0231L20.0673 45.5448L20.22 45.6211C20.3048 45.6636 20.3854 45.6763 20.4575 45.6593C20.5296 45.6423 20.589 45.5915 20.6313 45.5024C20.7204 45.3285 20.6823 45.2012 20.5211 45.1164L20.3302 45.0231ZM18.3921 46.1004L17.6838 45.6423L17.8704 45.354C17.9341 45.3964 18.0104 45.3497 18.0994 45.2182L18.2521 44.985L18.3751 43.9798C18.3836 43.9077 18.3836 43.8611 18.3793 43.8357C18.3709 43.8102 18.3624 43.7932 18.3454 43.7805L18.5235 43.5048L19.0918 43.8738L18.9477 44.0943C18.9137 44.1453 18.8925 44.1919 18.8756 44.2343C18.8586 44.2767 18.8501 44.3149 18.8501 44.3488L18.7738 44.739L19.1046 44.51C19.1342 44.493 19.164 44.4718 19.1936 44.4379C19.2275 44.4082 19.2573 44.3658 19.2912 44.3149L19.4354 44.0943L20.0037 44.4633L19.8255 44.739C19.8086 44.7305 19.7874 44.7263 19.7619 44.7305C19.7365 44.7348 19.6941 44.756 19.6304 44.7899L18.7611 45.3073L18.6083 45.5405C18.5235 45.672 18.5108 45.7611 18.5787 45.8035L18.3921 46.1004ZM18.0019 43.1359L18.5108 43.5261L18.3072 43.789C18.286 43.772 18.2649 43.7635 18.2394 43.7635C18.2139 43.7635 18.1758 43.772 18.1291 43.7847L17.5142 43.9502C17.6117 44.0604 17.6668 44.1622 17.6796 44.264C17.6923 44.3658 17.6541 44.476 17.5566 44.6032L17.4294 44.7687C17.3742 44.8408 17.3403 44.9001 17.3276 44.9383C17.3191 44.9765 17.3233 45.0104 17.353 45.0274L17.141 45.2988L16.6787 44.9426C16.6872 44.9086 16.7041 44.8747 16.7254 44.8408C16.7465 44.8026 16.7847 44.7475 16.8441 44.6712L17.0222 44.4379C17.0943 44.3446 17.1283 44.264 17.1325 44.1961C17.1325 44.1283 17.0943 44.0604 17.0137 43.9968L16.8907 43.9035L16.6787 44.1792C16.6151 44.2598 16.5811 44.3191 16.5811 44.3531C16.5769 44.387 16.5896 44.4209 16.6108 44.4549L16.3988 44.7305L15.8008 44.2682L16.0129 43.9968C16.051 44.0138 16.0892 44.0138 16.1189 44.001C16.1528 43.9883 16.1995 43.9417 16.2588 43.8611L16.8992 43.0299C16.9628 42.9493 16.9925 42.8941 16.9968 42.8559C17.001 42.8221 16.9925 42.7881 16.9628 42.7542L17.1664 42.4912L17.7644 42.9535L17.5608 43.2165C17.5354 43.1952 17.5014 43.191 17.4675 43.2037C17.4336 43.2165 17.3784 43.2673 17.3149 43.3522L17.0943 43.6363L17.5862 43.5133C17.6414 43.5006 17.688 43.4794 17.7262 43.454C17.7644 43.4285 17.7983 43.3946 17.828 43.3564L18.0019 43.1359Z" fill="#BA2828"/>
<path fill-rule="evenodd" clip-rule="evenodd" d="M24.349 7.60406L24.3066 7.31993C24.506 7.18418 24.7265 6.90854 24.489 6.23848C24.9216 6.48866 25.5026 6.68797 26.4102 6.64559C27.5595 6.59045 28.0769 5.49202 28.06 4.52082C27.9667 2.63355 25.9394 2.31547 25.4856 3.5793C25.2269 4.24939 25.7528 5.12729 26.4229 4.32573C26.6901 4.0543 27.0039 4.24939 26.9912 4.58443C26.9869 4.71591 26.9319 4.86859 26.8046 5.0255C26.2575 5.44113 25.7528 5.56836 25.2058 5.15697C24.6841 4.59715 24.5866 3.75319 24.8919 3.05765C24.9937 2.83287 25.1294 2.63778 25.2948 2.45542C25.8631 1.79382 26.9869 1.71748 28.026 2.45542C28.0218 2.41725 28.026 2.34091 28.0345 2.24761C28.0557 1.91257 28.1745 1.33578 28.5052 1.33154H28.5137H28.5222C28.853 1.33578 28.9718 1.90833 28.993 2.24761C29.0015 2.34091 29.0015 2.41725 29.0015 2.45542C30.0447 1.71748 31.1644 1.79382 31.7327 2.45542C31.9108 2.64627 32.0466 2.84984 32.1526 3.08734C32.4452 3.76591 32.335 4.60564 31.8218 5.15274C31.2747 5.56836 30.77 5.43689 30.2229 5.02126C30.0957 4.86434 30.0405 4.71167 30.0363 4.58019C30.0236 4.24515 30.3374 4.05006 30.6046 4.32149C31.2535 5.0976 31.7878 4.30876 31.5419 3.57506C31.0414 2.27306 29.0609 2.67172 28.9676 4.51658C28.9548 5.48778 29.4638 6.60315 30.6173 6.64138C31.122 6.65829 31.7412 6.66257 32.5385 6.2342C32.3943 6.60743 32.3477 7.12061 32.7209 7.31565L32.6785 7.59985C31.4613 7.35382 30.0617 7.19694 28.501 7.19694C27.3263 7.18418 25.5154 7.34539 24.349 7.60406Z" fill="#BA2828"/>
<path fill-rule="evenodd" clip-rule="evenodd" d="M16.6666 10.7855L16.5182 10.5395C16.6497 10.3402 16.7472 9.99672 16.2722 9.47083C16.7684 9.5344 17.3791 9.49623 18.2018 9.1103C19.2409 8.62258 19.3003 7.40538 18.9143 6.51476C18.1043 4.80987 16.111 5.28911 16.1746 6.62932C16.1916 7.34603 17.0144 7.96101 17.3282 6.9601C17.4682 6.60807 17.8371 6.66748 17.9517 6.98129C17.9983 7.10428 18.0068 7.26542 17.9474 7.46053C17.6039 8.05426 17.184 8.36385 16.5224 8.19421C15.8227 7.87613 15.4113 7.13395 15.4282 6.37907C15.4367 6.13308 15.4833 5.89983 15.5724 5.66657C15.8438 4.83956 16.8532 4.33912 18.0958 4.61903C18.0789 4.5851 18.0492 4.513 18.0237 4.42394C17.9135 4.10586 17.8074 3.52483 18.1085 3.3976L18.117 3.39336L18.1255 3.38912C18.4309 3.26613 18.7617 3.74961 18.9101 4.05497C18.9525 4.13979 18.9865 4.20764 18.995 4.24581C19.6735 3.16434 20.7423 2.80809 21.5184 3.19827C21.7559 3.30854 21.9594 3.44425 22.1461 3.62237C22.6762 4.13554 22.8925 4.95831 22.6295 5.65809C22.2817 6.25182 21.7686 6.32393 21.1028 6.15005C20.9247 6.05675 20.8144 5.93376 20.7634 5.815C20.6235 5.50965 20.8398 5.20854 21.1876 5.35697C22.0824 5.82349 22.2775 4.8947 21.7686 4.30943C20.8059 3.29581 19.1306 4.42394 19.7498 6.16277C20.1061 7.06611 21.0095 7.90159 22.0867 7.49448C22.5617 7.31635 23.1342 7.08309 23.7067 6.38329C23.7152 6.78619 23.8679 7.27819 24.2878 7.31208L24.3556 7.592C23.1342 7.82954 21.7813 8.22395 20.3436 8.81768C19.2536 9.25448 17.6463 10.0984 16.6666 10.7855Z" fill="#BA2828"/>
<path fill-rule="evenodd" clip-rule="evenodd" d="M10.785 16.6632L10.556 16.4936C10.6027 16.256 10.5602 15.9041 9.91985 15.5987C10.4034 15.4672 10.9547 15.2 11.5654 14.5299C12.3415 13.6817 11.9259 12.5367 11.2304 11.858C9.83076 10.59 8.17256 11.7987 8.7451 13.0116C9.03772 13.669 10.0301 13.9192 9.93683 12.8801C9.93255 12.4985 10.2931 12.4137 10.5221 12.6596C10.6112 12.7529 10.6832 12.9014 10.7002 13.1049C10.6069 13.7835 10.3439 14.2331 9.66112 14.3264C8.89354 14.3009 8.2277 13.7708 7.95627 13.0668C7.87145 12.8378 7.82479 12.6002 7.81631 12.3543C7.75268 11.4849 8.49064 10.6366 9.75022 10.4203C9.72054 10.3949 9.66961 10.3397 9.60604 10.2677C9.38127 10.0132 9.05891 9.52123 9.29217 9.28796L9.29638 9.28375L9.30066 9.27948C9.53393 9.05049 10.0259 9.37278 10.2803 9.59335C10.3524 9.6527 10.4076 9.70784 10.433 9.73752C10.6493 8.47795 11.4975 7.73998 12.367 7.80361C12.6299 7.8121 12.8674 7.86296 13.1091 7.95627C13.7962 8.2277 14.3093 8.90204 14.3348 9.64849C14.2415 10.327 13.792 10.5943 13.1133 10.6876C12.914 10.6663 12.7656 10.5985 12.6681 10.5094C12.4221 10.2804 12.5069 9.91992 12.8886 9.92413C13.8937 10.0132 13.7198 9.08016 13.0243 8.7324C11.7562 8.16835 10.6366 9.8478 11.875 11.2177C12.5493 11.9132 13.7029 12.3416 14.5468 11.5527C14.9158 11.205 15.3569 10.7724 15.6156 9.90716C15.7767 10.2762 16.1076 10.6706 16.5062 10.5433L16.6758 10.7724C15.641 11.4594 14.5383 12.3373 13.4399 13.44C12.5959 14.2585 11.4297 15.6538 10.785 16.6632Z" fill="#BA2828"/>
<path fill-rule="evenodd" clip-rule="evenodd" d="M7.60323 24.3443L7.32337 24.2765C7.27244 24.0432 7.1028 23.7293 6.39458 23.6954C6.789 23.3901 7.19611 22.932 7.50571 22.0753C7.89591 20.9939 7.07734 20.0948 6.17401 19.7385C4.39701 19.1066 3.32403 20.8539 4.32067 21.7573C4.84232 22.2535 5.8517 22.105 5.37246 21.1762C5.22402 20.8285 5.52514 20.608 5.83049 20.7521C5.94924 20.8073 6.07223 20.9133 6.16553 21.0914C6.33944 21.753 6.26732 22.2704 5.67357 22.6182C4.95684 22.8896 4.13831 22.6522 3.61666 22.1093C3.44702 21.9312 3.31978 21.7318 3.21376 21.507C2.81934 20.7309 3.17983 19.6622 4.2613 18.9836C4.22313 18.9709 4.15527 18.9412 4.07045 18.8988C3.76934 18.7504 3.28161 18.4195 3.40461 18.1142L3.40885 18.1057L3.41309 18.0972C3.54032 17.7961 4.12135 17.9021 4.43942 18.0124C4.52849 18.0421 4.60059 18.0676 4.63451 18.0845C4.35036 16.8377 4.85081 15.8325 5.68205 15.5611C5.92803 15.4678 6.16553 15.4211 6.42847 15.4169C7.16643 15.4084 7.90012 15.8325 8.20972 16.5111C8.38363 17.1769 8.06976 17.5925 7.47603 17.9361C7.28093 17.9954 7.11978 17.987 6.9968 17.9403C6.68292 17.8258 6.62357 17.4569 6.97561 17.3169C7.93829 17.0115 7.41668 16.2185 6.64476 16.1633C5.24947 16.1294 4.85929 18.1099 6.52605 18.903C7.41668 19.289 8.64658 19.2423 9.12153 18.1905C9.32934 17.7283 9.57109 17.16 9.48206 16.2608C9.7704 16.5408 10.2284 16.7782 10.5508 16.5068L10.7968 16.6553C10.1013 17.6858 9.42264 18.92 8.8247 20.3619C8.35389 21.4307 7.81109 23.1653 7.60323 24.3443Z" fill="#BA2828"/>
<path fill-rule="evenodd" clip-rule="evenodd" d="M7.60455 32.6565L7.32041 32.6989C7.18467 32.4996 6.90902 32.279 6.23896 32.5166C6.48914 32.0839 6.68846 31.5029 6.64608 30.5954C6.59094 29.446 5.49251 28.9286 4.52131 28.9456C2.63404 29.0389 2.31596 31.0661 3.57979 31.5199C4.24988 31.7786 5.12778 31.2569 4.32622 30.5826C4.05479 30.3155 4.24988 30.0016 4.58492 30.0143C4.71639 30.0186 4.86907 30.0737 5.02599 30.201C5.44161 30.748 5.56885 31.2527 5.15746 31.7998C4.59765 32.3215 3.75368 32.419 3.05814 32.1137C2.83336 32.0119 2.63827 31.8761 2.45591 31.7108C1.79431 31.1424 1.71796 30.0186 2.45591 28.9795C2.41774 28.9838 2.3414 28.9795 2.2481 28.9711C1.91305 28.9498 1.33627 28.8311 1.33203 28.5003V28.4918V28.4833C1.33627 28.1525 1.90882 28.0338 2.2481 28.0125C2.3414 28.004 2.41774 28.004 2.45591 28.004C1.71796 26.9608 1.79431 25.8411 2.45591 25.2728C2.64676 25.0947 2.85033 24.959 3.08783 24.8529C3.7664 24.5603 4.60613 24.6706 5.15322 25.1838C5.56885 25.7309 5.43738 26.2356 5.02175 26.7826C4.86483 26.9099 4.71216 26.965 4.58068 26.9692C4.24564 26.9819 4.05055 26.6681 4.32198 26.401C5.09809 25.752 4.30925 25.2177 3.57555 25.4637C2.27355 25.9641 2.67221 27.9447 4.51707 28.038C5.48827 28.0507 6.60364 27.5376 6.64187 26.3882C6.65878 25.8835 6.66306 25.2643 6.23469 24.467C6.60791 24.6112 7.1211 24.6579 7.31614 24.2847L7.60033 24.327C7.3543 25.5442 7.19743 26.9438 7.19743 28.5045C7.18046 29.6793 7.34588 31.486 7.60455 32.6565Z" fill="#BA2828"/>
<path fill-rule="evenodd" clip-rule="evenodd" d="M10.7836 40.3375L10.5376 40.4859C10.3383 40.3545 9.99473 40.2569 9.46884 40.7319C9.53247 40.2357 9.49431 39.625 9.10838 38.8022C8.62066 37.7631 7.40346 37.7038 6.51284 38.0897C4.80792 38.8998 5.28716 40.8931 6.62733 40.8294C7.34405 40.8125 7.95903 39.9897 6.95812 39.6759C6.60614 39.5359 6.6655 39.1669 6.97937 39.0525C7.10235 39.0058 7.2635 38.9973 7.4586 39.0567C8.05233 39.4002 8.36193 39.8201 8.19229 40.4817C7.87421 41.1815 7.13203 41.5929 6.37709 41.5759C6.13113 41.5674 5.89787 41.5207 5.66462 41.4317C4.83761 41.1603 4.33716 40.1509 4.61707 38.9083C4.58315 38.9252 4.51105 38.9549 4.42198 38.9803C4.10391 39.0906 3.52288 39.1966 3.39564 38.8955L3.39141 38.887L3.38716 38.8785C3.26417 38.5732 3.74766 38.2424 4.05301 38.094C4.13783 38.0515 4.20569 38.0177 4.24386 38.0092C3.16239 37.3306 2.80614 36.2618 3.19632 35.4857C3.30658 35.2482 3.4423 35.0447 3.62042 34.8581C4.13359 34.3279 4.95635 34.1116 5.65613 34.3745C6.24989 34.7223 6.32195 35.2355 6.14809 35.9013C6.05479 36.0795 5.9318 36.1897 5.81305 36.2406C5.50769 36.3806 5.20658 36.1643 5.35501 35.8165C5.82153 34.9217 4.89274 34.7266 4.30748 35.2355C3.29386 36.1982 4.42198 37.8734 6.16082 37.2542C7.06419 36.898 7.89967 35.9946 7.49249 34.9174C7.31437 34.4424 7.0811 33.8698 6.38137 33.2973C6.78427 33.2888 7.2762 33.1362 7.31016 32.7163L7.59008 32.6484C7.82755 33.8698 8.22197 35.2228 8.8157 36.6605C9.25255 37.7462 10.0965 39.3578 10.7836 40.3375Z" fill="#BA2828"/>
<path fill-rule="evenodd" clip-rule="evenodd" d="M16.6645 46.2146L16.4949 46.4436C16.2573 46.397 15.9053 46.4394 15.6 47.0798C15.4685 46.5963 15.2013 46.045 14.5312 45.4343C13.683 44.6581 12.5379 45.0737 11.8593 45.7693C10.5913 47.1688 11.8 48.8271 13.0129 48.2545C13.6703 47.9619 13.9205 46.9695 12.8772 47.0628C12.4955 47.0671 12.4107 46.7065 12.6566 46.4776C12.75 46.3885 12.8984 46.3164 13.102 46.2994C13.7805 46.3927 14.2301 46.6557 14.3234 47.3385C14.2979 48.1061 13.7678 48.7719 13.0638 49.0434C12.8348 49.1282 12.5973 49.1748 12.3513 49.1833C11.4819 49.2469 10.6337 48.509 10.4174 47.2494C10.392 47.2791 10.3368 47.33 10.2647 47.3936C10.0102 47.6184 9.5183 47.9407 9.28504 47.7075L9.28082 47.7032L9.27655 47.699C9.04756 47.4657 9.36985 46.9738 9.59042 46.7193C9.64977 46.6472 9.70492 46.5921 9.73459 46.5666C8.47502 46.3503 7.73705 45.5021 7.80068 44.6327C7.80917 44.3697 7.86004 44.1323 7.95334 43.8905C8.22477 43.2035 8.89911 42.6903 9.6455 42.6648C10.3241 42.7581 10.5913 43.2077 10.6846 43.8863C10.6634 44.0856 10.5955 44.234 10.5064 44.3316C10.2775 44.5775 9.91693 44.4927 9.9212 44.111C10.0102 43.1059 9.07723 43.2798 8.72947 43.9753C8.16114 45.2519 9.84487 46.3715 11.2147 45.1331C11.9103 44.4588 12.3386 43.3053 11.5497 42.4613C11.202 42.0923 10.7694 41.6512 9.90423 41.3925C10.2732 41.2313 10.6676 40.9005 10.5404 40.5019L10.7694 40.3323C11.4564 41.3671 12.3343 42.4655 13.4371 43.5682C14.2556 44.4079 15.6551 45.5742 16.6645 46.2146Z" fill="#BA2828"/>
<path fill-rule="evenodd" clip-rule="evenodd" d="M24.3397 49.3996L24.2718 49.6795C24.0386 49.7304 23.7247 49.9 23.6908 50.6083C23.3854 50.2139 22.9274 49.8067 22.0707 49.4971C20.9893 49.107 20.0901 49.9255 19.7339 50.8288C19.1019 52.6059 20.8493 53.6788 21.7526 52.6822C22.2488 52.1605 22.1004 51.1511 21.1716 51.6304C20.8238 51.7788 20.6033 51.4777 20.7475 51.1724C20.8026 51.0536 20.9086 50.9306 21.0868 50.8373C21.7484 50.6634 22.2658 50.7355 22.6136 51.3292C22.885 52.046 22.6475 52.8645 22.1047 53.3862C21.9265 53.5558 21.7272 53.683 21.5024 53.7891C20.7263 54.1835 19.6576 53.823 18.9789 52.7415C18.9662 52.7797 18.9366 52.8475 18.8941 52.9324C18.7457 53.2335 18.4149 53.7213 18.1096 53.5982L18.1011 53.594L18.0926 53.5897C17.7915 53.4625 17.8975 52.8815 18.0078 52.5634C18.0375 52.4744 18.0629 52.4023 18.0798 52.3683C16.833 52.6525 15.8278 52.152 15.5564 51.3208C15.4631 51.0748 15.4207 50.8373 15.4122 50.5744C15.4037 49.8364 15.8278 49.1027 16.5064 48.7931C17.1723 48.6193 17.5879 48.9331 17.9314 49.5268C17.9908 49.7219 17.9823 49.8831 17.9357 50.006C17.8212 50.3199 17.4522 50.3793 17.3123 50.0273C17.0069 49.0645 16.2138 49.5862 16.1587 50.3581C16.1247 51.7534 18.1053 52.1435 18.8984 50.4768C19.2843 49.5862 19.2377 48.3563 18.1859 47.8813C17.7236 47.6735 17.1553 47.4317 16.2562 47.5208C16.5361 47.2324 16.7736 46.7744 16.5022 46.452L16.6506 46.2061C17.6812 46.9016 18.9154 47.5802 20.3573 48.1781C21.426 48.6489 23.1606 49.1918 24.3397 49.3996Z" fill="#BA2828"/>
<path fill-rule="evenodd" clip-rule="evenodd" d="M32.657 49.4001L32.6994 49.6843C32.5001 49.82 32.2795 50.0957 32.5171 50.7658C32.0845 50.5156 31.5035 50.3162 30.5959 50.3586C29.4465 50.4138 28.9291 51.5122 28.9461 52.4834C29.0394 54.3707 31.0666 54.6888 31.5204 53.4249C31.7791 52.7548 31.2532 51.8769 30.5832 52.6785C30.3159 52.9499 30.0021 52.7548 30.0148 52.4198C30.019 52.2883 30.0742 52.1357 30.2014 51.9787C30.7485 51.5631 31.2532 51.4359 31.8003 51.8472C32.322 52.4071 32.4195 53.2511 32.1142 53.9466C32.0124 54.1714 31.8767 54.3664 31.7113 54.5488C31.1429 55.2104 30.019 55.2868 28.98 54.5488C28.9842 54.587 28.98 54.6633 28.9715 54.7566C28.9504 55.0917 28.8316 55.6684 28.5008 55.6727H28.4923H28.4838C28.153 55.6684 28.0343 55.0959 28.0131 54.7566C28.0046 54.6633 28.0046 54.587 28.0046 54.5488C26.9612 55.2868 25.8416 55.2104 25.2733 54.5488C25.0952 54.358 24.9595 54.1544 24.8535 53.9169C24.5609 53.2383 24.6711 52.3986 25.1843 51.8515C25.7313 51.4359 26.236 51.5673 26.7831 51.9829C26.9104 52.1399 26.9655 52.2925 26.9697 52.424C26.9825 52.7591 26.6686 52.9542 26.4015 52.6827C25.7526 51.9066 25.2182 52.6954 25.4642 53.4292C25.9646 54.7311 27.9452 54.3325 28.0385 52.4876C28.0512 51.5165 27.5423 50.4011 26.3887 50.3629C25.8841 50.3459 25.2649 50.3416 24.4676 50.77C24.6117 50.3968 24.6584 49.8837 24.2852 49.6886L24.3276 49.4044C25.5447 49.6504 26.9443 49.8073 28.505 49.8073C29.6756 49.8242 31.4865 49.6589 32.657 49.4001Z" fill="#BA2828"/>
<path fill-rule="evenodd" clip-rule="evenodd" d="M40.3374 46.2195L40.4859 46.4654C40.3544 46.6648 40.2569 47.0083 40.7318 47.5342C40.2357 47.4706 39.6249 47.5088 38.8022 47.8947C37.7631 48.3824 37.7038 49.5996 38.0897 50.4902C38.8997 52.1951 40.8931 51.7159 40.8294 50.3757C40.8124 49.659 39.9897 49.044 39.6759 50.0449C39.5359 50.3969 39.1669 50.3375 39.0524 50.0237C39.0057 49.9008 38.9972 49.7395 39.0567 49.5445C39.4001 48.9507 39.82 48.6411 40.4817 48.8107C41.1814 49.1288 41.5928 49.871 41.5758 50.626C41.5674 50.8719 41.5207 51.1052 41.4316 51.3385C41.1602 52.1654 40.1508 52.6659 38.9082 52.386C38.9252 52.4199 38.9549 52.492 38.9803 52.5811C39.0906 52.8991 39.1966 53.4802 38.8955 53.6074L38.887 53.6116L38.8785 53.6159C38.5732 53.7389 38.2424 53.2554 38.0939 52.9501C38.0515 52.8652 38.0176 52.7973 38.0091 52.7592C37.3306 53.8407 36.2618 54.1969 35.4857 53.8067C35.2482 53.6965 35.0446 53.5608 34.858 53.3826C34.3279 52.8695 34.1116 52.0467 34.3745 51.3469C34.7223 50.7532 35.2354 50.6811 35.9013 50.8549C36.0794 50.9482 36.1897 51.0712 36.2406 51.19C36.3805 51.4954 36.1642 51.7965 35.8165 51.6481C34.9216 51.1815 34.7265 52.1103 35.2354 52.6956C36.1982 53.7092 37.8734 52.5811 37.2542 50.8422C36.898 49.9389 35.9946 49.1034 34.9174 49.5105C34.4424 49.6887 33.8698 49.9219 33.2973 50.6217C33.2888 50.2188 33.1362 49.7268 32.7163 49.6929L32.6484 49.413C33.8698 49.1755 35.2227 48.7811 36.6604 48.1873C37.7462 47.7505 39.3535 46.9065 40.3374 46.2195Z" fill="#BA2828"/>
<path fill-rule="evenodd" clip-rule="evenodd" d="M46.2144 40.3413L46.4434 40.5109C46.3967 40.7484 46.4391 41.1005 47.0795 41.4058C46.596 41.5373 46.0447 41.8045 45.434 42.4745C44.6579 43.3228 45.0735 44.4679 45.769 45.1464C47.1686 46.4145 48.8268 45.2058 48.2543 43.9928C47.9617 43.3355 46.9692 43.0853 47.0626 44.1286C47.0668 44.5103 46.7063 44.5951 46.4773 44.3491C46.3882 44.2516 46.3162 44.1074 46.2992 43.9038C46.3925 43.2253 46.6554 42.7757 47.3383 42.6824C48.1058 42.7078 48.7717 43.238 49.0431 43.942C49.1279 44.171 49.1746 44.4085 49.1831 44.6545C49.2467 45.5239 48.5087 46.3721 47.2492 46.5884C47.2788 46.6138 47.3298 46.669 47.3933 46.7411C47.6181 46.9956 47.9405 47.4875 47.7072 47.7208L47.7029 47.725L47.6987 47.7293C47.4655 47.9582 46.9735 47.6359 46.7191 47.4154C46.6469 47.356 46.5918 47.3009 46.5663 47.2712C46.3501 48.5308 45.5019 49.2688 44.6324 49.2051C44.3695 49.1966 44.132 49.1458 43.8903 49.0525C43.2032 48.781 42.69 48.1067 42.6646 47.3602C42.7579 46.6817 43.2074 46.4145 43.886 46.3212C44.0854 46.3424 44.2338 46.4103 44.3313 46.4994C44.5773 46.7283 44.4925 47.0888 44.1108 47.0846C43.1056 46.9956 43.2795 47.9286 43.9751 48.2763C45.2516 48.8447 46.3712 47.1609 45.1329 45.7911C44.4586 45.0955 43.305 44.6672 42.461 45.456C42.092 45.8038 41.651 46.2364 41.3923 47.1016C41.2311 46.7326 40.9003 46.3381 40.5017 46.4654L40.332 46.2364C41.3668 45.5493 42.4695 44.6715 43.568 43.5688C44.4077 42.746 45.5697 41.3507 46.2144 40.3413Z" fill="#BA2828"/>
<path fill-rule="evenodd" clip-rule="evenodd" d="M49.3947 32.6604L49.6746 32.7283C49.7255 32.9616 49.8951 33.2754 50.6034 33.3093C50.209 33.6147 49.8018 34.0727 49.4922 34.9294C49.102 36.0109 49.9206 36.91 50.8239 37.2662C52.6009 37.8981 53.6739 36.1508 52.6773 35.2475C52.1556 34.7512 51.1462 34.8997 51.6255 35.8285C51.7739 36.1762 51.4728 36.3968 51.1675 36.2526C51.0487 36.1975 50.9257 36.0914 50.8324 35.9133C50.6585 35.2517 50.7306 34.7343 51.3244 34.3865C52.0411 34.1151 52.8596 34.3526 53.3813 34.8955C53.551 35.0736 53.6781 35.2729 53.7842 35.4977C54.1786 36.2738 53.8181 37.3426 52.7367 38.0211C52.7748 38.0338 52.8427 38.0635 52.9275 38.1059C53.2286 38.2544 53.7163 38.5852 53.5933 38.8906L53.5891 38.899L53.5848 38.9075C53.4576 39.2086 52.8766 39.1026 52.5585 38.9924C52.4694 38.9626 52.3974 38.9372 52.3634 38.9202C52.6476 40.1671 52.1471 41.1722 51.3159 41.4437C51.0699 41.537 50.8324 41.5794 50.5695 41.5878C49.8315 41.5963 49.0978 41.1722 48.7882 40.4937C48.6143 39.8278 48.9282 39.4122 49.5219 39.0687C49.717 39.0093 49.8782 39.0178 50.0012 39.0644C50.315 39.1789 50.3744 39.5479 50.0224 39.6879C49.0597 39.9932 49.5813 40.7863 50.3532 40.8414C51.7485 40.8753 52.1387 38.8948 50.4719 38.1017C49.5813 37.7157 48.3514 37.7624 47.8764 38.8142C47.6686 39.2765 47.4269 39.8448 47.5159 40.7439C47.2275 40.4639 46.7695 40.2265 46.4471 40.4979L46.2012 40.3495C46.8967 39.3189 47.5753 38.0848 48.1733 36.6428C48.6441 35.574 49.1869 33.8394 49.3947 32.6604Z" fill="#BA2828"/>
<path fill-rule="evenodd" clip-rule="evenodd" d="M49.3945 24.3476L49.6787 24.3052C49.8144 24.5045 50.0901 24.7251 50.7601 24.4875C50.5099 24.9201 50.3106 25.5011 50.353 26.4087C50.4081 27.5581 51.5066 28.0755 52.4777 28.0585C54.3651 27.9652 54.6831 25.938 53.4193 25.4842C52.7492 25.2255 51.8713 25.7514 52.6728 26.4215C52.9443 26.6886 52.7492 27.0025 52.4142 26.9898C52.2827 26.9855 52.13 26.9304 51.9731 26.8031C51.5574 26.2561 51.4302 25.7514 51.8416 25.2043C52.4014 24.6826 53.2454 24.5851 53.9409 24.8904C54.1657 24.9922 54.3608 25.128 54.5432 25.2933C55.2047 25.8616 55.2811 26.9855 54.5432 28.0246C54.5813 28.0203 54.6577 28.0245 54.751 28.033C55.086 28.0543 55.6628 28.173 55.667 28.5038V28.5123V28.5208C55.6628 28.8516 55.0903 28.9703 54.751 28.9916C54.6577 29 54.5813 29.0001 54.5432 29.0001C55.2811 30.0433 55.2047 31.163 54.5432 31.7313C54.3523 31.9094 54.1488 32.0451 53.9112 32.1511C53.2327 32.4438 52.3929 32.3335 51.8458 31.8203C51.4302 31.2732 51.5617 30.7685 51.9773 30.2215C52.1342 30.0942 52.2869 30.0391 52.4184 30.0349C52.7534 30.0221 52.9485 30.336 52.6771 30.6031C51.901 31.2521 52.6898 31.7864 53.4235 31.5404C54.7255 31.04 54.3269 29.0594 52.482 28.9661C51.5108 28.9534 50.3954 29.4623 50.3572 30.6159C50.3402 31.1206 50.336 31.7398 50.7644 32.5371C50.3912 32.3929 49.878 32.3462 49.6829 32.7194L49.3987 32.6771C49.6447 31.4599 49.8016 30.0603 49.8016 28.4996C49.8186 27.3248 49.6532 25.5181 49.3945 24.3476Z" fill="#BA2828"/>
<path fill-rule="evenodd" clip-rule="evenodd" d="M46.2148 16.6678L46.4608 16.5194C46.6601 16.6509 47.0037 16.7484 47.5296 16.2734C47.4659 16.7696 47.5041 17.3803 47.89 18.2031C48.3777 19.2421 49.5949 19.3015 50.4856 18.9156C52.1905 18.1055 51.7112 16.1122 50.3711 16.1759C49.6543 16.1928 49.0394 17.0156 50.0402 17.3294C50.3923 17.4694 50.3329 17.8383 50.019 17.9529C49.8961 17.9995 49.7349 18.008 49.5398 17.9486C48.9461 17.6051 48.6365 17.1852 48.8061 16.5236C49.1242 15.8239 49.8664 15.4125 50.6213 15.4295C50.8673 15.4379 51.1005 15.4845 51.3338 15.5736C52.1607 15.8451 52.6612 16.8545 52.3813 18.0971C52.4153 18.0801 52.4873 18.0504 52.5764 18.0249C52.8945 17.9147 53.4755 17.8087 53.6027 18.1098L53.607 18.1183L53.6112 18.1267C53.7342 18.4321 53.2507 18.7629 52.9454 18.9114C52.8605 18.9537 52.7927 18.9877 52.7545 18.9962C53.836 19.6747 54.1922 20.7435 53.802 21.5196C53.6918 21.7571 53.5561 21.9607 53.3779 22.1473C52.8648 22.6774 52.042 22.8937 51.3422 22.6307C50.7485 22.283 50.6764 21.7698 50.8503 21.104C50.9436 20.9259 51.0666 20.8156 51.1853 20.7647C51.4907 20.6248 51.7918 20.8411 51.6433 21.1888C51.1769 22.0837 52.1057 22.2788 52.6909 21.7698C53.7045 20.8071 52.5764 19.1319 50.8375 19.7511C49.9342 20.1073 49.0987 21.0107 49.5058 22.0879C49.684 22.5629 49.9172 23.1354 50.617 23.708C50.2141 23.7165 49.7221 23.8691 49.6882 24.289L49.4083 24.3568C49.1708 23.1354 48.7764 21.7825 48.1826 20.3448C47.7458 19.2591 46.9019 17.6475 46.2148 16.6678Z" fill="#BA2828"/>
<path fill-rule="evenodd" clip-rule="evenodd" d="M40.3418 10.7894L40.5114 10.5604C40.749 10.6071 41.101 10.5646 41.4063 9.92425C41.5378 10.4077 41.805 10.959 42.4751 11.5698C43.3233 12.3459 44.4683 11.9303 45.147 11.2348C46.415 9.83515 45.2063 8.17689 43.9934 8.74949C43.336 9.04211 43.0858 10.0345 44.1291 9.94122C44.5108 9.93695 44.5956 10.2975 44.3496 10.5265C44.2563 10.6156 44.1079 10.6876 43.9043 10.7046C43.2257 10.6113 42.7762 10.3483 42.6829 9.66552C42.7084 8.89788 43.2385 8.23203 43.9425 7.9606C44.1715 7.87578 44.409 7.82913 44.655 7.8207C45.5244 7.75707 46.3726 8.49497 46.5889 9.75461C46.6143 9.72493 46.6695 9.67401 46.7416 9.61038C46.9961 9.3856 47.488 9.0633 47.7213 9.29657L47.7255 9.30078L47.7297 9.30505C47.9587 9.53832 47.6364 10.0303 47.4159 10.2847C47.3565 10.3568 47.3014 10.412 47.2717 10.4374C48.5313 10.6537 49.2692 11.5019 49.2056 12.3713C49.1971 12.6343 49.1463 12.8718 49.0529 13.1135C48.7815 13.8006 48.1072 14.3137 47.3608 14.3392C46.6822 14.2459 46.415 13.7963 46.3217 13.1177C46.3429 12.9184 46.4107 12.77 46.4998 12.6725C46.7288 12.4265 47.0894 12.5113 47.0851 12.893C46.9961 13.8981 47.9291 13.7242 48.2768 13.0287C48.8451 11.7522 47.1614 10.6325 45.7916 11.8709C45.096 12.5452 44.6677 13.6988 45.4566 14.5427C45.8043 14.9117 46.2369 15.3528 47.1021 15.6115C46.7331 15.7726 46.3387 16.1035 46.4659 16.5021L46.2369 16.6717C45.5499 15.637 44.6719 14.5342 43.5692 13.4358C42.7465 12.5961 41.3512 11.4341 40.3418 10.7894Z" fill="#BA2828"/>
<path fill-rule="evenodd" clip-rule="evenodd" d="M32.6602 7.60865L32.7281 7.32874C32.9613 7.27781 33.2751 7.10817 33.3091 6.39995C33.6144 6.79436 34.0725 7.20148 34.9291 7.51107C36.0106 7.90128 36.9098 7.08271 37.266 6.17939C37.8979 4.40239 36.1506 3.3294 35.2472 4.32605C34.751 4.8477 34.8995 5.85707 35.8282 5.37783C36.176 5.22939 36.3966 5.53051 36.2523 5.83586C36.1973 5.95461 36.0912 6.0776 35.9131 6.17091C35.2515 6.3448 34.7341 6.27269 34.3863 5.67894C34.1149 4.96221 34.3524 4.14368 34.8952 3.62203C35.0734 3.45239 35.2727 3.32515 35.4975 3.21913C36.2736 2.82471 37.3423 3.1852 38.0209 4.26667C38.0336 4.2285 38.0633 4.16064 38.1057 4.07583C38.2541 3.77471 38.5849 3.28699 38.8903 3.40998L38.8988 3.41422L38.9072 3.41846C39.2084 3.54569 39.1023 4.12672 38.9921 4.4448C38.9624 4.53386 38.937 4.60596 38.92 4.63988C40.1669 4.35573 41.172 4.85618 41.4434 5.68743C41.5367 5.93341 41.5791 6.17091 41.5876 6.43384C41.5961 7.1718 41.172 7.90549 40.4934 8.21509C39.8276 8.389 39.4119 8.07513 39.0684 7.4814C39.009 7.28629 39.0175 7.12515 39.0642 7.00216C39.1787 6.68829 39.5477 6.62894 39.6876 6.98097C39.993 7.94365 40.7861 7.42204 40.8412 6.65013C40.8751 5.25484 38.8945 4.86466 38.1015 6.53142C37.7155 7.42204 37.7622 8.65194 38.814 9.1269C39.2762 9.33476 39.8445 9.57646 40.7436 9.48742C40.4637 9.77583 40.2262 10.2338 40.4977 10.5562L40.3492 10.8021C39.3186 10.1066 38.0845 9.42807 36.6425 8.83007C35.5738 8.35504 33.8392 7.81646 32.6602 7.60865Z" fill="#BA2828"/>
<path fill-rule="evenodd" clip-rule="evenodd" d="M39.1411 31.8254C38.7933 31.7914 38.7509 31.9356 38.0511 31.7363C37.0205 31.4394 36.3971 31.0026 35.5022 30.4979C35.0569 30.2477 34.2427 29.8151 33.615 29.8575C32.9618 29.8999 32.4572 30.604 32.5929 31.3546C32.7074 31.3546 33.123 31.0153 33.615 30.9984C34.1366 30.9771 34.4081 31.028 34.7812 31.2655L36.2995 32.2283C36.3335 32.2452 36.3717 32.2706 36.4013 32.2919C36.6007 32.4318 36.3038 32.2113 36.4523 32.3301C36.4989 32.3682 36.4989 32.3639 36.5286 32.3979C35.5786 32.6354 34.8491 33.1443 33.9458 33.437C33.1909 33.6787 31.5835 33.9713 30.7819 33.7084C30.2518 33.5345 30.1839 33.1189 30.1839 32.4742C30.1797 31.028 30.3027 30.4767 30.0652 28.9669C30.0228 28.6954 29.9761 28.4368 29.9295 28.1738C29.8998 28.0169 29.832 27.5461 29.7344 27.4104C29.6072 27.9702 29.0813 28.2756 28.8014 28.6658C28.5596 28.9965 28.954 29.2934 29.183 30.3071C29.3273 30.9432 29.4036 31.5963 29.4672 32.2622C29.5647 33.2927 29.6962 33.6151 29.1703 34.0392C28.3518 34.6923 26.8717 35.0443 25.7733 34.4378C25.506 34.2894 25.2897 34.1452 25.0014 34.3743C24.679 34.6287 24.8826 34.8662 25.1456 35.0231C25.6248 35.303 26.1592 35.566 26.8505 35.5532C27.9404 35.5278 28.8438 35.1758 29.5139 34.387C29.6199 34.264 29.7217 34.2173 29.8235 34.107C30.2772 33.6108 30.1924 34.0052 31.1552 34.5269C31.6938 34.8195 32.5165 34.7389 33.1527 34.6669C35.2902 34.4251 36.0663 33.6745 37.8475 32.716C38.2165 32.5167 38.5304 32.3555 38.8696 32.0968C38.9799 31.9992 39.069 31.8593 39.1411 31.8254Z" fill="#BA2828"/>
<path fill-rule="evenodd" clip-rule="evenodd" d="M21.5412 31.087C20.9518 31.1845 20.4131 31.5578 20.1035 32.1176C19.4801 33.2585 19.76 34.8149 21.3801 35.239C23.5049 35.7946 24.9681 34.1745 25.3413 31.8928C25.6 30.3321 25.3752 28.8054 25.1632 27.2913C24.8408 27.4482 24.3785 27.9699 24.264 28.4533C24.1241 29.0386 24.3489 29.7553 24.4676 30.3024C24.599 30.9131 24.616 31.6129 24.6075 32.2576C24.5948 32.9786 24.3955 33.4196 24.0308 33.7716C23.4073 34.3738 21.7321 34.9506 21.045 34.0218C20.5107 33.3009 20.5701 32.4017 21.0833 31.6638C21.2401 31.4433 21.4056 31.2736 21.5412 31.087Z" fill="#BA2828"/>
<path fill-rule="evenodd" clip-rule="evenodd" d="M26.0059 30.3663C26.4045 30.6759 26.3366 30.5783 26.7862 31.0618C26.9092 31.1933 27.028 31.2823 27.1509 31.4138C27.609 31.9058 27.732 32.1094 28.1349 32.6564C28.2536 32.8176 28.6269 33.4241 28.7414 33.5004C28.9704 33.3944 29.1866 33.318 29.0848 32.966C28.9407 32.4613 28.3469 31.4647 28.0712 31.0745C27.7786 30.6589 27.5115 30.3917 27.1849 30.027C27.0619 29.8913 26.888 29.6623 26.7735 29.4714C26.5784 29.1533 26.6166 29.1109 26.5233 28.7589C26.2943 28.7504 26.2815 28.7886 26.2688 29.0176C26.2603 29.2084 26.2603 29.3399 26.2264 29.5223C26.1628 29.8276 26.0186 30.0821 26.0059 30.3663Z" fill="#BA2828"/>
<path d="M38.5613 35.4211L39.0575 34.5263L39.4477 34.7426C39.435 34.7935 39.4435 34.8401 39.4647 34.8783C39.4901 34.9165 39.5622 34.9716 39.6809 35.0395L41.1781 35.8707L41.2459 35.752C41.3222 35.612 41.335 35.506 41.2841 35.4339C41.2332 35.3576 41.1314 35.2812 40.9745 35.1921L40.754 35.0692L41.0551 34.5263L42.1832 35.1498L41.2162 36.8928L40.8091 36.668C40.8261 36.6129 40.8176 36.5663 40.7921 36.5238C40.7667 36.4815 40.6946 36.4305 40.5758 36.3627L39.3332 35.6757C39.2145 35.6078 39.1297 35.5781 39.083 35.5781C39.0364 35.5781 38.9939 35.5993 38.9515 35.6417L38.5613 35.4211ZM39.6894 38.7165L39.0194 39.4417L38.6758 39.1236C38.6928 39.0854 38.6971 39.0388 38.6843 38.9879C38.6716 38.937 38.6377 38.8734 38.5783 38.7928L37.6792 37.5248C37.6495 37.4823 37.6114 37.4441 37.5647 37.4187C37.5223 37.3933 37.4841 37.3933 37.4587 37.423L37.077 37.0709L38.1627 35.8919L38.5444 36.2439C38.519 36.2736 38.519 36.3076 38.5486 36.3499C38.5783 36.3924 38.6165 36.4263 38.6631 36.456L40.0033 37.249C40.0881 37.3 40.156 37.3296 40.2069 37.3381C40.2535 37.3508 40.3002 37.3424 40.3384 37.3212L40.6819 37.6392L39.9906 38.3899L39.6471 38.0718C39.6809 38.0337 39.6894 37.9955 39.6767 37.9573C39.664 37.9192 39.6513 37.8937 39.6344 37.881C39.5792 37.8301 39.5241 37.7877 39.4647 37.7537L39.4265 37.7283L38.9812 38.2076L39.0109 38.2457C39.0533 38.3008 39.1 38.356 39.1551 38.4069C39.1678 38.4196 39.1975 38.4323 39.2357 38.4408C39.2738 38.4493 39.312 38.4366 39.3502 38.3984L39.6894 38.7165ZM37.9761 36.8631L38.7013 37.8301L39.0279 37.4781L38.0058 36.8334L37.9761 36.8631ZM35.0667 38.6953L35.8895 38.0888L36.1524 38.4493C36.1185 38.4917 36.1057 38.5341 36.11 38.5807C36.1142 38.6274 36.1609 38.708 36.2415 38.8183L37.2551 40.2008L37.3654 40.1202C37.4926 40.027 37.5477 39.9337 37.535 39.8446C37.518 39.7556 37.4587 39.641 37.3526 39.4968L37.2042 39.2932L37.7047 38.9243L38.468 39.9634L36.8607 41.1423L36.585 40.7649C36.6231 40.7225 36.6359 40.6759 36.6316 40.6292C36.6274 40.5826 36.5808 40.5019 36.5002 40.3917L35.6605 39.2466C35.5799 39.1364 35.5162 39.0727 35.4739 39.0515C35.4314 39.0303 35.3805 39.0346 35.3297 39.0558L35.0667 38.6953ZM34.7444 42.279L33.8495 42.6988L33.6502 42.2747C33.6841 42.245 33.7011 42.2026 33.7096 42.1517C33.7181 42.1009 33.7096 42.0245 33.6884 41.9312L33.3321 40.4171C33.3194 40.3663 33.2982 40.3196 33.2685 40.2772C33.2388 40.2348 33.2049 40.2263 33.1667 40.2433L32.9461 39.7725L34.3966 39.0939L34.6172 39.5647C34.5832 39.5816 34.5705 39.6156 34.579 39.6665C34.5917 39.7173 34.6129 39.764 34.6426 39.8064L35.5841 41.0448C35.6435 41.1254 35.6986 41.1763 35.7368 41.206C35.7792 41.2356 35.8216 41.2441 35.8683 41.2399L36.0676 41.664L35.1431 42.0966L34.9437 41.6725C34.9903 41.6513 35.0116 41.6216 35.0158 41.5792C35.0201 41.5368 35.0158 41.5071 35.0073 41.4902C34.9776 41.4265 34.9395 41.3629 34.897 41.3078L34.8716 41.2696L34.2778 41.5495L34.2906 41.5962C34.3076 41.664 34.333 41.7318 34.3627 41.7998C34.3711 41.8167 34.3924 41.8379 34.4263 41.8633C34.4602 41.8888 34.4984 41.8888 34.5493 41.8676L34.7444 42.279ZM33.8537 39.9209L34.1591 41.0915L34.5917 40.8879L33.8877 39.9082L33.8537 39.9209ZM31.6357 43.2502L30.6306 43.4368L30.5457 42.9787C30.5966 42.9533 30.6306 42.9194 30.6475 42.8769C30.6645 42.8303 30.6603 42.7412 30.6348 42.6098L30.3719 41.2144C30.3464 41.0788 30.321 40.9939 30.287 40.96C30.2574 40.9218 30.2107 40.9049 30.1556 40.9006L30.075 40.4638L31.0801 40.2772L31.1607 40.714C31.1055 40.7394 31.0717 40.7734 31.0589 40.8158C31.0419 40.8625 31.0504 40.9515 31.0717 41.083L31.148 41.4944L31.7969 41.3756L31.7205 40.9642C31.6951 40.8285 31.6654 40.7437 31.6357 40.7098C31.6018 40.6716 31.5594 40.6546 31.5 40.6504L31.4194 40.2135L32.4287 40.027L32.5094 40.4638C32.4584 40.4892 32.4245 40.5231 32.4076 40.5656C32.3906 40.6122 32.3906 40.7013 32.416 40.837L32.679 42.2323C32.7045 42.368 32.7341 42.4528 32.7638 42.4868C32.7978 42.525 32.8401 42.5419 32.8995 42.5461L32.9844 43.0042L31.975 43.1908L31.8902 42.7328C31.941 42.7073 31.975 42.6734 31.992 42.631C32.0089 42.5886 32.0047 42.4953 31.9792 42.3595L31.8902 41.8803L31.2413 42.0033L31.3303 42.4825C31.3558 42.6183 31.3855 42.7031 31.4151 42.7412C31.4448 42.7752 31.4873 42.7964 31.5466 42.8006L31.6357 43.2502ZM27.5303 41.8591L27.56 41.4138L27.1486 41.6046L27.0214 41.3332L27.4116 41.1423L27.0468 40.8964L27.2038 40.6377L27.5897 40.8752L27.6152 40.4426L27.9332 40.4638L27.9078 40.8964L28.3107 40.7098L28.4422 40.9855L28.0393 41.1805L28.4168 41.4222L28.2513 41.6767L27.8739 41.435L27.8484 41.8803L27.5303 41.8591ZM23.4844 39.4205L25.6431 40.222L25.4861 40.6419C25.431 40.6377 25.3801 40.6462 25.342 40.6801C25.3038 40.7097 25.2614 40.7904 25.2147 40.9176L24.7185 42.2492C24.6719 42.3765 24.6507 42.4656 24.6592 42.5122C24.6676 42.5588 24.6973 42.6013 24.744 42.631L24.5828 43.0678L23.6201 42.7116L23.7812 42.2747C23.8364 42.2832 23.8873 42.2705 23.9212 42.2408C23.9594 42.2111 24.0018 42.1305 24.0484 42.0033L24.6252 40.4426L24.0866 40.2433L23.4929 41.8421C23.4038 42.0881 23.2808 42.2577 23.1239 42.3553C22.9669 42.4528 22.7931 42.4656 22.5895 42.3892C22.5301 42.368 22.4708 42.3383 22.4156 42.3087C22.3605 42.2747 22.3096 42.2408 22.2629 42.1984L22.4199 41.7743L22.4962 41.7998C22.5768 41.8294 22.6446 41.8252 22.704 41.787C22.7634 41.7488 22.8185 41.6555 22.8694 41.5071L23.3444 40.2263C23.3911 40.099 23.4123 40.01 23.3996 39.9634C23.3911 39.9167 23.3614 39.8743 23.319 39.8446L23.4844 39.4205ZM20.2993 41.0915L19.4596 40.5741L19.7056 40.1754C19.748 40.1839 19.7946 40.1797 19.8413 40.1585C19.8879 40.1372 19.9474 40.0906 20.0152 40.0185L21.084 38.8903C21.1221 38.8522 21.1475 38.8055 21.1645 38.7589C21.1815 38.7122 21.173 38.6783 21.1391 38.6571L21.4105 38.2118L22.7761 39.0515L22.5047 39.4968C22.4708 39.4756 22.4368 39.4841 22.4029 39.5223C22.369 39.5605 22.3393 39.6028 22.3223 39.6538L21.8007 41.1211C21.7667 41.2144 21.754 41.2866 21.7498 41.3374C21.7498 41.3884 21.7625 41.4307 21.7922 41.4647L21.5462 41.8633L20.6768 41.3289L20.9228 40.9303C20.9652 40.9558 21.0033 40.96 21.0415 40.9388C21.0755 40.9176 21.1009 40.9006 21.1094 40.8837C21.1475 40.82 21.1773 40.7564 21.2027 40.6928L21.2196 40.6504L20.6598 40.3068L20.6301 40.3408C20.5835 40.3917 20.5368 40.4511 20.5029 40.5104C20.4944 40.5274 20.4859 40.5571 20.4859 40.5953C20.4817 40.6377 20.5029 40.6716 20.5496 40.697L20.2993 41.0915ZM21.7837 39.0558L20.9737 39.9506L21.3808 40.2008L21.8134 39.0727L21.7837 39.0558ZM18.0389 38.4493L18.5562 38.9794L19.9431 37.6308L19.5062 37.1812L18.4587 38.2033C18.3866 38.2754 18.3145 38.3306 18.2509 38.3644C18.1873 38.3984 18.1152 38.4281 18.0389 38.4493ZM18.4884 40.4214L18.0346 39.9549L18.1703 39.8234C18.2509 39.7428 18.2976 39.6707 18.3018 39.5986C18.3061 39.5265 18.2636 39.446 18.1745 39.3527L17.6529 38.8183C17.5257 38.6868 17.3857 38.6953 17.2373 38.8395L17.0889 38.9836L16.635 38.5172L17.3306 37.8386C17.4154 37.898 17.513 37.9192 17.6232 37.9064C17.7335 37.8937 17.8565 37.8216 17.9922 37.6901L18.8447 36.8589C18.9422 36.7656 18.9931 36.6935 19.0058 36.6426C19.0185 36.5917 19.0058 36.5408 18.9761 36.4899L19.3027 36.1718L20.9482 37.8597L20.6216 38.1778C20.5708 38.1482 20.5241 38.1355 20.4732 38.1482C20.4266 38.1609 20.3545 38.2118 20.2612 38.3008L19.2391 39.2975C19.1416 39.3908 19.0991 39.4798 19.1076 39.5562C19.1161 39.6368 19.1416 39.6961 19.1839 39.7386L18.4884 40.4214ZM15.719 36.3033L15.1719 35.4806L15.5621 35.2218C15.596 35.2473 15.6384 35.2643 15.6935 35.2643C15.7444 35.2643 15.8165 35.2473 15.9098 35.2091L17.356 34.6323C17.407 34.6111 17.4493 34.5857 17.4833 34.5475C17.5172 34.5093 17.5257 34.4754 17.5045 34.4415L17.9371 34.1531L18.8235 35.4848L18.3909 35.7732C18.3696 35.7392 18.3357 35.735 18.2848 35.752C18.2382 35.769 18.1958 35.7986 18.1576 35.8368L17.0719 36.9522C17.0041 37.0243 16.9574 37.0837 16.9361 37.1261C16.915 37.1727 16.9107 37.2152 16.9234 37.2618L16.5333 37.5205L15.965 36.6723L16.3552 36.4136C16.3849 36.456 16.4188 36.473 16.4569 36.4687C16.4994 36.4645 16.5248 36.456 16.5417 36.4475C16.6012 36.4093 16.6563 36.3627 16.7072 36.3118L16.7411 36.2779L16.3764 35.735L16.3339 35.752C16.2703 35.7774 16.2067 35.8113 16.1473 35.8538C16.1304 35.8665 16.1134 35.8877 16.0922 35.9258C16.071 35.964 16.0795 36.0022 16.1092 36.0446L15.719 36.3033ZM17.9201 35.0777L16.809 35.5526L17.0761 35.9513L17.9413 35.1073L17.9201 35.0777Z" fill="#BA2828"/>
<path fill-rule="evenodd" clip-rule="evenodd" d="M27.8469 14.696H25.5906C25.6966 14.6367 25.8069 14.573 25.9299 14.5179C26.4813 14.2507 27.1599 14.0514 27.8469 13.9708V14.696ZM28.4194 14.696H28.0632V13.9496C28.1819 13.9411 28.3007 13.9326 28.4194 13.9326V14.696ZM28.992 14.696H28.6315V13.9326C28.7502 13.9369 28.8732 13.9453 28.992 13.9538V14.696ZM31.3543 14.696H29.204V13.9793C29.8487 14.0641 30.4848 14.2592 31.0065 14.5136C31.1295 14.573 31.2482 14.6367 31.3543 14.696ZM22.7619 24.8449C23.186 24.8788 22.9442 24.7897 23.2623 25.481C24.3734 27.89 27.7239 27.0417 27.7239 24.5183C27.7239 23.8482 27.7196 23.3817 27.2531 22.7922C25.9299 21.1424 24.0851 23.1315 25.387 23.6871C25.7179 23.827 26.829 22.9025 26.829 24.5946C26.829 25.5913 25.3786 26.2402 24.119 24.9424C22.9612 23.7464 23.2963 20.9261 25.8832 20.8243C26.5364 20.7989 26.6467 20.977 27.1514 21.0915C27.0581 20.8201 26.9902 20.4512 26.9902 20.1966C26.9902 19.8235 27.1853 19.3273 27.4864 18.9371C27.9869 18.2967 28.7884 17.9574 29.5136 18.9752C29.9293 19.5605 30.0098 19.9252 29.9844 20.2476C29.9631 20.5275 29.8911 20.7565 29.8359 21.0915C30.5145 20.9346 31.1634 20.5105 32.3042 21.1467C34.552 22.3978 33.2839 25.6507 31.5451 25.6507C30.7605 25.6507 30.1625 25.4386 30.1625 24.4293C30.1625 23.8016 30.4975 23.3562 31.21 23.6362C31.5832 23.7846 31.21 23.8101 31.5536 23.704C32.9446 23.2799 31.121 21.0661 29.7426 22.788C28.6315 24.1748 29.5221 26.9357 31.5493 26.9314C32.1812 26.9314 32.8301 26.5795 33.1991 26.2402C34.0515 25.4556 33.6105 24.8873 34.2339 24.8364C34.6368 26.571 37.6395 27.0332 39.3613 27.0332H42.4531C42.8051 27.0332 42.6609 26.7491 42.6354 26.537C42.593 26.1723 42.5888 26.0451 42.5252 25.7355C42.3046 24.654 42.0502 24.0475 41.5836 23.0976C41.1638 22.2536 40.3962 21.1933 39.7855 20.502C39.6328 20.3281 39.4928 20.2264 39.3401 20.0525C37.6225 18.0931 35.0864 16.4094 32.8386 15.048C32.6096 14.5688 32.0625 14.115 31.3543 13.7757C30.5357 13.3813 29.4797 13.1099 28.4873 13.1099C27.4822 13.1099 26.4049 13.377 25.5779 13.7757C24.9036 14.098 24.3819 14.5264 24.1529 14.9886C20.1621 17.1092 15.4163 21.0873 14.4663 25.7312C14.0889 27.5804 14.1355 26.9442 17.5538 26.9442C18.4232 26.9442 19.123 26.9781 19.8779 26.8297C21.0103 26.6218 22.5286 25.8627 22.7619 24.8449Z" fill="#BA2828"/>
</g>
<defs>
<clipPath id="clip0_17_5630">
<rect width="57" height="57" fill="white"/>
</clipPath>
</defs>
</svg>
