<svg width="58" height="57" viewBox="0 0 58 57" fill="none" xmlns="http://www.w3.org/2000/svg">
<g clip-path="url(#clip0_17_5688)">
<circle cx="28.7754" cy="28.5" r="28.5" fill="white"/>
<path fill-rule="evenodd" clip-rule="evenodd" d="M29.0509 53.4077C28.9703 53.9336 28.4868 54.2942 28.0034 54.2135C27.4775 54.133 27.1169 53.6495 27.1551 53.1236C27.2357 52.6402 27.7192 52.2754 28.2451 52.3178C28.7667 52.3984 29.1315 52.8819 29.0509 53.4077Z" fill="#BA2828"/>
<path d="M28.2831 1.13236C13.185 1.13236 0.911326 13.406 0.911326 28.5042C0.911326 43.6023 13.185 55.8759 28.2831 55.8759C43.3813 55.8759 55.6549 43.6023 55.6549 28.5042C55.6549 13.406 43.3813 1.13236 28.2831 1.13236ZM28.2831 56.9998C12.5785 56.9998 -0.216797 44.2427 -0.216797 28.4999C-0.216797 12.7953 12.5785 0 28.2831 0C43.9878 0 56.783 12.7953 56.783 28.4999C56.783 44.2427 43.9878 56.9998 28.2831 56.9998Z" fill="#BA2828"/>
<path d="M28.2463 7.14596C16.4604 7.14596 6.85017 16.7138 6.85017 28.4997C6.85017 40.2856 16.4562 49.8958 28.2463 49.8958C40.0364 49.8958 49.6382 40.2899 49.6382 28.4997C49.6382 16.7095 40.0322 7.14596 28.2463 7.14596ZM28.2463 50.4599C16.1762 50.4599 6.32422 40.6079 6.32422 28.4997C6.32422 16.4297 16.1762 6.57764 28.2463 6.57764C40.3587 6.57764 50.1683 16.4297 50.1683 28.4997C50.1641 40.6122 40.3545 50.4599 28.2463 50.4599Z" fill="#BA2828"/>
<path fill-rule="evenodd" clip-rule="evenodd" d="M25.6591 16.0271C25.5361 16.2688 25.4173 16.5911 25.2562 16.7947C25.6209 19.4199 26.062 23.2538 23.318 23.5761C22.5928 23.6568 21.664 23.5761 21.3417 23.1309C20.7352 22.2021 21.4647 20.8279 21.664 19.9416C21.541 21.1121 21.5028 22.4862 22.6734 22.728C23.318 22.8509 24.4079 22.6474 24.6921 22.2445C24.9762 21.8797 24.9762 20.7092 24.9339 19.8228C24.8914 18.207 24.7727 16.7947 24.2892 15.8277C24.4504 15.5436 24.6921 15.3825 24.8533 15.1025C25.218 15.34 25.2562 15.8659 25.6591 16.0271Z" fill="#BA2828"/>
<path fill-rule="evenodd" clip-rule="evenodd" d="M37.2473 21.112V21.3156C37.1243 21.4767 36.8826 22.1638 36.5603 22.2443C36.4373 22.2868 36.0768 22.202 35.7926 22.202C35.148 22.2443 34.3803 22.4055 33.6933 22.6473C33.0063 22.889 32.281 23.3725 31.6364 23.2113C31.0723 23.0883 30.6694 22.3631 30.504 21.9602C30.1817 21.0738 30.1817 20.0645 29.94 19.0127C29.4947 21.7566 28.0824 23.8178 24.8125 23.576C27.1154 23.0502 28.5658 21.8414 29.2148 19.8227C29.6177 18.6903 29.6177 16.9557 29.9823 15.8276C30.6694 16.3111 30.3047 17.2823 30.3047 18.0881C30.3047 19.2205 30.4658 20.5904 30.9111 21.358C31.5982 22.5285 33.3752 22.4055 34.4228 21.5191C33.8163 20.7939 32.0393 20.8745 31.4752 21.4385C31.84 20.7515 32.2004 20.0645 32.9681 19.9457C34.5457 19.6616 35.5933 21.3537 37.2473 21.112Z" fill="#BA2828"/>
<path fill-rule="evenodd" clip-rule="evenodd" d="M25.9438 16.9565C27.4791 17.563 28.446 18.7335 28.4079 20.9516C28.0431 20.2645 28.005 19.5393 27.2755 19.1746C26.7115 18.8905 26.105 18.9328 25.8633 18.4069C25.7021 18.0465 25.7827 17.4824 25.9438 16.9565Z" fill="#BA2828"/>
<path d="M13.7109 34.7174C13.6303 34.7174 13.5498 34.6749 13.5074 34.5943L8.94401 30.031C8.4605 29.5856 8.21875 28.9834 8.21875 28.377C8.21875 27.7323 8.4605 27.1258 8.94401 26.6805L13.5074 22.1171C13.6303 21.9942 13.8297 21.9942 13.9527 22.1171C14.0757 22.2401 14.0757 22.4394 13.9527 22.5625L9.35113 27.1258C9.02883 27.4481 8.86768 27.8935 8.86768 28.377C8.86768 28.8223 9.02883 29.2633 9.35113 29.5899L13.9527 34.1915C14.0757 34.3145 14.0757 34.4756 13.9527 34.5943C13.8721 34.6749 13.7915 34.7174 13.7109 34.7174Z" fill="#BA2828"/>
<path d="M28.2832 48.4031C27.6386 48.4031 27.0322 48.1613 26.5868 47.7161L22.227 43.3138C22.104 43.1908 22.104 43.0297 22.227 42.9109C22.35 42.7498 22.5493 42.7498 22.6723 42.9109L27.0322 47.2707C27.3544 47.5931 27.7998 47.7966 28.2832 47.7966C28.7286 47.7966 29.1697 47.5931 29.5344 47.2707L33.8942 42.9109C34.0172 42.7498 34.2165 42.7498 34.3395 42.9109C34.4625 43.0339 34.4625 43.1951 34.3395 43.3138L29.9373 47.7161C29.4962 48.1613 28.9279 48.4031 28.2832 48.4031Z" fill="#BA2828"/>
<path d="M42.8192 34.7557C42.7769 34.7557 42.6963 34.7133 42.6157 34.6752C42.4927 34.5522 42.4927 34.3528 42.6157 34.2298L47.1791 29.5859C47.5014 29.2636 47.705 28.8182 47.705 28.373C47.705 27.8895 47.5014 27.4442 47.1791 27.1218L42.6157 22.4864C42.4927 22.3634 42.4927 22.2022 42.6157 22.0834C42.7387 21.9605 42.938 21.9605 43.061 22.0834L47.6243 26.685C48.0697 27.1303 48.3114 27.7326 48.3114 28.3815C48.3114 28.9879 48.0697 29.5944 47.6243 30.0354L43.061 34.6794C42.9804 34.7176 42.8999 34.7557 42.8192 34.7557Z" fill="#BA2828"/>
<path d="M33.9386 14.2922C33.858 14.2922 33.7774 14.2922 33.735 14.2117L29.2946 9.77127C28.6076 9.08423 27.4794 9.08423 26.7924 9.77127L22.352 14.2117C22.2291 14.3347 22.0297 14.3347 21.9067 14.2117C21.7837 14.0886 21.7837 13.8893 21.9067 13.7663L26.3471 9.32599C27.2759 8.3972 28.8111 8.3972 29.7399 9.32599L34.1803 13.7663C34.3033 13.8893 34.3033 14.0886 34.1803 14.2117C34.0997 14.2922 34.0192 14.2922 33.9386 14.2922Z" fill="#BA2828"/>
<path d="M13.713 22.6475C13.5518 22.6475 13.3906 22.5245 13.3906 22.3252V16.0654C13.3906 14.7337 14.4806 13.6819 15.7741 13.6819H22.0721C22.2332 13.6819 22.3562 13.8049 22.3562 14.0042C22.3562 14.1654 22.2332 14.2884 22.0721 14.2884H15.7699C14.8029 14.2884 14.0353 15.0942 14.0353 16.0654V22.3209C14.0353 22.5245 13.8741 22.6475 13.713 22.6475Z" fill="#BA2828"/>
<path d="M22.4329 43.4368H15.7702C14.4767 43.4368 13.3867 42.3469 13.3867 41.0533V34.3949C13.3867 34.2337 13.5479 34.0725 13.7091 34.0725C13.8702 34.0725 14.0314 34.2337 14.0314 34.3949V41.0533C14.0314 42.0203 14.799 42.7879 15.766 42.7879H22.4287C22.5898 42.7879 22.751 42.9491 22.751 43.1102C22.751 43.2714 22.5941 43.4368 22.4329 43.4368Z" fill="#BA2828"/>
<path d="M40.7571 43.4367H34.1368C33.9332 43.4367 33.8145 43.2755 33.8145 43.1144C33.8145 42.9532 33.9374 42.792 34.1368 42.792H40.7571C41.724 42.792 42.534 42.0244 42.534 41.0574V34.4329C42.534 34.2717 42.6571 34.1106 42.8182 34.1106C43.0217 34.1106 43.1405 34.2717 43.1405 34.4329V41.0532C43.1405 42.3467 42.0887 43.4367 40.7571 43.4367Z" fill="#BA2828"/>
<path d="M42.8195 22.605C42.6584 22.605 42.5354 22.4439 42.5354 22.2828V16.0654C42.5354 15.0984 41.7296 14.2884 40.7584 14.2884H33.9345C33.7734 14.2884 33.6504 14.1654 33.6504 14.0042C33.6504 13.8007 33.7734 13.6819 33.9345 13.6819H40.7584C42.09 13.6819 43.1418 14.7294 43.1418 16.0654V22.2828C43.1418 22.4439 43.0188 22.605 42.8195 22.605Z" fill="#BA2828"/>
<path fill-rule="evenodd" clip-rule="evenodd" d="M21.2995 36.011C21.7448 36.011 22.1477 36.011 22.593 36.011C22.5506 35.3664 22.593 34.637 22.593 33.9542C23.0765 33.8735 23.6829 33.9542 24.2088 33.9117C24.2088 35.5276 24.2088 37.5039 24.2088 39.2809H22.593C22.593 38.5557 22.5506 37.7456 22.593 37.101C22.2282 37.0586 21.7066 37.101 21.2995 37.101C21.2189 37.7881 21.2995 38.5557 21.2571 39.2809H19.6836C19.5606 38.1485 19.8066 36.2952 19.6836 35.0823C19.6412 34.7175 19.48 34.4758 19.2383 34.3146C19.3613 33.9499 19.7218 33.7082 20.1671 33.7082C21.2613 33.6657 21.3801 34.7981 21.2995 36.011Z" fill="#BA2828"/>
<path fill-rule="evenodd" clip-rule="evenodd" d="M26.4691 38.3908C27.2367 38.3908 27.2367 36.2109 26.3885 36.3721C25.7014 36.4951 25.7014 38.4333 26.4691 38.3908ZM26.995 36.0498V35.4857H28.5302C28.6532 36.6563 28.1655 38.3526 28.9331 38.9168C28.649 39.6843 27.0373 39.5614 27.0373 38.6326C26.6726 39.3197 25.7056 39.7649 25.0186 39.1161C23.9287 38.1873 24.1323 35.3628 25.8244 35.3203C26.4266 35.3246 26.7108 35.6469 26.995 36.0498Z" fill="#BA2828"/>
<path fill-rule="evenodd" clip-rule="evenodd" d="M29.1742 33.8697C29.6577 33.8697 30.2218 33.8273 30.7095 33.9122V36.2532C30.7095 37.0208 30.5865 37.9496 30.79 38.4755C30.8706 38.6791 31.0742 38.7597 31.1548 38.9208C30.79 39.646 29.5008 39.6079 29.2166 38.8402C28.9749 38.3144 29.0936 37.2668 29.0936 36.4568V33.9545C29.1318 33.9122 29.1318 33.8697 29.1742 33.8697Z" fill="#BA2828"/>
<path fill-rule="evenodd" clip-rule="evenodd" d="M33.2074 38.3908C33.9749 38.3908 33.9749 36.2109 33.1268 36.3721C32.4439 36.4951 32.4439 38.4333 33.2074 38.3908ZM33.7332 36.0498V35.4857H35.2685C35.3915 36.6563 34.9038 38.3526 35.6714 38.9168C35.3872 39.6843 33.7756 39.5614 33.7756 38.6326C33.4109 39.3197 32.4439 39.7649 31.7569 39.1161C30.667 38.1873 30.8705 35.3628 32.5627 35.3203C33.1692 35.3246 33.4533 35.6469 33.7332 36.0498Z" fill="#BA2828"/>
<path fill-rule="evenodd" clip-rule="evenodd" d="M35.9144 33.869C36.3979 33.869 36.962 33.8265 37.4497 33.869V36.2524C37.4497 37.0201 37.3267 37.9489 37.5303 38.4747C37.6109 38.6783 37.8145 38.7589 37.895 38.92C37.5303 39.6453 36.241 39.6071 35.9569 38.8395C35.7151 38.3136 35.8338 37.266 35.8338 36.456V33.9538C35.8763 33.9113 35.8763 33.869 35.9144 33.869Z" fill="#BA2828"/>
<path fill-rule="evenodd" clip-rule="evenodd" d="M44.1887 25.7948C44.1463 27.5294 44.2312 29.3488 44.1463 31.0029C43.4593 31.0029 42.6917 31.0834 42.0894 31.0029V26.766C41.8859 26.6854 41.5635 26.766 41.3642 26.7236C41.1224 28.5388 41.4448 30.5575 39.9095 31.3252C39.1037 31.7281 37.4879 31.8892 36.3555 30.9223C36.0714 30.6805 38.0901 29.9935 38.2131 30.1971C38.4167 30.6 38.8577 30.4006 38.9807 30.1546C39.5448 29.1071 39.3836 27.2495 39.5872 25.7948C40.9189 25.4343 42.8189 25.4725 44.1887 25.7948Z" fill="#BA2828"/>
<path fill-rule="evenodd" clip-rule="evenodd" d="M35.0653 29.7515C36.0747 29.7091 36.0747 26.7234 34.9041 26.9651C33.9753 27.1263 33.9753 29.7939 35.0653 29.7515ZM35.7523 26.524V25.7564H37.8898C37.8898 28.178 37.5675 29.9551 38.4539 30.4385C38.051 31.5285 36.1934 31.6091 35.7905 30.0356C35.307 31.045 33.9753 31.6515 33.0041 30.7609C31.5113 29.4674 31.7912 25.5528 34.1365 25.5146C34.9847 25.5146 35.3876 25.9557 35.7523 26.524Z" fill="#BA2828"/>
<path fill-rule="evenodd" clip-rule="evenodd" d="M17.9113 27.6524C18.5983 28.8654 20.0912 31.1258 20.0912 31.1258H17.2666C17.2666 31.1258 16.2997 29.3106 15.8119 28.3819C15.0443 28.8271 15.4896 30.0359 15.9349 30.4812C15.2479 32.097 12.7457 31.287 12.9492 29.4336C13.0722 28.2207 14.1622 27.5379 15.1716 27.1731C14.8492 26.6091 14.4845 26.0408 14.1622 25.4767C13.7974 24.9127 13.1528 23.7803 13.1528 23.7803H15.8162C16.2997 24.7091 16.7831 25.5955 17.2285 26.5667C18.0343 26.1638 17.6737 24.7515 17.186 24.2638C17.3472 23.7803 17.7925 23.5386 18.399 23.5386C19.3278 23.4962 19.9724 24.145 20.0954 24.8703C20.3711 26.4437 18.9588 27.2919 17.9113 27.6524Z" fill="#BA2828"/>
<path fill-rule="evenodd" clip-rule="evenodd" d="M31.634 25.7942C31.5917 27.5288 31.6765 29.3482 31.5917 31.0404C30.9046 30.998 30.1369 31.0828 29.5347 30.998C29.5347 29.5857 29.5347 28.2116 29.5347 26.7993C29.3312 26.7188 29.0513 26.7569 28.8095 26.7569C28.5677 28.5721 28.8901 30.5526 27.3548 31.3203C26.549 31.7232 24.9332 31.8843 23.8008 30.9555C23.5167 30.7139 25.5354 29.9886 25.6584 30.1879C25.862 30.5908 26.3454 30.3915 26.426 30.1879C26.9901 29.1404 26.8713 27.2404 27.0325 25.7857C28.3642 25.4719 30.2642 25.5143 31.634 25.7942Z" fill="#BA2828"/>
<path fill-rule="evenodd" clip-rule="evenodd" d="M22.5125 29.7515C23.56 29.7515 23.5219 26.7658 22.3514 26.9651C21.4226 27.1687 21.4226 29.7939 22.5125 29.7515ZM23.1996 26.524C23.1996 26.2823 23.1996 25.9982 23.1996 25.7564H25.3371C25.3371 28.2205 25.0148 29.9932 25.9011 30.481C25.4982 31.5709 23.6406 31.6133 23.2377 30.0781C22.7543 31.045 21.4226 31.6515 20.4514 30.8033C18.9585 29.4716 19.2384 25.5571 21.5837 25.5146C22.3895 25.5146 22.8348 25.9557 23.1996 26.524Z" fill="#BA2828"/>
<path d="M23.3991 54.3365L22.3516 54.1753L22.394 54.0142C22.4364 53.9717 22.4745 53.9717 22.5552 53.9717C22.5975 53.9717 22.6781 53.9294 22.7163 53.9294L23.6027 53.1617C23.5603 53.0387 23.5221 52.9581 23.4415 52.8394C23.3991 52.7164 23.3185 52.5977 23.238 52.4747C23.1574 52.3135 23.115 52.1905 23.0344 52.0718C22.9538 51.9488 22.8732 51.83 22.7926 51.707L22.6315 51.5459L22.6739 51.4229L23.3185 51.5459L23.4797 51.6689C23.5221 51.7494 23.5603 51.8724 23.6027 51.953C23.6833 52.076 23.7257 52.1948 23.7639 52.3177C23.8062 52.3983 23.8868 52.5213 23.925 52.64C23.9675 52.763 24.0056 52.8818 24.048 52.9624L24.2091 53.0048L24.3703 51.9955C24.3279 51.953 24.2897 51.953 24.2473 51.9148C24.2049 51.8724 24.1668 51.8724 24.1243 51.8342L24.1668 51.6731L25.3373 51.8767L25.2949 52.0378C25.2525 52.0378 25.1719 52.0803 25.1337 52.0803C25.0913 52.0803 25.0107 52.0803 24.9726 52.0803L24.5697 54.3025C24.6502 54.3025 24.6927 54.345 24.7308 54.345C24.8114 54.3874 24.8538 54.4256 24.892 54.468L24.8496 54.6291L23.679 54.3874L23.7214 54.2644C23.7214 54.222 23.802 54.222 23.8444 54.222C23.8868 54.1795 23.9674 54.1795 24.0056 54.1795L24.1668 53.2126H23.925L23.1574 54.0184C23.1998 54.0608 23.238 54.099 23.2804 54.099C23.361 54.1414 23.4033 54.1795 23.4033 54.1795V54.3365H23.3991Z" fill="#BA2828"/>
<path d="M20.6946 52.3176C20.7752 52.36 20.8558 52.36 20.8982 52.36L21.263 51.27C21.263 51.27 21.2205 51.27 21.1824 51.2277C21.14 51.2277 21.1018 51.2277 21.0594 51.1852C20.9364 51.1428 20.8176 51.1428 20.6946 51.2277C20.5717 51.27 20.4911 51.4312 20.4105 51.6306C20.2875 51.9529 20.3681 52.1988 20.6946 52.3176ZM22.2256 51.3506L22.1451 51.4736C22.1027 51.4736 22.0645 51.516 21.984 51.516C21.9415 51.516 21.861 51.4736 21.8228 51.4736L21.0975 53.573C21.14 53.6153 21.1781 53.6535 21.2587 53.6959C21.3011 53.6959 21.3393 53.7383 21.3817 53.8189L21.3393 53.9419L20.1264 53.539L20.1687 53.416C20.2494 53.3736 20.2917 53.3736 20.3723 53.3736C20.4147 53.3736 20.4953 53.3736 20.5335 53.416L20.8176 52.6102C20.7752 52.6102 20.7371 52.5678 20.6565 52.5678C20.5759 52.5678 20.5335 52.5254 20.4953 52.5254C20.3723 52.483 20.2536 52.4024 20.1306 52.3642C20.0076 52.2836 19.927 52.2031 19.8888 52.1225C19.8083 52.0419 19.7658 51.9189 19.7658 51.8002C19.7235 51.7196 19.7658 51.5584 19.8083 51.4355C19.8507 51.2743 19.9313 51.1513 20.0118 51.0707C20.0924 50.9901 20.2154 50.9477 20.3342 50.9096C20.4572 50.8671 20.5759 50.8671 20.6989 50.8671C20.8601 50.8671 20.983 50.9096 21.1442 50.9477C21.1442 50.9477 21.1866 50.9477 21.1866 50.9901C21.229 50.9901 21.2672 50.9901 21.3478 51.0326C21.3902 51.0326 21.4283 51.0749 21.5089 51.0749C21.5514 51.1174 21.5895 51.1174 21.6319 51.1174L22.2256 51.3506ZM18.9177 50.2183L20.05 50.583L19.9694 50.7441C19.927 50.7441 19.8888 50.7441 19.8465 50.7441C19.7658 50.7441 19.7235 50.7441 19.6853 50.7441L18.96 52.8435C19.0025 52.8859 19.0406 52.8859 19.083 52.9241C19.1255 52.9665 19.1636 53.0046 19.2061 53.0471L19.1636 53.2082L18.0312 52.8053L18.0737 52.6442C18.1542 52.6442 18.2772 52.6442 18.396 52.6442L19.1213 50.5448C19.0788 50.5024 18.9982 50.5024 18.96 50.4642C18.9177 50.4218 18.8795 50.3837 18.8795 50.3412L18.9177 50.2183Z" fill="#BA2828"/>
<path d="M16.294 51.6733C16.3365 51.7158 16.3746 51.7158 16.3746 51.7158C16.417 51.7582 16.4552 51.7582 16.4552 51.7582L17.0193 50.7106C17.0193 50.6682 16.9768 50.6682 16.9387 50.6301C16.8963 50.6301 16.8581 50.5876 16.8157 50.5876C16.7733 50.5452 16.6927 50.5452 16.6546 50.5071C16.5739 50.5071 16.4934 50.5071 16.4128 50.5495C16.3704 50.5495 16.2898 50.5919 16.2516 50.6724C16.171 50.7149 16.1287 50.7954 16.0481 50.876C15.9675 51.0796 15.9251 51.2408 15.9675 51.3595C16.0099 51.5122 16.1329 51.5927 16.294 51.6733ZM17.507 49.7734C17.4646 49.7309 17.384 49.6928 17.3459 49.6122C17.3034 49.5698 17.2653 49.5316 17.2228 49.4892L17.2653 49.3662L18.4358 49.9303L18.3552 50.0914C18.3128 50.0914 18.2322 50.0914 18.194 50.049C18.1516 50.049 18.0711 50.049 18.0329 50.049L17.0235 51.9872C17.0659 52.0296 17.1041 52.0678 17.1465 52.1102C17.1889 52.1526 17.2271 52.1907 17.2271 52.2713L17.1846 52.3943L16.7394 52.1526C16.6164 52.1102 16.5358 52.072 16.417 51.9914C16.294 51.949 16.1753 51.9108 16.0523 51.8684C15.9293 51.7878 15.8487 51.7073 15.73 51.6267C15.607 51.5462 15.5264 51.4231 15.4882 51.3426C15.4077 51.2196 15.3652 51.1008 15.3652 50.9778C15.3652 50.8548 15.4077 50.7361 15.4882 50.5749C15.5688 50.4519 15.6494 50.3332 15.73 50.2908C15.853 50.2102 15.9717 50.1678 16.0947 50.1296C16.2177 50.1296 16.3365 50.1296 16.4976 50.172C16.6206 50.172 16.7394 50.2526 16.8624 50.295C16.9048 50.295 16.9048 50.3374 16.943 50.3374C16.943 50.3374 16.9853 50.3798 17.0235 50.3798C17.0235 50.3798 17.0659 50.4223 17.1041 50.4223C17.1041 50.4646 17.1465 50.4646 17.1465 50.4646L17.507 49.7734Z" fill="#BA2828"/>
<path d="M14.9634 48.2803C14.9209 48.2379 14.8828 48.1997 14.8404 48.1192C14.798 48.0767 14.7598 48.0386 14.7174 47.9961L14.798 47.835L15.8879 48.5602L15.8074 48.6832C15.6462 48.6832 15.5656 48.6408 15.4426 48.6026L14.2297 50.4602C14.2297 50.5026 14.2721 50.5408 14.3102 50.5832C14.3527 50.6256 14.3908 50.6638 14.4332 50.7444L14.3527 50.8674L12.6562 49.735C12.6986 49.6925 12.7368 49.612 12.7792 49.5738C12.8216 49.4932 12.9022 49.4127 12.9404 49.3702C12.9828 49.2896 13.0634 49.2091 13.1015 49.1667C13.144 49.0861 13.2245 49.0437 13.2627 49.0055L13.3857 49.0861L13.2245 49.7731L13.708 50.1379L14.9634 48.2803Z" fill="#BA2828"/>
<path d="M12.0153 47.5125C12.0959 47.5549 12.1383 47.5931 12.1765 47.6355L12.9441 46.7873C12.9441 46.7449 12.9017 46.7449 12.8635 46.7067C12.8211 46.6643 12.8211 46.6261 12.783 46.6261C12.7024 46.5455 12.5794 46.4649 12.4182 46.5031C12.2952 46.5031 12.1765 46.5837 12.0153 46.7449C11.7736 47.029 11.7736 47.2708 12.0153 47.5125ZM13.7923 47.1902L13.7118 47.3132C13.6311 47.3132 13.5888 47.2708 13.5506 47.2708C13.47 47.2284 13.4276 47.1902 13.3894 47.1902L11.8965 48.8442C11.939 48.8866 11.939 48.9247 11.9772 48.9672C12.0195 49.0096 12.0577 49.0478 12.0577 49.1283L11.9347 49.2513L11.0059 48.4031L11.1289 48.2801C11.1713 48.3225 11.252 48.3225 11.2901 48.3607C11.3325 48.3607 11.4131 48.4031 11.4513 48.4413L12.0153 47.7966C11.9729 47.7966 11.9347 47.7543 11.8923 47.7161C11.8117 47.6737 11.7694 47.6355 11.7312 47.5931C11.6506 47.5125 11.57 47.3895 11.4894 47.3089C11.4088 47.1859 11.3664 47.1054 11.3283 46.9866C11.2858 46.906 11.2858 46.783 11.3283 46.6643C11.3707 46.5413 11.4513 46.4226 11.5318 46.2996C11.6548 46.219 11.7354 46.1384 11.8542 46.096C11.9729 46.0536 12.0959 46.0154 12.2189 46.0536C12.3419 46.0536 12.4606 46.096 12.5836 46.1765C12.7066 46.219 12.8253 46.2996 12.9483 46.4183C12.9483 46.4183 12.9908 46.4183 12.9908 46.4607C13.0331 46.5031 13.0714 46.5413 13.1137 46.5413C13.1562 46.5837 13.1944 46.6219 13.2367 46.6643C13.2792 46.7067 13.3173 46.7449 13.3173 46.7873L13.7923 47.1902ZM11.2095 44.8491L12.0959 45.6549L11.9729 45.7779C11.9305 45.7355 11.8923 45.7355 11.8499 45.7355C11.7694 45.6931 11.7269 45.6931 11.6887 45.6549L10.1959 47.3089C10.2383 47.3514 10.2765 47.3895 10.2765 47.4319C10.3189 47.5125 10.3189 47.5549 10.3571 47.5931L10.2341 47.7161L9.34766 46.9103L9.4707 46.7873C9.55125 46.7873 9.67423 46.8678 9.75483 46.9103L11.2477 45.2562C11.2052 45.2139 11.1671 45.1757 11.1671 45.0951C11.1247 45.0527 11.1247 45.0145 11.0865 44.9721L11.2095 44.8491Z" fill="#BA2828"/>
<path d="M10.3211 43.7212C10.3635 43.7637 10.4017 43.8018 10.4441 43.8824C10.4865 43.963 10.5247 44.0054 10.5671 44.086C10.6095 44.1666 10.6477 44.209 10.6901 44.2896C10.6901 44.3319 10.7325 44.4125 10.7325 44.4507C10.6901 44.4931 10.6519 44.4931 10.6095 44.5313C10.5671 44.5737 10.4865 44.6119 10.4483 44.6119C10.3678 44.6543 10.3253 44.6925 10.2872 44.7348C10.2066 44.7348 10.1642 44.7773 10.0836 44.7773L10.003 44.6543L10.3253 44.209C10.3253 44.1666 10.283 44.1284 10.2448 44.0478C10.2448 44.0054 10.2024 43.9672 10.1642 43.9248C10.0412 43.7637 9.92244 43.7212 9.76129 43.6831C9.6383 43.6831 9.47715 43.7255 9.35838 43.8442C9.2354 43.9672 9.15479 44.086 9.15479 44.209C9.15479 44.2896 9.19723 44.4507 9.27784 44.5313L9.51953 44.7348C9.51953 44.7773 9.47715 44.8155 9.43899 44.8578C9.35838 44.9003 9.316 44.9384 9.27784 44.9808L9.19723 44.8578C9.15479 44.8155 9.15479 44.7773 9.11663 44.7348C9.07425 44.6925 9.03608 44.6543 8.99364 44.6543C8.9131 44.5737 8.79012 44.5737 8.70951 44.5737C8.58653 44.5737 8.50592 44.6161 8.42538 44.6967C8.30233 44.8197 8.22179 44.9384 8.22179 45.019C8.17935 45.142 8.22179 45.2607 8.34477 45.3837C8.38721 45.4262 8.42538 45.4643 8.46776 45.5068C8.5102 45.5491 8.54836 45.5491 8.54836 45.5491L9.07425 45.388L9.19723 45.511C9.15479 45.5534 9.11663 45.5916 9.11663 45.634C9.07425 45.6764 9.03608 45.7146 8.99364 45.7569C8.95127 45.7994 8.9131 45.8376 8.87066 45.8799C8.82828 45.9224 8.79012 45.9605 8.70951 46.0029C8.66707 46.0029 8.62891 45.9605 8.54836 45.9224C8.50592 45.8799 8.42538 45.8418 8.38721 45.7994C8.34477 45.7569 8.26423 45.7188 8.226 45.6764C8.18362 45.5958 8.14546 45.5534 8.10302 45.5152C8.02248 45.4346 7.94187 45.3117 7.89949 45.2311C7.81889 45.1081 7.77645 44.9893 7.73828 44.9088C7.73828 44.7858 7.73828 44.667 7.78072 44.5864C7.8231 44.4634 7.86133 44.3829 7.98431 44.3023C8.06485 44.2217 8.18784 44.1793 8.34905 44.1411C8.5102 44.1411 8.67135 44.1835 8.79433 44.3023L8.83671 44.2599C8.79433 44.2174 8.75616 44.1368 8.71372 44.0563C8.71372 43.9757 8.71372 43.8951 8.71372 43.8145C8.71372 43.7339 8.75616 43.6534 8.75616 43.5728C8.79854 43.4922 8.87915 43.4498 8.95975 43.3693C9.0403 43.2887 9.16328 43.2081 9.28205 43.2081C9.40504 43.1657 9.52381 43.1657 9.64679 43.2081C9.76977 43.2505 9.85038 43.2887 9.96909 43.3693C10.0794 43.4753 10.2024 43.5601 10.3211 43.7212Z" fill="#BA2828"/>
<path d="M7.37474 41.1337L7.29413 40.9725C7.33657 40.9301 7.37474 40.9301 7.41712 40.8919C7.45956 40.8495 7.49772 40.8113 7.5401 40.7689C7.62071 40.7265 7.66308 40.6883 7.70125 40.6459C7.78185 40.6035 7.82429 40.5653 7.86246 40.5229C7.943 40.5653 8.06599 40.6459 8.14659 40.7647C8.2272 40.8453 8.35018 40.9682 8.43073 41.087C8.51133 41.2482 8.59187 41.4517 8.67248 41.6129C8.71492 41.8165 8.71492 41.9776 8.71492 42.1388C8.67248 42.2999 8.59187 42.4611 8.47317 42.6223C8.35018 42.7834 8.18903 42.9446 7.98966 43.0676C7.78613 43.1906 7.58675 43.3093 7.38323 43.3093C7.17964 43.3517 7.01849 43.3517 6.85734 43.3093C6.69613 43.2669 6.53498 43.1863 6.412 43.0676C6.28901 42.987 6.17024 42.8258 6.04726 42.6647C5.96669 42.5417 5.88611 42.3805 5.8437 42.2618C5.76312 42.1388 5.7207 42.02 5.7207 41.9395C5.76311 41.897 5.80129 41.8589 5.8437 41.8589C5.92428 41.8165 5.96669 41.7783 6.04726 41.7359L6.25085 41.6553C6.29322 41.6129 6.37383 41.6129 6.412 41.5747L6.4926 41.7359L6.12786 42.2194C6.12786 42.2618 6.12786 42.2999 6.17024 42.3424C6.17024 42.3847 6.21268 42.4229 6.25085 42.5035C6.29322 42.5841 6.37383 42.6647 6.45444 42.7071C6.53498 42.7495 6.65796 42.7876 6.77673 42.8301C6.89972 42.8301 7.01849 42.7876 7.14147 42.7495C7.30262 42.7071 7.46377 42.6265 7.62492 42.5077C7.94728 42.3042 8.15081 42.1048 8.23141 41.8631C8.35439 41.6214 8.31202 41.4178 8.15081 41.176C8.15081 41.1337 8.10843 41.0955 8.07026 41.0531C8.02782 41.0107 7.98966 40.9725 7.94728 40.9725L7.37474 41.1337Z" fill="#BA2828"/>
<path d="M6.80701 38.2717L7.41351 39.4847L7.29052 39.5271C7.24808 39.5271 7.16754 39.4465 7.12937 39.4041C7.08693 39.3617 7.04877 39.2811 7.00633 39.2429L4.98761 40.2099L5.19118 40.6128L5.9164 40.5704L5.997 40.6934C5.9164 40.7358 5.87399 40.774 5.79341 40.8163C5.751 40.8588 5.67042 40.897 5.58984 40.9393C5.50926 41.0199 5.42868 41.0623 5.38627 41.1005C5.30569 41.1429 5.2251 41.1811 5.18269 41.1811L4.10547 38.9164C4.14788 38.9164 4.22846 38.8739 4.30904 38.8358C4.38962 38.8358 4.4702 38.7933 4.55078 38.7552C4.63136 38.7128 4.71194 38.6746 4.79252 38.6746C4.83493 38.6322 4.91551 38.6322 4.95368 38.594L5.03426 38.7552L4.55078 39.2811L4.75435 39.684L6.77306 38.717C6.73068 38.6365 6.73068 38.594 6.69252 38.5135C6.69252 38.4329 6.69252 38.3905 6.69252 38.3099L6.80701 38.2717Z" fill="#BA2828"/>
<path d="M5.15429 37.1389L4.91255 36.4943L4.30607 36.9777L3.98376 37.1389L4.34849 37.0965L5.15429 37.1389ZM6.20181 36.736L6.52417 37.6648L6.40119 37.7072C6.35875 37.6648 6.32059 37.6648 6.27815 37.6266C6.23577 37.5842 6.1976 37.5036 6.1976 37.4654L3.45363 37.3425L3.37305 37.0583L5.42995 35.3237C5.42995 35.2813 5.42995 35.2007 5.42995 35.1626C5.42995 35.082 5.42996 35.0396 5.47237 35.0014L5.59536 34.959L5.99829 36.1295L5.8371 36.1719C5.8371 36.1295 5.79469 36.0914 5.75652 36.0489C5.71411 35.9684 5.67594 35.9259 5.63353 35.8878L5.10764 36.2907L5.39179 37.1389H6.07883C6.03645 37.0159 6.03645 36.8972 6.07883 36.7742L6.20181 36.736Z" fill="#BA2828"/>
<path d="M5.27582 33.3441L5.4794 34.5146L5.31823 34.557C5.31823 34.5146 5.27582 34.4341 5.23765 34.3959C5.19524 34.3534 5.19524 34.2729 5.15707 34.2347L2.97717 34.68C2.97717 34.7225 2.97717 34.803 2.97717 34.8412C2.97717 34.9218 2.93476 34.9642 2.93476 35.0023L2.7736 35.0448L2.57003 33.8742L2.69302 33.8318C2.73543 33.8742 2.7736 33.9124 2.81601 33.9548C2.81601 33.9972 2.85842 34.0354 2.85842 34.0778L3.78721 33.9167L3.62605 32.9073L2.65909 33.0684C2.7015 33.1108 2.65909 33.1914 2.65909 33.2296C2.65909 33.272 2.61668 33.3102 2.61668 33.3526L2.45552 33.395L2.25195 32.2244L2.37494 32.1821C2.41735 32.2244 2.45552 32.2626 2.49793 32.3432C2.54034 32.3856 2.54034 32.4237 2.57851 32.5044L4.75841 32.0591C4.75841 32.0166 4.75841 31.936 4.75841 31.8979C4.75841 31.8173 4.80083 31.7749 4.80083 31.7367L4.96199 31.6943L5.16556 32.8648L5.04257 32.9073C5.00016 32.8648 4.96198 32.8267 4.91957 32.7843C4.91957 32.7418 4.87717 32.7037 4.87717 32.6613L3.86779 32.8224L4.07136 33.87L5.03832 33.6664C5.03832 33.624 5.08073 33.5434 5.08073 33.5053C5.08073 33.4628 5.08073 33.4247 5.12314 33.3823L5.27582 33.3441Z" fill="#BA2828"/>
<path d="M2.04436 28.0168V27.0499H2.20553C2.24794 27.0923 2.24794 27.1305 2.28611 27.1729C2.28611 27.2153 2.32851 27.2959 2.32851 27.3341L3.33789 28.0593L4.55083 27.2534C4.55083 27.1729 4.59324 27.1305 4.59324 27.0923C4.63565 27.0499 4.63565 27.0117 4.67382 26.9312L4.83498 26.9735L4.79257 28.2247H4.63141C4.63141 28.1822 4.589 28.1441 4.589 28.1017C4.54659 28.0593 4.54659 27.9787 4.54659 27.9405L3.66021 28.4664L4.50842 29.0305C4.55083 28.9499 4.55083 28.9074 4.55083 28.8693C4.59324 28.8269 4.59325 28.7887 4.63141 28.7463H4.79257V29.7132H4.63141C4.589 29.6327 4.55083 29.5521 4.50842 29.4716L3.41847 28.6658L2.28611 29.3909C2.28611 29.4334 2.2437 29.4716 2.2437 29.5139C2.20129 29.5564 2.20129 29.5945 2.16311 29.6369H2.00195L2.04436 28.3858H2.20553C2.20553 28.4282 2.24793 28.4664 2.24793 28.5088C2.24793 28.5894 2.29035 28.6318 2.29035 28.67L3.09615 28.2247L2.32851 27.7412C2.2861 27.7836 2.2861 27.8642 2.24793 27.9023C2.24793 27.9448 2.20553 27.9829 2.20553 28.0253H2.04436V28.0168Z" fill="#BA2828"/>
<path d="M3.86054 25.4724L3.94112 24.7854L3.17349 24.9465H2.85117L3.17349 25.1077L3.86054 25.4724ZM4.9929 25.6335L4.83174 26.6005L4.70875 26.5581C4.66634 26.5157 4.66634 26.4775 4.62817 26.4351C4.62817 26.3545 4.62817 26.3122 4.62817 26.2739L2.28711 24.8999L2.32952 24.6157L4.95473 24.0092C4.99714 23.9668 4.99714 23.8862 5.03531 23.8481C5.07772 23.8056 5.1159 23.7675 5.1159 23.7251L5.27705 23.7675L5.07349 24.9805L4.9505 24.938C4.90809 24.8956 4.90808 24.8574 4.90808 24.7769C4.86567 24.7344 4.86567 24.6539 4.86567 24.6157L4.22103 24.7387L4.09804 25.5869L4.6621 25.9093C4.70451 25.8286 4.74268 25.7057 4.82326 25.5869L4.9929 25.6335Z" fill="#BA2828"/>
<path d="M3.2587 21.9215C3.21629 22.0022 3.17813 22.0827 3.13572 22.1251C3.05514 22.2057 3.01272 22.2481 2.97456 22.2863L2.85156 22.2438L3.4962 20.064L3.6192 20.1063C3.6192 20.1488 3.66161 20.1869 3.66161 20.2676C3.66161 20.3099 3.66161 20.3905 3.66161 20.4711L5.76093 21.0776C5.80334 21.0351 5.84151 20.997 5.88393 20.9546C5.92633 20.874 5.92633 20.8316 5.96451 20.7934L6.12564 20.8358L5.76093 22.0064L5.63794 21.9639C5.63794 21.9215 5.59553 21.8834 5.59553 21.8028C5.59553 21.7604 5.59553 21.7222 5.59553 21.6416L3.45804 21.0351L3.29688 21.6416C3.66161 21.7646 3.98393 21.8834 4.22567 21.9639C4.46741 22.087 4.67098 22.1675 4.83214 22.2481C4.9933 22.3287 5.11629 22.4093 5.19687 22.4899C5.27745 22.5704 5.31986 22.651 5.40044 22.7316C5.44285 22.8122 5.48102 22.8927 5.48102 22.9733C5.48102 23.0539 5.48102 23.1345 5.48102 23.1769C5.43861 23.2193 5.43861 23.2575 5.35803 23.2575C5.31562 23.2575 5.27745 23.2999 5.19687 23.2999C5.15446 23.2999 5.11629 23.3423 5.03571 23.2999C4.9933 23.3423 4.91272 23.2999 4.87455 23.2999L4.75156 23.1387L4.9933 22.7358C4.95089 22.6934 4.87031 22.6129 4.78973 22.5747C4.66674 22.4941 4.58616 22.4516 4.425 22.3711C4.30201 22.2905 4.14085 22.2481 3.94151 22.1675C3.74219 22.0827 3.50045 22.0022 3.2587 21.9215Z" fill="#BA2828"/>
<path d="M5.59766 19.0929L5.91997 18.4483L5.11417 18.3677L4.79185 18.3253L5.03359 18.5289L5.59766 19.0929ZM6.64517 19.5382L6.28044 20.4246L6.11929 20.344C6.11929 20.3016 6.11929 20.2635 6.11929 20.221C6.11929 20.1786 6.11929 20.098 6.11929 20.0599L4.26172 18.0835L4.38471 17.8418L7.09052 17.9648C7.1329 17.9224 7.1329 17.8842 7.17106 17.8418C7.2135 17.7994 7.25167 17.7994 7.29411 17.7612L7.45526 17.8036L6.92937 18.936L6.80632 18.8936C6.80632 18.813 6.80632 18.7706 6.80632 18.69C6.80632 18.6476 6.80638 18.567 6.84876 18.5289L6.16173 18.4864L5.79698 19.2922L6.28044 19.7376C6.36104 19.657 6.44165 19.5764 6.52219 19.4958L6.64517 19.5382Z" fill="#BA2828"/>
<path d="M5.95898 15.5006C5.91656 15.5811 5.8784 15.6236 5.79782 15.6617C5.75541 15.7423 5.67483 15.7423 5.63666 15.7847L5.51367 15.7041L6.68419 13.8083L6.80717 13.889C6.80717 13.9313 6.80717 13.9695 6.80717 14.0119C6.80717 14.0925 6.76479 14.1349 6.76479 14.2155L8.62237 15.386C8.66475 15.3436 8.70291 15.3055 8.78352 15.263C8.82596 15.2206 8.86413 15.1825 8.9065 15.1825L9.02949 15.263L8.38489 16.2724L8.26185 16.1918C8.26185 16.1494 8.26185 16.1113 8.30429 16.0307C8.30429 15.9883 8.30429 15.9501 8.34666 15.8695L6.45092 14.699L6.08618 15.263C6.45092 15.4666 6.69267 15.6659 6.93443 15.8271C7.13802 15.9883 7.29917 16.1494 7.41787 16.2724C7.54092 16.3954 7.62146 16.5142 7.70207 16.5947C7.74445 16.6753 7.78261 16.7983 7.82505 16.8789C7.86743 16.9595 7.86743 17.0401 7.86743 17.1206C7.86743 17.2012 7.82505 17.2818 7.78689 17.3242C7.78689 17.3666 7.74445 17.3666 7.6639 17.3666C7.62146 17.3666 7.5833 17.3666 7.50269 17.3666C7.46031 17.3666 7.37971 17.3666 7.34154 17.3242C7.29917 17.3242 7.21856 17.3242 7.1804 17.2818L7.09985 17.1206L7.46453 16.7559C7.42215 16.7135 7.34154 16.6329 7.30338 16.5523C7.22284 16.4717 7.14223 16.3488 7.01925 16.2681C6.89626 16.1452 6.73511 16.0265 6.57397 15.9034C6.40427 15.7847 6.20074 15.6617 5.95898 15.5006Z" fill="#BA2828"/>
<path d="M11.0866 12.7958L10.2384 13.6441L10.1578 13.5211C10.1578 13.4786 10.2002 13.4405 10.2002 13.3599C10.2426 13.3175 10.2426 13.2793 10.2808 13.2369L8.66493 11.7017C8.62255 11.7017 8.58439 11.7441 8.54195 11.7822C8.4614 11.8247 8.41896 11.8247 8.3808 11.8628L8.25781 11.7398L9.06362 10.8916L9.1866 10.9722C9.1866 11.0146 9.14416 11.0952 9.14416 11.1333C9.10178 11.1757 9.10178 11.214 9.06362 11.2945L10.1536 12.3039L10.3571 12.5456L10.2342 12.1809L9.9118 10.5269L9.86943 10.4463C9.74644 10.5269 9.66584 10.5693 9.54707 10.6075L9.46652 10.4845L10.2723 9.63623L10.3529 9.75921C10.3529 9.80165 10.3529 9.83982 10.3105 9.88226C10.3105 9.9628 10.2681 10.0052 10.2299 10.0434L11.8457 11.5786C11.8882 11.5363 11.9263 11.5363 12.0069 11.4981C12.0493 11.4556 12.0875 11.4556 12.1299 11.4175L12.2529 11.5405L11.4471 12.3887L11.3241 12.3081C11.3241 12.2657 11.3665 12.2276 11.3665 12.147C11.4089 12.1046 11.4089 12.0664 11.4471 11.9858L10.3571 10.9764L10.196 10.7347L10.2765 11.057L10.5988 12.7534L10.6794 12.834C10.7219 12.7916 10.7601 12.7534 10.8024 12.7534C10.883 12.711 10.9254 12.711 10.9636 12.6728L11.0866 12.7958Z" fill="#BA2828"/>
<path d="M14.0823 10.4544L13.1535 11.1796L13.0305 11.0566C13.0729 11.0142 13.1111 10.9761 13.1535 10.9336C13.1535 10.853 13.1959 10.8107 13.2341 10.7725L11.8599 9.0379C11.8176 9.08028 11.737 9.08028 11.6988 9.11844C11.6564 9.11844 11.5758 9.11844 11.5376 9.11844L11.457 9.0379L12.3858 8.27026L12.4664 8.39324C12.4664 8.43568 12.4664 8.51622 12.424 8.55439C12.3816 8.59683 12.3816 8.635 12.3434 8.67737L12.9075 9.40264L13.7557 8.79614L13.1492 8.0285C13.1068 8.07094 13.0686 8.07094 12.988 8.07094C12.9457 8.11332 12.9075 8.11332 12.8651 8.11332L12.7845 7.99034L13.7133 7.26514L13.7938 7.38812C13.7938 7.43056 13.7515 7.46873 13.7133 7.54927C13.6709 7.59171 13.6709 7.62987 13.6327 7.67225L14.9644 9.44929C15.045 9.40685 15.0874 9.36868 15.168 9.36868C15.2104 9.32631 15.2486 9.32631 15.291 9.32631L15.4139 9.44929L14.447 10.1745L14.3664 10.0515C14.4088 10.0091 14.4088 9.9709 14.447 9.92852C14.447 9.88608 14.4894 9.84792 14.5276 9.80554L13.8829 8.99973L13.0771 9.60616L13.7218 10.412C13.7642 10.412 13.8023 10.3696 13.8448 10.3696C13.8872 10.3696 13.9253 10.3272 14.0059 10.3272L14.0823 10.4544Z" fill="#BA2828"/>
<path d="M17.1895 8.07575L16.0572 6.13757L15.5313 6.45986C15.6543 6.74405 15.773 6.98581 15.8536 7.18512C15.9766 7.42687 16.0148 7.6304 16.0954 7.82972C16.1377 7.99093 16.1759 8.15208 16.2183 8.27506C16.2183 8.43621 16.2183 8.55919 16.2183 8.6398L17.1895 8.07575ZM18.0801 7.58802C18.1226 7.6304 18.1607 7.66857 18.2031 7.74917C18.2456 7.82978 18.2456 7.91032 18.2837 7.99093C18.3262 8.03331 18.3643 8.11391 18.3643 8.19445C18.4067 8.27506 18.4449 8.35566 18.4449 8.39804L18.3219 8.47865L17.796 8.0333L16.1802 8.9621L16.3032 9.60675L16.1802 9.68736C16.1377 9.64492 16.0996 9.56431 16.019 9.52615C15.9766 9.4456 15.9384 9.40316 15.896 9.32262C15.8536 9.24201 15.773 9.19964 15.7348 9.11903C15.6925 9.07659 15.6925 8.99605 15.6543 8.95788L15.9384 8.79673C15.9384 8.67369 15.9384 8.51254 15.9384 8.35139C15.896 8.1478 15.8578 7.98665 15.7773 7.78734C15.7348 7.62619 15.6543 7.4226 15.5737 7.22329C15.4931 7.0197 15.4125 6.82038 15.2896 6.65923C15.209 6.65923 15.1666 6.70161 15.086 6.70161C15.0054 6.70161 14.9248 6.74405 14.8442 6.74405L14.7637 6.5829L16.74 5.49292L16.8206 5.61592C16.74 5.69649 16.6594 5.77707 16.5788 5.85765L17.7112 7.79583L18.0801 7.58802Z" fill="#BA2828"/>
<path d="M19.4497 4.60231C19.4072 4.60231 19.3266 4.60231 19.2885 4.60231C19.2461 4.60231 19.2079 4.60231 19.1273 4.60231L19.0849 4.44115L19.9713 4.07642L20.0137 4.23758C20.0137 4.23758 19.9713 4.27999 19.9331 4.31816C19.8908 4.36057 19.8525 4.39874 19.8101 4.44115L19.7295 6.29873C19.7295 6.62103 19.6872 6.86279 19.6066 7.02394C19.5642 7.22752 19.4454 7.30813 19.2843 7.3463C19.2418 7.3463 19.2418 7.30385 19.2037 7.30385C19.1613 7.26148 19.1231 7.22331 19.0807 7.18087C19.0383 7.13843 19.0001 7.10027 18.9577 7.05789C18.9577 7.01545 18.9153 7.01545 18.9153 6.97728L18.9577 6.77376L19.4412 6.73131C19.4412 6.73131 19.4412 6.68894 19.4836 6.65071C19.4836 6.60833 19.4836 6.57017 19.4836 6.52773L17.8296 5.23423C17.7871 5.23423 17.7066 5.23423 17.6684 5.23423C17.626 5.23423 17.5878 5.23423 17.5454 5.23423L17.4648 5.07307L18.5972 4.62775L18.6778 4.75074C18.5972 4.83133 18.5166 4.91191 18.436 4.99249L19.3649 5.76012L19.526 5.96369L19.4836 5.67953L19.4497 4.60231Z" fill="#BA2828"/>
<path d="M23.0454 5.20838L23.2066 5.16597C23.249 5.20838 23.249 5.24655 23.2872 5.32713C23.2872 5.36954 23.3296 5.40771 23.3677 5.48829C23.3677 5.5307 23.4102 5.61128 23.4102 5.69186C23.4525 5.73427 23.4525 5.81485 23.4525 5.85302C23.4102 5.9336 23.2914 5.97601 23.1684 6.05659C23.0454 6.099 22.9266 6.17958 22.7655 6.17958C22.5619 6.26017 22.3626 6.30255 22.159 6.26017C21.9979 6.26017 21.8367 6.21773 21.6756 6.13717C21.5144 6.05659 21.3914 5.9336 21.2727 5.81485C21.1497 5.65369 21.0691 5.45012 21.0309 5.20838C20.9503 4.96664 20.9079 4.7249 20.9503 4.56374C20.9927 4.36017 21.0309 4.19901 21.1115 4.03785C21.2345 3.91486 21.3532 3.79611 21.4762 3.67312C21.6374 3.59254 21.7985 3.51196 21.9597 3.46955C22.1208 3.42713 22.282 3.38897 22.4432 3.38897C22.5662 3.34655 22.6849 3.38897 22.7655 3.38897C22.8079 3.43138 22.8079 3.46955 22.8079 3.55012C22.8503 3.59254 22.8503 3.67312 22.8503 3.7537C22.8927 3.83427 22.8927 3.87669 22.8927 3.95727C22.8927 4.03785 22.8927 4.08026 22.8927 4.11843L22.7315 4.19901L22.3668 3.67312C22.3668 3.67312 22.3244 3.67312 22.2438 3.67312C22.2014 3.67312 22.1633 3.67312 22.0827 3.71553C22.0021 3.71553 21.9215 3.75794 21.8409 3.83852C21.7604 3.9191 21.6798 3.99968 21.6374 4.12267C21.595 4.20325 21.5568 4.36441 21.5568 4.52557C21.5568 4.64856 21.5992 4.84789 21.6374 5.05146C21.7604 5.41619 21.8791 5.65793 22.0827 5.8191C22.2863 5.98026 22.4856 6.02267 22.7697 5.94209C22.8122 5.94209 22.8927 5.89968 22.9309 5.8615C22.9733 5.8615 23.0115 5.8191 23.0115 5.8191L23.0454 5.20838Z" fill="#BA2828"/>
<path d="M25.9092 5.57277L24.5775 5.73393V5.61094C24.62 5.56853 24.6581 5.53036 24.7387 5.48795C24.8193 5.48795 24.8617 5.44554 24.9423 5.40737L24.62 3.22747L24.1746 3.26988L24.0135 3.9951H23.8523C23.8523 3.95269 23.81 3.91452 23.81 3.83394C23.7675 3.75335 23.7293 3.67277 23.7293 3.59219C23.6869 3.4692 23.6869 3.38862 23.6869 3.30804C23.6445 3.22747 23.6445 3.14689 23.6445 3.10447L26.1086 2.73975C26.1086 2.82032 26.1086 2.86274 26.1086 2.94332C26.151 3.06631 26.151 3.14689 26.151 3.22747C26.151 3.30804 26.151 3.38862 26.151 3.4692C26.151 3.54978 26.151 3.63037 26.151 3.67277L25.9898 3.71519L25.6251 3.07054L25.1798 3.15112L25.5021 5.33103C25.5827 5.33103 25.6633 5.37344 25.7057 5.37344C25.7862 5.37344 25.8669 5.37344 25.9092 5.41585V5.57277Z" fill="#BA2828"/>
<path d="M28.089 2.90476C28.0467 2.90476 28.0085 2.90476 27.9661 2.90476C27.9237 2.90476 27.9237 2.90476 27.8855 2.90476V4.1177C27.9279 4.1177 27.9661 4.1177 28.0085 4.1177H28.1315C28.2121 4.1177 28.2545 4.1177 28.3351 4.07529C28.3774 4.03288 28.4581 4.03288 28.4962 3.9523C28.5386 3.90989 28.5768 3.82931 28.6192 3.74873C28.6616 3.70632 28.6616 3.58757 28.6616 3.50699C28.6616 3.26525 28.6192 3.10409 28.5004 3.02351C28.4114 2.94717 28.2503 2.86659 28.089 2.90476ZM27.9279 5.16524C28.0085 5.16524 28.0509 5.16524 28.1315 5.20766C28.2121 5.20766 28.2545 5.25006 28.3351 5.25006V5.41123H27.0034V5.28823C27.0839 5.24582 27.1264 5.20766 27.1645 5.20766C27.2451 5.20766 27.2875 5.16524 27.3257 5.16524L27.2833 2.94293C27.2409 2.94293 27.1603 2.90052 27.1221 2.90052C27.0797 2.8581 26.9991 2.8581 26.9609 2.81994V2.66301H27.4444C27.5674 2.66301 27.6861 2.66301 27.8092 2.66301C27.9703 2.62061 28.0933 2.62061 28.212 2.62061C28.3351 2.62061 28.4538 2.62061 28.615 2.66301C28.738 2.70543 28.8567 2.7436 28.9373 2.78601C29.0603 2.86659 29.1409 2.94717 29.2214 3.07016C29.2639 3.15074 29.302 3.3119 29.302 3.47306C29.302 3.63422 29.302 3.75721 29.2214 3.87596C29.179 3.95654 29.0984 4.07953 28.9797 4.16011C28.8991 4.20252 28.7761 4.2831 28.615 4.32127C28.4919 4.36368 28.3732 4.36368 28.212 4.36368H28.1696H28.0467C28.0467 4.36368 28.0042 4.36368 27.9661 4.36368C27.9237 4.36368 27.9237 4.36368 27.9237 4.36368V5.16524H27.9279Z" fill="#BA2828"/>
<path d="M31.0787 5.53053L29.9082 5.40754L29.9506 5.24638C29.993 5.24638 30.0312 5.20397 30.1118 5.20397C30.1542 5.16156 30.2348 5.16156 30.2729 5.16156L30.5571 2.98165C30.4765 2.93924 30.4341 2.93924 30.3959 2.90107C30.3154 2.85866 30.2729 2.85866 30.2348 2.82049V2.66357L31.4053 2.82474V2.94773C31.3629 2.99013 31.3247 2.99013 31.2823 3.02831C31.2017 3.02831 31.1594 3.02831 31.0787 3.02831L30.9176 4.52115L30.837 4.80531L31.0787 4.52115L32.2111 3.27004L32.2535 3.18947C32.1305 3.10889 32.0118 3.06647 31.9312 3.02831L31.9736 2.86714L33.1441 3.02831L33.1018 3.1513C33.0593 3.19371 33.0211 3.19371 32.9406 3.23188C32.8982 3.23188 32.86 3.23188 32.7794 3.23188L32.5377 5.45419C32.5801 5.45419 32.6182 5.4966 32.6988 5.4966C32.7412 5.53901 32.7794 5.57718 32.8218 5.61959V5.74258L31.6513 5.61959V5.45843C31.6937 5.45843 31.7319 5.41602 31.7743 5.41602C31.8549 5.41602 31.8973 5.37361 31.9779 5.37361L32.139 3.91892L32.2196 3.59661L32.016 3.88076L30.8455 5.17428V5.25486C30.8879 5.25486 30.9261 5.29727 31.0066 5.33544C31.0491 5.33544 31.0872 5.37785 31.1297 5.37785L31.0787 5.53053Z" fill="#BA2828"/>
<path d="M35.0352 4.88618C35.0352 4.92858 35.1158 4.92858 35.1581 4.92858C35.2006 4.92858 35.2387 4.92858 35.2387 4.92858L35.5229 3.88104C35.5229 3.88104 35.4804 3.83863 35.4423 3.83863C35.3999 3.83863 35.3617 3.79622 35.3193 3.79622C35.2769 3.79622 35.1963 3.75381 35.1158 3.75381C35.0352 3.75381 34.9927 3.79622 34.9122 3.8344C34.8697 3.8344 34.7892 3.8768 34.751 3.95739C34.7086 3.99979 34.6704 4.08038 34.6704 4.19913C34.5899 4.4027 34.628 4.52144 34.6704 4.64443C34.751 4.76319 34.8697 4.84377 35.0352 4.88618ZM36.4856 3.8344L36.4432 3.99556C36.4008 3.99556 36.3626 3.99556 36.282 4.03797C36.2396 4.03797 36.159 4.03797 36.1209 4.03797L35.5144 6.17546C35.595 6.21785 35.6374 6.21785 35.6755 6.25602C35.7561 6.29846 35.7985 6.33662 35.7985 6.379L35.7561 6.50205L34.5856 6.1797L34.628 6.05671C34.6704 6.05671 34.751 6.0143 34.7892 6.0143C34.8274 6.0143 34.9122 6.0143 34.9503 6.0143L35.1921 5.16609L34.8697 5.08551C34.7467 5.24666 34.628 5.40782 34.5051 5.53081C34.382 5.69198 34.2633 5.81497 34.1022 5.93372L33.8986 6.0143L33.2539 5.85314L33.2963 5.69198L33.4999 5.64957C33.7035 5.52658 33.8646 5.40782 33.9834 5.28483C34.1445 5.16184 34.2675 5.04309 34.3863 4.9201C34.3438 4.87769 34.2633 4.83952 34.2251 4.79711C34.1445 4.71653 34.1022 4.67412 34.0639 4.59354C34.0215 4.51296 34.0215 4.43238 34.0215 4.3518C33.9791 4.22881 34.0215 4.14823 34.0215 4.02948C34.064 3.90649 34.1445 3.78774 34.2251 3.70716C34.3057 3.62658 34.4287 3.546 34.5474 3.50359C34.6704 3.46118 34.7892 3.46118 34.9503 3.46118C35.1115 3.46118 35.2345 3.50359 35.3956 3.54176C35.3956 3.54176 35.4381 3.54176 35.4762 3.58417C35.5187 3.58417 35.5568 3.58417 35.5992 3.62658C35.6416 3.62658 35.7222 3.62658 35.7604 3.66899C35.8028 3.66899 35.841 3.66899 35.8833 3.66899L36.4856 3.8344Z" fill="#BA2828"/>
<path d="M38.4657 6.70089L38.6269 6.74333C38.6269 6.78571 38.6269 6.86631 38.5845 6.90448C38.5845 6.98502 38.5844 7.02746 38.5421 7.10807C38.5421 7.15044 38.4996 7.23105 38.4996 7.26921C38.4573 7.34976 38.4573 7.3922 38.4191 7.43036C38.296 7.47274 38.1773 7.47274 38.0544 7.43036C37.9314 7.38792 37.7702 7.34976 37.6514 7.30738C37.4479 7.22677 37.2867 7.10379 37.1256 6.98502C37.0026 6.90448 36.8838 6.74333 36.8032 6.58218C36.7608 6.45913 36.7227 6.25982 36.7227 6.05625C36.7227 5.8951 36.765 5.65336 36.8838 5.44979C36.9644 5.20804 37.0874 5.00447 37.2061 4.88572C37.3673 4.76273 37.4903 4.64399 37.6514 4.60157C37.8126 4.521 37.9737 4.521 38.1773 4.521C38.3385 4.521 38.4996 4.56341 38.6608 4.64399C38.822 4.72457 38.9831 4.76698 39.1061 4.84756C39.2291 4.92814 39.3097 5.00872 39.3903 5.08929C39.3479 5.13171 39.3479 5.16987 39.3097 5.21229C39.2673 5.29286 39.2673 5.33528 39.2291 5.41586C39.1867 5.49644 39.1485 5.53885 39.1061 5.61943C39.0637 5.66184 39.0255 5.70001 39.0255 5.74242L38.8644 5.70001V5.04688C38.8644 5.04688 38.822 5.00447 38.7838 4.9663C38.7414 4.9663 38.7032 4.92389 38.6608 4.92389C38.5378 4.88148 38.4573 4.84331 38.3385 4.84331C38.2155 4.84331 38.1349 4.88572 38.0162 4.9663C37.9356 5.00872 37.8126 5.08929 37.732 5.20804C37.6514 5.33103 37.5285 5.4922 37.4479 5.69153C37.3249 6.01385 37.2867 6.33615 37.3249 6.5779C37.4055 6.81966 37.5666 6.98081 37.8083 7.06141C37.8508 7.10379 37.9314 7.14196 37.9695 7.14196C38.0119 7.14196 38.0501 7.14196 38.0925 7.14196L38.4657 6.70089Z" fill="#BA2828"/>
<path d="M42.015 9.60602L41.0056 8.99959L41.0862 8.87655C41.1286 8.87655 41.1668 8.87655 41.2092 8.87655C41.2516 8.87655 41.3322 8.91899 41.3703 8.91899L42.5409 7.02324C42.4985 6.9808 42.4603 6.94264 42.4179 6.90026C42.3755 6.85782 42.3373 6.81965 42.3373 6.77728L42.4179 6.61606L43.4273 7.26072L43.3467 7.38371C43.2661 7.38371 43.1431 7.38371 43.0244 7.34133L41.8538 9.23707C41.9344 9.27945 41.9768 9.31762 42.015 9.36006C42.015 9.4025 42.0574 9.44066 42.0956 9.48304L42.015 9.60602ZM40.7257 7.14623C40.6451 7.10379 40.5646 7.10379 40.5221 7.06562L39.9156 8.03258C39.9581 8.07502 39.9963 8.07502 39.9963 8.11318C40.0386 8.11318 40.0768 8.15562 40.1192 8.15562C40.2422 8.23617 40.361 8.27861 40.484 8.23617C40.607 8.19379 40.7257 8.07502 40.8487 7.91387C41.048 7.58729 41.0056 7.34554 40.7257 7.14623ZM39.0293 7.79088L39.1098 7.6679C39.1523 7.6679 39.2328 7.6679 39.2711 7.6679C39.3134 7.6679 39.394 7.71028 39.4322 7.74844L40.6027 5.8527C40.5603 5.81029 40.5221 5.77212 40.4797 5.72971C40.4373 5.6873 40.3992 5.60672 40.3992 5.56855L40.4797 5.44556L41.5273 6.0902L41.4467 6.21316C41.4043 6.21316 41.3237 6.21316 41.2855 6.21316C41.205 6.17078 41.1625 6.17078 41.082 6.13261L40.6451 6.86209C40.7257 6.86209 40.7681 6.90447 40.8063 6.94264C40.8869 6.94264 40.9293 6.98508 40.9674 7.02324C41.0905 7.10379 41.171 7.18439 41.2898 7.265C41.3703 7.34554 41.4509 7.42615 41.4934 7.54913C41.5357 7.62967 41.5357 7.75272 41.5357 7.87143C41.5357 7.99441 41.4933 8.11318 41.4128 8.23617C41.3322 8.35915 41.2092 8.43975 41.1286 8.5203C41.0056 8.56274 40.8869 8.6009 40.7639 8.64334C40.6409 8.64334 40.5221 8.64334 40.3992 8.56274C40.2762 8.56274 40.115 8.48213 39.9963 8.40159C39.9963 8.40159 39.9538 8.40159 39.9156 8.35915C39.9156 8.31677 39.8733 8.31677 39.8351 8.27861C39.7545 8.23617 39.7121 8.23617 39.674 8.198C39.6358 8.15983 39.5933 8.15562 39.5509 8.11739L39.0293 7.79088Z" fill="#BA2828"/>
<path d="M42.8565 10.6577L41.9277 9.93255L42.0083 9.8095C42.0889 9.8095 42.1313 9.8095 42.1695 9.85194C42.25 9.85194 42.2925 9.89432 42.3306 9.93255L43.7853 8.19795C43.7429 8.15551 43.7047 8.11734 43.6623 8.0749C43.6199 7.99436 43.6199 7.95192 43.5817 7.91376L43.7047 7.79077L44.5911 8.55841L44.5105 8.6814C44.4681 8.6814 44.3875 8.63902 44.3494 8.63902C44.3112 8.63902 44.2688 8.59658 44.2264 8.59658L43.6199 9.32178L44.3875 9.96644L45.0322 9.24124C44.9898 9.1988 44.9516 9.16063 44.9092 9.11825C44.9092 9.07581 44.8668 9.03765 44.8668 8.99527L44.9474 8.87222L45.8762 9.63986L45.7956 9.72047C45.715 9.72047 45.6726 9.72047 45.6344 9.67803C45.5539 9.67803 45.5114 9.63565 45.4733 9.63565L44.061 11.3321C44.1034 11.3745 44.1034 11.4126 44.1416 11.4551C44.1839 11.5356 44.1839 11.5781 44.2222 11.6162L44.0991 11.7392L43.2128 10.9716L43.2933 10.8486C43.3358 10.8486 43.4164 10.891 43.4545 10.891C43.4969 10.891 43.5351 10.9334 43.5775 10.9334L44.2222 10.1658L43.4545 9.52116L42.8099 10.2888C42.8099 10.3312 42.8523 10.3693 42.8905 10.4118C42.8905 10.4542 42.9329 10.4923 42.9329 10.5729L42.8565 10.6577Z" fill="#BA2828"/>
<path d="M48.3874 12.6767C48.3068 12.5961 48.2263 12.5537 48.1457 12.5156C48.0651 12.4731 47.9421 12.4731 47.8616 12.5156C47.7809 12.5156 47.658 12.5579 47.5392 12.5961C47.4162 12.6767 47.3357 12.7191 47.2169 12.7997L48.0227 13.8472C48.1457 13.7666 48.2263 13.6437 48.3068 13.5631C48.3874 13.4401 48.4298 13.3595 48.468 13.2789C48.5104 13.1559 48.5104 13.0754 48.5104 12.9566C48.5104 12.876 48.4298 12.7955 48.3874 12.6767ZM46.5722 14.212C46.6528 14.2925 46.7334 14.335 46.814 14.3731C46.8946 14.3731 47.0176 14.3731 47.0981 14.3731C47.2211 14.3731 47.3017 14.3307 47.4205 14.2502C47.5435 14.2077 47.6622 14.1272 47.7852 14.0466L46.9794 12.999C46.8564 13.122 46.7758 13.2026 46.6952 13.2832C46.5722 13.4062 46.5341 13.4867 46.4917 13.6055C46.4493 13.6861 46.4493 13.8091 46.4493 13.8896C46.4493 14.0084 46.5341 14.089 46.5722 14.212ZM46.6528 12.3926C46.814 12.2696 46.9751 12.189 47.1787 12.1084C47.3399 12.066 47.501 12.0278 47.6622 12.0278C47.8234 12.0278 47.9845 12.1084 48.1457 12.189C48.3068 12.2696 48.468 12.3926 48.591 12.5537C48.714 12.7149 48.8327 12.876 48.8752 13.0796C48.9175 13.2408 48.9175 13.4019 48.8752 13.5631C48.8752 13.7666 48.7946 13.9278 48.6716 14.0466C48.591 14.2077 48.468 14.3689 48.3068 14.4919C48.1457 14.6149 47.9845 14.6954 47.7809 14.776C47.6198 14.8184 47.4586 14.8566 47.2974 14.8566C47.1363 14.8142 46.9751 14.776 46.814 14.6954C46.6528 14.6149 46.4917 14.4919 46.3686 14.3307C46.2457 14.1695 46.127 13.966 46.0845 13.8048C46.0421 13.6437 46.0421 13.4401 46.0845 13.2789C46.0845 13.1178 46.1651 12.9566 46.2457 12.7955C46.3686 12.6767 46.4917 12.5156 46.6528 12.3926Z" fill="#BA2828"/>
<path d="M48.1461 16.8759L47.582 15.8284L47.705 15.7478C47.7474 15.7902 47.7856 15.8284 47.828 15.8708C47.8704 15.9132 47.9086 15.9514 47.951 15.9938L49.8892 14.8614C49.8467 14.819 49.8467 14.7384 49.8467 14.7003C49.8044 14.6197 49.8043 14.5773 49.8043 14.5391L49.9655 14.4585L50.5296 15.5061L50.4066 15.5867C50.3642 15.5442 50.326 15.5061 50.2836 15.5061C50.2411 15.4637 50.203 15.4255 50.1606 15.3831L49.3548 15.8665L49.8807 16.7529L50.6865 16.2694C50.6865 16.227 50.644 16.1889 50.644 16.1083C50.644 16.0659 50.644 16.0277 50.644 15.9853L50.767 15.9047L51.3735 16.9522L51.2505 16.9947C51.2081 16.9947 51.1276 16.9522 51.0894 16.9141C51.047 16.8717 51.0088 16.8335 50.9664 16.7911L49.0706 17.881C49.0706 17.9616 49.113 18.004 49.113 18.0846C49.113 18.1271 49.113 18.2076 49.113 18.2458L48.9901 18.3264L48.3836 17.2788L48.5447 17.1982C48.5872 17.2407 48.5872 17.2407 48.6678 17.2788C48.7101 17.3213 48.7483 17.3594 48.7483 17.4018L49.6347 16.8759L49.1088 15.9896L48.2606 16.473C48.2606 16.5536 48.2606 16.596 48.2606 16.6342C48.303 16.6766 48.303 16.7571 48.303 16.7954L48.1461 16.8759Z" fill="#BA2828"/>
<path d="M52.4244 19.3771L52.7467 20.2635L52.6238 20.3059C52.5813 20.2635 52.5432 20.2253 52.5007 20.2253C52.4583 20.1829 52.4202 20.1448 52.4202 20.1023L50.8849 19.8606L50.0791 20.2253C50.0791 20.2678 50.0791 20.3059 50.0791 20.3865C50.0791 20.4289 50.0791 20.4671 50.0791 20.5477L49.9179 20.5901L49.4727 19.4577L49.6338 19.4153C49.6762 19.4153 49.7144 19.4959 49.7568 19.5383C49.7992 19.5807 49.7992 19.6189 49.8373 19.6613L50.6856 19.339L51.6144 18.0879C51.6144 18.0454 51.6144 17.9648 51.6144 17.9267C51.5719 17.8843 51.6144 17.8037 51.6144 17.7655L51.7374 17.7231L52.2209 18.8936L52.0979 18.9742C52.0554 18.9319 52.0173 18.8936 51.9748 18.8512C51.9325 18.8088 51.8943 18.7706 51.8518 18.7283L51.0842 19.6571L52.2547 19.7376C52.2547 19.6952 52.2547 19.6146 52.2547 19.5765C52.2547 19.4959 52.2547 19.4535 52.2547 19.4153L52.4244 19.3771Z" fill="#BA2828"/>
<path d="M53.3964 22.4867L53.6381 23.4961L53.5151 23.5385C53.4727 23.496 53.4345 23.4579 53.3921 23.3773C53.3497 23.3349 53.3115 23.2967 53.3115 23.2544L52.2216 22.7708C52.141 22.8515 52.0604 22.932 51.9798 23.055C51.8992 23.1356 51.8187 23.2586 51.7381 23.3773C51.6575 23.5003 51.5345 23.6191 51.454 23.7421C51.3734 23.8651 51.2928 23.9838 51.2122 24.1068L51.1316 24.3103L51.0086 24.3528L50.8475 23.6657L50.9281 23.5045C50.9705 23.424 51.0511 23.3434 51.1316 23.2204C51.2122 23.1398 51.2928 23.0593 51.3734 22.9787C51.454 22.8557 51.5345 22.7751 51.6151 22.6945C51.6956 22.6139 51.7763 22.5334 51.8569 22.4528L51.8144 22.2916L50.8475 22.5334C50.8475 22.5757 50.8475 22.6564 50.805 22.6945C50.805 22.7369 50.8051 22.7751 50.7626 22.8175L50.6397 22.8599L50.3555 21.7276L50.4785 21.6851C50.5209 21.7276 50.5591 21.7657 50.6015 21.8081C50.6439 21.8505 50.6439 21.8887 50.682 21.9693L52.8195 21.4053C52.8195 21.3628 52.8195 21.2822 52.8195 21.2441C52.8195 21.1635 52.862 21.1211 52.862 21.0829L53.0231 21.0405L53.3073 22.1728L53.1461 22.2153C53.1461 22.2153 53.1037 22.1728 53.0656 22.1347C53.0231 22.0923 52.985 22.0117 52.985 21.9735L52.018 22.2153L52.141 22.457L53.1886 22.8218C53.1886 22.7793 53.1886 22.6987 53.1886 22.6606C53.2309 22.6182 53.2309 22.5376 53.2309 22.4994H53.3964V22.4867Z" fill="#BA2828"/>
<path d="M51.294 26.6045L51.1328 25.2728H51.294C51.3363 25.3152 51.3363 25.3534 51.3745 25.4339C51.4169 25.5145 51.4551 25.557 51.4551 25.6375L53.6774 25.3534L53.5968 24.908L52.9098 24.7469V24.5857C52.9522 24.5433 53.0328 24.5433 53.1134 24.5051C53.1939 24.5051 53.2745 24.4627 53.3551 24.4627C53.4357 24.4203 53.5163 24.4203 53.5968 24.4203C53.6774 24.3779 53.758 24.3779 53.8004 24.3779L54.1227 26.842C54.0422 26.842 53.9616 26.8844 53.881 26.8844C53.8004 26.8844 53.7198 26.8844 53.6393 26.8844H53.3975C53.3169 26.8844 53.2364 26.8844 53.1939 26.8844L53.1515 26.7232L53.7962 26.4009L53.7538 25.9556L51.5314 26.1973C51.5314 26.2779 51.4891 26.3585 51.4891 26.4009C51.4891 26.4815 51.4891 26.5239 51.4466 26.6045H51.294Z" fill="#BA2828"/>
<path d="M54.1193 29.4288V30.3958H53.9581C53.9581 30.3534 53.9158 30.3152 53.9158 30.2728C53.8733 30.2304 53.8733 30.1922 53.8733 30.1117L52.5416 29.344H51.6552C51.6552 29.3865 51.6128 29.4246 51.6128 29.5052C51.5704 29.5476 51.5704 29.5858 51.5322 29.6281H51.3711L51.4135 28.4152H51.5365C51.5789 28.4577 51.5789 28.5382 51.6171 28.5764C51.6171 28.6188 51.6595 28.6994 51.6595 28.7375L52.5458 28.78L53.8775 27.9742C53.92 27.9317 53.92 27.8512 53.9581 27.813C53.9581 27.7706 54.0005 27.69 54.0005 27.6519H54.1617V28.9454H54.0005C53.9581 28.9029 53.9581 28.8648 53.92 28.8223C53.92 28.78 53.8775 28.7418 53.8775 28.6612L52.83 29.2252L53.8775 29.7511C53.8775 29.7087 53.92 29.6281 53.92 29.59C53.9624 29.5476 53.9624 29.467 54.0005 29.4288H54.1193Z" fill="#BA2828"/>
<path d="M53.6732 32.296C53.6732 32.2536 53.6732 32.2154 53.6732 32.173C53.6732 32.1306 53.6732 32.1306 53.6732 32.0925L52.5027 31.9312C52.5027 31.9312 52.4602 31.9737 52.4602 32.0119C52.4602 32.0543 52.4602 32.0925 52.4602 32.1348C52.4178 32.2154 52.4178 32.2578 52.4602 32.3384C52.4602 32.419 52.5026 32.4614 52.5408 32.542C52.5832 32.5844 52.6214 32.6226 52.702 32.665C52.7825 32.7455 52.8631 32.7455 52.9861 32.788C53.1897 32.788 53.3509 32.788 53.4696 32.665C53.5926 32.5759 53.635 32.4571 53.6732 32.296ZM51.4551 31.7701C51.4551 31.8507 51.4127 31.8931 51.3745 31.9737C51.3745 32.0543 51.3321 32.0967 51.294 32.1348H51.1328L51.3363 30.8413H51.4975C51.4975 30.9219 51.4975 30.9643 51.5399 31.0025C51.5399 31.0831 51.5399 31.1255 51.5399 31.206L53.7622 31.4902C53.7622 31.4478 53.8046 31.4096 53.8046 31.329C53.8471 31.2867 53.8852 31.2485 53.9277 31.206H54.0507L54.0082 31.6896C53.9658 31.8125 53.9658 31.9312 53.9658 32.0543C53.9234 32.2154 53.9234 32.3384 53.9234 32.419C53.881 32.5802 53.881 32.7032 53.8004 32.8219C53.758 32.9449 53.7198 33.0636 53.6393 33.1866C53.5587 33.2672 53.4357 33.3478 53.3169 33.3902C53.2364 33.4326 53.0752 33.4326 52.914 33.4326C52.7529 33.3902 52.6299 33.352 52.5493 33.2714C52.4263 33.1909 52.3457 33.1103 52.3076 32.9873C52.227 32.8643 52.1846 32.7455 52.1846 32.6226C52.1421 32.4614 52.1846 32.3384 52.1846 32.1773C52.1846 32.1773 52.1846 32.1773 52.1846 32.1348C52.1846 32.0925 52.1846 32.0543 52.227 32.0543C52.227 32.0119 52.227 31.9737 52.227 31.9312V31.8889L51.4551 31.7701Z" fill="#BA2828"/>
<path d="M53.1101 35.9303L52.8684 36.8591L52.7454 36.8166C52.7029 36.7742 52.7029 36.7361 52.7029 36.6936C52.6606 36.6513 52.6606 36.5707 52.7029 36.5325L51.613 35.4426L50.7266 35.2008C50.7266 35.2814 50.6842 35.3238 50.646 35.3619C50.646 35.4044 50.6036 35.4426 50.5654 35.4849L50.4043 35.4426L50.7266 34.272L50.8878 34.3145C50.8878 34.3568 50.8878 34.395 50.8878 34.4756C50.8878 34.518 50.8878 34.5986 50.8878 34.6367L51.736 34.8785L53.2713 34.4756C53.2713 34.395 53.3137 34.3526 53.3518 34.3145C53.3943 34.272 53.3943 34.2338 53.4324 34.1914L53.5936 34.2338L53.2713 35.4849L53.1101 35.4426C53.1101 35.4001 53.0677 35.362 53.0677 35.2814C53.0677 35.239 53.0677 35.2008 53.0677 35.1202L51.8971 35.4044L52.7835 36.172C52.8259 36.1296 52.8259 36.0914 52.8641 36.0108C52.9065 35.9684 52.9447 35.9303 52.9871 35.8878L53.1101 35.9303Z" fill="#BA2828"/>
<path d="M51.9419 39.238L51.539 40.1244L51.416 40.0438C51.416 40.0014 51.416 39.9632 51.416 39.9208C51.416 39.8402 51.416 39.7978 51.416 39.7596L50.4873 38.5086L49.6815 38.1863C49.639 38.2286 49.6008 38.2668 49.5585 38.3092C49.516 38.3516 49.4779 38.3898 49.4355 38.4322L49.3125 38.3516L49.7959 37.2192L49.9189 37.2998C49.9189 37.3422 49.9189 37.4228 49.9189 37.461C49.9189 37.5416 49.9189 37.584 49.9189 37.6221L50.7247 37.9869L52.26 37.7834C52.3024 37.7409 52.3406 37.6603 52.383 37.6221C52.4254 37.5798 52.4635 37.5416 52.506 37.5416L52.629 37.584L52.1031 38.7545L51.9801 38.7121C51.9801 38.6697 51.9801 38.6315 51.9801 38.5891C51.9801 38.5086 51.9801 38.4661 51.9801 38.3856L50.8096 38.5086L51.5772 39.3949C51.6196 39.3525 51.6578 39.3144 51.7002 39.2719C51.7426 39.2295 51.7426 39.1914 51.7808 39.1489L51.9419 39.238Z" fill="#BA2828"/>
<path d="M48.6282 42.3859C48.6706 42.3435 48.6706 42.3053 48.7088 42.2629C48.7088 42.2205 48.7088 42.2205 48.7512 42.1823L47.8224 41.5759C47.8224 41.5759 47.8224 41.5759 47.78 41.6182C47.78 41.6182 47.78 41.6607 47.7376 41.6607C47.7376 41.7031 47.7376 41.7031 47.6952 41.7412C47.6952 41.7412 47.6952 41.7412 47.6952 41.7837C47.5721 41.9067 47.5722 42.0254 47.6146 42.1484C47.657 42.2714 47.7376 42.3902 47.8987 42.5131C48.0217 42.5937 48.1405 42.6361 48.3016 42.6361C48.4289 42.5895 48.5477 42.5089 48.6282 42.3859ZM50.0023 42.3053C50.0829 42.2247 50.2059 42.1441 50.2865 42.1018L50.4094 42.1823L49.2389 43.9593C49.1965 43.9169 49.1159 43.8787 49.0778 43.8363C49.0354 43.7939 48.9548 43.7557 48.9166 43.6752C48.836 43.6328 48.7936 43.5946 48.7555 43.5522C48.713 43.5098 48.6324 43.4716 48.5942 43.4292L48.7173 43.268L49.3237 43.391L49.6885 42.827L48.9633 42.3011C48.9633 42.3435 48.9208 42.3435 48.9208 42.3817C48.8784 42.4241 48.8784 42.4622 48.8784 42.4622C48.836 42.5047 48.836 42.5428 48.7978 42.5852C48.7978 42.5852 48.7555 42.6276 48.7555 42.6658C48.6749 42.7888 48.5942 42.8694 48.5137 42.9499C48.4331 43.0305 48.3101 43.1111 48.2296 43.1535C48.1066 43.196 47.9878 43.1959 47.9072 43.1959C47.7842 43.1535 47.6655 43.1154 47.5425 43.0348C47.4195 42.9542 47.3389 42.8736 47.3008 42.7506C47.2202 42.67 47.1777 42.547 47.1777 42.4283C47.1777 42.3053 47.2202 42.1866 47.2583 42.0636C47.3008 41.9024 47.3813 41.7794 47.4619 41.6607C47.4619 41.6607 47.4619 41.6182 47.5043 41.5801C47.5467 41.5377 47.5849 41.4995 47.6273 41.4189C47.6697 41.3766 47.7079 41.3383 47.7079 41.2578C47.7503 41.2153 47.7885 41.1772 47.8309 41.1348L48.115 40.6895L48.238 40.7701C48.238 40.8124 48.238 40.8506 48.238 40.9312C48.1956 40.9737 48.1956 41.0542 48.1575 41.0924L50.0023 42.3053Z" fill="#BA2828"/>
<path d="M47.0152 44.527C46.8922 44.4464 46.7735 44.3234 46.6505 44.2853C46.5275 44.2047 46.4087 44.1623 46.2857 44.1241C46.1628 44.0817 46.0822 44.0817 45.9634 44.1241C45.8828 44.1665 45.7599 44.2047 45.6793 44.2853C45.6369 44.3658 45.5563 44.4888 45.5563 44.5694C45.5563 44.6924 45.5987 44.773 45.6369 44.8917C45.6793 44.9723 45.7175 45.0953 45.8405 45.2141C45.921 45.2946 46.044 45.4176 46.1628 45.5364C46.2857 45.6594 46.4045 45.74 46.5275 45.8205C46.6505 45.9011 46.7693 45.9436 46.8922 45.9817C47.0152 46.0241 47.0958 46.0241 47.2145 45.9817C47.2951 45.9393 47.4181 45.9011 47.4987 45.7781C47.5793 45.6975 47.6217 45.617 47.6217 45.494C47.6217 45.4134 47.6217 45.2904 47.5793 45.2098C47.5369 45.0868 47.4563 44.968 47.3757 44.8875C47.257 44.7687 47.1764 44.65 47.0152 44.527ZM47.4563 44.0435C47.6174 44.1665 47.7404 44.3277 47.821 44.4888C47.944 44.65 47.9822 44.8112 48.0246 44.9723C48.0246 45.1335 48.0246 45.3371 47.944 45.4982C47.9016 45.6594 47.821 45.8205 47.6599 45.9817C47.4987 46.1429 47.3757 46.2658 47.2145 46.3464C47.0534 46.427 46.8922 46.4694 46.6886 46.4694C46.5275 46.4694 46.3663 46.427 46.2052 46.3464C46.044 46.2658 45.8828 46.1852 45.7217 46.0241C45.5605 45.9011 45.4376 45.74 45.3569 45.5788C45.2764 45.4558 45.1958 45.2946 45.1958 45.0953C45.1534 44.9342 45.1534 44.773 45.2382 44.6119C45.2806 44.4506 45.3994 44.2895 45.5224 44.1283C45.6835 43.9672 45.8065 43.8442 45.9677 43.7636C46.1289 43.6831 46.3324 43.6406 46.4936 43.6406C46.6548 43.6406 46.8159 43.683 46.977 43.7212C47.1764 43.8018 47.3375 43.9205 47.4563 44.0435Z" fill="#BA2828"/>
<path d="M45.0772 48.2004C45.1197 48.1579 45.1197 48.1198 45.1578 48.1198C45.1578 48.0773 45.2002 48.0392 45.2002 48.0392L44.4326 47.1104C44.3902 47.1528 44.3902 47.1528 44.352 47.191C44.3096 47.2334 44.2714 47.2334 44.229 47.2715C44.1866 47.314 44.1484 47.3521 44.1061 47.4327C44.0636 47.4751 44.0636 47.5557 44.0636 47.6363C44.0636 47.6787 44.0636 47.7593 44.1061 47.8398C44.1061 47.9205 44.1484 48.001 44.229 48.0816C44.3902 48.2428 44.5132 48.3234 44.6743 48.3234C44.7931 48.3615 44.9542 48.2809 45.0772 48.2004ZM43.7455 46.3427C43.665 46.3852 43.6226 46.4233 43.542 46.4233C43.4996 46.4658 43.419 46.5039 43.3808 46.5039L43.2578 46.381L44.2672 45.5327L44.3478 45.6557C44.3478 45.6981 44.3054 45.7787 44.2672 45.8168C44.2672 45.8593 44.2248 45.8975 44.1866 45.9399L45.6413 47.6363C45.6837 47.5939 45.7643 47.5557 45.8025 47.5557C45.8449 47.5133 45.9255 47.5133 45.9636 47.5133L46.0442 47.6363L45.6794 47.9586C45.5989 48.001 45.5183 48.0816 45.4378 48.2004C45.3147 48.2809 45.2342 48.3615 45.1536 48.4421C45.0306 48.5227 44.95 48.6032 44.8313 48.6838C44.7125 48.7644 44.5895 48.8068 44.4665 48.8068C44.3435 48.8068 44.2248 48.8068 44.1018 48.7644C43.9788 48.722 43.86 48.6414 43.7795 48.5227C43.6565 48.3997 43.5759 48.2809 43.5759 48.1579C43.5335 48.035 43.5335 47.9162 43.5759 47.7932C43.6183 47.6702 43.6565 47.5514 43.737 47.4285C43.8177 47.3055 43.8982 47.2249 44.0212 47.1443C44.0212 47.1019 44.0212 47.1019 44.0636 47.1019C44.0636 47.0595 44.1061 47.0595 44.1442 47.0213C44.1442 46.9789 44.1866 46.9789 44.1866 46.9407C44.229 46.9407 44.229 46.9407 44.2672 46.9407L43.7455 46.3427Z" fill="#BA2828"/>
<path d="M41.8478 49.209C41.8902 49.1666 41.9284 49.1666 41.9708 49.1284C41.9708 49.0861 42.0133 49.0861 42.0133 49.0479L41.4068 48.1615C41.4068 48.1615 41.4068 48.1615 41.3643 48.1615C41.3643 48.2039 41.322 48.2039 41.322 48.2039C41.2795 48.2039 41.2795 48.2463 41.2414 48.2463C41.2414 48.2463 41.2414 48.2887 41.199 48.2887C41.076 48.3693 40.9954 48.4923 40.9954 48.611C40.9529 48.734 40.9954 48.8952 41.1184 49.0139C41.199 49.1751 41.322 49.2557 41.4407 49.2981C41.5679 49.332 41.6867 49.2896 41.8478 49.209ZM43.1414 49.6543C43.2644 49.6119 43.3831 49.6119 43.4637 49.5738L43.5443 49.6968L41.8097 50.8673C41.7672 50.8249 41.7291 50.7867 41.6867 50.7061C41.6867 50.6637 41.6443 50.5831 41.6061 50.5026C41.5637 50.4601 41.5255 50.3796 41.4831 50.3414C41.4831 50.2608 41.4407 50.2184 41.4407 50.1802L41.5637 50.0572L42.0896 50.422L42.6537 50.0191L42.1701 49.2514C42.1278 49.2939 42.1278 49.2939 42.0896 49.332C42.0896 49.332 42.0472 49.3744 42.009 49.3744C42.009 49.4168 41.9666 49.4168 41.9284 49.455C41.886 49.455 41.886 49.4974 41.8478 49.4974C41.7249 49.578 41.6443 49.6586 41.5255 49.701C41.4025 49.7434 41.2838 49.7434 41.1608 49.7434C41.0802 49.7434 40.9572 49.701 40.8384 49.6628C40.7579 49.6204 40.6773 49.5017 40.5967 49.3787C40.5162 49.2981 40.4737 49.1751 40.4355 49.0563C40.4355 48.9333 40.478 48.8146 40.5162 48.6916C40.5585 48.5686 40.5967 48.4881 40.7197 48.3693C40.8003 48.2887 40.9233 48.1658 41.042 48.0852C41.042 48.0852 41.0844 48.0427 41.1226 48.0427C41.165 48.0003 41.2032 47.9622 41.2838 47.9197C41.3262 47.8774 41.3643 47.8773 41.4449 47.8392C41.4873 47.7967 41.5255 47.7586 41.5679 47.7586L42.0514 47.4363L42.132 47.5593C42.0896 47.6016 42.0514 47.6398 42.009 47.7204C42.009 47.7629 41.9666 47.801 41.9284 47.8434L43.1414 49.6543Z" fill="#BA2828"/>
<path d="M39.5857 50.5827C39.5051 50.4216 39.4245 50.2986 39.344 50.1798C39.221 50.0568 39.1404 49.9763 39.0598 49.8957C38.9368 49.8151 38.8563 49.7727 38.7375 49.7727C38.6569 49.7303 38.5339 49.7727 38.4152 49.8151C38.3346 49.8957 38.254 49.9381 38.2116 50.0187C38.1692 50.1416 38.131 50.2223 38.131 50.341C38.131 50.464 38.1734 50.5827 38.2116 50.7057C38.254 50.8668 38.2922 50.9899 38.3727 51.151C38.4533 51.3122 38.5339 51.4352 38.6145 51.5539C38.6951 51.6769 38.8181 51.7575 38.8986 51.8381C38.9792 51.9187 39.1022 51.9611 39.1828 51.9611C39.3058 51.9611 39.3864 51.9611 39.5051 51.8805C39.6281 51.8381 39.7087 51.7575 39.7469 51.6769C39.7893 51.5963 39.8274 51.5158 39.8274 51.3928C39.8274 51.2698 39.785 51.151 39.7469 50.9899C39.7087 50.8626 39.6281 50.7015 39.5857 50.5827ZM40.154 50.2604C40.277 50.464 40.3151 50.6252 40.3576 50.8245C40.3576 50.9856 40.3576 51.1892 40.3151 51.3504C40.2728 51.5115 40.1922 51.6727 40.0734 51.7956C39.9504 51.9187 39.7893 52.0374 39.5899 52.118C39.4288 52.241 39.2252 52.2791 39.0641 52.2791C38.8605 52.3216 38.6993 52.2791 38.5382 52.1985C38.377 52.1562 38.254 52.0374 38.1353 51.9144C37.9741 51.7914 37.8935 51.6303 37.7705 51.431C37.6899 51.2698 37.6475 51.0662 37.6094 50.9051C37.6094 50.7015 37.6094 50.5403 37.6518 50.3791C37.6942 50.218 37.7747 50.0568 37.8935 49.9338C38.0165 49.7727 38.1776 49.6921 38.3389 49.5691C38.5424 49.4886 38.7418 49.4461 38.9029 49.408C39.1064 49.408 39.2676 49.4503 39.4288 49.5309C39.5899 49.5734 39.7129 49.6539 39.8317 49.8151C39.9504 49.9338 40.0734 50.0993 40.154 50.2604Z" fill="#BA2828"/>
<path d="M36.3602 53.1662C36.4025 53.1662 36.4407 53.1662 36.4407 53.1237C36.4831 53.1237 36.5213 53.1237 36.5213 53.0814L36.1566 51.949C36.1141 51.949 36.1141 51.949 36.0336 51.9914C35.9911 51.9914 35.953 51.9914 35.953 52.0338C35.8724 52.0338 35.83 52.0762 35.7495 52.1144C35.707 52.1568 35.6688 52.1949 35.6264 52.2755C35.584 52.3561 35.584 52.3985 35.584 52.4791C35.5416 52.6021 35.584 52.6827 35.6264 52.7633C35.6688 52.9669 35.7876 53.128 35.9106 53.1662C36.0378 53.2467 36.199 53.2467 36.3602 53.1662ZM35.8343 50.9862C35.7537 50.9862 35.6731 50.9862 35.6307 50.9862C35.5501 50.9862 35.4695 50.9862 35.4271 50.9862L35.3465 50.8633L36.5976 50.418L36.6401 50.5791C36.5976 50.6216 36.5595 50.6597 36.517 50.7021C36.4747 50.7445 36.4365 50.7445 36.394 50.7827L37.0811 52.882C37.1617 52.882 37.2041 52.882 37.2847 52.882C37.3271 52.882 37.3653 52.882 37.4458 52.882L37.4883 53.0432L37.0048 53.2043C36.9242 53.2467 36.8012 53.2849 36.6825 53.3273C36.5595 53.3697 36.4407 53.4079 36.3177 53.4503C36.1947 53.4927 36.076 53.5309 35.9148 53.5733C35.7918 53.5733 35.6731 53.5733 35.5501 53.5309C35.4271 53.4885 35.3084 53.4503 35.2278 53.3697C35.1472 53.2892 35.0666 53.1662 35.0242 53.005C34.9436 52.8438 34.9436 52.7208 34.9818 52.6021C34.9818 52.4791 35.0242 52.3604 35.1048 52.2374C35.1853 52.1568 35.2659 52.0762 35.3889 51.9956C35.5119 51.915 35.6307 51.8345 35.7918 51.792C35.7918 51.792 35.7918 51.792 35.8343 51.792C35.8766 51.792 35.8766 51.7497 35.9148 51.7497C35.9573 51.7497 35.9954 51.7497 35.9954 51.7072C36.0378 51.7072 36.076 51.7072 36.076 51.7072L35.8343 50.9862Z" fill="#BA2828"/>
<path d="M32.5242 54.1327C32.6047 54.1327 32.6471 54.1327 32.7277 54.1327C32.7701 54.1327 32.8083 54.1751 32.8507 54.1751L32.8931 54.3363L31.9643 54.4974L31.9219 54.3745C31.9643 54.3321 32.0025 54.2939 32.0449 54.2939C32.0873 54.2515 32.1255 54.2133 32.1679 54.2133L32.5708 52.3981C32.6513 52.0758 32.732 51.8341 32.8549 51.6729C32.9355 51.5118 33.0585 51.4312 33.2197 51.4312C33.2621 51.4312 33.3002 51.4736 33.3002 51.5118C33.3427 51.5541 33.3808 51.5923 33.4233 51.6347C33.4233 51.6771 33.4656 51.7153 33.5038 51.7577C33.5038 51.8002 33.5038 51.8383 33.5463 51.8807L33.4656 52.0419L32.9822 51.9995C32.9398 52.0419 32.9398 52.0419 32.9398 52.08C32.8974 52.1225 32.8973 52.1606 32.8973 52.203L34.2715 53.7765C34.3521 53.7765 34.3944 53.7765 34.4326 53.8189C34.475 53.8189 34.5132 53.8189 34.5556 53.8189L34.598 53.98L33.385 54.2218V54.0606C33.4275 54.0182 33.5463 53.98 33.6268 53.8994L32.9016 52.9706L32.7404 52.729V53.0131L32.5242 54.1327Z" fill="#BA2828"/>
</g>
<defs>
<clipPath id="clip0_17_5688">
<rect width="57" height="57" fill="white" transform="translate(0.275391)"/>
</clipPath>
</defs>
</svg>
