<svg width="108" height="112" viewBox="0 0 108 112" fill="none" xmlns="http://www.w3.org/2000/svg">
<path fill-rule="evenodd" clip-rule="evenodd" d="M98.559 56C98.559 80.7422 78.5011 100.8 53.759 100.8C29.0166 100.8 8.95898 80.7422 8.95898 56C8.95898 31.2576 29.0166 11.2 53.759 11.2C78.5011 11.2 98.559 31.2576 98.559 56ZM71.8147 42.4241C73.1269 43.7363 73.1269 45.8636 71.8147 47.1758L49.4147 69.5758C48.1025 70.888 45.9754 70.888 44.6631 69.5758L35.7031 60.6158C34.391 59.3036 34.391 57.1765 35.7031 55.8643C37.0153 54.5521 39.1427 54.5521 40.4549 55.8643L47.039 62.4481L57.0509 52.4362L67.0632 42.4241C68.3754 41.112 70.5025 41.112 71.8147 42.4241Z" fill="url(#paint0_linear_212_4271)"/>
<path fill-rule="evenodd" clip-rule="evenodd" d="M98.559 56C98.559 80.7422 78.5011 100.8 53.759 100.8C29.0166 100.8 8.95898 80.7422 8.95898 56C8.95898 31.2576 29.0166 11.2 53.759 11.2C78.5011 11.2 98.559 31.2576 98.559 56ZM71.8147 42.4241C73.1269 43.7363 73.1269 45.8636 71.8147 47.1758L49.4147 69.5758C48.1025 70.888 45.9754 70.888 44.6631 69.5758L35.7031 60.6158C34.391 59.3036 34.391 57.1765 35.7031 55.8643C37.0153 54.5521 39.1427 54.5521 40.4549 55.8643L47.039 62.4481L57.0509 52.4362L67.0632 42.4241C68.3754 41.112 70.5025 41.112 71.8147 42.4241Z" fill="url(#paint1_linear_212_4271)"/>
<defs>
<linearGradient id="paint0_linear_212_4271" x1="53.759" y1="11.2" x2="53.759" y2="100.8" gradientUnits="userSpaceOnUse">
<stop stop-color="#63D27F"/>
<stop offset="1" stop-color="#409254"/>
</linearGradient>
<linearGradient id="paint1_linear_212_4271" x1="53.759" y1="11.2" x2="53.759" y2="100.8" gradientUnits="userSpaceOnUse">
<stop stop-color="#295BB8"/>
<stop offset="1" stop-color="#5686E0"/>
</linearGradient>
</defs>
</svg>
