<svg width="428" height="406" viewBox="0 0 428 406" fill="none" xmlns="http://www.w3.org/2000/svg">
<g clip-path="url(#clip0_1243_4634)">
<path d="M420.44 172.11C423.69 160.83 423.1 149.35 419.45 139.07C422.3 134.99 424.55 130.38 426.01 125.33C432.71 102.11 420.5 77.93 398.47 69.22C394.22 38.8 372.63 12.22 341.22 3.15998C316.38 -4.00002 290.91 1.37998 271.55 15.55C266.7 10.48 260.5 6.56998 253.28 4.48998C231.5 -1.79002 208.75 10.77 202.47 32.55C201.42 36.19 200.91 39.86 200.87 43.48C178.95 47.9 160.18 64.05 153.56 87.02C147.61 107.65 152.88 128.86 165.75 144.13C164.09 147.14 162.72 150.37 161.73 153.81C154.6 178.54 168.86 204.36 193.59 211.49C201.74 213.84 210.01 213.85 217.69 211.95C226.78 224.48 239.95 234.2 255.97 238.82C276.6 244.77 297.71 241.07 314.51 230.41C322.03 247.9 328.21 274.14 314.91 299.87C363.25 295.13 398.17 248.76 391.05 206.27C404.85 199.92 415.91 187.85 420.45 172.11H420.44Z" fill="#EBEBEB"/>
<path d="M327.69 290.27C327.43 290.27 327.17 290.17 326.98 289.98C326.72 289.72 326.62 289.35 326.72 288.99C333.53 265.27 327.32 242.53 320.92 227.63L317.67 220.08L310.73 224.48C300.26 231.13 288.21 234.64 275.9 234.64C269.83 234.64 263.77 233.78 257.88 232.08C243.85 228.03 231.9 219.64 223.32 207.82L220.55 204L215.97 205.14C209.25 206.81 202.18 206.68 195.49 204.75C185.33 201.82 176.92 195.11 171.8 185.85C166.69 176.59 165.49 165.9 168.42 155.73C169.24 152.89 170.39 150.12 171.84 147.5L174.17 143.28L171.06 139.6C159.2 125.53 155.15 106.59 160.24 88.94C165.94 69.19 182.02 54.39 202.21 50.32L207.76 49.2L207.82 43.54C207.85 40.46 208.3 37.41 209.15 34.47C213.33 19.97 226.77 9.84998 241.84 9.84998C245.02 9.84998 248.2 10.3 251.29 11.19C257.06 12.86 262.3 16.03 266.44 20.36L270.68 24.8L275.63 21.18C288.15 12.02 303.52 6.97998 318.91 6.97998C325.75 6.97998 332.58 7.94998 339.22 9.86998C366.97 17.87 387.48 41.54 391.48 70.17L392.04 74.21L395.84 75.71C414.84 83.22 424.9 103.71 419.23 123.37C418.02 127.55 416.15 131.47 413.66 135.04L411.6 137.99L412.8 141.39C416.11 150.7 416.4 160.65 413.66 170.15C409.86 183.31 400.53 194.15 388.06 199.89L383.2 202.13L384.08 207.41C387.12 225.54 381.66 245.34 369.1 261.74C358.64 275.4 344.02 285.51 327.92 290.21C327.83 290.24 327.73 290.25 327.64 290.25L327.69 290.27ZM318.14 217.62C318.24 217.62 318.34 217.63 318.44 217.66C318.72 217.75 318.95 217.95 319.06 218.22L322.77 226.84C329.15 241.67 335.32 264.13 329.14 287.77C344.15 282.98 357.74 273.36 367.57 260.53C379.79 244.57 385.11 225.33 382.17 207.75L381.16 201.72C381.09 201.27 381.32 200.84 381.73 200.65L387.29 198.09C399.24 192.59 408.17 182.21 411.81 169.61C414.43 160.51 414.15 150.99 410.98 142.07L409.6 138.19C409.49 137.89 409.54 137.55 409.72 137.28L412.08 133.9C414.45 130.51 416.23 126.78 417.37 122.82C422.75 104.16 413.21 84.71 395.17 77.58L390.83 75.87C390.5 75.74 390.26 75.44 390.21 75.08L389.56 70.46C385.67 42.61 365.72 19.58 338.73 11.8C332.27 9.93998 325.62 8.98998 318.97 8.98998C303.99 8.98998 289.04 13.9 276.87 22.8L271.21 26.94C270.8 27.24 270.24 27.19 269.9 26.82L265.05 21.75C261.15 17.67 256.22 14.69 250.79 13.12C247.88 12.28 244.89 11.85 241.89 11.85C227.71 11.85 215.05 21.38 211.12 35.03C210.32 37.8 209.9 40.67 209.87 43.56L209.8 50.03C209.8 50.5 209.46 50.91 209 51L202.65 52.28C183.19 56.2 167.7 70.46 162.21 89.49C157.31 106.5 161.2 124.74 172.64 138.3L176.19 142.51C176.46 142.83 176.5 143.28 176.3 143.64L173.63 148.46C172.25 150.95 171.16 153.58 170.38 156.28C167.6 165.93 168.74 176.08 173.59 184.87C178.45 193.66 186.43 200.04 196.08 202.82C202.43 204.65 209.14 204.77 215.52 203.19L220.76 201.89C221.15 201.79 221.57 201.94 221.81 202.27L224.98 206.64C233.29 218.1 244.87 226.23 258.47 230.15C264.18 231.8 270.06 232.63 275.94 232.63C287.87 232.63 299.54 229.22 309.7 222.78L317.63 217.75C317.79 217.65 317.98 217.59 318.17 217.59L318.14 217.62Z" fill="white"/>
<path d="M257.559 124.13L230.759 119.96L231.179 117.28C231.889 112.72 232.979 109.1 234.459 106.41C235.939 103.72 237.879 101.37 240.289 99.3299C242.699 97.2999 247.939 93.8799 256.009 89.0599C260.299 86.5499 262.649 83.9999 263.049 81.4199C263.449 78.8299 262.999 76.6999 261.699 75.0299C260.389 73.3599 258.189 72.2799 255.089 71.7999C251.749 71.2799 248.819 71.9599 246.289 73.8199C243.759 75.6899 241.759 79.3299 240.289 84.7399L213.449 77.0899C215.959 67.1699 220.869 59.6399 228.199 54.4999C235.529 49.3499 245.769 47.8099 258.939 49.8599C269.189 51.4599 277.129 54.8899 282.769 60.1399C290.429 67.2599 293.509 75.6399 292.009 85.2699C291.389 89.2699 289.679 92.9499 286.889 96.3199C284.099 99.6899 278.879 103.53 271.229 107.82C265.889 110.84 262.429 113.4 260.829 115.48C259.229 117.57 258.139 120.44 257.569 124.11L257.559 124.13ZM228.729 126.94L257.439 131.41L253.499 156.73L224.789 152.26L228.729 126.94Z" fill="white"/>
<path d="M325.961 163.37L311.081 151.32L312.291 149.83C314.341 147.3 316.291 145.47 318.151 144.36C320.001 143.25 322.031 142.5 324.221 142.11C326.411 141.72 330.831 141.49 337.461 141.42C340.971 141.41 343.311 140.69 344.471 139.25C345.631 137.81 346.111 136.35 345.911 134.87C345.711 133.39 344.741 131.95 343.021 130.55C341.171 129.05 339.141 128.42 336.931 128.66C334.721 128.9 332.211 130.41 329.401 133.2L315.731 119.01C320.781 113.85 326.451 110.99 332.751 110.45C339.051 109.91 345.851 112.6 353.161 118.52C358.851 123.13 362.481 128.04 364.061 133.25C366.211 140.31 365.121 146.52 360.781 151.87C358.981 154.09 356.631 155.73 353.741 156.8C350.841 157.87 346.301 158.36 340.101 158.27C335.771 158.22 332.751 158.55 331.031 159.26C329.311 159.97 327.631 161.34 325.981 163.37H325.961ZM307.361 154.86L323.301 167.77L311.911 181.83L295.971 168.92L307.361 154.86Z" fill="white"/>
<path d="M330.121 76.7502L323.681 67.9502L324.561 67.3102C326.061 66.2102 327.401 65.4902 328.581 65.1502C329.761 64.8102 330.981 64.6902 332.251 64.7902C333.511 64.9002 335.981 65.4102 339.641 66.3302C341.571 66.8302 342.961 66.7802 343.811 66.1502C344.661 65.5302 345.131 64.7902 345.241 63.9502C345.341 63.1002 345.021 62.1702 344.281 61.1502C343.481 60.0502 342.451 59.4102 341.201 59.2302C339.951 59.0402 338.351 59.5102 336.401 60.6302L330.931 50.8402C334.461 48.7302 337.991 47.9802 341.541 48.6002C345.091 49.2202 348.441 51.6802 351.601 56.0002C354.061 59.3602 355.351 62.5902 355.461 65.6902C355.621 69.8902 354.121 73.1502 350.951 75.4602C349.641 76.4202 348.111 76.9802 346.361 77.1502C344.611 77.3202 342.041 76.9302 338.641 75.9802C336.261 75.3302 334.551 75.0702 333.501 75.2102C332.451 75.3502 331.331 75.8602 330.121 76.7402V76.7502ZM321.121 69.3702L328.021 78.7902L319.711 84.8702L312.811 75.4502L321.121 69.3702Z" fill="white"/>
<path d="M81.7105 201.52C73.4405 201.52 65.1205 199.26 57.7505 194.86C47.6005 188.81 40.4305 179.44 38.0005 169.07C29.7605 168.48 22.1705 164.43 17.1105 157.91C13.4405 153.19 11.3505 147.57 11.0405 141.61C8.87049 140.13 6.95049 138.33 5.33049 136.26C-2.55951 126.11 -1.56951 111.86 7.58049 102.92C3.77049 86.6599 9.78049 69.6099 22.9705 59.3599C33.3205 51.3199 46.5005 48.4899 59.2405 51.5599C60.7205 48.1799 63.0305 45.2199 65.9505 42.9499C70.6405 39.2999 76.4805 37.6999 82.3805 38.4399C88.2805 39.1799 93.5405 42.1699 97.1805 46.8699C98.2805 48.2799 99.2005 49.8299 99.9405 51.4699C111.97 49.4999 124.02 54.1999 131.51 63.8499C138.21 72.4699 140.23 83.7699 136.95 94.1799C138.26 95.2999 139.45 96.5399 140.49 97.8799C149 108.83 147.02 124.67 136.06 133.18C132.72 135.78 128.76 137.49 124.58 138.16C122.4 146.32 117.73 153.37 111.04 158.56C102.6 165.12 91.7905 167.86 81.2505 166.14C81.1405 175.85 83.4005 189.02 94.2705 198.44C94.4905 198.63 94.5805 198.92 94.5205 199.2C94.4605 199.48 94.2505 199.71 93.9705 199.79C89.9705 200.95 85.8305 201.52 81.6805 201.52H81.7105ZM49.1005 51.9199C40.0705 51.9199 31.2605 54.8999 23.9205 60.5999C11.1005 70.5699 5.32049 87.2099 9.20049 102.99C9.27049 103.26 9.18049 103.55 8.98049 103.75C0.12049 112.11 -0.919509 125.67 6.56049 135.3C8.15049 137.35 10.0605 139.11 12.2205 140.53C12.4305 140.67 12.5605 140.9 12.5705 141.16C12.7905 146.93 14.7905 152.39 18.3305 156.96C23.2405 163.28 30.6505 167.14 38.6605 167.55C39.0105 167.57 39.3105 167.82 39.3905 168.17C41.6005 178.34 48.5805 187.58 58.5505 193.52C68.8305 199.64 81.0005 201.49 92.1805 198.66C81.4505 188.62 79.4505 175 79.7105 165.19C79.7105 164.96 79.8205 164.74 80.0005 164.6C80.1805 164.46 80.4105 164.4 80.6405 164.44C91.0305 166.39 101.76 163.8 110.09 157.33C116.63 152.24 121.17 145.31 123.2 137.27C123.28 136.96 123.54 136.73 123.85 136.69C127.94 136.13 131.83 134.49 135.1 131.95C145.37 123.97 147.23 109.12 139.25 98.8499C138.17 97.4599 136.92 96.1899 135.54 95.0499C135.29 94.8399 135.19 94.4999 135.29 94.1999C138.63 84.1499 136.75 73.1699 130.26 64.8199C123 55.4799 111.25 50.9999 99.5905 53.1299C99.2205 53.1999 98.8605 52.9999 98.7205 52.6599C98.0105 50.9299 97.0705 49.3099 95.9305 47.8399C92.5405 43.4799 87.6505 40.6899 82.1705 40.0099C76.6905 39.3199 71.2605 40.8099 66.9005 44.1999C64.0205 46.4399 61.7705 49.4099 60.4105 52.7899C60.2605 53.1599 59.8605 53.3499 59.4905 53.2599C56.0405 52.3699 52.5505 51.9399 49.0905 51.9399L49.1005 51.9199Z" fill="#E6E6E6"/>
<path d="M53.9703 117.9L40.1603 121.15L39.8303 119.77C39.2803 117.42 39.0903 115.45 39.2803 113.86C39.4703 112.27 39.9503 110.74 40.7203 109.28C41.4903 107.82 43.3603 105.13 46.3203 101.21C47.9103 99.1496 48.5403 97.4496 48.2303 96.1196C47.9203 94.7896 47.2803 93.8396 46.3203 93.2896C45.3603 92.7396 44.0803 92.6496 42.4803 93.0196C40.7603 93.4296 39.4703 94.3296 38.6103 95.7296C37.7503 97.1296 37.5003 99.2896 37.8503 102.2L23.3403 103.78C22.6003 98.4796 23.5003 93.8596 26.0403 89.9296C28.5803 85.9896 33.2403 83.2296 40.0303 81.6296C45.3103 80.3896 49.8403 80.4896 53.6003 81.9296C58.7103 83.8696 61.8503 87.3296 63.0203 92.2896C63.5103 94.3496 63.4003 96.4696 62.7203 98.6496C62.0303 100.83 60.2603 103.72 57.3903 107.31C55.4003 109.83 54.2203 111.75 53.8603 113.07C53.4903 114.4 53.5303 116 53.9803 117.89L53.9703 117.9ZM40.5503 124.94L55.3403 121.46L58.4103 134.51L43.6203 137.99L40.5503 124.94Z" fill="#EBEBEB"/>
<path d="M89.1297 88.7299L79.5397 85.8199L79.8297 84.8599C80.3297 83.2299 80.9097 81.9599 81.5897 81.0599C82.2697 80.1499 83.0997 79.3899 84.0897 78.7699C85.0797 78.1499 87.1697 77.1699 90.3697 75.8299C92.0697 75.1299 93.0597 74.3199 93.3397 73.3999C93.6197 72.4799 93.5697 71.6699 93.1797 70.9899C92.7897 70.3099 92.0397 69.7999 90.9297 69.4699C89.7397 69.1099 88.6297 69.1999 87.6097 69.7499C86.5897 70.2999 85.6697 71.5299 84.8497 73.4299L75.4297 69.2399C76.8597 65.7399 79.0497 63.2399 81.9897 61.7399C84.9397 60.2399 88.7597 60.1999 93.4697 61.6299C97.1397 62.7399 99.8597 64.4099 101.65 66.6299C104.08 69.6299 104.77 72.8499 103.73 76.2999C103.3 77.7299 102.48 78.9899 101.29 80.0799C100.1 81.1699 97.9897 82.2999 94.9697 83.4799C92.8597 84.3099 91.4597 85.0599 90.7697 85.7399C90.0797 86.4199 89.5297 87.4199 89.1297 88.7299ZM78.4397 88.2599L88.7097 91.3799L85.9597 100.44L75.6897 97.3199L78.4397 88.2599Z" fill="#EBEBEB"/>
<path d="M203.37 405.5C310.453 405.5 397.26 400.432 397.26 394.18C397.26 387.928 310.453 382.86 203.37 382.86C96.288 382.86 9.48047 387.928 9.48047 394.18C9.48047 400.432 96.288 405.5 203.37 405.5Z" fill="#F5F5F5"/>
<path d="M110.98 225.38L110.06 224.99C110.89 223.04 111.36 221.41 111.51 220.03L112.5 220.14C112.34 221.62 111.84 223.33 110.97 225.38H110.98ZM110.59 213.92C108.65 209.66 105.04 206.97 100.16 206.15L100.33 205.16C105.56 206.04 109.42 208.93 111.5 213.51L110.59 213.92Z" fill="#BA2828"/>
<path d="M105.35 235.44L95.5105 239.92L95.0604 238.94C94.3004 237.27 93.8704 235.82 93.7704 234.6C93.6704 233.38 93.8105 232.17 94.1605 230.97C94.5205 229.77 95.5104 227.48 97.1504 224.11C98.0304 222.33 98.2504 220.97 97.8204 220.02C97.3904 219.07 96.7704 218.46 95.9704 218.19C95.1704 217.92 94.2004 218.04 93.0604 218.56C91.8304 219.12 91.0104 219.99 90.5704 221.16C90.1404 222.34 90.2704 223.99 90.9604 226.11L80.3504 229.44C79.0104 225.59 79.0004 222.01 80.3204 218.69C81.6304 215.37 84.7104 212.61 89.5404 210.41C93.3004 208.7 96.7005 208.1 99.7305 208.62C103.84 209.31 106.7 211.43 108.31 214.97C108.98 216.44 109.22 218.04 109.03 219.77C108.84 221.5 107.94 223.92 106.33 227.03C105.22 229.2 104.62 230.81 104.54 231.86C104.46 232.91 104.73 234.1 105.34 235.45L105.35 235.44ZM96.3705 242.69L106.91 237.89L111.14 247.18L100.6 251.98L96.3705 242.69Z" fill="#BA2828"/>
<path d="M81.0104 257.67L76.0004 264.46L75.3204 263.96C74.1604 263.11 73.3204 262.29 72.7904 261.49C72.2604 260.7 71.8904 259.82 71.6804 258.86C71.4704 257.9 71.2804 255.96 71.1104 253.05C71.0304 251.5 70.6704 250.49 70.0104 250.01C69.3504 249.53 68.7004 249.35 68.0504 249.46C67.4004 249.58 66.7904 250.03 66.2104 250.82C65.5904 251.67 65.3504 252.57 65.5004 253.54C65.6504 254.51 66.3704 255.58 67.6504 256.76L61.6804 263.07C59.3004 260.95 57.9304 258.51 57.5704 255.75C57.2004 252.99 58.2504 249.94 60.7104 246.6C62.6204 244 64.7104 242.3 66.9704 241.5C70.0304 240.41 72.7904 240.77 75.2304 242.57C76.2404 243.32 77.0104 244.32 77.5404 245.57C78.0704 246.82 78.3804 248.82 78.4604 251.54C78.5304 253.45 78.7304 254.77 79.0804 255.51C79.4304 256.25 80.0604 256.96 80.9904 257.65L81.0104 257.67ZM77.6404 266.03L83.0004 258.75L89.4204 263.48L84.0604 270.76L77.6404 266.03Z" fill="#BA2828"/>
<path d="M187.461 390.58C185.841 390.58 184.271 389.7 183.471 388.16C179.451 380.4 174.401 371.29 165.321 361.43C164.261 360.28 163.871 358.65 164.311 357.15C167.681 345.44 172.981 329.43 173.031 329.27C173.811 326.92 176.351 325.64 178.701 326.42C181.051 327.2 182.331 329.74 181.551 332.09C181.501 332.24 176.941 346.03 173.631 357.25C181.981 366.72 187.131 375.71 191.451 384.04C192.591 386.24 191.731 388.95 189.531 390.08C188.871 390.42 188.171 390.58 187.471 390.58H187.461Z" fill="#BA2828"/>
<path d="M194.931 394.18H160.141L178.581 383.72L194.041 384.32L194.931 394.18Z" fill="#263238"/>
<path d="M191.613 352.03C207.448 347.08 216.958 332.427 212.855 319.301C208.752 306.176 192.589 299.549 176.754 304.499C160.919 309.449 151.408 324.102 155.512 337.228C159.615 350.353 175.778 356.981 191.613 352.03Z" fill="#263238"/>
<path d="M105.03 311.92C103.27 311.92 101.6 310.88 100.88 309.15C99.9304 306.86 101.02 304.24 103.31 303.29C105.92 302.21 106.28 299.55 106.28 299.52C106.47 297.52 107.97 295.88 109.95 295.52C111.02 295.33 112.05 295.02 113.25 294.68C119.33 292.9 126.85 290.7 150.56 297.34C173.94 284.26 174.21 259.74 174.21 258.68C174.21 256.21 176.21 254.19 178.68 254.19H178.7C181.16 254.19 183.17 256.17 183.18 258.64C183.18 259.94 183.04 290.72 153.14 306.14C152.12 306.67 150.94 306.78 149.84 306.46C127.25 299.93 120.88 301.79 115.77 303.29C115.32 303.42 114.86 303.56 114.39 303.69C113.28 306.54 110.98 309.83 106.75 311.58C106.19 311.81 105.61 311.92 105.04 311.92H105.03Z" fill="#263238"/>
<path d="M157.451 279.83C148.941 246.01 126.271 158.77 198.921 153.44C264.101 148.66 281.991 235.41 286.331 265.47C288.861 282.99 289.721 298.87 289.861 311.29C290.051 327.3 278.801 341.11 263.101 344.3C227.591 351.51 193.981 352.54 171.351 343.61C165.231 341.19 161.531 334.96 162.121 328.41C162.991 318.69 163.011 301.98 157.441 279.85L157.451 279.83Z" fill="#BA2828"/>
<path opacity="0.1" d="M286.331 265.46C282.231 237.14 266.111 158.42 209.671 153.5C203.101 152.93 196.621 156.16 193.601 162.02C191.081 166.9 191.161 172.81 194.931 178.66C207.371 197.95 237.041 264.62 232.561 300.95C230.521 317.48 220.151 330.68 229.171 349.26C240.061 348.36 251.481 346.67 263.111 344.3C278.811 341.12 290.061 327.31 289.871 311.29C289.721 298.88 288.871 282.99 286.331 265.47V265.46Z" fill="black"/>
<path d="M276.61 311.73C276.36 311.73 276.16 311.53 276.16 311.29C275.98 295.84 274.79 280.44 272.63 265.53C261.83 190.88 232.75 153.12 188.53 156.38C188.29 156.41 188.07 156.21 188.05 155.97C188.03 155.72 188.22 155.51 188.46 155.49C233.21 152.19 262.63 190.21 273.51 265.41C275.67 280.36 276.86 295.8 277.05 311.29C277.05 311.54 276.85 311.74 276.61 311.74V311.73Z" fill="#263238"/>
<path d="M275.943 354.42C291.778 349.47 301.288 334.816 297.185 321.691C293.082 308.566 276.919 301.938 261.084 306.888C245.249 311.839 235.738 326.492 239.842 339.617C243.945 352.743 260.108 359.37 275.943 354.42Z" fill="#263238"/>
<path d="M278.672 390.58C277.052 390.58 275.482 389.7 274.682 388.16C270.662 380.4 265.612 371.29 256.532 361.43C255.472 360.28 255.082 358.65 255.522 357.15C258.892 345.44 264.192 329.43 264.242 329.27C265.022 326.92 267.552 325.64 269.912 326.42C272.262 327.2 273.542 329.74 272.762 332.09C272.712 332.24 268.152 346.03 264.842 357.25C273.192 366.72 278.342 375.71 282.662 384.04C283.802 386.24 282.942 388.95 280.742 390.08C280.082 390.42 279.382 390.58 278.682 390.58H278.672Z" fill="#BA2828"/>
<path d="M269.252 253.85C267.642 253.85 266.082 252.98 265.272 251.45C264.122 249.26 264.962 246.55 267.152 245.4C268.012 244.94 287.542 234.27 293.032 208.63C280.012 203.18 256.612 190.89 251.492 184.71C250.992 184.11 250.662 183.39 250.532 182.63C250.412 181.96 249.572 176.65 251.532 171.63L249.172 167.07C248.032 164.87 248.892 162.16 251.092 161.02C253.292 159.88 256.002 160.74 257.142 162.94L260.542 169.5C261.272 170.9 261.202 172.58 260.372 173.93C259.302 175.66 259.162 178.19 259.252 179.84C265.012 185.05 288.292 197.38 299.682 201.61C301.682 202.35 302.882 204.4 302.552 206.5C297.482 239.27 272.412 252.77 271.342 253.33C270.682 253.68 269.962 253.84 269.262 253.84L269.252 253.85Z" fill="#263238"/>
<path d="M254.941 184.09C254.521 184.09 254.091 183.97 253.711 183.72C252.671 183.04 252.381 181.65 253.061 180.62C253.211 180.38 256.921 174.79 262.561 173.28C263.751 172.96 264.991 173.67 265.311 174.87C265.631 176.07 264.921 177.3 263.721 177.62C259.781 178.68 256.841 183.04 256.811 183.08C256.381 183.74 255.661 184.1 254.931 184.1L254.941 184.09Z" fill="#263238"/>
<path d="M286.142 394.18H251.352L269.792 383.72L285.242 384.32L286.142 394.18Z" fill="#263238"/>
<path d="M213.285 260.192C226.444 259.026 236.261 248.48 235.213 236.636C234.164 224.791 222.646 216.134 209.487 217.299C196.328 218.465 186.51 229.011 187.559 240.855C188.608 252.7 200.126 261.357 213.285 260.192Z" fill="white"/>
<path d="M211.871 239.06C213.681 245.41 212.321 251.37 208.821 252.36C205.331 253.35 201.031 249.01 199.221 242.66C197.411 236.31 198.771 230.35 202.271 229.36C205.771 228.37 210.061 232.71 211.871 239.06Z" fill="#263238"/>
<path d="M184.171 242.8C199.271 240.86 229.181 232.33 234.111 228.89C230.221 217.53 212.151 207.81 195.981 213.28C181.411 218.21 184.171 242.79 184.171 242.79V242.8Z" fill="#263238"/>
<path d="M187.112 250.1C205.852 246.54 230.222 240.56 237.192 236.72C236.762 248.95 233.212 261.34 214.072 265.52C198.432 268.94 187.102 250.09 187.102 250.09L187.112 250.1Z" fill="#263238"/>
<path d="M171.654 261.849C178.434 257.363 179.328 246.77 173.651 238.189C167.973 229.608 157.875 226.289 151.095 230.775C144.315 235.26 143.421 245.853 149.098 254.434C154.776 263.015 164.874 266.335 171.654 261.849Z" fill="white"/>
<path d="M161.71 246.62C162.85 251.98 161.87 256.45 159.52 256.6C157.17 256.76 154.34 252.54 153.21 247.18C152.07 241.82 153.05 237.35 155.4 237.2C157.75 237.04 160.58 241.26 161.71 246.62Z" fill="#263238"/>
<path d="M143.12 244.57C153.25 245.77 173.37 244.43 176.71 242.6C174.24 232.9 162.26 221.93 151.37 223.33C141.56 224.6 143.12 244.56 143.12 244.56V244.57Z" fill="#263238"/>
<path d="M145 250.88C157.59 251.45 173.97 251.13 178.68 249.36C178.25 258.97 175.73 268.13 162.87 267.98C152.36 267.86 145 250.88 145 250.88Z" fill="#263238"/>
<path d="M217.46 207.24C198.57 207.24 186.02 197.91 185.4 197.44C183.43 195.94 183.04 193.13 184.54 191.15C186.03 189.18 188.84 188.79 190.81 190.28C191.03 190.44 205.94 201.32 226.65 197.39C229.09 196.93 231.43 198.53 231.89 200.96C232.35 203.39 230.75 205.74 228.32 206.2C224.51 206.92 220.88 207.23 217.46 207.23V207.24Z" fill="#263238"/>
<path d="M137.25 199.51C136.75 199.51 136.23 199.43 135.73 199.25C133.4 198.41 132.19 195.84 133.03 193.51C135.41 186.89 139.35 182.59 144.75 180.74C154.54 177.37 165.08 183.92 165.52 184.2C167.61 185.52 168.24 188.29 166.92 190.39C165.6 192.48 162.84 193.11 160.74 191.79C158.7 190.52 152.37 187.58 147.64 189.23C144.92 190.18 142.9 192.57 141.47 196.54C140.81 198.37 139.09 199.51 137.25 199.51Z" fill="#263238"/>
<path d="M172.6 275.19C172.48 275.19 172.35 275.17 172.23 275.14C171.52 274.93 171.11 274.21 171.31 273.5C171.34 273.38 172.19 270.47 175.87 268.57C181.02 265.92 188.86 266.47 199.18 270.2C199.88 270.45 200.24 271.23 199.99 271.92C199.74 272.62 198.97 272.98 198.27 272.73C186.44 268.44 180.29 269.37 177.22 270.9C174.54 272.24 173.93 274.15 173.9 274.23C173.72 274.81 173.19 275.19 172.61 275.19H172.6Z" fill="#263238"/>
<path d="M130.251 270.26C104.151 272.6 85.4609 283.41 85.4609 283.41C93.1909 281.95 120.821 316.14 127.921 342.5C141.021 337.64 156.301 334.33 172.601 331.75C162.731 304.57 144.681 273.79 130.251 270.26Z" fill="#BA2828"/>
<path opacity="0.6" d="M130.251 270.26C104.151 272.6 85.4609 283.41 85.4609 283.41C93.1909 281.95 120.821 316.14 127.921 342.5C141.021 337.64 156.301 334.33 172.601 331.75C162.731 304.57 144.681 273.79 130.251 270.26Z" fill="white"/>
<path d="M130.251 270.26C113.171 268.33 85.4411 282.63 85.4411 282.63C80.5311 285.76 81.8611 291.64 84.5411 294.12C87.1111 290.43 115.771 280.83 126.551 279.54C121.191 274.58 126.171 270.98 130.251 270.26Z" fill="#BA2828"/>
<path opacity="0.2" d="M130.251 270.26C113.171 268.33 85.4411 282.63 85.4411 282.63C80.5311 285.76 81.8611 291.64 84.5411 294.12C87.1111 290.43 115.771 280.83 126.551 279.54C121.191 274.58 126.171 270.98 130.251 270.26Z" fill="white"/>
<path d="M105.031 311.92C103.561 311.92 102.131 311.2 101.271 309.88C98.021 304.9 100.051 297.29 100.491 295.82C101.201 293.45 103.701 292.1 106.071 292.81C108.441 293.52 109.791 296.01 109.091 298.38C108.361 300.89 108.211 304.1 108.791 304.98C110.141 307.05 109.561 309.83 107.481 311.19C106.721 311.68 105.871 311.92 105.031 311.92Z" fill="#263238"/>
</g>
<defs>
<clipPath id="clip0_1243_4634">
<rect width="427.84" height="405.5" fill="white"/>
</clipPath>
</defs>
</svg>
