<svg width="36" height="37" viewBox="0 0 36 37" fill="none" xmlns="http://www.w3.org/2000/svg">
<rect y="0.931641" width="35.2476" height="35.2476" rx="7.50163" fill="#295BB8"/>
<path d="M17.6238 15.4229C15.7724 15.4229 14.2715 16.9237 14.2715 18.7751C14.2715 20.6265 15.7724 22.1274 17.6238 22.1274C19.4752 22.1274 20.9761 20.6265 20.9761 18.7751C20.9761 16.9237 19.4752 15.4229 17.6238 15.4229Z" fill="white"/>
<path fill-rule="evenodd" clip-rule="evenodd" d="M12.2289 9.57548C15.7856 9.17797 19.4625 9.17797 23.0191 9.57548C24.9772 9.79432 26.5566 11.3372 26.7864 13.3022C27.2117 16.9382 27.2117 20.6112 26.7864 24.2472C26.5566 26.2122 24.9772 27.7551 23.0191 27.9739C19.4625 28.3714 15.7856 28.3714 12.2289 27.9739C10.2707 27.7551 8.69135 26.2122 8.46152 24.2472C8.03626 20.6112 8.03626 16.9382 8.46152 13.3022C8.69135 11.3372 10.2707 9.79432 12.2289 9.57548ZM22.7813 12.5859C22.2116 12.5859 21.7499 13.0477 21.7499 13.6173C21.7499 14.187 22.2116 14.6488 22.7813 14.6488C23.351 14.6488 23.8128 14.187 23.8128 13.6173C23.8128 13.0477 23.351 12.5859 22.7813 12.5859ZM12.7245 18.7747C12.7245 16.0688 14.918 13.8752 17.624 13.8752C20.3299 13.8752 22.5235 16.0688 22.5235 18.7747C22.5235 21.4807 20.3299 23.6742 17.624 23.6742C14.918 23.6742 12.7245 21.4807 12.7245 18.7747Z" fill="white"/>
</svg>
