<svg width="36" height="37" viewBox="0 0 36 37" fill="none" xmlns="http://www.w3.org/2000/svg">
<rect x="0.501953" y="0.931641" width="35.2476" height="35.2476" rx="7.50163" fill="#295BB8"/>
<path d="M20.3778 9.36279C19.1126 9.36279 17.8992 9.86541 17.0045 10.7601C16.1099 11.6547 15.6072 12.8681 15.6072 14.1334V16.7894H13.0543C12.9262 16.7894 12.8223 16.8933 12.8223 17.0215V20.5285C12.8223 20.6567 12.9262 20.7606 13.0543 20.7606H15.6072V27.9551C15.6072 28.0833 15.7112 28.1872 15.8393 28.1872H19.3463C19.4745 28.1872 19.5784 28.0833 19.5784 27.9551V20.7606H22.1539C22.2605 20.7606 22.3533 20.6881 22.3791 20.5848L23.2558 17.0778C23.2924 16.9313 23.1817 16.7894 23.0307 16.7894H19.5784V14.1334C19.5784 13.9213 19.6627 13.718 19.8126 13.5681C19.9624 13.4182 20.1658 13.334 20.3778 13.334H23.0596C23.1878 13.334 23.2917 13.2301 23.2917 13.1019V9.59487C23.2917 9.4667 23.1878 9.36279 23.0596 9.36279H20.3778Z" fill="white"/>
</svg>
