<svg width="25" height="24" viewBox="0 0 25 24" fill="none" xmlns="http://www.w3.org/2000/svg">
<g clip-path="url(#clip0_1_2264)">
<path d="M11.0938 24C8.76753 24 6.875 22.1075 6.875 19.7812V5.625C6.875 2.52338 9.39838 0 12.5 0C15.6016 0 18.125 2.52338 18.125 5.625V19.7812H16.7188V5.625C16.7188 3.29878 14.8262 1.40625 12.5 1.40625C10.1738 1.40625 8.28125 3.29878 8.28125 5.625V19.7812C8.28125 21.3321 9.54294 22.5938 11.0938 22.5938C12.6446 22.5938 13.9062 21.3321 13.9062 19.7812V8.4375C13.9062 7.66209 13.2754 7.03125 12.5 7.03125C11.7246 7.03125 11.0938 7.66209 11.0938 8.4375V19.7812H9.6875V8.4375C9.6875 6.88669 10.9492 5.625 12.5 5.625C14.0508 5.625 15.3125 6.88669 15.3125 8.4375V19.7812C15.3125 22.1075 13.42 24 11.0938 24Z" fill="#BA2828"/>
</g>
<defs>
<clipPath id="clip0_1_2264">
<rect width="24" height="24" fill="white" transform="translate(0.5)"/>
</clipPath>
</defs>
</svg>
