<svg width="200" height="166" viewBox="0 0 200 166" fill="none" xmlns="http://www.w3.org/2000/svg">
<path fill-rule="evenodd" clip-rule="evenodd" d="M248.367 0.991914C249.753 0.422144 251.269 0.0926195 252.818 0.0171304C254.352 -0.0580455 255.92 0.113623 257.426 0.543692L257.493 0.569692C259.988 1.64909 261.756 2.44468 263.199 3.80067C264.647 5.16167 265.722 7.04357 266.802 10.2714C266.951 10.7194 267.062 11.0883 267.15 11.385C267.308 11.914 267.386 12.1734 267.484 12.2746C267.575 12.3701 267.81 12.4525 268.267 12.6122C268.593 12.7259 269.009 12.8719 269.496 13.0639C269.951 13.2434 271.428 13.8586 273.329 14.6501C277.832 16.5242 284.757 19.4078 286.483 19.9882C287.62 18.4678 288.975 17.0369 290.748 15.9231C292.647 14.7303 295.013 13.9071 298.083 13.7377C300.88 13.5836 303.28 14.1674 305.259 15.1895C307.6 16.3973 309.352 18.2147 310.481 20.1455C311.089 21.1851 311.558 22.1527 311.957 23.1835C312.353 24.2084 312.675 25.2797 312.988 26.5335L313.287 27.7545C313.789 29.8194 314.027 30.7988 314.762 31.4598C315.463 32.0909 316.7 32.567 319.05 33.4707C319.926 33.8074 320.952 34.2024 322.116 34.6679L322.602 34.8618C323.499 35.2173 324.575 35.6439 325.33 36.0239C326.19 36.4571 326.529 36.8461 326.909 37.2827C327.132 37.5393 327.374 37.8168 327.784 38.1316L328 38.2976V39.6627L327.637 39.7955C326.459 40.2265 326.439 40.3712 326.295 41.439C325.712 45.6943 325.021 49.9571 324.384 54.2083C324.13 55.9088 323.869 57.6495 323.57 59.5411C323.462 60.2227 323.385 60.8338 323.323 61.3371C323.051 63.5348 323.017 63.8057 320.88 65.4912C318.38 67.463 316.025 69.204 313.467 70.6793C310.894 72.164 308.114 73.3838 304.778 74.3059L303.74 74.6013C301.483 75.2484 300.724 75.4664 298.328 74.71C298.122 77.5858 297.834 77.7856 296.242 78.8888C295.955 79.0877 295.619 79.3211 295.241 79.603C294.453 80.1922 293.677 80.7397 292.893 81.2688C292.095 81.8075 291.276 82.3385 290.422 82.8807C289.58 83.4154 288.755 83.9137 287.881 84.4055C287.019 84.891 286.146 85.3489 285.205 85.8059C283.3 86.7309 282.131 87.0755 281.167 87.3593C280.622 87.5199 280.144 87.6609 279.645 87.8786L279.546 87.9221L276.054 87.9888L276.146 88.0947L275.62 87.997L275.565 87.9983L275.148 87.9093L273.139 87.5356C272.067 87.3502 271.143 86.8042 270.429 86.3215C270.222 86.9702 270.12 87.8805 270.026 88.7193C269.976 89.1697 269.927 89.6023 269.863 89.9869C269.723 90.8252 269.641 91.4225 269.581 91.8676C269.495 92.5032 269.446 92.8593 269.334 93.1478C269.158 93.5995 268.931 93.7517 268.417 94.0963L268.089 94.3205L262.425 98.4656C262.611 98.6266 262.79 98.7625 262.968 98.8972C263.282 99.1355 263.594 99.372 263.932 99.715C264.658 100.45 265.539 101.537 266.381 102.688C267.284 103.924 268.144 105.231 268.722 106.258C271.699 111.548 273.06 117.732 273.034 123.901C273.007 130.419 271.43 136.926 268.578 142.349C266.769 145.788 264.747 148.751 262.384 151.32C260.019 153.891 257.313 156.066 254.14 157.929C250.146 160.274 246.215 161.429 242.225 161.594C238.365 161.754 234.464 160.987 230.407 159.478C230.006 160.008 229.538 160.704 229.042 161.445C228.186 162.721 227.243 164.128 226.351 165.116C225.337 166.24 223.667 167.713 221.864 169.11C220.131 170.454 218.265 171.733 216.733 172.57C212.11 175.095 207.05 176.605 201.95 177.194C194.667 178.035 187.291 176.999 180.975 174.364C174.632 171.718 169.349 167.456 166.281 161.857C164.967 159.459 164.059 156.817 163.651 153.955C162.929 154.214 161.84 154.752 160.914 155.209C160.379 155.473 159.895 155.711 159.518 155.875L158.73 156.22C156.276 157.293 151.186 159.52 149.552 159.826C148.034 160.11 144.709 159.24 141.102 157.955C136.527 156.325 131.431 154.02 129.077 152.601C128.707 152.378 128.165 152.007 127.587 151.61C126.884 151.128 126.123 150.607 125.597 150.297L120.32 174.549L120.188 174.518L120.101 175.192L120.09 175.229C119.718 176.48 118.945 176.848 118.08 177.26C117.881 177.353 117.676 177.45 117.449 177.58C112.991 179.888 104.921 185.213 100.821 186.733C99.9733 187.177 99.2885 187.382 98.7175 187.553C98.3128 187.674 97.9708 187.776 97.7201 187.922L97.5874 188H94.0683L93.9378 187.924C93.6003 187.729 93.0813 187.594 92.5565 187.458C91.9968 187.312 91.4293 187.165 90.9571 186.923C85.0342 184.107 75.767 178.992 70.1642 175.537C69.9104 175.39 69.7221 175.287 69.5684 175.203C69.1261 174.963 68.8904 174.834 68.6919 174.563C68.4738 174.263 68.4129 173.943 68.2856 173.264L68.2065 172.849C67.2142 167.985 66.1409 163.108 65.249 158.228C64.9848 156.762 64.619 154.733 64.3069 153.635C62.4882 154.476 60.6808 155.613 58.8709 156.752C56.7922 158.059 54.7074 159.37 52.549 160.276L52.2447 160.404L51.989 160.198C51.477 159.786 50.9568 159.512 50.3865 159.211C50.0916 159.056 49.7829 158.893 49.4265 158.685C44.3858 155.737 40.094 153.122 36.0033 150.212C31.9026 147.294 28.0036 144.081 23.7582 139.941C21.83 138.062 21.8053 137.982 21.0263 135.412L20.7561 134.522C20.4252 133.449 20.0559 132.39 19.686 131.328C19.3688 130.417 19.0498 129.503 18.7361 128.517L6.4464 91.5199C5.47823 88.5993 5.11337 87.4993 4.73909 86.9238C4.53643 86.6122 4.29674 86.4224 3.91305 86.1189C3.28559 85.6227 2.31962 84.8587 0.592237 82.9355L0.449497 82.7767V81.8138C-0.00289799 81.94 -0.280861 81.8341 0.449497 80.8829V80.7886L0.685099 80.5891L0.965264 80.2623C1.88731 79.2155 2.45734 79.0837 3.76308 78.7826C3.99806 78.7285 4.25971 78.668 4.55524 78.5938L5.0569 78.3435L4.85016 78.5183C12.3125 76.4901 21.0184 74.476 28.236 72.0738C28.8127 71.9219 29.1107 71.8367 29.2648 71.7139C29.4034 71.6033 29.5132 71.3703 29.7131 70.9227C30.9482 68.1553 32.6863 65.599 34.744 63.3212C36.9583 60.8701 39.545 58.737 42.2763 57.0042C43.5801 56.1766 45.1503 55.4753 46.8432 54.9253C48.5948 54.3561 50.48 53.947 52.3388 53.7265C56.4527 53.2376 60.5189 53.6044 64.0844 54.6396C67.6672 55.6795 70.7515 57.3986 72.8858 59.6075C73.6233 59.5915 75.1801 59.2601 76.5912 58.8328C77.8282 58.4582 78.9093 58.0378 79.0998 57.7497C79.3517 57.3688 79.5939 56.8751 79.886 56.279C80.4243 55.1815 81.1249 53.7522 82.3563 51.9993C85.2865 47.8283 89.1133 44.6525 93.5554 42.743C97.8582 40.8934 102.734 40.2328 107.927 41.0064C109.258 41.2047 110.464 41.4863 111.61 41.8569C112.761 42.2284 113.841 42.6857 114.922 43.2348C115.46 43.5079 115.92 43.7576 116.387 44.0407C116.845 44.3179 117.284 44.6146 117.782 44.9836C118.043 45.1765 118.3 45.4165 118.566 45.6649C119.107 46.1695 119.697 46.7192 120.1 46.6913C120.22 46.6832 121.598 46.306 123.086 45.8885C124.876 45.3861 126.774 44.8482 126.788 44.8382C126.922 44.7399 127.265 43.9515 127.7 42.9548C128.231 41.7357 128.888 40.2296 129.654 39.0428C132.512 34.6203 136.095 31.2414 140.386 29.2154C144.441 27.3003 149.118 26.5974 154.4 27.3655C156.678 27.6966 159.39 28.6419 161.713 29.9334C163.694 31.0337 165.408 32.396 166.364 33.861C167.112 33.7689 167.915 33.5368 168.652 33.3247L169.272 33.149C169.671 33.0397 169.937 32.978 170.157 32.9269C170.897 32.7565 170.938 32.7465 171.305 31.6549C171.658 30.604 172.048 29.5891 172.49 28.6281C172.935 27.6615 173.435 26.7487 174.006 25.9083C176.735 21.8924 180.309 18.7397 184.498 16.9909C188.355 15.3803 192.727 14.9596 197.43 16.1474C203.037 17.5638 205.453 20.3193 206.777 21.83L207.196 22.3024C207.46 21.5804 207.693 20.8835 207.916 20.2175C208.748 17.7323 209.44 15.6644 211.314 13.4674C212.479 12.1017 213.529 10.9436 214.745 9.93942C215.976 8.92235 217.376 8.06031 219.225 7.3001C221.905 6.19846 225.042 5.83074 228.088 6.21727C231.025 6.59002 233.886 7.66409 236.183 9.45798C237.588 10.5552 238.283 11.4649 238.785 12.122L238.888 12.2564C239.465 9.99516 240.588 7.78028 242.089 5.8774C243.775 3.74052 245.946 1.98705 248.367 0.991914ZM274.447 86.2983L278.941 86.2351C280.677 85.9425 282.855 85.0896 285.03 84.0199C287.802 82.6567 290.552 80.9483 292.394 79.5898C292.648 79.4028 293.056 79.1203 293.519 78.8005C294.596 78.0565 295.98 77.0996 296.256 76.7698C296.38 76.6219 296.818 73.9291 297.345 70.4153C298.185 64.8215 299.191 57.2394 299.578 54.2421L282.461 62.966L282.222 63.1583L282.038 63.1655C281.646 63.1811 280.886 63.5636 280.095 63.9608C279.872 64.0729 279.643 64.1879 279.361 64.3235C278.927 64.5318 278.477 64.7871 278.009 65.0521C277.564 65.3042 277.102 65.5667 276.574 65.8308C275.883 66.1763 275.37 66.3971 274.955 66.5757C273.528 67.189 273.457 67.2203 273.067 70.0835C272.951 70.9358 272.677 72.4845 272.357 74.2884C271.679 78.1205 270.794 83.1134 270.84 84.5354C271.035 84.6996 271.241 84.8506 271.463 84.9943C271.754 85.1835 272.075 85.3643 272.429 85.5466C272.764 85.7185 272.955 85.7806 273.256 85.8774L273.719 86.0299C274.072 86.1467 274.285 86.2175 274.447 86.2983ZM118.806 174.023C118.769 173.939 118.764 173.846 118.802 173.75L118.725 173.661L126.174 139.643L110.562 146.41L108.987 147.122C103.924 149.417 97.5768 152.293 91.5911 152.152C88.6129 152.147 85.4226 151.162 82.4777 149.865C79.5572 148.579 76.8726 146.986 74.8851 145.75C73.0517 144.609 71.4075 143.502 69.7369 142.379C67.2967 140.74 64.9805 139.014 62.5989 137.282C62.8342 138.807 63.3679 141.182 63.7626 142.937C63.9201 143.638 64.0559 144.241 64.1453 144.673L69.4341 170.601C69.5417 171.147 69.6221 171.614 69.6873 171.997C69.895 173.212 69.926 173.393 70.6915 173.851L75.6287 176.729C75.9964 176.925 76.2492 177.106 76.514 177.296C76.7311 177.451 76.9583 177.613 77.224 177.769C77.7115 178.054 78.2423 178.315 78.7889 178.584C79.3849 178.877 80.0002 179.18 80.6154 179.539C82.1279 180.421 86.3403 182.813 89.8321 184.45C91.8763 185.409 93.6589 186.111 94.452 186.09L94.65 186.085L94.8065 186.209C94.9747 186.342 95.2238 186.393 95.5008 186.402C95.8362 186.413 96.2233 186.361 96.5826 186.31C97.7148 186.15 98.49 185.961 99.2103 185.677C99.936 185.392 100.631 185.001 101.59 184.443C102.938 183.658 104.137 183.002 105.332 182.348C106.099 181.929 106.865 181.509 107.668 181.057C108.599 180.534 109.538 180.026 110.491 179.512C111.595 178.916 112.719 178.309 113.914 177.629C115.517 176.718 116.534 176.169 117.196 175.811C117.799 175.486 118.097 175.325 118.231 175.222C118.262 175.199 118.274 175.165 118.295 175.099C118.364 174.893 118.468 174.58 118.806 174.023ZM242.342 8.41271C241.976 9.01882 241.564 9.88366 241.189 10.7996C240.802 11.743 240.449 12.7488 240.221 13.5889C240.184 13.7233 240.167 13.8627 240.194 14.0365C240.227 14.2486 240.323 14.522 240.52 14.9051C242.041 17.8654 242.616 20.8224 242.983 22.7171C243.161 23.6343 243.286 24.2789 243.39 24.4133C243.471 24.5185 243.614 24.6319 243.809 24.7497C244.042 24.89 244.333 25.0263 244.673 25.1553L244.314 26.1978L243.604 25.9785C243.736 26.5815 244.042 26.983 244.35 27.3855C245.214 28.5182 246.087 29.6627 244.651 33.6633C245.004 33.8247 245.374 33.9531 245.778 34.0922C247.198 34.5827 248.994 35.2038 251.926 37.7072C252.302 38.0282 252.565 38.3471 252.822 38.6594C253.003 38.879 253.181 39.0951 253.4 39.2997C253.732 37.4315 254.567 35.3109 255.663 33.3269C256.989 30.9247 258.708 28.7014 260.383 27.3511C260.57 27.2001 260.725 27.092 260.86 27.0024L259.761 27.1895C257.349 27.6054 255.587 27.9093 251.951 27.7457C250.666 27.6881 249.575 27.5487 248.579 27.3561C247.58 27.1628 246.676 26.9163 245.765 26.6441L246.057 25.5801C249.64 26.4828 255.682 26.8148 260.557 25.7348C264.028 24.9661 266.879 23.4886 267.702 21.0019C268.04 19.9829 267.77 19.3878 267.526 18.849C267.467 18.7177 267.408 18.589 267.356 18.4565C267.204 18.4171 267.058 18.319 266.917 18.1684C266.384 17.6014 266.114 15.7088 265.828 13.7079C265.511 11.483 265.171 9.10621 264.767 8.95585L264.549 8.87504L264.455 8.66676C264.357 8.44937 264.272 8.26737 264.199 8.12047L263.94 7.61428C263.234 6.29181 262.486 5.37499 261.708 4.68745C260.93 3.99928 260.109 3.52973 259.268 3.11C256.219 1.58769 252.908 1.36968 249.897 2.30969C246.904 3.24438 244.202 5.32706 242.342 8.41271ZM305.626 72.268C307.853 71.7822 311.381 70.0055 314.558 68.0607C318.041 65.9282 321.063 63.6447 321.41 62.7081C321.62 62.1403 322.384 57.3679 323.124 52.3655C323.773 47.985 324.399 43.4487 324.621 41.4011C322.735 42.4376 320.67 43.4328 318.653 44.4041C316.97 45.2144 315.32 46.0091 313.877 46.7768L310.002 49.0215L309.882 49.0334C309.627 49.0584 308.484 49.5849 307.113 50.2559C304.758 51.4092 301.853 52.8965 301.457 53.111C301.151 54.6029 300.219 60.6662 299.521 65.7879C299.06 69.1723 298.7 72.1217 298.693 72.995C299.589 73.4928 300.687 73.5566 301.812 73.3997C303.093 73.2209 304.415 72.752 305.535 72.2962L305.579 72.2784L305.626 72.268ZM244.525 93.1963C246.383 93.0782 247.865 93.0807 249.334 93.2158C250.808 93.3514 252.246 93.6183 254.018 94.0283C256.372 94.573 257.781 95.436 259.194 96.3005C259.763 96.6491 260.334 96.9984 260.954 97.3172C261.957 96.7299 262.897 96.1003 263.806 95.446C264.803 94.7284 265.776 93.9722 266.756 93.2073C267.276 92.8017 267.573 92.5984 267.744 92.4869C267.758 92.4076 267.78 92.3093 267.818 92.1868L268.934 85.5284C269.27 83.1347 269.713 80.6273 270.16 78.0941C270.749 74.7541 271.347 71.3672 271.707 68.2467C270.551 68.6818 269.33 69.3825 268.175 70.0453C267.693 70.3238 267.222 70.5944 266.731 70.8575C265.753 71.3822 264.662 71.9332 263.559 72.4901C262.652 72.9477 261.738 73.4094 260.939 73.8282C260.492 74.0622 259.584 74.5173 258.462 75.0793C255.18 76.7231 250.042 79.297 249.555 79.7759L249.423 79.905L249.239 79.9291C248.936 79.9685 247.5 80.6313 246.027 81.3405C244.512 82.0703 242.986 82.8406 242.524 83.0745L237.029 85.8745C236.667 86.0527 236.394 86.1884 236.144 86.4064L234.396 96.3353L235.242 95.9352C237.886 94.6792 241.251 93.0817 244.525 93.1963ZM196.834 120.036C198.724 119.91 200.504 119.852 202.286 119.907C204.075 119.962 205.851 120.13 207.721 120.455C211.054 121.036 212.711 121.679 214.063 122.204C214.61 122.417 215.106 122.609 215.647 122.767C215.87 121.503 216.308 119.896 216.817 118.304C217.52 116.108 218.36 113.929 218.962 112.709C220.32 109.958 221.356 108.172 222.555 106.574C223.752 104.977 225.095 103.591 227.072 101.632C227.965 100.747 229.654 99.5309 231.011 98.5533C231.465 98.2259 231.883 97.9252 232.213 97.6784C232.869 97.1882 233.058 95.3013 233.208 93.7996C233.26 93.2734 233.309 92.7891 233.373 92.4079L233.656 90.7735C233.861 89.6064 234.064 88.4505 234.223 87.3232C231.933 88.4061 226.453 91.1168 221.102 93.7921C214.597 97.045 208.3 100.219 208.235 100.298L208.078 100.49L207.831 100.501C207.622 100.511 206.319 101.106 204.729 101.872C202.244 103.068 199.148 104.659 198.215 105.178C197.693 105.469 197.116 105.751 196.56 106.022C195.976 106.308 195.414 106.582 194.956 106.853C194.332 107.221 193.508 110.843 193.063 112.801C192.961 113.249 192.875 113.624 192.829 113.805C192.605 114.685 192.334 115.665 192.066 116.64C191.673 118.063 191.281 119.482 190.963 120.898L196.834 120.036ZM149.215 158.117C150.175 157.923 151.556 157.435 152.937 156.888C154.309 156.344 155.715 155.725 156.698 155.281L157.659 154.848C159.611 153.968 161.486 153.123 163.435 152.218C163.211 146.076 164.755 141.067 167.164 136.997C169.616 132.855 172.961 129.691 176.247 127.292C177.123 126.652 178.063 126.038 179.057 125.456C180.044 124.877 181.084 124.331 182.167 123.823C182.833 123.511 184.563 122.91 186.141 122.361C187.575 121.862 188.883 121.408 189.009 121.322C189.16 121.218 189.693 119.459 190.321 117.208C191.212 114.019 192.215 109.939 192.679 107.919C192.601 107.967 192.501 108.025 192.365 108.099C191.967 108.313 191.843 108.36 191.621 108.443C191.526 108.479 191.409 108.523 191.217 108.603L157.016 125.499L156.899 125.505C156.414 125.528 148.867 129.118 142.441 132.175C138.326 134.132 134.667 135.872 133.527 136.347C132.681 136.699 131.881 137.017 131.208 137.285C129.567 137.937 128.754 138.26 128.347 138.699C127.972 139.104 127.846 139.758 127.598 141.052C127.491 141.614 127.36 142.292 127.16 143.187C127.077 143.562 126.974 143.964 126.86 144.414C126.511 145.796 126.048 147.625 126.044 148.566C127.146 149.481 128.816 150.563 130.618 151.586C132.651 152.74 134.844 153.815 136.571 154.487C137.566 154.875 142.081 156.58 145.513 157.548C147.308 158.055 148.745 158.373 149.025 158.193L149.109 158.138L149.215 158.117ZM117.982 87.847L120.608 91.1838L121.409 86.688L117.982 87.847ZM122.242 49.4102L124.377 52.8861C124.661 52.5375 124.913 52.0294 125.131 51.4612C125.523 50.4385 125.782 49.2523 125.927 48.3715L122.242 49.4102ZM129.898 70.8888L132.218 68.6098C131.299 68.2521 130.401 67.7305 129.529 67.2244C129.202 67.0349 128.879 66.8472 128.564 66.6734L128.579 66.819C128.761 68.6555 128.887 69.9159 129.898 70.8888ZM166.229 69.7954L168.995 73.2976L169.568 72.6182L170.495 67.7684L166.229 69.7954ZM211.345 50.9892L212.298 52.1105C212.615 52.436 212.82 52.6575 213.009 52.8799C213.2 53.1051 213.375 53.3315 213.635 53.6698C214.04 54.1964 214.41 54.7749 214.751 55.3093C214.934 55.5968 215.109 55.8706 215.273 56.1099C216.59 46.7414 220.113 42.654 221.853 40.6356L222.262 40.1538C218.875 39.8581 217.154 39.3034 215.059 38.6278C214.398 38.4148 213.698 38.1886 212.876 37.9515C212.963 38.7452 213.011 39.1045 213.08 39.3003C213.115 39.3967 213.179 39.4713 213.283 39.5919C213.446 39.7811 213.677 40.0495 214.026 40.598C214.389 41.1646 214.72 41.8682 214.937 42.6516C215.123 43.3241 215.226 44.0567 215.194 44.8132C215.06 47.9377 213.276 49.4014 211.798 50.6133L211.345 50.9892ZM268.246 23.3574C269.338 23.1331 270.341 22.9705 271.365 22.8938C272.923 22.7766 274.513 22.8593 276.504 23.2258C279.456 23.7693 280.879 24.74 282.461 25.8203C282.766 26.028 283.077 26.2403 283.397 26.449L284.774 22.5874C283.708 22.0778 280.194 20.5837 276.568 19.077C273.109 17.6396 269.572 16.2047 267.964 15.6067C268.112 16.4891 268.399 16.8969 268.67 17.2828C269.069 17.8498 269.444 18.3823 269.497 19.732C269.574 21.6741 268.949 22.6288 268.246 23.3574ZM223.798 127.395C225.137 128.796 227.978 131.437 228.99 132.833C231.79 136.695 233.243 140.785 233.576 144.946C233.923 149.278 233.052 153.681 231.223 157.979C232.255 158.659 234.038 159.156 236.008 159.474C238.738 159.914 241.793 159.999 243.749 159.757C246.937 159.361 249.718 158.418 252.234 157.091C254.761 155.758 257.029 154.033 259.179 152.082C264.609 147.152 268.39 140.463 270.176 133.232C271.951 126.046 271.757 118.328 269.259 111.271C268.708 109.713 267.887 108.115 266.978 106.62C265.801 104.684 264.47 102.909 263.377 101.605C262.636 100.722 260.521 98.9232 258.214 97.5459C256.647 96.6106 255.009 95.8792 253.703 95.793L253.528 95.7818L253.392 95.6721C253.116 95.4504 252.164 95.2371 251.044 95.062C249.363 94.7992 247.373 94.6523 246.554 94.6679C245.393 94.6902 244.229 94.8154 243.089 95.0143C241.819 95.2358 240.585 95.5503 239.419 95.9171C236.091 96.9645 232.623 99.1089 229.529 101.764C226.234 104.592 223.371 107.991 221.554 111.26C220.788 112.637 219.567 115.419 218.603 118.176C217.931 120.101 217.387 122.005 217.222 123.383L221.912 126.123C222.2 126.302 222.431 126.469 222.662 126.636C222.962 126.853 223.265 127.072 223.666 127.294L223.74 127.335L223.798 127.395ZM220.549 167.856C221.098 167.729 222.091 166.895 223.168 165.832C224.836 164.186 226.639 162.025 227.446 160.942C231.044 156.113 232.385 150.503 231.895 145.181C231.374 139.526 228.787 134.194 224.646 130.469C221.874 127.975 218.959 126.02 215.752 124.576C212.544 123.132 209.036 122.195 205.077 121.737C202.939 121.49 200.666 121.439 198.41 121.56C196.085 121.685 193.77 121.994 191.629 122.461C190.232 122.766 187.183 123.625 184.728 124.529C183.111 125.124 181.781 125.717 181.449 126.13L181.344 126.261L181.181 126.311C180.135 126.632 178.518 127.679 176.914 128.893C174.794 130.497 172.733 132.37 172.023 133.263L171.62 133.768C169.473 136.458 167.423 139.028 166.075 143.316C164.665 147.801 164.746 152.072 165.754 155.868C166.958 160.403 169.482 164.266 172.37 167.015C175.124 169.638 178.817 171.777 182.815 173.298C187.026 174.9 191.565 175.811 195.695 175.877C197.936 175.913 200.385 175.722 202.788 175.359C205.271 174.984 207.693 174.427 209.779 173.75C211.382 173.23 214.377 171.965 216.792 170.64C218.469 169.72 219.84 168.797 220.182 168.141L220.299 167.913L220.549 167.856ZM177.171 87.1779C181.682 88.9796 186.201 90.0095 190.901 90.3729C195.614 90.7372 200.51 90.433 205.764 89.5666C208.822 89.0623 212.596 87.8727 215.662 85.9751C217.367 84.9195 218.85 83.6459 219.854 82.1543C219.42 81.8933 219.24 81.7552 219.149 81.3104C219.105 81.094 219.112 80.85 219.124 80.4522C219.135 80.0829 219.15 79.5629 219.132 78.8143C219.117 78.1906 219.047 77.6161 218.973 77.0057C218.936 76.6996 218.897 76.3814 218.856 75.9422C218.448 71.6149 217.659 67.0574 216.173 62.851C214.698 58.6778 212.534 54.852 209.369 51.9518C208.58 51.2298 206.501 49.7503 204.337 48.7505C202.949 48.1096 201.544 47.673 200.481 47.7889L200.272 47.8118L200.099 47.6852C199.985 47.6025 199.913 47.5458 199.864 47.5054C199.772 47.4916 199.625 47.4681 199.377 47.4149C199.215 47.3801 198.798 47.3457 198.529 47.3237L198.418 47.3147C195.964 47.1085 193.519 47.2163 191.175 47.6937C188.987 48.1391 186.881 48.9059 184.932 50.0391L180.884 52.9776C177.9 56.1697 175.744 59.0079 174.244 62.2844C172.737 65.5749 171.878 69.3352 171.487 74.3732C171.256 77.3455 171.593 78.1308 172.165 79.4652C172.448 80.1267 172.785 80.9139 173.142 82.1042C173.319 82.6968 173.454 83.1936 173.569 83.6202C174.15 85.7636 174.206 85.9644 177.171 87.1779ZM221.091 78.9283C221.147 78.3338 221.12 77.7277 221.019 77.1501C220.993 76.9991 220.962 76.8522 220.927 76.7084C220.992 77.4501 221.057 78.2125 221.091 78.9283ZM242.238 33.1218C242.189 31.9208 242.089 30.6406 242.089 29.4519C242.068 28.7819 242.028 28.1639 241.974 27.5575C241.923 26.9937 241.852 26.3735 241.771 25.7044C241.376 22.4365 240.633 19.1917 239.289 16.3632C237.961 13.5707 236.042 11.1782 233.283 9.57103C231.581 8.57903 229.308 8.02712 226.947 7.90778C224.513 7.78468 221.997 8.12202 219.924 8.91043C218.254 9.54567 216.684 10.5963 215.307 11.8207C213.661 13.2838 212.293 14.9928 211.358 16.5417C210.886 17.3229 210.448 18.2097 210.058 19.155C209.66 20.1223 209.307 21.1653 209.016 22.2357C208.526 24.0346 208.975 24.9937 209.74 26.6244C210.495 28.236 211.533 30.4502 212.332 34.5285C212.395 34.8521 212.437 35.1415 212.473 35.3899C212.548 35.9095 212.589 36.1933 212.824 36.369C213.243 36.6823 214.24 36.9795 216.426 37.6304L216.81 37.7448C217.459 37.938 219.45 38.3496 221.166 38.5877C222.281 38.7421 223.25 38.827 223.567 38.7296C223.78 38.6641 223.999 38.448 224.309 38.1426C224.652 37.8043 225.086 37.3761 225.756 36.8918C226.135 36.6174 226.63 36.2776 227.149 35.9449C227.579 35.6693 228.018 35.4037 228.411 35.1907C229.354 34.6813 230.433 34.2344 231.572 33.8788C232.69 33.5299 233.878 33.2665 235.063 33.1152C238.249 32.7089 239.965 32.8944 241.246 33.0328C241.606 33.0716 241.929 33.1064 242.238 33.1218ZM176.94 51.3397C177.632 51.3181 177.972 51.4712 178.349 51.6419C178.569 51.7409 178.806 51.8487 179.205 51.9048C179.77 51.4656 180.248 51.0537 180.71 50.655C181.118 50.3035 181.516 49.9605 181.935 49.6285C185.137 47.091 189.569 45.6307 194.142 45.3322C198.691 45.0349 203.397 45.8857 207.187 47.9665C207.73 48.2647 208.259 48.6471 208.763 49.0114C209.229 49.3485 209.674 49.6695 210.05 49.8647C210.179 49.7651 210.314 49.6536 210.453 49.5311C210.966 49.0794 211.498 48.5034 211.965 47.8506C211.377 47.2344 211.399 46.8727 211.458 45.9361C211.482 45.5483 211.513 45.0365 211.495 44.3355C211.481 43.7754 211.459 43.1894 211.43 42.5892C211.403 42.0245 211.367 41.4409 211.32 40.8483C211.24 39.824 211.126 38.7822 210.986 37.7636C210.846 36.7415 210.674 35.7169 210.478 34.7318C209.747 31.0679 208.634 27.762 206.831 25.0021C205.042 22.2632 202.562 20.0484 199.081 18.5364C197.57 17.8796 195.54 17.5275 193.432 17.4479C191.175 17.3633 188.84 17.5923 186.956 18.0944C186.731 18.1542 186.502 18.2213 186.272 18.2943C180.784 20.033 176.701 24.7246 174.187 29.731C171.673 34.7355 170.73 40.0188 171.52 42.9698L171.594 43.2201C172.15 44.9745 172.394 46.1789 172.573 47.0625C172.954 48.9363 173 49.1665 175.898 50.5751L175.937 50.5945L176.94 51.3397ZM176.456 52.4304C175.542 52.3204 174.626 51.7948 173.763 51.3002L173.356 51.0669C173.457 52.1253 173.604 53.522 173.882 53.9931C173.988 54.1735 174.098 54.2863 174.215 54.4062C174.416 54.613 174.637 54.8398 174.928 55.3597C175.034 55.5499 175.124 55.7359 175.215 55.9235C175.283 56.0642 175.352 56.2067 175.425 56.3451C175.622 56.1052 175.792 55.8609 175.961 55.6197C176.146 55.3534 176.331 55.0891 176.557 54.8178L177.967 53.1633C177.892 53.1339 177.818 53.1132 177.741 53.0919C177.528 53.0327 177.301 52.9694 177.007 52.8056C176.641 52.6011 176.536 52.5362 176.456 52.4304ZM290.335 50.8235L290.296 50.753C290.053 50.3107 289.949 49.2019 289.801 47.6244C289.262 41.8713 288.098 29.4598 278.785 25.6765C276.547 24.7672 273.869 24.4242 271.26 24.6175C268.67 24.8095 266.159 25.5303 264.225 26.7494C261.954 28.1815 259.923 30.1282 258.31 32.4471C256.759 34.6757 255.599 37.2492 254.987 40.0392C254.754 41.1001 255.115 41.6505 255.551 42.3133C255.711 42.5592 255.881 42.8172 256.04 43.1114C256.599 44.1381 257.094 45.1922 257.538 46.3073C257.982 47.4212 258.373 48.5923 258.725 49.8537C258.895 50.4614 259.051 51.065 259.19 51.6529C259.33 52.2459 259.458 52.8441 259.573 53.4387L259.685 54.0576C259.79 54.6396 259.845 54.9437 259.946 55.0609C260.055 55.1878 260.385 55.2801 261.072 55.4725L261.382 55.5596C266.044 56.8789 272.969 57.4609 279.095 56.4391C283.815 55.6516 288.041 53.9154 290.327 50.8348L290.335 50.8235ZM312.759 36.1801L312.752 36.1648C312.411 35.4265 312.261 33.5575 312.124 31.8532C312.045 30.8652 311.97 29.9334 311.874 29.3711C311.407 26.6284 310.645 23.9274 309.353 21.6271C308.081 19.3621 306.288 17.4811 303.744 16.3315C302.078 15.5782 300.027 15.2828 297.995 15.3991C295.924 15.5175 293.882 16.0643 292.296 16.9893C290.588 17.9854 288.936 19.5538 287.605 21.3796C286.302 23.171 285.307 25.201 284.87 27.1769C284.769 27.6324 285.149 28.1298 285.772 28.9442C287.012 30.5658 289.07 33.2558 290.403 39.4412C290.623 40.4636 291.244 40.5288 293.424 40.7559C294 40.8157 294.667 40.8855 295.336 40.9682C298.369 41.3438 302.231 41.2288 305.672 40.3499C308.407 39.6511 310.864 38.4718 312.387 36.6782C312.496 36.5504 312.625 36.3806 312.759 36.1801ZM128.574 108.26C129.726 109.033 131.709 109.702 133.905 110.246C136.967 111.004 140.415 111.509 142.66 111.72C147.354 112.162 154.389 111.925 160.665 110.626C165.443 109.636 169.762 108.037 172.214 105.664C172.822 105.075 173.599 104.306 174.298 103.455C174.453 103.267 174.603 103.074 174.749 102.878C174.346 102.756 174.261 102.601 174.095 101.569C173.862 100.072 173.872 97.6846 173.782 96.0843C173.484 92.9739 173.03 89.9431 172.343 86.9931C171.656 84.0462 170.736 81.1883 169.504 78.424C168.781 76.7999 167.83 75.172 166.805 73.7271C165.754 72.2426 164.623 70.954 163.579 70.0632C162.647 69.2673 160.31 67.5767 157.944 66.4735C156.479 65.7907 155.02 65.3377 153.933 65.4893L153.706 65.5213L153.524 65.3838C153.309 65.2212 152.787 65.0969 152.179 65.0048C151.116 64.8438 149.871 64.8049 149.322 64.8062C144.481 64.8194 140.119 66.0181 136.365 68.2502C132.54 70.5243 129.336 73.8796 126.886 78.1549C125.903 79.8721 124.387 83.5338 123.372 87.1369C122.638 89.7417 122.17 92.2996 122.365 94.0248L125.264 101.535C125.89 103.447 126.143 104.762 126.323 105.707C126.624 107.275 126.694 107.639 128.434 108.193L128.512 108.218L128.574 108.26ZM176.243 99.2342C176.288 98.635 176.249 98.0336 176.141 97.4585L176.07 97.1255C176.143 97.8165 176.207 98.537 176.243 99.2342ZM132.058 66.6364L133.843 67.5044C136.642 65.4655 140.114 64.0015 143.895 63.2967C147.605 62.6051 151.618 62.6458 155.585 63.5934C159.401 64.5052 161.492 65.9943 163.805 67.6419L164.57 68.1841C165.114 68.5662 165.178 68.5387 165.625 68.3457C165.818 68.2624 166.053 68.1603 166.317 68.0604L166.565 67.9667C167.264 67.7042 167.77 67.5138 168.525 67.0693L168.957 66.8184C170.339 66.015 170.957 65.6551 171.586 63.8192C172.412 61.4098 172.398 57.8292 171.959 54.1556C171.369 49.2156 170.013 44.146 168.885 41.481C168.133 39.7075 167.401 38.3659 166.573 37.1756C165.743 35.9841 164.817 34.9417 163.678 33.7673C163.006 33.0748 160.968 31.6073 158.862 30.5962C157.479 29.9327 156.09 29.4745 155.102 29.5932L154.934 29.6136L154.459 29.3611C153.732 29.0898 152.603 28.9727 151.4 28.9454C149.587 28.9044 147.627 29.067 146.555 29.2114C143.492 29.6239 140.538 30.9912 137.946 32.8865C135.039 35.0112 132.591 37.7933 130.952 40.6396C129.748 42.7302 128.818 44.8122 128.113 47.0634C127.407 49.3171 126.927 51.7412 126.624 54.5143C126.322 57.2823 126.592 58.1478 127.041 59.5858C127.242 60.2283 127.477 60.9801 127.718 62.0523C127.831 62.5544 127.897 62.9359 127.951 63.2516C128.098 64.1121 128.147 64.3958 128.969 64.9831C129.517 65.3744 130.001 65.6942 130.487 65.9611C130.962 66.2217 131.44 66.4312 131.986 66.6085L132.058 66.6364ZM82.9959 80.3134C82.9376 80.8613 82.9821 81.712 83.1365 82.4625C83.2391 82.9627 83.3818 83.3981 83.5582 83.6136C83.8085 83.6578 84.6142 83.2684 85.7034 82.7419C87.0763 82.0781 88.8419 81.2246 90.8752 80.7713C92.5217 80.4039 94.2315 80.096 95.9811 79.9219C97.7386 79.7474 99.5391 79.707 101.358 79.8768C103.158 80.0443 104.636 80.2818 106.028 80.6367C107.425 80.9931 108.745 81.4705 110.225 82.1176C110.913 82.4183 111.552 82.7516 112.145 83.0993C112.737 83.4464 113.281 83.8053 113.782 84.1599C114.729 84.8315 115.318 85.3552 115.759 85.748C116.815 86.6877 116.834 86.7046 119.952 85.5334C120.329 85.3918 120.66 85.2913 120.938 85.2064C121.644 84.9922 121.906 84.912 122.193 83.9735C122.718 82.2598 123.406 80.4681 124.225 78.7861C124.969 77.2587 125.826 75.8129 126.772 74.5859C127.416 73.7509 127.333 73.0144 127.202 71.8686C127.178 71.6528 127.152 71.4279 127.121 71.0878C126.799 67.6056 126.215 63.7841 125.185 60.1763C124.165 56.6014 122.708 53.2476 120.636 50.6697C119.325 49.0384 117.206 46.9845 114.941 45.5013C113.237 44.3853 111.467 43.5994 109.94 43.5878L109.714 43.5862L109.555 43.4303C109.198 43.0801 108.199 42.8683 107.012 42.7471C105.07 42.5488 102.697 42.6303 101.577 42.7274C98.091 43.0293 95.3568 43.8324 92.9527 45.1255C90.5389 46.4238 88.4379 48.2252 86.2317 50.5165L86.1128 50.6396C85.7709 50.9939 85.4352 51.3416 85.1478 51.7115C84.9138 52.0135 84.7381 52.2058 84.5608 52.3997C84.3993 52.5766 84.2348 52.7568 84.0526 52.987C82.9605 54.3655 81.6902 56.6994 80.6314 59.2081C79.6441 61.5473 78.8463 64.0284 78.557 66.0159C78.4648 66.6499 79.0395 67.9401 79.6905 69.3991C80.1376 70.4021 80.6191 71.4812 80.9655 72.5481C81.187 73.2303 81.4612 74.4174 81.7495 75.6681C82.1693 77.4874 82.622 79.4486 82.9269 79.9811L83.0151 80.1349L82.9959 80.3134ZM76.435 129.458C81.2137 131.499 86.6775 132.714 92.3359 133.174C98.3018 133.66 104.479 133.308 110.296 132.206C113.571 131.586 116.701 130.689 119.458 129.385C122.187 128.095 124.55 126.403 126.323 124.18L126.388 124.099C126.573 123.867 126.76 123.633 126.944 123.389C126.144 123.136 126.146 122.916 126.157 121.602C126.161 121.186 126.166 120.614 126.125 119.802C125.903 115.419 125.449 111.493 124.634 107.669C123.82 103.852 122.644 100.134 120.977 96.1611C120.331 94.6209 119.225 92.8624 118.004 91.2552C116.655 89.4801 115.172 87.8958 114.014 86.9943C112.763 86.0202 110.252 84.3469 107.637 83.2603C105.935 82.553 104.2 82.0994 102.784 82.273L102.602 82.2955L102.442 82.2041C101.237 81.5159 98.7868 81.5068 96.101 81.8692C92.7755 82.3184 89.14 83.3436 86.9928 84.3773C83.1572 86.2238 79.6074 89.3589 76.7706 93.0883C73.8448 96.9348 71.6801 101.41 70.7433 105.753C70.2724 107.937 69.9267 109.985 69.6933 112.052C69.4586 114.129 69.3356 116.223 69.3111 118.487C69.3077 118.842 69.3337 119.288 69.361 119.752C69.442 121.135 69.5326 122.673 68.8911 123.535L68.7659 123.703C69.5624 124.78 70.5598 125.788 71.6713 126.678C73.1264 127.843 74.7735 128.804 76.4199 129.451L76.435 129.458ZM128.388 120.401C128.59 119.422 128.601 118.324 128.423 117.307C128.341 116.839 128.219 116.392 128.059 115.985L128.067 116.07C128.199 117.425 128.354 119.02 128.388 120.401ZM67.1207 120.508L67.1245 120.353C67.1342 119.936 67.1455 119.469 67.1411 118.96C67.1336 118.092 67.1696 117.291 67.2136 116.506C66.7216 117.82 66.7354 119.18 67.1207 120.508ZM324.579 37.8497C324.285 38.9639 322.151 39.8547 320.61 40.4968C320.191 40.6713 319.82 40.8264 319.571 40.9482L309.447 45.9922C308.964 46.2418 308.556 46.432 308.142 46.6255C307.766 46.8006 307.382 46.9798 306.913 47.2204C299.322 51.1508 291.441 54.8018 283.776 58.6283C277.446 61.6886 271.071 64.8557 264.692 68.025C257.478 71.6093 250.256 75.1977 242.726 78.8067C240.835 79.7129 238.907 80.6128 236.959 81.5218C232.013 83.8297 226.935 86.1997 222.228 88.7873L175.681 111.062C173.526 112.124 171.292 113.123 169.054 114.122C165.963 115.504 162.861 116.89 159.93 118.465C153.248 121.835 145.512 124.61 139.02 128.101C137.723 128.686 136.428 129.257 135.143 129.823C132.932 130.797 130.746 131.761 128.586 132.784C124.227 134.849 119.91 136.622 115.541 138.416C112.793 139.545 110.022 140.683 107.189 141.916C102.77 143.84 98.8815 145.281 94.9386 145.67C90.9659 146.061 86.969 145.385 82.3779 143.062C76.4155 140.045 71.0765 136.666 65.6521 133.233L63.1881 131.675C59.4447 129.317 53.4566 125.045 47.7527 120.693C42.6019 116.763 37.672 112.759 34.819 110.029L8.17472 87.0429C7.94476 86.8377 7.79637 86.6723 7.64829 86.5076C7.52782 86.3713 7.40577 86.2357 7.23573 86.0797C4.71493 83.7668 3.91744 82.5928 4.87964 81.5475C5.52718 80.8443 7.06978 80.4271 9.55293 79.7562L10.7555 79.431L24.0302 75.6121C25.0075 75.3499 25.8558 75.1046 26.7289 74.8525L27.3425 74.6752C28.1419 74.4459 28.3788 74.2595 28.5636 73.7405L3.01578 80.7278C2.1386 81.0479 1.96448 81.4564 2.10942 81.8579C2.38174 82.6119 3.41987 83.4824 4.02944 83.9939C4.19038 84.1286 4.32465 84.2413 4.42724 84.3378C5.01108 84.8866 5.5984 85.4269 6.1835 85.9654C7.80484 87.4564 9.41709 88.9395 10.9424 90.594L16.5491 95.586C16.9211 95.9086 17.0476 96.0753 17.2051 96.2823C17.2938 96.3966 17.3939 96.5282 17.5812 96.7284L51.5959 126.476C52.031 126.817 52.367 127.109 52.7037 127.401C53.0873 127.734 53.4729 128.07 53.8971 128.396C55.3889 129.544 56.8085 130.669 58.2344 131.799C59.9028 133.121 61.5828 134.452 63.3023 135.764C66.4079 138.134 69.7767 140.613 73.2829 142.887C76.7829 145.158 80.4278 147.232 84.0959 148.799C92.8065 152.522 100.28 149.277 108.19 145.843L110.313 144.926C111.707 144.331 113.288 143.614 114.833 142.913L139.654 131.682L144.751 129.311C154.574 124.747 164.434 120.166 174.032 115.291C176.495 114.04 178.96 112.893 181.412 111.753C184.736 110.207 188.036 108.672 191.208 106.937C196.256 104.175 201.973 101.388 207.547 98.6704C209.77 97.5869 211.97 96.5141 213.902 95.5563C216.208 94.4129 218.51 93.28 220.807 92.1502C226.106 89.5434 231.384 86.947 236.63 84.2535L264.735 70.06C273.717 65.2907 282.883 60.7047 292.048 56.1193C301.751 51.2651 311.455 46.4094 321.071 41.2661C321.608 40.9792 322.066 40.7414 322.49 40.53C322.929 40.3111 323.4 40.0846 323.935 39.8322L324.29 39.6683C324.891 39.3964 325.596 39.0751 326.026 38.6619C325.815 38.4915 325.656 38.3343 325.504 38.1836C325.279 37.9603 325.07 37.7535 324.662 37.5355L324.579 37.8497ZM221.441 71.329C220.873 71.2964 220.558 71.1626 220.194 70.9806C220.245 71.4561 220.286 71.7299 220.364 71.926C220.45 72.1437 220.626 72.3451 220.97 72.736L221.309 73.125C222.7 74.7385 223.274 76.7184 223.151 78.6824C223.024 80.7259 222.14 82.7528 220.636 84.3278C219.242 85.7878 217.354 87.0316 215.197 88.0734C212.753 89.2543 209.955 90.1812 207.143 90.8737C204.397 91.5503 201.415 91.9582 198.396 92.1223C195.232 92.2939 192.025 92.1971 189.004 91.861C185.692 91.4923 183.136 90.9595 180.762 90.2134C178.678 89.5582 176.741 88.7409 174.559 87.727C175.082 91.4745 175.41 91.8764 176.03 92.6344C176.348 93.0228 176.733 93.493 177.226 94.3876C177.618 95.0999 177.912 95.7971 178.115 96.4756C178.913 99.1475 178.314 101.519 176.868 103.575C175.463 105.573 173.254 107.261 170.765 108.628C168.415 109.919 165.808 110.929 163.399 111.646C159.306 112.865 154.286 113.518 149.21 113.601C144.099 113.685 138.925 113.193 134.576 112.123C132.499 111.612 130.885 110.974 129.269 110.336C128.553 110.053 127.836 109.77 127.106 109.507C127.309 111.37 127.603 111.692 128.12 112.259C128.461 112.633 128.886 113.098 129.421 113.995C129.546 114.208 129.652 114.395 129.736 114.556C131.251 117.467 131.051 120.321 129.78 122.859C128.535 125.343 126.255 127.51 123.563 129.111C123.194 129.33 122.83 129.533 122.474 129.718C115.072 133.559 104.981 135.4 95.1953 135.089C85.7539 134.79 76.5749 132.485 70.3358 128.04C60.9352 121.343 65.724 114.448 67.2907 112.192C67.4827 111.916 67.6155 111.725 67.6192 111.711C67.8984 110.661 68.1077 109.381 68.316 108.107C68.4616 107.216 68.6071 106.326 68.7762 105.51C62.5042 106.564 56.1807 106.951 50.0677 106.385C44.3111 105.853 38.7465 104.477 33.5942 102.025C30.3826 100.497 26.5836 98.0583 24.5133 94.906C22.9475 92.5216 22.3602 89.7451 23.7071 86.6601C24.4202 85.0272 24.8503 84.5787 25.2936 84.1176C25.474 83.93 25.6575 83.7386 25.8589 83.4507C25.9091 83.379 26.2699 81.9905 26.6709 80.3917C27.0423 78.9101 27.4338 77.2785 27.6494 76.3159C25.2252 76.8885 19.3889 78.5045 14.3407 80.0114C10.5732 81.1363 7.27182 82.1859 6.23652 82.6617C6.57691 83.4977 7.77503 84.5007 8.79778 85.3568C9.00672 85.5315 9.21128 85.7029 9.44469 85.9052L37.96 110.574C43.262 114.988 48.7131 119.336 54.5132 123.593C60.3018 127.841 66.438 131.995 73.1207 136.025C91.2711 146.971 94.5709 145.549 108.586 139.506C111.019 138.457 113.771 137.27 117.028 135.963C118.761 135.268 120.571 134.527 122.359 133.763C124.153 132.997 125.918 132.21 127.549 131.427C131.153 129.204 139.1 126.241 143.366 124.264C144.188 123.912 144.989 123.532 145.787 123.154C146.71 122.717 147.631 122.281 148.551 121.899C150.647 121.03 152.572 120.09 154.491 119.153C155.952 118.438 157.412 117.726 159.023 117.011L220.844 87.5788L231.001 82.6135C232.265 81.9961 233.412 81.4623 234.571 80.9226C236.847 79.8633 239.17 78.782 241.323 77.6027C242.826 76.7798 244.628 75.9576 246.418 75.1407C248.233 74.3128 250.038 73.489 251.505 72.6718L252.133 72.3275C251.205 72.6536 250.297 72.9289 249.45 73.1576C247.32 73.733 244.807 74.1383 242.262 74.3582C239.648 74.5841 236.99 74.6157 234.67 74.4368C233.398 74.3391 232.237 74.2229 231.07 74.0663C229.915 73.9112 228.764 73.7158 227.505 73.4586C226.092 73.1181 224.109 72.5424 222.734 72.0553C222.199 71.8671 221.801 71.7268 221.441 71.329ZM258.543 69.1116C260.133 68.346 261.797 67.5582 263.441 66.7802C266.51 65.3271 269.507 63.9078 271.831 62.7276L283.923 56.7104L283.365 56.8936C281.233 57.5765 279.321 57.9401 277.362 58.1375C275.424 58.3326 273.442 58.3652 271.151 58.3865C267.105 58.4247 264.816 57.848 261.887 57.1101C261.387 56.9841 260.867 56.8529 260.326 56.7216C260.474 56.9995 260.689 57.2911 260.923 57.609C261.577 58.4942 262.358 59.5527 262.571 61.2535C262.933 64.1346 261.638 66.4469 259.583 68.2737C259.254 68.5656 258.906 68.8447 258.543 69.1116ZM289.657 53.8578L297.286 50.0614C298.061 49.6755 298.858 49.3056 299.663 48.9328C300.618 48.4902 301.586 48.0416 302.54 47.5543L321.924 37.9274C321.149 37.5709 319.937 37.0494 318.715 36.5432C317.323 35.9662 315.94 35.4209 315.195 35.1731C314.718 36.7803 313.633 38.0517 312.217 39.0531C310.296 40.4104 307.767 41.2645 305.35 41.7883C302.478 42.4107 300.052 42.577 297.644 42.4802C295.46 42.3928 293.321 42.0915 290.882 41.72C291.113 43.0503 291.416 43.4165 291.757 43.8284C292.091 44.235 292.455 44.675 292.823 45.7131L292.894 45.9308C293.795 48.7342 292.781 51.013 290.915 52.8075C290.529 53.179 290.106 53.5289 289.657 53.8578ZM222.056 70.2505C222.871 70.3363 224.087 70.7469 225.265 71.1444C226.115 71.4317 226.946 71.7123 227.534 71.8411C232.35 72.8967 239.15 73.249 245.34 72.3701C250.298 71.666 254.848 70.1756 257.624 67.6312C258.208 67.0965 258.872 66.4049 259.437 65.6391C259.259 65.5604 259.166 65.5122 259.061 65.3092C258.987 65.1633 258.984 65.0687 258.978 64.8826C258.974 64.7698 258.968 64.5872 258.926 64.2433C258.738 62.7132 258.697 61.6601 258.657 60.648C258.588 58.8648 258.523 57.209 257.575 52.8883L257.451 52.3414C256.145 46.7803 253.66 41.7297 249.793 38.4586C245.954 35.212 240.723 33.7113 233.89 35.2066L233.487 35.2978C229.287 36.2801 225.797 38.7221 223.123 41.9452C220.116 45.569 218.138 50.1779 217.339 54.8197L217.166 55.7763C216.811 57.7143 216.666 58.5074 217.525 60.6396C218.434 62.9998 219.235 66.4541 219.977 68.98C220.146 69.1636 220.455 69.2917 220.751 69.4141C221.036 69.5313 221.312 69.6453 221.557 69.8267L221.76 69.9742C221.87 70.0541 221.922 70.0926 221.976 70.1509C222.013 70.1907 222.037 70.2207 222.056 70.2505ZM34.0416 100.413C39.075 102.692 45.1422 104.209 51.407 104.799C57.3904 105.364 63.5546 105.083 69.1709 103.815C69.767 102.341 70.1755 101.205 70.5294 100.22C71.6864 96.9971 72.2928 95.3091 76.0858 90.5668C77.7925 88.433 79.0904 87.3477 80.0058 86.5824C81.8897 85.0069 81.9051 84.9934 80.2091 77.452C79.32 73.4981 78.0519 69.9059 76.2116 66.7877C74.3835 63.6895 71.9829 61.0509 68.8173 58.981C68.0531 58.4814 66.278 57.5257 64.5692 56.8873C63.4639 56.4745 62.4016 56.196 61.7102 56.275L61.5116 56.2979L61.3447 56.1888C60.3492 55.5389 57.6367 55.3641 54.555 55.6081C51.5447 55.8462 48.2255 56.4958 45.8155 57.5063C41.9409 59.1307 38.4996 61.9251 35.7194 65.3136C32.7176 68.9725 30.4892 73.3195 29.319 77.6368C28.7882 79.5955 28.3352 81.6851 28.0083 83.7956C27.7036 85.7602 27.5038 87.7539 27.4467 89.6906C27.4385 89.9641 27.4439 90.2827 27.4492 90.6178C27.4715 92.0004 27.4982 93.6524 26.6643 94.3331L26.6319 94.3594L26.7628 94.5442C27.6164 95.7295 28.8707 97.0563 30.2633 98.1799C31.4699 99.1534 32.7735 99.9688 33.9961 100.396L34.0416 100.413ZM25.2126 91.4454C25.2274 91.1234 25.2515 90.7885 25.276 90.4455L25.3297 89.6524C25.3544 89.2177 25.4075 88.6823 25.4636 88.122C25.0868 89.1065 24.8961 90.1665 25.2126 91.4454ZM49.0036 126.678L26.1667 106.622C25.9214 106.398 25.6666 106.208 25.4072 106.014C25.1973 105.858 24.9827 105.698 24.7311 105.484C24.4462 105.243 24.2272 105.004 24.0089 104.766C23.8322 104.574 23.6544 104.379 23.4263 104.18C18.6435 100.248 13.4043 94.9627 8.77583 90.6717C8.50257 90.4148 8.16342 90.1392 7.81801 89.8585L7.53064 89.6243C7.73708 90.2629 7.98586 90.9602 8.20704 91.581C8.40469 92.1348 8.58193 92.6316 8.69519 92.9946L14.2046 109.464C15.243 112.589 16.24 115.67 17.2399 118.76C19.1659 124.712 21.1047 130.701 23.2095 136.608C23.6293 137.786 25.1646 139.076 26.5526 140.241C27.2538 140.83 27.9207 141.391 28.4139 141.906C28.9281 142.444 29.3378 142.811 29.8677 143.286L30.338 143.709C31.319 144.599 33.421 146.202 35.6613 147.839C38.5056 149.918 41.5575 152.043 42.8247 152.837L43.2234 153.087C45.2081 154.336 50.7811 157.843 51.919 158.041L52.0731 158.067L52.4643 158.422C53.4372 158.01 56.4847 156.265 59.2342 154.691C61.2311 153.548 63.0745 152.492 63.9498 152.062C63.7293 150.499 62.8744 146.076 62.0487 142.188C61.3685 138.983 60.7269 136.182 60.5208 135.772L49.0036 126.678Z" fill="#FDB502"/>
</svg>
