<svg width="245" height="41" viewBox="0 0 245 41" fill="none" xmlns="http://www.w3.org/2000/svg">
<path fill-rule="evenodd" clip-rule="evenodd" d="M28.369 40.8333H38.1966V39.1347C38.1966 39.1347 31.6628 38.8103 31.3514 32.2396V29.5678C31.3873 27.9929 32.5491 23.8406 35.8909 23.5398C33.196 23.0266 31.2735 20.2485 31.3454 17.5118C31.3454 17.5118 31.3454 16.8394 31.3454 14.5155C31.5011 6.94219 40.1968 7.00708 40.64 7.00708H40.7957C48.2817 7.00708 49.0663 12.9053 49.0663 13.2592H50.7192L50.1204 2.25902L49.9527 0H48.8148C48.8148 0 48.2159 1.93461 43.8441 1.93461H11.4086C7.0308 1.95231 6.43192 0 6.43192 0H5.30602L5.12037 2.27081L4.52148 13.2592H6.1744C6.1744 12.8876 6.96493 7.00708 14.439 7.00708H14.6067C15.0438 7.00708 23.7396 6.94219 23.8893 14.5155C23.8893 16.8394 23.8893 17.5118 23.8893 17.5118C23.9552 20.2485 22.0268 23.003 19.3319 23.5398C22.6676 23.8406 23.8355 27.9929 23.8774 29.5678V32.2396C23.5719 38.8103 17.0501 39.1406 17.0501 39.1406V40.8333H28.369Z" fill="#FF0000"/>
<path fill-rule="evenodd" clip-rule="evenodd" d="M55.415 23.5398C54.5885 22.254 51.2228 21.7703 50.2646 21.8942C51.109 20.7146 51.2048 18.6619 50.7497 17.3289C50.2107 15.7777 49.2105 15.5241 49.0908 17.1166C48.8692 20.1129 46.0963 21.9886 42.7306 21.6524C41.7364 21.5873 40.7939 21.1919 40.0574 20.5308C39.321 19.8698 38.834 18.9821 38.6763 18.0131C38.3768 16.3027 38.814 14.5745 40.7783 14.0967C42.3773 13.7134 43.4493 14.5863 43.5152 15.6657C43.617 17.3525 42.1497 16.7332 41.9282 17.8126C41.891 17.9919 41.8933 18.177 41.9348 18.3554C41.9765 18.5338 42.0565 18.7013 42.1694 18.8467C42.2824 18.992 42.4257 19.1118 42.5896 19.1979C42.7536 19.2841 42.9345 19.3347 43.1199 19.3461C46.2341 19.4582 47.1264 16.6271 46.7132 14.7102C46.4874 13.4703 45.8213 12.3499 44.8339 11.5492C43.8465 10.7485 42.6021 10.3198 41.3232 10.3395C37.9217 10.2629 34.6757 12.5219 34.6757 17.093C34.6549 18.3891 34.9817 19.6677 35.6232 20.7996C36.2645 21.9316 37.1979 22.8767 38.3289 23.5398C37.1859 24.1944 36.2399 25.1362 35.5875 26.2688C34.9352 27.4015 34.5999 28.6844 34.6158 29.9865C34.6158 34.5576 37.8618 36.8167 41.2634 36.74C42.5422 36.7598 43.7866 36.331 44.774 35.5303C45.7614 34.7296 46.4276 33.6093 46.6533 32.3694C47.0546 30.4525 46.1623 27.6508 43.06 27.7334C42.8746 27.7442 42.6938 27.794 42.5296 27.8794C42.3654 27.9649 42.2217 28.0841 42.1083 28.2288C41.9947 28.3735 41.914 28.5406 41.8716 28.7186C41.8292 28.8967 41.826 29.0817 41.8622 29.2611C42.0839 30.3522 43.5512 29.7211 43.4493 31.4198C43.3834 32.4874 42.3115 33.3662 40.7124 32.9887C38.7481 32.505 38.3169 30.771 38.6103 29.0664C38.7691 28.0979 39.2564 27.2108 39.9927 26.5499C40.729 25.889 41.6708 25.4933 42.6648 25.4272C46.0724 25.091 48.8692 26.9666 49.1087 29.9629C49.2285 31.5554 50.2287 31.3018 50.7677 29.7506C51.2228 28.4176 51.1269 26.3532 50.2826 25.1795C51.2228 25.3387 54.6065 24.8315 55.4329 23.5398" fill="#FF0000"/>
<path fill-rule="evenodd" clip-rule="evenodd" d="M0 23.5398C0.826456 22.2539 4.19217 21.7702 5.14439 21.8941C4.31195 20.7145 4.20415 18.6619 4.67128 17.3289C5.21027 15.7777 6.20441 15.5241 6.3182 17.1166C6.54578 20.1129 9.31264 21.9885 12.6843 21.6523C13.679 21.5901 14.6222 21.1957 15.3584 20.5339C16.0945 19.8722 16.5794 18.983 16.7328 18.0131C17.0382 16.3027 16.601 14.5686 14.6367 14.0967C13.0377 13.7133 11.9657 14.5863 11.9057 15.6657C11.798 17.3525 13.2592 16.7332 13.4928 17.8126C13.529 17.9923 13.5258 18.1775 13.4834 18.3559C13.4411 18.5342 13.3604 18.7017 13.247 18.8469C13.1337 18.992 12.99 19.1117 12.8258 19.1978C12.6616 19.2839 12.4807 19.3345 12.2951 19.3461C9.18689 19.4582 8.3005 16.6271 8.70175 14.7102C8.92629 13.4692 9.59191 12.3474 10.5794 11.5455C11.5669 10.7437 12.8119 10.3141 14.0917 10.3336C17.4994 10.2629 20.7393 12.5219 20.7393 17.093C20.754 18.3949 20.4181 19.6773 19.7659 20.8098C19.1137 21.9422 18.1683 22.8842 17.0262 23.5398C18.1691 24.1944 19.1151 25.1362 19.7675 26.2688C20.4199 27.4014 20.7552 28.6844 20.7393 29.9865C20.7393 34.5576 17.4994 36.8166 14.0917 36.7399C12.8129 36.7597 11.5685 36.331 10.5811 35.5304C9.59373 34.7297 8.92756 33.6093 8.70175 32.3694C8.30649 30.4524 9.18689 27.6508 12.2951 27.7275C12.48 27.741 12.6599 27.7927 12.8231 27.8794C12.9864 27.966 13.1291 28.0856 13.2422 28.2304C13.3552 28.3752 13.436 28.5418 13.4792 28.7194C13.5224 28.8969 13.527 29.0815 13.4928 29.261C13.2532 30.3462 11.792 29.721 11.8878 31.4198C11.9596 32.4874 13.0317 33.3662 14.6367 32.9887C16.595 32.5051 17.0322 30.771 16.7268 29.0663C16.5702 28.0979 16.0845 27.2103 15.349 26.5492C14.6135 25.8881 13.6719 25.4925 12.6783 25.4272C9.33657 25.091 6.53979 26.9607 6.31221 29.9629C6.19842 31.5614 5.20428 31.3018 4.6593 29.7505C4.19816 28.4175 4.29997 26.3532 5.1384 25.1854C4.19217 25.3623 0.826456 24.8315 0 23.5398Z" fill="#FF0000"/>
<path d="M78.9215 9.32507C81.5027 9.32507 84.6109 9.25429 85.7368 9.17761V15.4474C84.6109 15.3649 81.5027 15.2587 78.9215 15.2587H78.0591C78.0232 16.6271 78.0232 18.4319 78.0232 19.9772V27.9811C78.0232 30.4879 78.101 33.437 78.2148 34.5812H70.4652C70.5431 33.437 70.6509 30.4879 70.6509 27.9811V19.9831C70.6509 18.4319 70.615 16.6271 70.5431 15.2646H69.6748C67.1295 15.2646 64.0633 15.3708 62.9434 15.4533V9.17761C64.0633 9.25429 67.1355 9.32507 69.6748 9.32507H78.9215Z" fill="#295BB8"/>
<path d="M101.769 8.84741C109.812 8.84741 115.764 14.7102 115.764 21.9415C115.764 29.1727 109.812 35.0531 101.769 35.0531C93.7252 35.0531 87.8027 29.1963 87.8027 21.9415C87.8027 14.6867 93.7553 8.84741 101.769 8.84741ZM101.769 28.978C105.541 28.978 108.393 25.8401 108.393 21.9415C108.393 18.0427 105.541 14.8636 101.769 14.8636C97.9955 14.8636 95.1809 18.0014 95.1809 21.9415C95.1809 25.8814 97.9836 28.978 101.769 28.978Z" fill="#295BB8"/>
<path d="M134.833 22.4486L126.448 29.9335C125.07 31.1544 122.902 33.3308 121.249 35.0236H119.453C119.603 32.8825 119.639 30.5941 119.639 29.0488V15.9252C119.639 13.908 119.525 10.9531 119.453 9.33097H127.125C127.017 10.8823 126.945 13.8254 126.945 15.9252V20.9387L136.03 12.9761C137.449 11.7965 138.54 10.6994 140.366 8.84735H142.283C142.204 10.8351 142.127 13.9316 142.127 16.1788V29.2316C142.127 31.1898 142.204 33.549 142.283 34.5812H134.677C134.749 33.549 134.833 31.1898 134.833 29.2729V22.4486ZM131.868 4.52986C133.222 4.52986 134.042 3.76309 134.042 2.79578H139.617C139.617 6.04569 136.815 8.36959 131.868 8.36959C126.922 8.36959 124.227 6.04569 124.227 2.79578H129.778C129.778 3.76309 130.556 4.52986 131.868 4.52986Z" fill="#295BB8"/>
<path d="M156.518 9.32505C160.068 9.32505 161.159 9.32505 164.71 9.14221V14.6689C161.53 14.486 159.919 14.486 156.326 14.5214H154.87V19.2812H158.984C164.003 19.2812 167.153 22.3012 167.153 26.6127C167.153 31.3313 164.003 34.5812 158.457 34.5812H147.324C147.444 33.437 147.516 30.4879 147.516 27.9811V15.9606C147.516 13.8195 147.474 11.6489 147.366 9.32505H156.518ZM154.87 29.4557H157.116C159.098 29.4557 159.811 28.1639 159.811 26.9489C159.833 26.5981 159.776 26.2469 159.647 25.9194C159.519 25.5917 159.319 25.2952 159.064 25.0502C158.808 24.8051 158.502 24.617 158.166 24.4989C157.83 24.3808 157.472 24.3353 157.116 24.3655H154.87V29.4557Z" fill="#295BB8"/>
<path d="M184.163 8.84741C192.242 8.84741 198.171 14.7102 198.171 21.9415C198.171 29.1727 192.242 35.0531 184.163 35.0531C176.084 35.0531 170.209 29.1963 170.209 21.9415C170.209 14.6867 176.156 8.84741 184.163 8.84741ZM184.163 28.978C187.948 28.978 190.792 25.8401 190.792 21.9415C190.792 18.0427 187.948 14.8636 184.163 14.8636C180.378 14.8636 177.575 18.0014 177.575 21.9415C177.575 25.8814 180.384 28.978 184.163 28.978Z" fill="#295BB8"/>
<path d="M215.598 28.795C217.755 28.8567 219.851 28.0888 221.443 26.654V34.3924C219.317 34.5045 218.371 35.0235 214.927 35.0235C206.765 35.0235 201.303 29.1607 201.303 21.9001C201.303 14.6394 206.765 8.81189 214.927 8.81189C218.335 8.81189 219.27 9.36632 221.144 9.36632V17.3584C220.411 16.6282 219.536 16.0505 218.573 15.6594C217.608 15.2683 216.575 15.0718 215.533 15.0817C214.619 15.0658 213.711 15.2312 212.863 15.5681C212.016 15.905 211.245 16.4065 210.598 17.0428C209.952 17.6791 209.442 18.437 209.1 19.2715C208.756 20.106 208.588 20.9999 208.603 21.9001C208.588 22.8089 208.76 23.7115 209.106 24.5541C209.452 25.3968 209.967 26.1623 210.619 26.8053C211.272 27.4484 212.049 27.9558 212.903 28.2977C213.759 28.6395 214.675 28.8086 215.598 28.795Z" fill="#295BB8"/>
<path d="M238.905 28.795C241.06 28.8577 243.155 28.0895 244.744 26.654V34.3924C242.612 34.5045 241.678 35.0235 238.228 35.0235C230.071 35.0235 224.609 29.1607 224.609 21.9001C224.609 14.6394 230.071 8.81189 238.228 8.81189C241.636 8.81189 242.57 9.36632 244.451 9.36632V17.3584C243.715 16.6284 242.838 16.0508 241.873 15.6598C240.907 15.2688 239.871 15.0723 238.827 15.0817C237.914 15.0666 237.006 15.2325 236.16 15.5698C235.313 15.9071 234.543 16.4088 233.898 17.045C233.251 17.6812 232.743 18.4389 232.4 19.2729C232.058 20.107 231.889 21.0005 231.904 21.9001C231.891 22.8092 232.062 23.7119 232.409 24.5545C232.756 25.3972 233.271 26.1627 233.924 26.8057C234.577 27.4486 235.354 27.956 236.21 28.2977C237.066 28.6395 237.982 28.8085 238.905 28.795Z" fill="#295BB8"/>
</svg>
