<svg width="246" height="139" viewBox="0 0 246 139" fill="none" xmlns="http://www.w3.org/2000/svg">
<path d="M51.1405 128.082C51.3095 128.052 51.4636 128.006 51.5965 127.942L51.6499 127.916L51.7029 127.903C53.1851 127.556 54.664 125.936 55.9122 124.568C56.2899 124.154 56.6475 123.763 56.9973 123.416C57.7015 122.717 58.8568 121.715 60.0288 120.805C61.0215 120.033 62.0397 119.317 62.8287 118.888C63.4141 118.57 63.9402 118.267 64.4488 117.973C66.1219 117.008 67.6149 116.146 69.7874 115.534C71.4643 115.061 72.8411 114.763 74.2337 114.555C75.6177 114.347 77.0179 114.229 78.7484 114.116C81.054 113.964 84.7102 113.977 88.3961 114.097C92.2423 114.223 96.1143 114.465 98.5157 114.761C101.727 115.155 104.371 115.603 106.999 116.199C109.628 116.796 112.216 117.534 115.317 118.512C117.931 119.337 120.77 119.977 123.655 120.432C126.691 120.911 129.785 121.187 132.727 121.258C134.039 121.29 135.333 121.324 136.615 121.357C142.009 121.499 147.207 121.635 152.769 121.587C156.769 121.553 162.36 120.902 168.131 119.99C175.351 118.85 182.858 117.299 187.886 116.036C192.953 114.763 198.236 113.086 203.36 111.057C208.109 109.177 212.732 106.989 216.933 104.534C220.317 102.558 221.739 101.508 223.938 99.8844C224.586 99.4054 225.298 98.8798 226.01 98.3646C226.79 97.7994 227.744 96.9746 228.687 96.1148C229.649 95.2365 230.581 94.3406 231.313 93.6345C231.684 93.2772 232.105 92.8423 232.512 92.4028C232.947 91.9322 233.389 91.4323 233.751 91.0003L233.757 90.9943L238.52 85.4897C239.236 84.643 240.02 83.7439 240.814 82.8337C246.737 76.0443 253.215 68.6184 251.432 58.7149C250.992 56.2703 250.034 53.9201 248.817 51.7019C247.589 49.4657 246.099 47.3668 244.606 45.4395C243.52 44.0375 241.389 41.84 239.198 39.8547C237.294 38.129 235.354 36.5712 234.035 35.8509L233.975 35.8184L233.931 35.7767C232.949 34.8624 230.666 33.4798 228.122 32.0962C224.692 30.2313 220.805 28.377 218.957 27.6486C212.77 25.2094 207.008 24.3451 201.388 23.5022C194.779 22.5109 188.364 21.5487 181.63 18.1176C181.098 17.8466 180.483 17.5269 179.8 17.1725C175.559 14.9695 168.712 11.4139 165.535 10.9804L165.478 10.9726L165.437 10.9583C163.893 10.4268 162.076 10.2002 160.238 10.2047C158.166 10.2097 156.07 10.508 154.307 10.9943C150.073 12.1621 145.952 14.6073 142.133 17.5271C138.291 20.4642 134.754 23.8814 131.708 26.9691C130.472 28.2227 125.512 33.5368 121.377 38.1249C118.716 41.0786 116.406 43.7198 115.681 44.7504C115.635 44.8156 115.603 44.8638 115.576 44.9055C115.494 45.0288 115.439 45.1114 115.31 45.2497C114.029 46.6242 112.568 48.4353 111.072 50.2894C109.636 52.0697 108.168 53.8897 106.769 55.4315L106.77 55.4321L104.546 58.0933C103.986 58.8376 103.329 59.5526 102.674 60.2663C102.254 60.7245 101.833 61.1824 101.487 61.589L101.488 61.5901L101.255 61.8638C100.34 62.9398 99.4687 63.964 98.4807 65.0342L95.3566 68.4627C95.0524 68.8302 93.2579 70.7227 91.6322 72.3892C90.3804 73.6724 89.2164 74.8344 88.8834 75.0907C88.3284 75.518 87.8477 76.0278 87.341 76.5651L87.2769 76.6331L82.1027 81.232L82.0887 81.2421C76.9359 85.5271 72.8023 88.6009 68.4519 91.1965C64.0951 93.796 59.5315 95.9118 53.5233 98.2779C52.8632 98.5378 52.0089 98.8718 51.1028 99.1963V99.1983C50.246 99.505 49.3809 99.7859 48.681 99.9459C47.4787 100.439 46.0381 100.912 44.5743 101.312C43.0555 101.726 41.517 102.06 40.198 102.256L40.1698 102.258C39.7998 102.291 39.5437 102.311 39.2702 102.332C36.4873 102.546 31.989 102.891 31.1371 105.348C31.0164 105.697 30.8732 105.958 30.7376 106.205C30.5183 106.605 30.3243 106.959 30.4296 107.527C30.479 107.792 30.6113 108.051 30.7873 108.286C31.0083 108.581 31.2965 108.835 31.5826 109.024C32.2628 109.473 33.1044 109.646 33.969 109.677C34.8734 109.709 35.8101 109.584 36.6269 109.449C36.986 109.389 37.4716 109.304 37.9316 109.223C41.6473 108.569 43.5101 108.241 47.2985 110.79C47.8655 111.172 48.5318 111.729 49.1475 112.322C49.7543 112.907 50.3195 113.533 50.7012 114.069C51.4878 115.174 51.8882 115.973 52.3477 116.891C52.5467 117.288 52.7574 117.709 53.0248 118.201L53.0596 118.265L53.075 118.331C53.1708 118.746 53.2756 119.124 53.3773 119.49C53.7035 120.668 54.0002 121.739 53.8619 123.227C53.8199 123.68 53.7564 124.143 53.6642 124.576C53.5816 124.964 53.4743 125.338 53.3364 125.673C53.1338 126.166 52.9076 126.498 52.6777 126.836C52.5539 127.017 52.4287 127.201 52.3095 127.413L52.1987 127.61L50.418 128.029L50.5434 127.271C50.6277 126.762 50.7777 126.307 50.9255 125.859C51.0297 125.543 51.1328 125.231 51.2003 124.941C51.2939 124.538 51.3719 124.102 51.4233 123.665L51.4321 123.587L47.1693 126.439L47.1802 126.462C47.4483 127.019 48.0951 127.475 48.8432 127.771C49.6186 128.077 50.4785 128.201 51.1405 128.082ZM50.7272 104.9C50.7688 104.892 50.809 104.88 50.8478 104.865C50.9756 104.815 51.1068 104.73 51.2402 104.627C51.167 104.594 51.0937 104.595 51.028 104.618C50.9491 104.645 50.8729 104.703 50.8091 104.777C50.7763 104.816 50.7486 104.857 50.7272 104.9ZM195.771 57.1532C195.542 57.0925 195.304 56.9654 195.082 56.7926L194.674 56.4752L194.868 55.9978C195.219 55.1318 195.659 55.1502 196.355 55.1794C196.416 55.182 196.479 55.1847 196.515 55.1856L197.173 55.2015L197.182 55.86C197.186 56.1389 197.143 56.3673 197.064 56.5501L197.063 56.5497C196.938 56.8392 196.738 57.0257 196.487 57.1249L196.486 57.1226C196.258 57.2128 196.015 57.2177 195.771 57.1532ZM119.153 75.2325L119.153 75.2352C119.083 75.229 118.991 75.2207 118.926 75.22L118.216 75.2116L118.251 74.5055C118.276 74.0243 118.32 73.7157 118.581 73.4392C118.85 73.1535 119.19 73.0733 119.763 73.0983L120.466 73.1289L120.361 74.6208L120.168 74.805C119.672 75.2787 119.66 75.2777 119.153 75.2325ZM157.683 16.6129C157.396 16.8534 157.1 16.8855 156.625 16.9312L155.847 17.0061L155.878 16.2247C155.901 15.6624 155.951 15.3309 156.227 15.0507C156.523 14.7511 156.865 14.7067 157.45 14.7416L158.089 14.7797L158.092 15.4213C158.096 16.0164 157.997 16.3523 157.685 16.6145L157.683 16.6129ZM125.553 41.5793C125.249 41.793 124.907 41.8219 124.438 41.8288L123.708 41.8396L123.747 41.1116C123.775 40.6087 123.873 40.2273 124.154 39.949C124.471 39.635 124.892 39.5423 125.51 39.6836L126.019 39.8001L126.04 40.3232C126.066 40.9559 125.913 41.3263 125.553 41.5793ZM189.869 45.9954C189.812 46.6911 189.496 47.0876 188.491 47.006L187.998 46.9659L187.88 46.4841C187.765 46.0113 187.717 45.6285 187.867 45.2822C188.066 44.8218 188.455 44.601 189.172 44.6452L189.732 44.6797L189.819 45.3019C189.855 45.5532 189.886 45.7762 189.869 45.9954ZM189.122 45.8363C189.135 45.7944 189.141 45.774 189.12 45.8227C189.119 45.824 189.12 45.8285 189.122 45.8363ZM206.504 75.7575L206.508 75.7556C206.539 75.7332 206.529 75.7399 206.504 75.7575ZM207.306 76.8635C207.001 77.083 206.603 77.1402 206.179 77.1417L205.543 77.144L205.496 76.5074C205.454 75.9197 205.513 75.527 205.799 75.2314H205.802C206.112 74.9109 206.516 74.8532 207.136 74.9663L207.532 75.0386L207.66 75.4212C207.894 76.1166 207.719 76.5652 207.306 76.8635ZM92.2659 78.2645C92.028 78.3037 91.7554 78.2815 91.455 78.1949L90.972 78.0556L90.9596 77.5553C90.9459 77.0031 91.0824 76.6013 91.4008 76.3256C91.7174 76.0516 92.1352 75.9713 92.6846 76.061L93.1695 76.1402L93.2496 76.6257C93.2987 76.9234 93.2877 77.1894 93.2213 77.419L93.2206 77.4188C93.1529 77.6516 93.0348 77.8417 92.8698 77.9868C92.7046 78.1323 92.5021 78.2255 92.2659 78.2645ZM167.182 78.4611L167.183 78.4624C166.876 78.7232 166.499 78.7788 165.978 78.7606L165.413 78.7407L165.325 78.1852C165.227 77.5785 165.338 77.1264 165.663 76.8185C165.987 76.5115 166.443 76.4242 167.039 76.5445L167.552 76.6479L167.588 77.1654C167.632 77.7854 167.511 78.1796 167.182 78.4611ZM124.934 51.4659C124.619 51.7396 124.205 51.8257 123.659 51.7409L123.2 51.6697L123.097 51.219C123.025 50.9085 123.025 50.635 123.086 50.4001C123.146 50.1718 123.258 49.9847 123.416 49.8381C123.57 49.6955 123.756 49.6004 123.97 49.5513C124.237 49.4898 124.55 49.5052 124.889 49.5933L125.412 49.729L125.4 50.2677C125.389 50.8019 125.246 51.1949 124.934 51.4659ZM84.0848 89.3032C83.7524 89.583 83.3128 89.6487 82.7523 89.5409L82.2077 89.436L82.198 88.8798C82.1888 88.3433 82.2822 87.9468 82.5835 87.6545C82.8945 87.3529 83.3173 87.2577 83.9381 87.3533L84.4704 87.4353L84.5165 87.9742C84.5686 88.5839 84.4266 89.0155 84.0848 89.3032ZM72.0218 93.738C71.6975 93.9369 71.2663 93.984 70.8408 93.971L70.1616 93.9503L70.1768 93.2752C70.1845 92.9313 70.2437 92.5999 70.3776 92.3336C70.4732 92.1435 70.6029 91.9846 70.7727 91.8687C70.9583 91.7419 71.1756 91.6736 71.4282 91.6793C71.6368 91.6839 71.8633 91.7418 72.1076 91.8645L72.3484 91.9854L72.4423 92.2338C72.7226 92.9748 72.5021 93.4435 72.0218 93.738ZM114.122 83.8422C113.897 83.8699 113.646 83.8416 113.373 83.7496L112.98 83.6168L112.915 83.209C112.87 82.9228 112.878 82.6663 112.937 82.4452V82.4426C113 82.2068 113.119 82.0087 113.292 81.8521C113.464 81.6966 113.675 81.5972 113.922 81.5582H113.924C114.155 81.5219 114.414 81.5393 114.7 81.6155L115.149 81.7353L115.206 82.1935C115.243 82.4921 115.219 82.7659 115.139 83.0022V83.0049C115.062 83.2311 114.936 83.4206 114.764 83.566C114.585 83.7169 114.369 83.8116 114.122 83.8422ZM148.48 36.7491C148.154 37.0117 147.748 37.0538 147.168 36.9848L146.604 36.9176L146.566 36.3506C146.549 36.0929 146.568 35.8591 146.626 35.6528C146.7 35.3853 146.835 35.1671 147.03 35.0035C147.23 34.8368 147.473 34.7406 147.762 34.7213C147.961 34.708 148.183 34.7339 148.427 34.8017L148.912 34.9368L148.928 35.4413C148.947 36.0694 148.826 36.4709 148.48 36.7491ZM175.182 52.9542C174.947 52.9592 174.692 52.9012 174.421 52.7679L174.137 52.6277L174.06 52.321C173.928 51.7934 174.064 51.5361 174.242 51.199C174.268 51.1489 174.297 51.0952 174.325 51.034L174.53 50.5795L176.401 50.791L176.414 51.3901C176.421 51.7202 176.363 52.0217 176.242 52.2675C176.144 52.4661 176.006 52.6307 175.829 52.7519C175.646 52.8779 175.429 52.949 175.182 52.9542ZM154.247 50.3104L154.054 49.1697L154.48 48.9356C154.58 48.8807 154.647 48.8391 154.703 48.8038C155.102 48.5532 155.261 48.4529 155.932 48.5717L156.344 48.6447L156.467 49.0454C156.583 49.4228 156.626 49.6879 156.513 49.9976C156.4 50.3064 156.186 50.5075 155.798 50.7302L155.677 50.7995L154.356 50.9521L154.247 50.3104ZM235.686 39.8015C235.346 40.0387 234.933 40.0638 234.422 40.0123L233.842 39.9539L233.797 39.2231C233.776 38.8878 233.766 38.7446 233.845 38.5362C233.92 38.3377 234 38.262 234.138 38.1297C234.187 38.084 234.252 38.0211 234.335 37.9257L234.582 37.6406L236.107 37.8673L236.168 38.3895C236.251 39.0953 236.079 39.527 235.686 39.8015ZM104.841 74.7095C105.169 74.561 105.576 74.5382 106.042 74.7543L106.329 74.8868L106.415 75.1905C106.537 75.6211 106.47 76.0018 106.3 76.3032C106.179 76.5176 106.005 76.6881 105.808 76.8064C105.61 76.9257 105.383 76.9918 105.158 76.9964C104.847 77.003 104.543 76.8944 104.313 76.6528C104.086 76.4155 104.006 76.0499 104.076 75.6964C104.113 75.5134 104.191 75.3213 104.311 75.1515C104.44 74.9696 104.616 74.8113 104.841 74.7095ZM147.538 23.3453C147.259 23.7359 146.824 23.8898 146.128 23.7878L145.758 23.7334L145.603 23.3917C145.477 23.1122 145.419 22.8398 145.426 22.5916C145.433 22.2978 145.526 22.0396 145.698 21.8335C145.875 21.6227 146.118 21.4819 146.422 21.4295C146.659 21.3885 146.933 21.4051 147.236 21.4915L147.664 21.6135L147.726 22.0562C147.801 22.5884 147.777 23.0096 147.538 23.3453ZM131.284 50.4703C131.299 50.4398 131.315 50.4086 131.333 50.3715L131.509 49.9986L133.47 49.9137L133.521 50.574C133.543 50.8669 133.518 51.1304 133.447 51.36C133.365 51.6281 133.222 51.8459 133.021 52.0089C132.816 52.1748 132.57 52.2713 132.284 52.2931C132.057 52.3105 131.802 52.2777 131.521 52.1915L131.074 52.0538L131.039 51.5867C130.999 51.0367 131.133 50.7703 131.284 50.4703ZM176.227 99.5927C175.89 99.6734 175.495 99.6555 175.125 99.5709L174.616 99.4546L174.594 98.9313C174.584 98.6732 174.619 98.4478 174.69 98.2543C174.796 97.9699 174.973 97.7549 175.204 97.6054C175.417 97.4666 175.666 97.3942 175.933 97.3834C176.192 97.3728 176.469 97.4209 176.742 97.5219L177.085 97.6485L177.171 98.0063C177.231 98.2563 177.232 98.4799 177.187 98.678V98.6806C177.127 98.9447 176.992 99.1531 176.803 99.3124C176.641 99.4493 176.444 99.5406 176.227 99.5927ZM61.8947 98.898C61.6145 98.924 61.3178 98.8582 61.0268 98.6642L60.8717 98.5607L60.7911 98.3938C60.6473 98.0958 60.6246 97.7914 60.6913 97.5116L60.6887 97.511C60.751 97.2502 60.8929 97.0177 61.0875 96.8383C61.2741 96.6663 61.5109 96.5429 61.7719 96.4918C62.0759 96.4322 62.4109 96.4692 62.7337 96.6402L62.9633 96.7618L63.055 97.0041C63.1735 97.3172 63.1591 97.6627 63.0465 97.9672C62.962 98.1958 62.8206 98.4085 62.6384 98.5707C62.4378 98.7493 62.1845 98.8712 61.8947 98.898ZM184.514 61.9951C184.196 62.1603 183.797 62.2525 183.374 62.2047L182.802 62.1398L182.766 61.5651C182.739 61.1218 182.855 60.704 183.051 60.3887C183.186 60.1698 183.364 59.9919 183.568 59.8752C183.818 59.7316 184.098 59.6786 184.387 59.7424C184.626 59.7952 184.852 59.925 185.048 60.1467C185.201 60.3196 185.285 60.5145 185.308 60.7192C185.341 61.0028 185.255 61.2813 185.079 61.5227C184.944 61.707 184.749 61.8725 184.514 61.9951ZM228.216 43.7763C227.976 43.7752 227.718 43.7129 227.445 43.5783L227.132 43.4232L227.073 43.0805C227.032 42.8428 227.035 42.6257 227.075 42.4295C227.137 42.1224 227.284 41.8823 227.493 41.7032C227.688 41.5367 227.925 41.4345 228.187 41.3895C228.445 41.3454 228.734 41.3581 229.033 41.4185L229.585 41.5301L229.582 42.0902C229.581 42.4465 229.514 42.7712 229.384 43.0342C229.276 43.2513 229.125 43.4313 228.931 43.5629C228.726 43.7019 228.487 43.7776 228.216 43.7763ZM111.742 60.0486L111.769 58.8746L112 58.6769C112.607 58.1581 112.665 58.167 113.354 58.2721C113.443 58.2858 113.412 58.2821 113.481 58.2921L114.035 58.3725L114.135 60.0634L113.863 60.2852C113.779 60.3533 113.727 60.4001 113.685 60.4386C113.231 60.8495 113.185 60.8911 112.307 60.7364L111.729 60.6345L111.742 60.0486ZM201.156 35.429C200.769 35.4799 200.323 35.3837 199.931 35.0943L199.65 34.8865L199.655 34.5377C199.66 34.2286 199.724 33.968 199.834 33.7554C199.957 33.5167 200.132 33.339 200.344 33.2198C200.547 33.1058 200.776 33.0522 201.018 33.0559C201.282 33.0599 201.556 33.1325 201.821 33.2686L202.015 33.3686L202.115 33.5629C202.301 33.9226 202.323 34.2672 202.231 34.5674V34.57C202.154 34.8213 202 35.0276 201.795 35.1786C201.615 35.3108 201.395 35.3974 201.156 35.429ZM137.371 54.645C137.117 54.6657 136.835 54.6189 136.531 54.4919L136.191 54.3498L136.121 53.9887C136.042 53.5749 136.063 53.296 136.202 53.0087C136.323 52.7594 136.491 52.6001 136.747 52.3608L136.982 52.1416L138.567 52.3308L138.613 52.8906C138.641 53.2374 138.596 53.556 138.485 53.8231C138.39 54.0502 138.247 54.2408 138.06 54.3847C137.866 54.533 137.636 54.6235 137.371 54.645ZM172.126 38.6634C171.771 38.8326 171.327 38.8846 170.887 38.7656L170.473 38.6535L170.392 38.2331C170.309 37.7995 170.389 37.3995 170.57 37.0812C170.676 36.8957 170.816 36.7378 170.98 36.6158C171.151 36.4889 171.346 36.4011 171.554 36.3613C171.866 36.3015 172.199 36.3472 172.515 36.5267L172.7 36.6323L172.793 36.8264C172.952 37.1586 172.974 37.4828 172.895 37.7753C172.84 37.9785 172.736 38.1615 172.594 38.3179C172.462 38.4634 172.303 38.5814 172.127 38.6655L172.126 38.6634ZM88.4172 94.8544L87.7888 93.9589L87.9591 93.6006C88.0946 93.3157 88.2666 93.0822 88.4696 92.9175C88.6505 92.7709 88.8525 92.6774 89.073 92.6459C89.2995 92.6134 89.5293 92.6471 89.7579 92.7556C89.9714 92.8571 90.1801 93.025 90.3775 93.2679L90.5217 93.4454L90.5301 93.6747C90.5511 94.2471 90.4031 94.608 90.0674 94.8623L90.0661 94.8606C89.78 95.0768 89.4405 95.1328 88.9929 95.1434L88.6262 95.1521L88.4172 94.8544ZM114.189 102.3L113.138 102.167L112.991 101.788C112.896 101.542 112.864 101.308 112.883 101.089C112.91 100.791 113.027 100.536 113.211 100.328C113.375 100.143 113.587 100.003 113.827 99.9098C114.117 99.7976 114.456 99.7532 114.797 99.7834L115.254 99.824L115.392 100.257C115.66 101.103 115.486 101.29 115.068 101.74C114.996 101.818 114.908 101.912 114.821 102.029L114.584 102.349L114.189 102.3ZM129.731 63.5156C129.445 63.4162 129.365 63.3326 129.27 63.221L128.977 63.006L129.023 62.4594C129.044 62.1826 129.053 62.0564 129.167 61.8633C129.273 61.6837 129.365 61.6223 129.535 61.5098C129.581 61.4786 129.643 61.4376 129.733 61.3697L129.902 61.2422L130.119 61.2332C130.46 61.219 130.899 61.2362 131.218 61.4015C131.816 61.7123 132.063 62.2202 131.411 63.0558C131.284 63.2193 131.101 63.3552 130.909 63.4478C130.718 63.5399 130.496 63.5987 130.299 63.6052L130.181 63.6106C130.1 63.6146 130.064 63.616 129.985 63.6036H129.982C129.852 63.5826 129.793 63.5563 129.731 63.5156ZM158.86 59.9163L157.424 59.9168L157.333 59.3385C157.255 58.8454 157.362 58.3902 157.583 58.0551C157.685 57.9005 157.813 57.769 157.962 57.6671C158.12 57.5582 158.3 57.4847 158.495 57.454C158.816 57.4035 159.16 57.4706 159.492 57.6895L159.675 57.8104L159.754 58.0214C160.047 58.8011 159.899 58.9955 159.47 59.5615L159.202 59.9161L158.86 59.9163ZM177.421 86.7551L176.192 86.6351L176.068 86.1783C175.975 85.8323 175.974 85.5173 176.046 85.2424C176.114 84.9858 176.244 84.7695 176.424 84.5974C176.597 84.4324 176.809 84.3158 177.051 84.2507C177.359 84.1676 177.718 84.1712 178.095 84.2704L178.571 84.3955L178.604 84.8859C178.654 85.6325 178.5 85.8413 178.208 86.2369C178.165 86.2948 178.116 86.3603 178.055 86.4527L177.829 86.7949L177.421 86.7551ZM123.019 114.422L123.073 113.002L123.393 112.812C123.499 112.75 123.55 112.706 123.584 112.676C123.712 112.566 123.789 112.499 124 112.452C124.223 112.403 124.359 112.438 124.707 112.528L125.075 112.623L125.215 112.887C125.417 113.267 125.492 113.652 125.443 113.997C125.414 114.198 125.342 114.386 125.226 114.555V114.557C125.109 114.727 124.955 114.866 124.765 114.967C124.466 115.126 124.076 115.191 123.605 115.123L122.995 115.036L123.019 114.422ZM209.015 50.8358L208.403 50.8625L208.287 50.2884C208.206 49.882 208.218 49.5173 208.315 49.2133C208.392 48.9735 208.52 48.771 208.694 48.6117C208.869 48.4516 209.086 48.3427 209.342 48.2915C209.637 48.2321 209.979 48.2564 210.356 48.3775L210.797 48.5191L210.89 49.8124L210.607 50.129L210.608 50.1303C210.356 50.4126 210.225 50.5595 209.967 50.6811C209.702 50.806 209.48 50.8157 209.015 50.8358ZM179.74 29.8577C179.578 29.8612 179.405 29.8396 179.219 29.7891L178.861 29.6916L178.748 29.3421C178.652 29.0471 178.622 28.7705 178.649 28.5184V28.5158C178.682 28.2019 178.801 27.9301 178.99 27.7083C179.173 27.4942 179.414 27.3374 179.7 27.2446C179.971 27.1566 180.284 27.1269 180.622 27.1627L181.221 27.2263L181.235 27.8291C181.241 28.1113 181.213 28.3987 181.141 28.6619C181.058 28.9673 180.915 29.2435 180.702 29.4562C180.458 29.6996 180.141 29.8489 179.74 29.8577ZM234.664 65.8578C234.319 65.9725 233.906 65.9946 233.491 65.8916L233.043 65.78L232.977 65.3243C232.936 65.0331 232.949 64.7623 233.011 64.5202C233.087 64.225 233.234 63.9783 233.442 63.7899C233.654 63.5988 233.915 63.4767 234.218 63.4335C234.456 63.3994 234.721 63.4162 235.008 63.4895L235.262 63.5548L235.407 63.7706C235.584 64.0355 235.666 64.3043 235.671 64.563C235.677 64.8894 235.561 65.178 235.356 65.4125C235.182 65.6126 234.942 65.7655 234.664 65.8578ZM121.807 87.4478C121.81 87.4291 121.799 87.4963 121.829 87.2969L121.858 87.1051L121.982 86.9571C122.257 86.6288 122.526 86.4033 122.868 86.3176C123.27 86.2169 123.652 86.3168 124.067 86.6735L124.226 86.8093L124.282 87.008C124.35 87.2514 124.371 87.4837 124.35 87.6989C124.32 88.0016 124.208 88.2639 124.026 88.4755C123.846 88.6853 123.607 88.8355 123.32 88.9162C123.103 88.9774 122.857 88.9974 122.59 88.9709L122.25 88.9371L122.073 88.6497C121.709 88.0588 121.71 88.0563 121.807 87.4478ZM220.229 86.0224C219.905 86.1162 219.547 86.1082 219.209 85.9625L219.006 85.8745L218.891 85.6789C218.734 85.4125 218.627 85.1503 218.635 84.8375C218.643 84.4976 218.779 84.1781 219.118 83.8622C219.352 83.6434 219.617 83.5187 219.893 83.4685C220.19 83.4142 220.484 83.4519 220.752 83.5543L220.979 83.6409L221.1 83.8486C221.293 84.1788 221.347 84.5133 221.303 84.8225C221.259 85.1227 221.122 85.3886 220.925 85.5985C220.739 85.7966 220.496 85.9449 220.229 86.0224ZM132.081 101.688L130.807 101.617L130.654 101.188C130.377 100.41 130.561 99.836 130.918 99.4743C131.236 99.1524 131.687 99.0243 132.086 99.0737C132.543 99.1302 132.953 99.4048 133.107 99.8786C133.244 100.298 133.156 100.843 132.638 101.45L132.418 101.707L132.081 101.688ZM150.43 81.3502C150.301 81.3368 150.169 81.3096 150.034 81.2677L149.755 81.181L149.624 80.9225C149.432 80.5422 149.427 80.1434 149.553 79.7908C149.644 79.5374 149.805 79.3088 150.014 79.1319C150.221 78.9567 150.477 78.8313 150.759 78.7825C151.147 78.7154 151.575 78.7914 151.98 79.0797L152.305 79.311L152.264 79.7059C152.247 79.866 152.217 80.0166 152.173 80.1556L152.173 80.1554C152.055 80.5334 151.843 80.8466 151.55 81.0611C151.242 81.2866 150.863 81.3955 150.43 81.3502ZM110.622 115.395L109.588 115.29L109.417 114.963C109.109 114.376 109.157 113.931 109.418 113.533C109.621 113.224 109.913 113.034 110.249 112.82L110.5 112.659L111.677 112.966L111.814 113.257C112.282 114.252 111.833 114.635 111.273 115.113C111.248 115.135 111.224 115.155 111.144 115.226L110.921 115.425L110.622 115.395ZM187.915 76.6689C187.672 76.73 187.4 76.7355 187.102 76.6704L186.807 76.6058L186.655 76.3412C186.453 75.99 186.392 75.6351 186.44 75.3074C186.475 75.0711 186.568 74.8518 186.706 74.66C186.836 74.479 187.008 74.3255 187.21 74.2095C187.55 74.0139 187.977 73.9238 188.431 73.9909L188.885 74.0578L188.996 74.502C189.08 74.8358 189.088 75.1743 189.021 75.4787C188.961 75.7518 188.841 76.0028 188.663 76.209C188.472 76.4299 188.222 76.5919 187.915 76.6689ZM151.06 66.5278C150.573 66.9204 150.347 67.1029 149.468 66.6405L149.27 66.5361L149.171 66.3301C149.012 65.9983 148.96 65.6475 149.001 65.329C149.037 65.0416 149.149 64.776 149.325 64.5638C149.518 64.3327 149.779 64.1692 150.098 64.1088C150.366 64.0582 150.667 64.0842 150.991 64.2127L151.227 64.3063L151.344 64.5312C151.612 65.0442 151.603 65.1758 151.578 65.5459C151.572 65.6277 151.565 65.7276 151.564 65.8102L151.561 66.1745L151.262 66.3749C151.19 66.4227 151.12 66.479 151.06 66.5278ZM163.402 25.136L163.376 24.9074L163.465 24.7266C163.696 24.2594 163.949 24.0114 164.313 23.8862C164.631 23.7771 164.937 23.804 165.354 23.8707L165.677 23.9224L165.839 24.2025C166.442 25.2465 166.27 25.4383 165.717 26.0555C165.682 26.095 165.642 26.1401 165.55 26.2507L165.321 26.5285L164.017 26.4049L163.836 26.1608C163.811 26.1267 163.797 26.1105 163.745 26.0418C163.637 25.8992 163.578 25.8217 163.516 25.6733C163.443 25.5026 163.43 25.3884 163.402 25.1387V25.136ZM42.8827 106.278C42.4788 106.316 42.0862 106.183 41.6953 105.836L41.5354 105.694L41.4837 105.491C41.3007 104.77 41.5596 104.228 41.9722 103.906C42.2202 103.713 42.5252 103.609 42.824 103.6C43.1415 103.592 43.4601 103.69 43.7129 103.901L43.7142 103.9C44.0812 104.208 44.2904 104.718 44.1127 105.425L44.0646 105.616L43.9198 105.754C43.6044 106.055 43.2667 106.243 42.8827 106.278ZM226.858 54.9861C226.659 55.0046 226.445 54.9953 226.217 54.9558L225.835 54.8897L225.695 54.5249C225.544 54.1333 225.509 53.7848 225.565 53.4835C225.613 53.2288 225.724 53.0112 225.885 52.8314C226.037 52.6616 226.23 52.5343 226.452 52.4487C226.813 52.31 227.258 52.2854 227.725 52.3728L228.231 52.4675L228.279 52.9829C228.303 53.2348 228.297 53.4663 228.261 53.6733C228.199 54.0329 228.051 54.3359 227.812 54.5687C227.569 54.805 227.252 54.9495 226.858 54.9861ZM237.435 75.6859L236.292 75.5681L236.133 75.1996C235.96 74.7997 235.921 74.4208 235.989 74.0909C236.037 73.8577 236.137 73.6506 236.28 73.4765C236.424 73.3016 236.607 73.1648 236.819 73.0732L236.82 73.0754C237.137 72.9386 237.522 72.9001 237.941 72.9865L238.199 73.0397L238.353 73.2488C238.759 73.7987 238.746 73.891 238.67 74.4137C238.664 74.4525 238.658 74.4973 238.647 74.5838L238.621 74.8031L237.776 75.721L237.435 75.6859ZM106.443 106.425L106.775 106.563L106.857 106.901C106.903 107.094 106.917 107.283 106.902 107.462C106.874 107.806 106.743 108.129 106.534 108.388C106.32 108.655 106.023 108.853 105.671 108.938H105.669C105.503 108.978 105.331 108.993 105.157 108.979C104.274 108.906 104.016 108.468 104.064 107.884C104.096 107.5 104.332 107.152 104.533 106.856C104.59 106.772 104.643 106.695 104.668 106.648L104.839 106.328L105.201 106.29C105.275 106.282 105.379 106.266 105.458 106.253C105.601 106.231 105.685 106.218 105.838 106.234C106.029 106.253 106.149 106.302 106.443 106.425ZM152.804 43.0134C152.79 42.8886 152.787 42.7539 152.796 42.6092L152.811 42.3915L152.946 42.2238C153.151 41.9711 153.376 41.8271 153.64 41.7402C153.852 41.6703 154.062 41.6486 154.307 41.632L154.625 41.6103L155.848 42.9018L155.181 44.3158L154.802 44.3597C154.628 44.38 154.459 44.3854 154.299 44.3749C153.914 44.3495 153.58 44.2314 153.315 44.0081C153.032 43.7703 152.854 43.4418 152.804 43.0134ZM85.0362 107.502C84.6035 107.71 84.0754 107.742 83.5623 107.448L83.4014 107.355L83.3079 107.191C83.0055 106.658 83.0347 106.17 83.2426 105.77C83.357 105.55 83.5273 105.367 83.7252 105.227C83.9092 105.097 84.1198 105.002 84.3303 104.95C84.8024 104.833 85.3072 104.923 85.6294 105.263C85.9502 105.602 86.0265 106.022 85.9293 106.426C85.8741 106.655 85.7593 106.876 85.6018 107.063C85.4507 107.242 85.2567 107.396 85.0362 107.502ZM170.734 112.405C170.353 112.583 169.897 112.627 169.425 112.464L169.166 112.375L169.04 112.13C168.855 111.771 168.838 111.333 168.951 110.932C169.029 110.655 169.174 110.384 169.37 110.165C169.588 109.922 169.869 109.74 170.201 109.672C170.529 109.604 170.886 109.646 171.251 109.846L171.445 109.953L171.54 110.157C171.742 110.588 171.748 111.036 171.613 111.427L171.615 111.428C171.543 111.639 171.426 111.834 171.275 112.003C171.125 112.17 170.942 112.308 170.734 112.405ZM205.662 100.969C205.385 101.023 205.064 101.003 204.696 100.893L204.347 100.789L204.238 100.441C204.075 99.9206 204.048 99.4091 204.181 98.997C204.247 98.7911 204.352 98.6084 204.496 98.4564C204.648 98.297 204.836 98.1773 205.063 98.1063C205.394 98.0023 205.803 98.0103 206.291 98.1678L206.678 98.2927L206.755 98.6897C206.843 99.1502 206.846 99.5973 206.735 99.9686C206.661 100.214 206.541 100.429 206.368 100.602H206.366C206.181 100.787 205.948 100.914 205.662 100.969ZM148.31 85.8655C148.371 85.7519 148.439 85.6256 148.484 85.506L148.602 85.1898L148.923 85.0912C148.982 85.073 149.079 85.0384 149.161 85.0091C149.613 84.8474 149.755 84.7966 150.422 85.0258L150.844 85.1708L150.883 85.6145C150.914 85.9785 150.887 86.3376 150.796 86.6551C150.707 86.966 150.555 87.2423 150.334 87.4576C150.092 87.6934 149.784 87.8442 149.409 87.8767C149.186 87.896 148.943 87.8719 148.679 87.7963L148.439 87.7273L148.299 87.5207C147.81 86.7966 148.019 86.4071 148.31 85.8655ZM95.6645 101.447L95.3214 100.527L95.4324 100.275C95.5229 100.069 95.633 99.8862 95.7582 99.7295C95.9996 99.4271 96.2952 99.2207 96.6198 99.1227C96.9678 99.0176 97.335 99.0372 97.6938 99.1949C97.8344 99.2567 97.9725 99.3404 98.1057 99.4466L98.3138 99.6125L98.3548 99.8775C98.4094 100.23 98.4011 100.546 98.3324 100.819C98.2562 101.12 98.1105 101.373 97.898 101.567C97.6859 101.762 97.4193 101.888 97.1015 101.937C96.8162 101.981 96.4937 101.962 96.1384 101.872L95.7905 101.784L95.6645 101.447ZM96.8186 100.594C96.8453 100.593 96.8699 100.591 96.8926 100.588C96.9328 100.582 96.959 100.573 96.9715 100.561C96.9836 100.55 96.9946 100.525 97.0043 100.487C97.0084 100.47 97.0119 100.453 97.0148 100.434C96.9551 100.453 96.8915 100.502 96.8292 100.581L96.8186 100.594ZM56.3085 112.112C56.3208 112.072 56.34 112.01 56.3719 111.861L56.4275 111.604L56.6424 111.449C56.713 111.398 56.8085 111.319 56.8996 111.243C57.4625 110.773 57.9229 110.389 58.8673 110.903L59.0676 111.012L59.1618 111.219C59.3977 111.736 59.3484 111.939 59.2747 112.242C59.2614 112.296 59.2458 112.36 59.2413 112.444L59.2219 112.798L58.9173 112.987C58.8074 113.055 58.7255 113.14 58.643 113.226C58.5768 113.294 58.5101 113.364 58.439 113.428L58.267 113.582L58.0346 113.601C57.8954 113.613 57.8394 113.62 57.793 113.626C57.2856 113.692 57.2023 113.703 56.6336 113.29L56.4461 113.154L56.3792 112.931C56.3362 112.788 56.3302 112.77 56.326 112.758C56.2777 112.612 56.2557 112.546 56.257 112.403C56.2581 112.277 56.2761 112.218 56.3085 112.112ZM135.644 115.236C135.236 115.392 134.743 115.445 134.267 115.363L133.819 115.286L133.715 114.844C133.621 114.441 133.652 114.038 133.78 113.686C133.88 113.41 134.04 113.164 134.247 112.969C134.462 112.766 134.725 112.619 135.025 112.549C135.344 112.474 135.697 112.49 136.065 112.623L136.261 112.695L136.384 112.862C136.593 113.147 136.7 113.433 136.725 113.709C136.759 114.091 136.64 114.426 136.413 114.703C136.222 114.935 135.954 115.117 135.644 115.236ZM135.222 113.933C135.245 113.922 135.267 113.91 135.286 113.898C135.263 113.907 135.242 113.919 135.222 113.933ZM149.236 109.636C149.269 109.632 149.299 109.622 149.325 109.609C149.354 109.595 149.382 109.572 149.408 109.544C149.432 109.517 149.451 109.486 149.464 109.452C149.47 109.438 149.474 109.423 149.477 109.408L149.459 109.41C149.422 109.414 149.377 109.444 149.317 109.513C149.272 109.565 149.247 109.606 149.236 109.636ZM149.936 110.83C149.531 111.032 149.034 111.079 148.522 110.883L148.337 110.812L148.217 110.65C148.011 110.371 147.875 110.057 147.865 109.704C147.855 109.342 147.976 108.976 148.284 108.619C148.594 108.26 148.924 108.095 149.293 108.05C149.614 108.011 149.915 108.072 150.243 108.171L150.521 108.255L150.655 108.522C150.901 109.013 150.906 109.515 150.744 109.939C150.67 110.132 150.562 110.308 150.425 110.459C150.29 110.609 150.125 110.735 149.936 110.83ZM76.0708 100.753C76.1184 100.749 76.1644 100.739 76.2073 100.724C76.2606 100.705 76.3049 100.677 76.3343 100.645C76.3469 100.631 76.3549 100.617 76.3563 100.605C76.3587 100.583 76.3566 100.558 76.3491 100.53L76.3285 100.536C76.2325 100.567 76.1599 100.609 76.1169 100.662C76.0964 100.687 76.0808 100.717 76.0708 100.753ZM76.6732 102.008C76.2008 102.179 75.6242 102.164 75.1237 101.894L74.8777 101.762L74.7943 101.498C74.7173 101.255 74.6854 101.018 74.6931 100.793C74.7063 100.405 74.8379 100.067 75.0619 99.7946C75.2777 99.5317 75.5706 99.3395 75.9161 99.2303C76.1577 99.1541 76.4301 99.1184 76.7229 99.1283L77.0272 99.1386L77.2237 99.3718C77.6304 99.8545 77.7646 100.332 77.7166 100.754C77.6809 101.069 77.549 101.341 77.3518 101.56C77.1716 101.76 76.9362 101.913 76.6732 102.008ZM65.0565 107.143C64.9856 107.215 64.9145 107.287 64.8814 107.323L64.6813 107.542L64.3833 107.545C64.3103 107.546 64.2221 107.55 64.1502 107.553C63.5797 107.579 63.5576 107.58 63.0172 107.095L62.8621 106.956L62.811 106.747C62.6715 106.177 62.7707 105.645 63.0202 105.24C63.1314 105.059 63.2765 104.9 63.4479 104.772C63.6207 104.642 63.8177 104.547 64.0313 104.495C64.4463 104.394 64.9104 104.452 65.3596 104.728L65.5285 104.832L65.6167 105.015C66.125 106.066 65.5991 106.598 65.0592 107.143H65.0565ZM64.1223 106.142C64.2307 106.032 64.3321 105.923 64.3791 105.818C64.3699 105.819 64.3611 105.82 64.3526 105.823C64.3224 105.83 64.2935 105.844 64.2673 105.864C64.2399 105.884 64.2128 105.916 64.1876 105.957C64.1556 106.009 64.133 106.071 64.1223 106.142ZM51.3405 106.139C50.9128 106.305 50.4454 106.344 49.905 106.163L49.6779 106.087L49.5489 105.89C49.3182 105.538 49.2642 105.138 49.3411 104.753C49.4032 104.441 49.5562 104.139 49.7702 103.889C49.9833 103.64 50.264 103.439 50.5835 103.328C50.963 103.196 51.3871 103.193 51.8101 103.386C52.5975 103.746 52.5903 104.154 52.5789 104.788C52.5779 104.847 52.5768 104.91 52.5773 104.967L52.5799 105.283L52.3416 105.489C52.0379 105.752 51.7216 105.991 51.3405 106.139ZM49.395 122.917C50.1676 122.479 50.8922 122.098 51.3859 121.898C51.1463 120.485 50.8689 119.293 50.3938 118.177C49.8504 116.902 49.0391 115.709 47.7129 114.371C46.4438 113.091 45.214 112.185 43.8457 111.677C42.4839 111.171 40.9627 111.051 39.1011 111.34C38.5129 111.431 38.1812 111.484 37.8873 111.573C37.6043 111.66 37.3124 111.797 36.7929 112.061C35.6229 112.656 34.4895 113.148 33.3079 113.53C32.1271 113.912 30.9078 114.18 29.5682 114.326C28.1248 114.482 26.1201 114.503 23.8371 114.527C15.0437 114.617 1.98624 114.752 2.04176 123.05C2.05255 124.664 2.58162 126.035 3.40405 127.228C4.24616 128.449 5.39728 129.491 6.62185 130.419C8.2607 131.661 9.46156 132.196 10.8561 132.818C11.3766 133.05 11.9238 133.294 12.5545 133.602C12.7818 133.713 13.0509 133.872 13.3332 134.038L13.5528 134.167C13.4798 133.93 13.3972 133.692 13.3063 133.457C13.0895 132.897 12.8247 132.359 12.5286 131.9C11.819 130.799 11.2798 130.352 10.9287 130.061C10.5224 129.723 10.2908 129.531 10.2436 129.015L10.198 128.517L10.6955 128.459C11.3133 128.387 11.9967 128.642 12.6249 129.033C13.3996 129.516 14.1163 130.222 14.4835 130.734C14.8973 131.31 15.2654 131.931 15.5754 132.586C15.8722 133.212 16.1144 133.873 16.2911 134.559L16.2952 134.569L17.3423 139.01L17.3463 139.047C17.3996 139.538 17.3676 139.736 17.3391 139.912C17.31 140.092 17.2866 140.237 17.5781 141.403C17.9873 143.041 18.7655 144.397 19.8639 145.419C20.961 146.441 22.3842 147.137 24.0848 147.458C25.6041 147.744 26.9654 147.695 28.2318 147.339C29.5038 146.982 30.6901 146.312 31.8532 145.359C34.1023 143.514 34.9443 140.988 35.8635 138.229C37.1971 134.228 38.6861 129.76 44.6271 125.938C44.7435 125.863 44.8363 125.772 44.9273 125.683C45.0661 125.547 45.2022 125.414 45.4191 125.285C45.5619 125.2 45.6681 125.141 45.7743 125.082C45.927 124.998 46.0804 124.913 46.2275 124.82C46.9735 124.349 48.2426 123.568 49.395 122.917ZM238.883 13.6714L236.871 12.4652L236.812 12.3889C236.67 12.2049 235.837 11.7635 234.786 11.2561C232.904 10.3475 230.387 9.29016 229.658 8.99473C228.31 8.44854 226.912 7.95129 225.511 7.48846C224.097 7.02116 222.695 6.59353 221.339 6.18624C215.247 4.35725 207.835 2.98198 200.483 2.53614C194.065 2.14701 187.697 2.46564 182.304 3.80893C180.778 4.18888 178.206 4.97482 175.698 5.82445C173.489 6.57299 171.341 7.3668 170.018 7.97013C169.591 8.16472 168.855 8.42859 168.114 8.69372C167.82 8.79917 167.525 8.90491 167.252 9.00497C167.468 9.06838 167.709 9.12785 167.94 9.18505C168.274 9.26744 168.591 9.3459 168.848 9.44222C169.076 9.52786 169.339 9.64385 169.622 9.76843C170.214 10.0292 170.899 10.3308 171.241 10.364L171.446 10.3839L171.58 10.5386C171.622 10.5867 175.105 12.3397 178.202 13.8751C180.516 15.0225 182.579 16.0245 182.771 16.0632L182.903 16.0899L183.004 16.1756C183.442 16.5493 184.788 17.1255 186.358 17.7108C188.733 18.5961 191.579 19.4782 192.665 19.7479C195.407 20.4286 198.147 20.8415 200.974 21.2677C201.962 21.4165 202.96 21.5671 204.106 21.7538C209.074 22.5634 212.064 23.0681 214.967 23.8835C217.873 24.6996 220.675 25.8225 225.264 27.867C230.75 30.3117 236.564 34.0358 241.545 38.5842C245.967 42.6224 249.737 47.314 252.046 52.3435C252.192 52.6606 252.312 52.9896 252.432 53.3202C252.478 53.445 252.523 53.5701 252.57 53.6933C252.652 53.3993 252.739 53.0629 252.828 52.7047C253.226 51.1055 253.635 49.12 253.755 48.419L253.796 48.1827C254.237 45.6179 254.574 43.6596 254.442 40.9925C254.382 39.7682 254.278 38.6023 254.108 37.4419C253.937 36.283 253.702 35.1415 253.378 33.9672C253.244 33.4803 253.104 32.9769 252.931 32.3976C252.775 31.8774 252.608 31.3604 252.425 30.8591C252.345 30.6417 252.245 30.35 252.137 30.0336C251.874 29.2641 251.557 28.3397 251.333 27.919L251.314 27.8829C251.002 27.1682 250.651 26.3992 250.28 25.659C249.908 24.9192 249.51 24.195 249.099 23.5609C248.121 22.0499 247.334 21.0658 246.243 19.6991L246.244 19.6981L246.228 19.6773H246.226C245.665 18.9751 243.853 17.2823 242.116 15.8598C240.807 14.7878 239.567 13.8857 239.005 13.7256L238.944 13.708L238.883 13.6714ZM45.2523 128.478C45.1495 128.366 45.0718 128.272 45.0185 128.19C44.3468 128.709 43.7692 129.278 43.1834 129.856C42.793 130.241 42.3989 130.629 41.9837 131L40.2107 133.48C39.5807 134.579 39.1893 135.714 38.7765 136.912C38.6634 137.24 38.5485 137.573 38.3897 138.011L37.9909 139.175V139.177L37.9161 139.401C37.6469 140.214 36.8883 142.504 36.2268 143.618L36.2181 143.632L33.9033 146.684L33.878 146.708C31.6104 148.864 28.6346 149.953 25.6715 149.999C22.6749 150.044 19.6868 149.021 17.4537 146.953C16.8098 146.357 16.2444 145.55 15.8065 144.674C15.3508 143.762 15.0258 142.764 14.8888 141.842L14.8898 141.841L14.4796 139.557C14.3589 138.469 14.2659 137.84 13.9714 137.404C13.6746 136.964 13.1135 136.623 12.0481 136.099C11.4708 135.815 10.8346 135.527 10.191 135.235C8.79277 134.6 7.35936 133.95 6.16491 133.173C4.96045 132.389 3.82089 131.456 2.86045 130.364C2.00682 129.393 1.29536 128.295 0.805683 127.064L0.533339 126.419L0.523282 126.396C0.18945 125.489 0.00918214 124.391 0.000340834 123.299C-0.00825758 122.238 0.145689 121.175 0.478404 120.288L0.515768 120.188C0.819238 119.378 1.09725 118.635 1.68238 117.905C1.78337 117.779 1.87484 117.688 1.95956 117.603C2.02363 117.54 2.08262 117.481 2.11002 117.442C2.26358 117.245 2.4164 117.047 2.56952 116.849L2.5955 116.824C4.47583 115.021 7.04919 113.922 9.79616 113.246C12.5029 112.579 15.3815 112.322 17.9197 112.204C19.3439 112.137 20.7823 112.078 22.2396 112.06C23.6989 112.042 25.1536 112.066 26.5891 112.165C27.5134 112.228 29.6946 112.192 31.5371 111.947C31.68 111.928 31.8204 111.908 31.9576 111.887C31.7807 111.845 31.6096 111.799 31.4445 111.748C30.4142 111.429 29.6073 110.922 29.0509 110.253C28.4817 109.568 28.1818 108.727 28.1793 107.754C28.1779 107.211 28.2701 106.629 28.4608 106.015C28.7242 105.166 29.2115 104.462 29.6808 103.784L29.7698 103.656C31.7881 100.731 35.7452 100.348 38.9438 100.038L39.2276 100.011C39.9623 99.9391 40.723 99.8283 41.4876 99.6828C42.2455 99.5386 43.0057 99.3594 43.7465 99.1495C45.1283 98.7579 46.5161 98.3136 47.8945 97.8445C49.2918 97.369 50.6572 96.8763 51.9938 96.3879C55.2796 95.1876 58.6532 93.7847 61.929 92.1924C64.8756 90.76 67.7395 89.1758 70.3838 87.4499L70.3841 87.4504L72.8634 85.8187L72.8631 85.8183C73.0008 85.7262 73.1359 85.6342 73.2732 85.5396L73.686 85.2519C73.7832 85.1842 73.9601 85.0636 74.1414 84.9401C74.494 84.6997 74.8626 84.4483 75.2531 84.1543C78.4146 81.7733 81.3907 79.3192 84.2515 76.7379C87.114 74.1551 89.8596 71.4466 92.5588 68.5582C92.7012 68.4057 92.8735 68.2121 93.0468 68.0173C93.3391 67.6886 93.6354 67.3556 93.9315 67.0706C94.7057 66.3258 96.2898 64.5677 97.9893 62.6284C100.432 59.8414 103.112 56.6798 103.98 55.6022L103.984 55.5962L111.367 46.6678L111.368 46.6684C111.605 46.3754 111.984 45.9061 112.388 45.4055C114.388 42.928 117.138 39.5202 118.934 37.6291L121.476 34.6742L121.494 34.6542C122.247 33.861 122.934 33.0782 123.622 32.2951C124.566 31.2209 125.51 30.1458 126.598 29.0639C127.44 28.2261 128.18 27.445 128.913 26.67C129.897 25.6312 130.871 24.6025 131.932 23.5891C133.822 21.7842 135.711 19.9825 137.7 18.2659C139.692 16.5471 141.777 14.9205 144.049 13.4751C145.258 12.7057 146.397 12.0226 147.568 11.3971C148.747 10.7678 149.956 10.1979 151.297 9.65939C153.163 8.90963 155.275 8.34828 157.41 8.05771C159.424 7.78374 161.462 7.7499 163.341 8.0246C163.86 8.10034 164.156 8.13175 164.422 8.09932C164.694 8.06616 164.984 7.96304 165.484 7.77049C166.168 7.50696 166.782 7.24415 167.386 6.96834C167.944 6.71379 168.569 6.41006 169.256 6.07512C171.584 4.94001 174.59 3.76538 177.645 2.77961C180.576 1.83361 183.554 1.0622 186.019 0.667877C190.336 -0.0226535 195.506 -0.14146 200.664 0.145715C206.369 0.463477 212.071 1.27907 216.59 2.36733C221.798 3.62123 227.462 5.22354 232.78 7.47884C238.125 9.7458 243.126 12.6741 246.979 16.5738C249.067 18.6877 250.646 20.7666 251.944 23.0428C253.239 25.3154 254.248 27.7733 255.198 30.6516C256.363 34.1805 256.928 37.202 256.994 40.2632C257.059 43.3162 256.625 46.389 255.792 50.0307L255.788 50.0428L254.133 56.4654C253.869 57.5646 253.982 58.5485 254.11 59.6759C254.341 61.6973 254.621 64.1511 253.079 68.5696C250.86 74.927 246.595 79.7511 242.333 84.5735C241.322 85.7177 240.31 86.8617 239.295 88.0657L239.294 88.0649C238.4 89.125 237.476 90.1544 236.555 91.182C235.739 92.0912 234.925 92.9993 234.114 93.9491C232.887 95.3869 231.247 96.8234 229.694 98.1846C229.273 98.554 228.858 98.9176 228.374 99.3523C227.602 100.045 226.641 100.803 225.632 101.549C224.381 102.474 223.072 103.369 221.959 104.096C214.459 108.996 206.54 112.578 198.33 115.334C190.136 118.085 181.654 120.011 173.01 121.604C167.223 122.671 162.423 123.339 157.623 123.708C152.829 124.077 148.023 124.148 142.223 124.022C141.339 124.003 140.462 123.99 139.58 123.977C136.871 123.938 134.129 123.898 131.525 123.686C129.85 123.55 128.218 123.408 126.564 123.226C124.916 123.044 123.269 122.825 121.579 122.536C118.986 122.091 116.799 121.452 114.423 120.759C113.976 120.629 113.525 120.497 112.736 120.272C112.167 120.11 111.58 119.922 111 119.736C110.208 119.483 109.428 119.233 108.599 119.028C106.262 118.45 103.909 117.976 101.544 117.599C99.1836 117.223 96.7955 116.941 94.3838 116.743C92.4062 116.581 90.4983 116.545 88.5941 116.509C86.9645 116.478 85.3372 116.447 83.7191 116.344C80.3709 116.13 76.9652 116.262 73.6967 116.895C70.8029 117.455 68.016 118.41 65.4726 119.866C64.5566 120.39 63.5156 121.009 62.5334 121.668C61.5519 122.327 60.6133 123.035 59.8873 123.746L59.8793 123.752L57.7834 125.734L57.784 125.735C57.5324 125.997 57.2722 126.274 57.017 126.546C54.5766 129.15 52.5576 131.303 48.0863 130.155C47.7196 130.061 47.3657 129.932 47.0385 129.781C46.6887 129.62 46.3596 129.43 46.0706 129.228C45.9563 129.148 45.8194 129.031 45.6856 128.908C45.5135 128.749 45.3525 128.586 45.2523 128.478Z" fill="#029347"/>
</svg>
