<svg width="205" height="42" viewBox="0 0 205 42" fill="none" xmlns="http://www.w3.org/2000/svg">
<path fill-rule="evenodd" clip-rule="evenodd" d="M1.92372 4.19316C1.92372 5.02329 4.15023 8.29093 4.72181 8.29093C5.26186 8.29093 6.78781 7.30449 7.49248 7.01581C10.5807 5.75095 14.5265 5.09788 17.9197 5.71337C23.5637 6.73723 23.7839 11.3417 23.7839 16.4866C16.9544 14.8656 5.72819 14.7597 1.47345 21.3728C0.253019 23.2697 0 25.3532 0 27.711C0 39.6287 15.0931 40.1889 23.6788 38.2939C24.9683 38.0093 25.964 37.759 27.1698 37.3962C28.6762 36.943 29.7299 36.8184 29.7299 35.5503V14.1704C29.7299 -7.7379 1.92372 1.62065 1.92372 4.19316ZM17.3133 10.2508C17.3133 12.3571 20.2863 12.3308 20.2863 10.2508C20.2863 8.32543 17.3133 8.32543 17.3133 10.2508ZM167.887 17.3774C167.887 23.0737 173.306 23.5354 177.44 24.5707C182.756 25.9019 180.035 31.2033 175.134 30.495C171.27 29.9364 171.889 29.6594 168.936 28.0673C167.325 30.5188 166.327 30.8774 170.708 32.6756C175.82 34.7739 183.801 33.4749 183.801 27.1765C183.801 23.6399 181.107 22.261 178.404 21.4504C177.228 21.0979 175.75 20.9395 174.007 20.407C168.964 18.8664 171.577 14.8831 174.532 14.8831C177.746 14.8831 178.537 14.8747 181.527 16.4866C183.407 13.6271 183.713 13.6398 180.107 12.4106C174.915 10.6411 167.887 12.0815 167.887 17.3774ZM146.726 13.1014V24.1477C146.726 27.0864 147.294 29.4635 148.778 30.9652C151.111 33.325 152.96 33.5905 156.344 33.5905C159.009 33.5905 161.767 32.751 163.514 31.8088V12.2106C162.343 11.9325 161.364 11.9325 160.192 12.2106V29.849C159.267 29.9274 158.889 30.2639 157.05 30.3902C155.264 30.5127 152.768 30.6358 151.444 28.962C149.565 26.5857 150.223 22.5636 150.223 18.9809C150.223 17.7337 150.223 16.4866 150.223 15.2394C150.224 11.6813 150.742 12.0324 147.425 12.0324C146.888 12.0324 146.726 12.5544 146.726 13.1014ZM127.314 4.19316V33.056C128.486 33.3341 129.465 33.3341 130.637 33.056C130.637 31.156 130.646 29.2537 130.636 27.3541C130.628 25.701 130.329 25.2547 132.735 23.6132C133.271 24.428 134.036 25.2965 134.698 26.0677C135.052 26.4809 135.395 26.9478 135.707 27.3558L139.726 32.3481C140.616 33.5537 141.098 33.2341 143.578 33.2341C145.088 33.2341 142.904 31.1477 142.253 30.3083C141.398 29.2075 140.686 28.3525 139.832 27.2517C139.12 26.3352 135.203 21.8602 135.009 21.1189L141.698 14.3931C144.379 11.6617 143.889 12.0324 140.43 12.0324C139.385 12.0324 136.345 15.5709 135.49 16.442L130.637 21.1189V4.19316C129.702 3.97119 128.25 3.82306 127.314 4.19316ZM187.648 4.72764V32.5215C187.648 33.4872 188.872 33.2341 190.097 33.2341C191.54 33.2341 191.146 32.0244 191.146 29.6708V15.7739C193.461 14.6423 198.78 13.9717 200.561 17.0502C201.715 19.0461 201.304 27.8782 201.288 30.9186C201.275 33.5087 201.024 33.2341 203.737 33.2341C204.21 33.2341 204.22 33.1491 204.612 33.056C204.694 32.6961 204.75 32.1008 204.787 31.3623V21.6909L204.787 21.6534C204.787 17.475 203.874 14.1411 200.414 12.5674C198.319 11.6144 197.402 11.6761 195.168 11.6761C193.478 11.6761 192.465 12.2538 191.146 12.5669L191.16 5.4258C191.17 3.75423 190.833 4.01498 188.348 4.01498C187.938 4.01498 187.648 4.31058 187.648 4.72764ZM88.3153 12.9232V32.3433C88.3153 32.9193 88.9502 33.2341 89.5395 33.2341C97.7432 33.2341 96.3599 34.6356 96.3599 25.9294C96.3599 23.0193 96.3599 20.1093 96.3599 17.1992C97.4792 17.1043 97.4561 16.8429 99.158 16.8429C100.551 16.8429 100.504 17.146 101.781 16.8429L101.956 11.8543C101.956 10.496 101.5 10.373 100.289 10.1671C97.3299 9.66392 94.54 9.82306 91.6968 10.6669C90.1016 11.1403 88.3153 11.5918 88.3153 12.9232ZM48.9669 25.9294C48.9669 24.1306 50.1167 24.3259 52.1148 24.3259C52.5871 24.3259 52.597 24.4109 52.9892 24.504V27.3547C51.2959 27.3547 48.9669 27.7501 48.9669 25.9294ZM41.9717 12.5669C41.9717 13.0825 43.9776 17.3693 44.295 17.6995C45.2009 18.6417 45.7153 16.8429 50.1911 16.8429C52.0517 16.8429 52.9892 17.6142 52.9892 19.5154C48.8123 19.5154 40.7475 18.7233 40.7475 26.1075C40.7475 28.908 42.0238 30.8414 43.6915 32.0165C47.4679 34.6775 55.2316 33.8416 59.5367 32.7779C60.4367 32.5556 61.0338 32.3134 61.0338 31.2743V20.5844C61.0338 14.4194 58.2914 9.89442 51.9399 9.89442C49.2184 9.89442 48.3691 9.90023 45.6786 10.6422C45.0008 10.8291 41.9717 11.9401 41.9717 12.5669ZM111.575 24.6822C111.575 22.7044 111.205 18.516 112.162 17.6199C113.112 16.7318 115.245 16.8761 115.889 17.971C116.413 18.8629 116.296 21.8708 116.296 23.0787C116.296 24.9067 116.122 26.1594 114.57 26.4996C113.235 26.7924 111.575 26.2517 111.575 24.6822ZM103.355 20.4062C103.355 24.6424 103.126 28.1271 105.931 30.966C108.948 34.0193 114.526 34.413 118.551 33.0366C121.961 31.8707 124.341 28.6679 124.341 24.504C124.341 21.463 124.681 17.8404 123.468 15.0599C120.691 8.69365 110.083 8.49562 105.931 12.6971C104.158 14.4923 103.355 16.887 103.355 20.4062ZM72.0513 22.5442C72.0513 19.4222 71.6401 16.4358 75.5952 17.1521C76.1267 17.2484 76.4234 17.1447 76.4234 17.7337V25.0385C76.4234 25.921 74.7988 25.7512 73.975 25.7512C72.4766 25.7512 72.0513 24.1238 72.0513 22.5442ZM74.5372 41.9643H72.4144C70.8704 41.88 69.4087 41.6177 68.224 41.2312C63.1896 39.5888 64.6847 38.9727 66.0315 36.7223C68.1262 33.2224 67.562 33.633 69.8006 34.4579C70.5616 34.7384 71.7556 35.0158 72.7509 35.0158C75.7904 35.0158 76.109 34.4828 76.5983 32.3433C75.5117 32.368 74.533 32.6996 73.2755 32.6996C70.6029 32.6996 68.2454 31.7592 66.4969 29.9846C63.8811 27.3297 64.0068 24.1476 64.0068 20.4062C64.0068 10.2194 72.514 8.61754 80.5878 10.6405C82.335 11.0783 84.4679 11.4728 84.4679 12.9232V29.4927C84.4679 33.3207 83.9505 36.4458 82.2995 38.6861C80.7145 40.8367 77.6364 41.7917 74.5372 41.9643Z" fill="#029347"/>
</svg>
