<svg width="166" height="108" viewBox="0 0 166 108" fill="none" xmlns="http://www.w3.org/2000/svg">
<path d="M0 30.6308V107.386L165.552 76.7554V0L0 30.6308Z" fill="#0C0E14"/>
<path d="M25.0718 48.725L19.868 49.8162L19.8781 44.3706L36.6295 40.855L36.6193 46.3004L31.4153 47.3917L31.3874 63.1088L25.0287 64.4422L25.0718 48.725Z" fill="white"/>
<path d="M41.3129 61.1797L38.1387 58.5258L38.1795 43.706L41.3511 39.7212L52.3212 37.4191L55.5082 40.0705L55.4675 54.8902L52.2551 58.8827L41.3129 61.1797ZM49.124 54.1127L49.1316 43.2241L48.8469 42.9896L45.1232 43.7697L44.5255 44.4988L44.5025 55.3773L44.7899 55.6271L48.5263 54.8419L49.124 54.1127Z" fill="white"/>
<path d="M67.7814 46.1081L64.4241 56.1809L57.6431 57.6035L57.6813 36.4407L64.04 35.1074L64.0222 46.4396L64.1926 46.4039L64.7012 44.3362L68.0868 34.2585L74.8676 32.8359L74.8294 53.9986L68.4708 55.3319L68.4809 43.9692L68.3105 44.0049L67.7814 46.1081ZM60.9293 32.0404L60.9496 28.9684L64.2079 28.2851V29.1264L64.5131 29.3865L67.7713 28.7032L68.0587 28.3183V27.4769L71.345 26.7886L71.3245 29.8607L69.7984 31.788L62.4656 33.3279L60.9293 32.0404Z" fill="white"/>
<path d="M93.8821 39.2761L93.8694 46.6848L90.657 50.6797L77.263 53.4892L77.3038 32.3264L92.3485 29.1702L92.3433 34.0091L83.6447 35.8345V39.006L84.5069 37.925L90.7105 36.6223L93.8821 39.2761ZM83.6014 47.4828L86.9283 46.7842L87.526 46.0526L87.5184 42.2768L87.2309 42.027L83.6217 42.7842L83.6014 47.4828Z" fill="white"/>
<path d="M98.4192 49.1942L95.245 46.5402L95.2856 31.7205L98.4574 27.7358L109.427 25.4336L112.615 28.085L112.574 42.9048L109.361 46.8971L98.4192 49.1942ZM106.23 42.1247L106.238 31.2361L105.953 31.0016L102.232 31.7817L101.634 32.5108L101.611 43.3891L101.899 43.6391L105.635 42.8537L106.23 42.1247Z" fill="white"/>
<path d="M128.293 42.9268L117.549 45.1805L114.375 42.5265L114.415 27.7068L117.587 23.7221L128.303 21.4734L131.442 24.1044L126.589 28.8413L124.783 27.3167L121.357 28.0356L120.759 28.7647L120.741 39.1104L121.026 39.3449L124.734 38.5674L126.568 36.2804L131.513 38.9012L128.293 42.9268Z" fill="white"/>
<path d="M146.272 39.1543L135.528 41.408L132.354 38.754L132.394 23.9342L135.566 19.9494L146.282 17.7008L149.42 20.3319L144.568 25.0688L142.762 23.5442L139.336 24.2631L138.738 24.9922L138.72 35.3377L139.005 35.5723L142.714 34.7947L144.547 32.5079L149.495 35.1287L146.272 39.1543Z" fill="white"/>
<path d="M34.912 87.521L24.1682 89.7747L20.994 87.1209L21.0346 72.301L24.2064 68.3163L34.9221 66.0677L38.0608 68.6986L33.2078 73.4355L31.4019 71.911L27.9759 72.63L27.3782 73.3591L27.3603 83.7046L27.6452 83.9391L31.3537 83.1616L33.1875 80.8747L38.1345 83.4956L34.912 87.521Z" fill="#EA202C"/>
<path d="M40.6418 86.3216L37.5768 83.7645L42.4553 79.1424L44.3325 80.7256L47.6465 80.0296L48.2596 79.2952V76.1238L43.6355 77.0951L43.6431 72.5496L48.2672 71.5783V68.4067L47.9823 68.1722L44.3731 68.9294L42.5088 71.2825L37.6277 68.7075L40.6825 64.8657L51.4542 62.6042L54.6284 65.2582L54.5878 80.078L51.3881 84.0679L40.6418 86.3216Z" fill="#EA202C"/>
<path d="M73.8059 79.2135L67.4472 80.5469L67.465 72.3861L63.1233 73.2964L63.1207 81.4545L56.7619 82.7878L56.8001 61.625L63.1588 60.2918L63.1334 67.8508L67.4751 66.9407L67.4878 59.3841L73.8466 58.0508L73.8059 79.2135Z" fill="#EA202C"/>
<path d="M81.2242 81.2837L74.9086 82.6095L74.9061 74.1428L76.3305 73.8446L77.1928 72.7636L78.6908 57.0337L92.9599 54.038L92.9242 70.362L94.7707 69.9746L94.7454 78.4487L88.3867 79.7822L88.407 76.1493L81.2445 77.6534L81.2242 81.2837ZM84.0144 60.7532L82.9816 71.2365L81.8422 72.6845L86.5807 71.6903L86.5959 60.2102L84.0144 60.7532Z" fill="#EA202C"/>
<path d="M96.046 53.3939L109.188 50.6353L112.365 53.302L112.355 57.9802L110.368 60.7285L113.057 62.6737L113.054 67.6604L109.842 71.6553L96.0103 74.5566L96.046 53.3939ZM106.713 67.4718L106.708 63.8592L106.406 63.6119L102.374 64.4583L102.349 68.9911L106.1 68.2034L106.713 67.4718ZM105.994 59.1683V55.8489L105.706 55.5991L102.407 56.2926L102.395 60.5297L105.398 59.8999L105.994 59.1683Z" fill="#EA202C"/>
<path d="M124.508 59.2022L121.15 69.2748L114.369 70.6974L114.41 49.5347L120.769 48.2013L120.751 59.5335L120.921 59.4979L121.43 57.4277L124.815 47.3498L131.596 45.9272L131.558 67.09L125.199 68.4234L125.21 57.0632L125.039 57.0988L124.508 59.2022Z" fill="#EA202C"/>
<path d="M136.079 59.8007L132.905 57.1467V45.654L139.263 44.3207L139.235 53.6949L139.523 53.9448L142.964 53.2232L142.988 43.5405L149.345 42.2072L149.304 63.3699L142.947 64.7033L142.961 57.4425L142.087 58.5414L136.079 59.8007Z" fill="#EA202C"/>
</svg>
