<svg width="65" height="65" viewBox="0 0 65 65" fill="none" xmlns="http://www.w3.org/2000/svg">
<path fill-rule="evenodd" clip-rule="evenodd" d="M9.47656 32.4998C9.47656 19.7858 19.7833 9.479 32.4974 9.479C45.2114 9.479 55.5182 19.7858 55.5182 32.4998C55.5182 45.2138 45.2114 55.5207 32.4974 55.5207C19.7833 55.5207 9.47656 45.2138 9.47656 32.4998ZM34.5286 18.9582C34.5286 17.8364 33.6192 16.9269 32.4974 16.9269C31.3756 16.9269 30.4661 17.8364 30.4661 18.9582V32.4998C30.4661 33.2002 30.8269 33.851 31.4208 34.2223L39.5458 39.3005C40.4973 39.8949 41.7504 39.606 42.3449 38.6545C42.9394 37.7031 42.6504 36.4499 41.699 35.8555L34.5286 31.374V18.9582Z" fill="#E9ECF4"/>
</svg>
