<svg width="65" height="65" viewBox="0 0 65 65" fill="none" xmlns="http://www.w3.org/2000/svg">
<path d="M20.4617 11.5157C21.3958 11.5839 22.1621 12.2819 22.3171 13.2055L27.193 42.2726L33.2569 21.1071C33.5066 20.2355 34.3037 19.6349 35.2105 19.6353C36.1169 19.6356 36.9137 20.2368 37.1626 21.1085L41.2747 35.5001L43.6339 31.4731C43.9982 30.851 44.6652 30.4686 45.3865 30.4686H50.4156C51.2782 27.7215 53.8446 25.7291 56.8763 25.7291C60.6157 25.7291 63.6471 28.7604 63.6471 32.4998C63.6471 36.2392 60.6157 39.2707 56.8763 39.2707C53.8446 39.2707 51.2782 37.2781 50.4156 34.5311H46.5505L42.3789 41.6516C41.968 42.3533 41.178 42.7422 40.3714 42.6401C39.5646 42.538 38.8965 41.9646 38.6733 41.183L35.2069 29.051L28.627 52.0177C28.3657 52.9299 27.5074 53.5398 26.5598 53.4862C25.6122 53.4328 24.828 52.7303 24.671 51.7943L19.6892 22.096L16.1327 33.1233C15.8621 33.9623 15.0812 34.5311 14.1995 34.5311H5.41797C4.29615 34.5311 3.38672 33.6216 3.38672 32.4998C3.38672 31.378 4.29615 30.4686 5.41797 30.4686H12.7204L18.3806 12.9181C18.6681 12.0267 19.5277 11.4475 20.4617 11.5157Z" fill="#E9ECF4"/>
</svg>
