<svg width="65" height="65" viewBox="0 0 65 65" fill="none" xmlns="http://www.w3.org/2000/svg">
<path fill-rule="evenodd" clip-rule="evenodd" d="M19.6373 14.7905V18.638L15.0495 19.0083C11.8058 19.2701 9.15986 21.7124 8.63961 24.9248C8.52657 25.623 8.42373 26.3224 8.33116 27.0228C8.28523 27.3705 8.47056 27.7069 8.78744 27.8569L8.99611 27.9558C23.6989 34.9173 41.3047 34.9173 56.0075 27.9558L56.2163 27.8569C56.5332 27.7069 56.7184 27.3705 56.6724 27.0228C56.58 26.3224 56.4771 25.623 56.3642 24.9248C55.8439 21.7124 53.1978 19.2701 49.9541 19.0083L45.3664 18.638V14.7905C45.3664 12.4445 43.6502 10.4514 41.3299 10.1034L38.026 9.6078C34.3638 9.05847 30.6399 9.05847 26.9777 9.6078L23.6738 10.1034C21.3536 10.4514 19.6373 12.4445 19.6373 14.7905ZM37.4234 13.6254C34.1607 13.1359 30.843 13.1359 27.5803 13.6254L24.2764 14.1209C23.9449 14.1707 23.6998 14.4554 23.6998 14.7905V18.352C29.563 18.0161 35.4407 18.0161 41.3039 18.352V14.7905C41.3039 14.4554 41.0588 14.1707 40.7273 14.1209L37.4234 13.6254Z" fill="#E9ECF4"/>
<path d="M57.1969 32.692C57.1766 32.3125 56.7796 32.0753 56.4321 32.2291C41.344 38.9098 23.659 38.9098 8.57104 32.2291C8.22356 32.0753 7.82631 32.3125 7.8061 32.692C7.53045 37.8687 7.80821 43.0676 8.63932 48.1999C9.15956 51.4122 11.8055 53.8546 15.0492 54.1165L20.119 54.5257C28.3605 55.1909 36.6423 55.1909 44.8841 54.5257L49.9538 54.1165C53.1975 53.8546 55.8436 51.4122 56.3639 48.1999C57.1948 43.0676 57.4727 37.8687 57.1969 32.692Z" fill="#E9ECF4"/>
</svg>
