<svg width="50" height="50" viewBox="0 0 50 50" fill="none" xmlns="http://www.w3.org/2000/svg">
<g clip-path="url(#clip0_377_7408)">
<path d="M34.3711 42.0005H41.2158V49.9873H34.3711V42.0005Z" fill="#E9ECF4"/>
<path d="M14.375 16.0581H2.08691L0 28.1538H16.7117L14.375 16.0581Z" fill="#E9ECF4"/>
<path d="M31.5373 16.0581H19.2492L16.7109 28.1538H33.6496L31.5373 16.0581Z" fill="#E9ECF4"/>
<path d="M12.9512 7.56055H9.71387V5.59863C9.71387 4.13379 10.9053 2.94238 12.3701 2.94238H24.6162C24.1865 3.73242 23.9424 4.63769 23.9424 5.59863V7.56055H20.4501L19.6005 13.1289H31.0292L30.1142 7.56055H26.8721V5.59863C26.8721 4.13379 28.0635 2.94238 29.5283 2.94238H42.2676V0.0126953H12.3701C9.29004 0.0126953 6.78418 2.51855 6.78418 5.59863V7.56055H3.28711L2.4375 13.1289H13.8662L12.9512 7.56055Z" fill="#E9ECF4"/>
<path d="M0 49.9875H31.4434V39.071H44.1475V49.9875H50V14.9663L35.1188 31.0842H0L0 49.9875ZM23.0459 39.071H25.9756V42.0007H23.0459V39.071ZM17.1865 39.071H20.1162V42.0007H17.1865V39.071ZM11.3271 39.071H14.2568V42.0007H11.3271V39.071ZM5.46777 39.071H8.39746V42.0007H5.46777V39.071Z" fill="#E9ECF4"/>
<path d="M45.4062 0.0126953H50.002V2.94238H45.4062V0.0126953Z" fill="#E9ECF4"/>
</g>
<defs>
<clipPath id="clip0_377_7408">
<rect width="50" height="50" fill="white"/>
</clipPath>
</defs>
</svg>
