<svg width="20" height="20" viewBox="0 0 20 20" fill="none" xmlns="http://www.w3.org/2000/svg">
<g clip-path="url(#clip0_582_494)">
<path d="M10.0009 0.200195C15.4135 0.200195 19.801 4.58804 19.801 10.0003C19.801 15.4129 15.4135 19.8004 10.0009 19.8004C4.58867 19.8004 0.201172 15.4129 0.201172 10.0003C0.201242 4.58804 4.58867 0.200195 10.0009 0.200195Z" fill="#E31A30"/>
<mask id="mask0_582_494" style="mask-type:luminance" maskUnits="userSpaceOnUse" x="0" y="0" width="20" height="20">
<path d="M10.0019 19.5609C15.282 19.5609 19.5624 15.2806 19.5624 10.0004C19.5624 4.72032 15.282 0.439941 10.0019 0.439941C4.72179 0.439941 0.441406 4.72032 0.441406 10.0004C0.441406 15.2806 4.72179 19.5609 10.0019 19.5609Z" fill="white"/>
</mask>
<g mask="url(#mask0_582_494)">
<path d="M13.897 10.2101C14.0502 10.2249 14.2083 10.2413 14.3557 10.2413C14.667 10.2413 14.8728 10.1689 15.0194 10.0033C15.0252 9.99671 15.0252 9.98648 15.021 9.97984C15.0161 9.97244 15.007 9.96877 15.0004 9.97039C14.9164 9.99177 14.8308 10.0016 14.7361 10.0016C14.4833 10.0016 14.2214 9.92587 13.9686 9.85263C13.7149 9.77805 13.4737 9.70891 13.2398 9.70891C13.1995 9.70891 13.1616 9.7118 13.1254 9.71511C13.3469 9.62741 13.6186 9.61217 13.8838 9.59693C14.3079 9.57506 14.7451 9.55079 14.9592 9.21854C14.9641 9.2107 14.9625 9.20083 14.9577 9.19469C14.951 9.1889 14.9419 9.18643 14.9346 9.1889C14.7929 9.24944 14.6282 9.27907 14.4323 9.27907C14.2577 9.27907 14.0741 9.25643 13.8978 9.23335C13.7257 9.21155 13.5479 9.18968 13.3816 9.18968C13.2547 9.18968 13.1427 9.20323 13.0423 9.23081C13.2481 9.10769 13.5141 9.05047 13.7735 8.99572C14.1885 8.90724 14.6184 8.81453 14.7765 8.45187C14.7806 8.44404 14.7781 8.43416 14.7723 8.42922C14.765 8.42308 14.7551 8.42308 14.7485 8.4276C14.4553 8.61041 14.088 8.62233 13.7323 8.63306C13.4259 8.64421 13.1328 8.65239 12.8874 8.76316C13.0702 8.61126 13.3246 8.51325 13.5726 8.41737C13.9686 8.26461 14.3787 8.10607 14.4784 7.72443C14.48 7.71575 14.4767 7.7063 14.4701 7.70298C14.4619 7.69804 14.452 7.69973 14.4454 7.7046C14.1868 7.93144 13.8237 8.00066 13.4738 8.06818C13.174 8.1254 12.8858 8.18142 12.661 8.32882C12.8182 8.1501 13.0537 8.01343 13.2827 7.88001C13.65 7.66756 14.0304 7.44686 14.0691 7.05365C14.07 7.04539 14.065 7.03678 14.0568 7.03431C14.0485 7.031 14.0387 7.03269 14.0346 7.03925C13.813 7.30363 13.4664 7.42915 13.1312 7.5498C12.8422 7.65437 12.5671 7.75279 12.3686 7.93398C12.4955 7.73346 12.7063 7.56137 12.913 7.3938C13.2432 7.12533 13.5841 6.8491 13.5611 6.4542C13.5611 6.44516 13.5545 6.43811 13.5462 6.43649C13.5372 6.43402 13.5281 6.43896 13.5232 6.44594C13.347 6.742 13.0242 6.91902 12.7113 7.09196C12.4427 7.23935 12.1875 7.38096 12.0179 7.59016C12.1134 7.3715 12.2946 7.16936 12.4708 6.97293C12.7557 6.65585 13.0489 6.32853 12.9632 5.94238C12.9616 5.93412 12.955 5.92798 12.9459 5.92714C12.9377 5.92551 12.9287 5.93165 12.9253 5.93906C12.7977 6.25946 12.5054 6.48461 12.2254 6.70368C11.9833 6.89264 11.7511 7.0722 11.6177 7.30603C11.6761 7.0751 11.8235 6.84571 11.9685 6.62297C12.1991 6.26595 12.4379 5.89793 12.2946 5.52941C12.2913 5.52073 12.2814 5.51586 12.2748 5.51664C12.2666 5.51742 12.2584 5.5232 12.2567 5.53188C12.1793 5.86829 11.9273 6.13711 11.6836 6.39613C11.4736 6.6205 11.2735 6.83464 11.178 7.08497C11.201 6.84903 11.3097 6.59954 11.4168 6.35739C11.5897 5.9687 11.7676 5.56645 11.5691 5.22552C11.5634 5.21811 11.5551 5.2148 11.5469 5.21649C11.5387 5.21811 11.5321 5.22552 11.5305 5.2342C11.5083 5.57802 11.3007 5.88353 11.1006 6.1779C10.9277 6.43232 10.7646 6.67447 10.7086 6.93758C10.6938 6.69959 10.763 6.43649 10.8321 6.18121C10.9417 5.77029 11.0545 5.34624 10.8033 5.03946C10.7984 5.03333 10.7877 5.03079 10.7811 5.0341C10.7738 5.03699 10.7679 5.04518 10.7688 5.05386C10.7993 5.39683 10.6428 5.73078 10.4912 6.05273C10.3611 6.33107 10.2359 6.5958 10.2244 6.86512C10.1717 6.63285 10.1997 6.3624 10.2261 6.09845C10.2705 5.67603 10.315 5.23836 10.0202 4.9761C10.0136 4.97032 10.0038 4.96947 9.99639 4.97448C9.98976 4.97857 9.98644 4.98725 9.98729 4.99544C10.0721 5.32938 9.96915 5.68343 9.86868 6.02683C9.78387 6.32204 9.70238 6.60201 9.73194 6.86921C9.64466 6.64809 9.62822 6.3768 9.61503 6.11207C9.59196 5.6888 9.56726 5.24944 9.23501 5.03579C9.22718 5.0317 9.21815 5.0317 9.21194 5.03784C9.20453 5.04363 9.20368 5.05308 9.207 5.06049C9.34205 5.3775 9.2947 5.74355 9.2511 6.09683C9.21321 6.40107 9.17652 6.69134 9.24736 6.9512C9.12628 6.74694 9.06864 6.48058 9.01389 6.22157C8.92449 5.80571 8.83185 5.37588 8.46996 5.21818C8.46093 5.21487 8.45226 5.21734 8.44732 5.22397C8.44153 5.23018 8.44075 5.24006 8.44485 5.24662C8.62851 5.53936 8.63958 5.90703 8.65151 6.26278C8.66139 6.56991 8.67084 6.8623 8.78119 7.10685C8.62928 6.92481 8.53001 6.67038 8.43532 6.42294C8.28172 6.02683 8.12445 5.61718 7.74238 5.51749C7.73371 5.51502 7.72467 5.51833 7.72143 5.52574C7.71529 5.53357 7.71691 5.54345 7.72305 5.54881C7.94996 5.80987 8.01911 6.17091 8.08543 6.5201C8.14308 6.82194 8.1986 7.10932 8.34607 7.33453C8.16819 7.17684 8.02983 6.94174 7.89853 6.71321C7.68396 6.34554 7.46333 5.96503 7.07132 5.92636C7.06186 5.92474 7.05446 5.93045 7.05156 5.93829C7.04825 5.94647 7.05072 5.95592 7.05855 5.96093C7.3225 6.18283 7.44725 6.52913 7.5679 6.86385C7.67169 7.15334 7.77089 7.42753 7.95243 7.62635C7.75071 7.49992 7.57862 7.28916 7.41183 7.0825C7.14456 6.75187 6.86544 6.41137 6.47138 6.43402C6.46312 6.43479 6.45656 6.44143 6.45367 6.4501C6.45282 6.45836 6.45656 6.46781 6.46397 6.47106C6.76002 6.64809 6.9379 6.97131 7.10914 7.28303C7.25738 7.55227 7.39899 7.80839 7.60819 7.97639C7.3908 7.88248 7.18739 7.70136 6.99018 7.52433C6.71183 7.27477 6.42439 7.01583 6.09792 7.01583C6.05185 7.01583 6.00612 7.02077 5.9604 7.03107C5.95215 7.03354 5.94516 7.04052 5.94432 7.04878C5.94269 7.05746 5.94883 7.06564 5.95624 7.06811C6.27742 7.19737 6.50263 7.48806 6.72206 7.76966C6.90981 8.01181 7.08973 8.24274 7.32236 8.37694C7.09383 8.31682 6.86367 8.17028 6.64092 8.02613C6.36011 7.84374 6.06941 7.65684 5.78161 7.65684C5.70005 7.65684 5.62145 7.67165 5.54729 7.70129C5.53784 7.7046 5.53375 7.71243 5.53375 7.72062C5.53459 7.7293 5.54031 7.73671 5.54983 7.73833C5.88625 7.81615 6.15422 8.06896 6.41408 8.31188C6.63845 8.52271 6.85175 8.72161 7.10293 8.81792C6.86783 8.79654 6.6175 8.68619 6.37535 8.57908C6.109 8.46005 5.83474 8.33947 5.58278 8.33947C5.45719 8.33947 5.34642 8.36833 5.2439 8.42837C5.23607 8.43254 5.23282 8.44157 5.23445 8.4494C5.23692 8.45765 5.2439 8.46464 5.25216 8.46464C5.59633 8.48813 5.90142 8.69479 6.19501 8.89532C6.44943 9.06825 6.69158 9.23088 6.95384 9.28641C6.93282 9.28804 6.90974 9.29015 6.88794 9.29015C6.66971 9.29015 6.4301 9.22679 6.19825 9.16541C5.96972 9.10445 5.7342 9.04193 5.52345 9.04193C5.33323 9.04193 5.18216 9.09175 5.0565 9.19384C5.05156 9.19963 5.04789 9.20908 5.05156 9.21649C5.05488 9.22432 5.06313 9.22926 5.07174 9.22926C5.09933 9.22679 5.12896 9.22517 5.15944 9.22517C5.47116 9.22517 5.77583 9.36847 6.07188 9.50676C6.34981 9.63729 6.61581 9.76119 6.88547 9.77318C6.79692 9.79252 6.6973 9.80366 6.58201 9.80366C6.43088 9.80366 6.27156 9.7868 6.11633 9.77156C5.96273 9.75547 5.80342 9.73946 5.65687 9.73946C5.34557 9.73946 5.14011 9.81277 4.99392 9.97744C4.98736 9.98401 4.98651 9.99431 4.99145 10.0009C4.99561 10.0083 5.00507 10.012 5.01247 10.0104C5.09686 9.98979 5.18209 9.97907 5.27636 9.97907C5.53043 9.97907 5.79107 10.0548 6.04387 10.1281C6.29872 10.2018 6.53876 10.271 6.77343 10.271H6.77428C6.81294 10.271 6.85005 10.2676 6.88794 10.2643C6.66597 10.3525 6.39468 10.3681 6.13073 10.3837C5.70584 10.4043 5.26733 10.4299 5.05403 10.7617C5.04867 10.769 5.04952 10.779 5.05566 10.7847C5.05975 10.7896 5.06469 10.7913 5.0709 10.7913H5.07915C5.22076 10.7312 5.38551 10.7016 5.58102 10.7016C5.75642 10.7016 5.93924 10.7238 6.11549 10.7461C6.28758 10.7691 6.46545 10.7914 6.63182 10.7914C6.75904 10.7914 6.87186 10.7774 6.97233 10.7502C6.76644 10.8721 6.49925 10.9297 6.24023 10.9849C5.82479 11.073 5.39454 11.166 5.23685 11.5292C5.2336 11.5358 5.23522 11.5456 5.24178 11.5514C5.24545 11.5556 5.25046 11.5572 5.25533 11.5572C5.25865 11.5572 5.26232 11.5556 5.26563 11.553C5.55922 11.3702 5.92647 11.3595 6.28264 11.348C6.58942 11.3374 6.88131 11.3283 7.12671 11.2179C6.94269 11.3694 6.68989 11.4682 6.44195 11.5637C6.04627 11.7152 5.63577 11.875 5.53615 12.2562C5.53368 12.2653 5.53777 12.2735 5.5456 12.2777C5.54885 12.2793 5.55216 12.281 5.55548 12.281C5.56084 12.281 5.56578 12.2794 5.56903 12.2752C5.82966 12.0479 6.19035 11.9788 6.54109 11.9129C6.8425 11.8535 7.12904 11.7992 7.35425 11.651C7.19656 11.8305 6.96104 11.9671 6.73251 12.1006C6.36484 12.3131 5.98475 12.5338 5.94608 12.9274C5.94404 12.9356 5.95024 12.9438 5.95765 12.9463C5.96097 12.948 5.96379 12.948 5.96633 12.948C5.97212 12.948 5.9779 12.9446 5.98157 12.9406C6.2039 12.6762 6.54976 12.5503 6.88449 12.4308C7.17356 12.3254 7.44859 12.2274 7.64664 12.0455C7.5202 12.2464 7.30945 12.4193 7.10399 12.5865C6.77336 12.8541 6.43243 13.1308 6.45465 13.5269C6.4555 13.5351 6.46206 13.5433 6.47032 13.5442H6.47568C6.48231 13.5442 6.49014 13.54 6.49339 13.5351C6.67042 13.2386 6.99244 13.0608 7.30451 12.8878C7.5734 12.7412 7.82987 12.5996 7.99829 12.3904C7.90403 12.6078 7.72199 12.8104 7.54581 13.0081C7.2621 13.3242 6.9681 13.652 7.0534 14.0374C7.05502 14.0456 7.06165 14.0522 7.07111 14.0522H7.07273C7.08014 14.0522 7.08882 14.0489 7.09044 14.0407C7.22012 13.7212 7.51039 13.4955 7.79121 13.2765C8.03378 13.0888 8.26599 12.9076 8.39891 12.6753C8.34085 12.906 8.1931 13.1349 8.04811 13.3572C7.81795 13.7129 7.57919 14.0819 7.72284 14.4507C7.72616 14.4581 7.73356 14.4647 7.7414 14.4647H7.74302C7.75205 14.4631 7.75911 14.4565 7.76073 14.4474C7.83898 14.1123 8.08973 13.843 8.33386 13.5837C8.54384 13.3588 8.74316 13.1447 8.83905 12.896C8.8164 13.1324 8.70852 13.3819 8.60064 13.6232C8.42855 14.0119 8.25067 14.4145 8.4495 14.7555C8.45367 14.7621 8.4598 14.7654 8.46637 14.7654H8.47053C8.47998 14.7621 8.48662 14.7555 8.48739 14.7473C8.51004 14.403 8.71755 14.0984 8.91765 13.8036C9.09016 13.5483 9.25406 13.3062 9.31044 13.0427C9.3249 13.2815 9.25568 13.5442 9.18731 13.8003C9.07859 14.2104 8.96457 14.6352 9.21533 14.9416C9.21942 14.9449 9.2252 14.949 9.23141 14.949C9.23304 14.949 9.23635 14.949 9.23882 14.9474C9.24623 14.9432 9.25237 14.935 9.25075 14.9284C9.22111 14.5842 9.37711 14.2507 9.52987 13.9278C9.66082 13.6496 9.78352 13.3852 9.79587 13.1167C9.84857 13.3474 9.82056 13.6199 9.79424 13.8825C9.75057 14.3042 9.70534 14.7431 10.0001 15.0041C10.0034 15.0074 10.01 15.0091 10.0133 15.0091C10.0166 15.0091 10.0199 15.0091 10.0248 15.0074C10.0322 15.0025 10.0355 14.9942 10.033 14.9869C9.94905 14.6517 10.0511 14.2976 10.1515 13.9551C10.2372 13.6602 10.3178 13.3786 10.2883 13.1119C10.3764 13.3334 10.3921 13.6043 10.4052 13.8694C10.43 14.2927 10.4537 14.7323 10.7857 14.9448C10.789 14.9465 10.7923 14.9482 10.7972 14.9482C10.8014 14.9482 10.8063 14.9465 10.8096 14.9432C10.817 14.9383 10.8187 14.9284 10.8153 14.9202C10.6803 14.604 10.7272 14.2384 10.77 13.8842C10.8096 13.5796 10.845 13.2897 10.7734 13.0287C10.896 13.2329 10.9537 13.5006 11.0089 13.7582C11.0969 14.1749 11.19 14.6048 11.5515 14.7621C11.5548 14.7621 11.5581 14.7637 11.5597 14.7637C11.5647 14.7637 11.5721 14.7604 11.5754 14.7555C11.582 14.7506 11.5828 14.7407 11.5778 14.7324C11.395 14.4409 11.3835 14.0728 11.3711 13.7171C11.3621 13.4091 11.3521 13.1167 11.2419 12.8714C11.3933 13.0567 11.4922 13.3103 11.5877 13.5581C11.7391 13.9551 11.8981 14.3626 12.281 14.4631C12.2826 14.4631 12.2835 14.4647 12.2852 14.4647C12.2926 14.4647 12.2991 14.4598 12.3025 14.4548C12.3074 14.4458 12.3066 14.4375 12.3008 14.4318C12.0744 14.1691 12.0052 13.81 11.9385 13.4609C11.8809 13.1579 11.8249 12.8713 11.6775 12.6456C11.8553 12.8037 11.9936 13.0393 12.1262 13.2674C12.3395 13.6355 12.5594 14.0159 12.9522 14.0538H12.9538C12.9612 14.0538 12.9694 14.0505 12.9711 14.0414C12.9752 14.0332 12.9727 14.0241 12.9662 14.0192C12.7018 13.7977 12.5759 13.451 12.4564 13.1167C12.3519 12.8269 12.253 12.5535 12.0718 12.3541C12.2728 12.4809 12.444 12.6918 12.612 12.8976C12.8714 13.2154 13.1391 13.5473 13.5137 13.5473C13.5261 13.5473 13.5385 13.5473 13.5508 13.5457C13.5606 13.5457 13.5672 13.5383 13.5697 13.53C13.5706 13.5218 13.5673 13.5136 13.5606 13.5094C13.2642 13.3316 13.0855 13.008 12.915 12.6975C12.766 12.4274 12.6253 12.1721 12.4152 12.0041C12.6342 12.0972 12.8369 12.2791 13.0337 12.4554C13.312 12.7057 13.5986 12.9651 13.9263 12.9651C13.9716 12.9651 14.0185 12.9602 14.063 12.9494C14.0712 12.9478 14.0779 12.9388 14.0795 12.9321C14.0795 12.924 14.0746 12.9149 14.0662 12.9124C13.7468 12.784 13.5211 12.4924 13.3021 12.2108C13.1135 11.9687 12.9332 11.7382 12.7001 11.6048C12.9315 11.664 13.1597 11.8106 13.3828 11.9539C13.6644 12.1367 13.9543 12.3236 14.2426 12.3236C14.3233 12.3236 14.4006 12.3079 14.4764 12.2791C14.4855 12.2758 14.4904 12.2668 14.4896 12.2602C14.4887 12.252 14.4814 12.2429 14.4748 12.242C14.138 12.1646 13.8687 11.9127 13.6092 11.6689C13.3861 11.4597 13.172 11.2588 12.9217 11.1624C13.158 11.1855 13.4067 11.2959 13.6488 11.4029C13.9148 11.5207 14.1899 11.6417 14.4402 11.6417C14.5662 11.6417 14.6773 11.6121 14.7795 11.5536C14.7878 11.5478 14.791 11.5396 14.7894 11.5322C14.7861 11.524 14.7795 11.5173 14.7712 11.5173C14.4271 11.4926 14.1224 11.2868 13.8275 11.085C13.574 10.9121 13.3319 10.7498 13.0684 10.6947C13.0914 10.6931 13.1137 10.6906 13.1359 10.6906C13.3549 10.6906 13.5937 10.7531 13.8251 10.8157C14.0532 10.8766 14.2879 10.9392 14.4996 10.9392C14.6906 10.9392 14.8413 10.8898 14.9673 10.7877C14.9739 10.7812 14.9755 10.7721 14.9723 10.7647C14.9689 10.7565 14.9607 10.7531 14.9517 10.7515C14.9245 10.7548 14.8948 10.7564 14.8635 10.7564C14.5523 10.7564 14.2476 10.6132 13.9528 10.4748C13.6745 10.3431 13.4084 10.2195 13.1375 10.208C13.2273 10.1883 13.3277 10.1767 13.4414 10.1767C13.5816 10.1771 13.7406 10.1936 13.897 10.2101ZM10.0053 12.9901C8.34762 12.9901 7.00535 11.6463 7.00535 9.99064C7.00535 8.33383 8.34755 6.99071 10.0053 6.99071C11.6621 6.99071 13.006 8.33383 13.006 9.99064C13.0044 11.6463 11.6621 12.9901 10.0053 12.9901Z" fill="#FFE500"/>
<path d="M9.99774 9.17675C9.95322 9.20801 9.90876 9.2418 9.86431 9.27638C9.86015 9.27885 9.85938 9.28294 9.85938 9.28625C9.85938 9.29162 9.86015 9.29578 9.86431 9.2974C9.90876 9.33035 9.95322 9.36492 9.99774 9.40034C9.99858 9.40197 10.0026 9.40281 10.0059 9.40281C10.0075 9.40281 10.0126 9.40197 10.0141 9.40034C10.0578 9.36492 10.1022 9.33035 10.1459 9.2974C10.1508 9.29578 10.1508 9.29162 10.1508 9.28625C10.1508 9.28301 10.1508 9.27892 10.1459 9.27638C10.1022 9.24258 10.0586 9.20885 10.0126 9.17675C10.0092 9.17351 10.0026 9.17351 9.99774 9.17675Z" fill="#FFE500"/>
<path d="M10.3008 8.53895C10.3008 8.54474 10.3032 8.54968 10.309 8.55172C10.3617 8.58009 10.4144 8.60979 10.4655 8.63943C10.4688 8.64105 10.4704 8.64105 10.4736 8.64105C10.4753 8.64105 10.477 8.64105 10.4786 8.6402C10.9134 8.45866 11.3762 8.36186 11.8522 8.34916C11.857 8.34916 11.8612 8.34669 11.8628 8.34175C11.867 8.33723 11.8637 8.33145 11.8612 8.32735C11.8324 8.29525 11.8043 8.26399 11.7747 8.23429C11.7714 8.23104 11.7681 8.22935 11.7648 8.2302C11.2608 8.23634 10.7709 8.33638 10.3097 8.52788C10.3048 8.5295 10.3008 8.53401 10.3008 8.53895Z" fill="#FFE500"/>
<path d="M10.1775 8.77245C10.1775 8.76751 10.1742 8.76335 10.1701 8.76053C10.1182 8.73125 10.0655 8.70084 10.0113 8.67325C10.0063 8.67036 10.0013 8.67035 9.9973 8.67205C9.94212 8.70084 9.88772 8.73132 9.83833 8.76053C9.83339 8.76342 9.83008 8.76751 9.83008 8.77245C9.83008 8.77739 9.83332 8.78191 9.83833 8.78353C9.89266 8.81281 9.94537 8.84237 9.9973 8.87208C9.9997 8.8737 10.0014 8.8737 10.0046 8.8737C10.0063 8.8737 10.008 8.8737 10.0113 8.87208C10.0631 8.84244 10.1149 8.81281 10.1701 8.78353C10.1742 8.78191 10.1775 8.77781 10.1775 8.77245Z" fill="#FFE500"/>
<path d="M9.15419 8.88872C9.15581 8.89034 9.15743 8.89034 9.15955 8.89034C9.16371 8.89034 9.16533 8.88949 9.1678 8.88787C9.21437 8.8533 9.25466 8.82366 9.29255 8.7977C9.29749 8.79403 9.29918 8.78994 9.29918 8.78493C9.29833 8.77999 9.29586 8.77547 9.29177 8.77378C8.88783 8.60536 8.46294 8.5099 8.02281 8.49219C8.01949 8.49303 8.01413 8.49381 8.01166 8.49755C7.99148 8.52514 7.97053 8.55477 7.95119 8.58405C7.94872 8.58857 7.94872 8.59351 7.95035 8.5976C7.95282 8.60212 7.95691 8.60543 7.96185 8.60543C8.37517 8.62977 8.77664 8.72693 9.15419 8.88872Z" fill="#FFE500"/>
<path d="M8.96378 9.05071C8.96745 9.04747 8.96914 9.04337 8.9683 9.03794C8.96745 9.03378 8.96456 9.02969 8.95962 9.02806C8.6129 8.87122 8.24361 8.77321 7.86606 8.73779C7.85943 8.73779 7.85491 8.73942 7.85244 8.74478C7.63753 9.12233 7.52344 9.55343 7.52344 9.99067C7.52344 10.2958 7.57861 10.5972 7.68565 10.8821C7.68727 10.887 7.69221 10.8903 7.69722 10.8903C7.70336 10.8903 7.70999 10.887 7.71077 10.8821C7.95701 10.1707 8.3898 9.53664 8.96378 9.05071Z" fill="#FFE500"/>
<path d="M10.709 8.78514C10.709 8.79008 10.7106 8.79418 10.7139 8.79792C10.7502 8.82226 10.7896 8.85104 10.8399 8.88809C10.8432 8.88971 10.8457 8.89056 10.849 8.89056C10.8506 8.89056 10.8523 8.89056 10.8539 8.88893C11.231 8.72715 11.6329 8.62992 12.0462 8.60487C12.0512 8.60487 12.0545 8.60113 12.0577 8.59704C12.0594 8.59295 12.0594 8.58801 12.0561 8.58349C12.0371 8.55506 12.0166 8.52543 11.996 8.49664C11.9935 8.49339 11.9894 8.49255 11.9854 8.4917C11.5456 8.50941 11.1191 8.60494 10.7172 8.77336C10.7123 8.77562 10.709 8.78014 10.709 8.78514Z" fill="#FFE500"/>
<path d="M9.5308 8.64034C9.53327 8.64119 9.53411 8.64119 9.53573 8.64119C9.5382 8.64119 9.54067 8.64119 9.54314 8.63957C9.59585 8.60909 9.64686 8.57945 9.69957 8.55187C9.70613 8.54897 9.70782 8.54403 9.70782 8.53825C9.70782 8.53416 9.70373 8.52879 9.69957 8.52717C9.23721 8.33568 8.74804 8.23563 8.2437 8.22949C8.24038 8.22949 8.23714 8.23034 8.23382 8.23365C8.20581 8.26329 8.17738 8.29455 8.14697 8.32665C8.14534 8.33081 8.14288 8.33653 8.14612 8.34111C8.14697 8.34605 8.15275 8.34852 8.15727 8.34852C8.63444 8.362 9.0956 8.45873 9.5308 8.64034Z" fill="#FFE500"/>
<path d="M9.99357 9.76183C9.33767 10.4276 8.97656 11.3137 8.97656 12.254V12.264C8.97656 12.2673 8.97903 12.2722 8.98439 12.2763C9.30634 12.4229 9.65017 12.497 10.0043 12.497C10.3583 12.497 10.7001 12.4229 11.0238 12.2763C11.0286 12.2722 11.0303 12.2673 11.0303 12.264V12.254C11.0303 11.3137 10.6697 10.4276 10.0142 9.76183C10.0075 9.75647 9.99928 9.75647 9.99357 9.76183Z" fill="#FFE500"/>
<path d="M9.41917 9.29771C9.42284 9.29524 9.42368 9.29114 9.42368 9.28656C9.42368 9.28247 9.42079 9.27922 9.41755 9.27668C9.36526 9.24288 9.31129 9.21 9.25816 9.17868C9.25407 9.17621 9.2475 9.17705 9.24292 9.1803C8.57842 9.74976 8.12586 10.5032 7.93197 11.3579C7.93113 11.3621 7.93197 11.3653 7.9336 11.3686C7.9875 11.4534 8.04889 11.5324 8.11225 11.6091C8.11472 11.6107 8.11803 11.6139 8.12255 11.6139C8.12255 11.6139 8.12417 11.6124 8.12586 11.6124C8.12996 11.6108 8.1349 11.6066 8.13574 11.6017C8.28518 10.7107 8.7414 9.89229 9.41917 9.29771Z" fill="#FFE500"/>
<path d="M9.58295 8.92012C9.54097 8.94771 9.49899 8.97819 9.45284 9.01361C9.4479 9.01608 9.44621 9.02017 9.4479 9.02553C9.4479 9.02962 9.44953 9.03372 9.45446 9.03618C9.50886 9.06582 9.56319 9.0963 9.61258 9.1272C9.6159 9.12925 9.61752 9.1301 9.62084 9.1301C9.62246 9.1301 9.62578 9.12925 9.6274 9.1272C9.66938 9.0963 9.71299 9.0642 9.75913 9.03209C9.76245 9.02962 9.76407 9.02553 9.76407 9.02094C9.76407 9.01601 9.76245 9.01191 9.75913 9.00944C9.70727 8.97981 9.65209 8.94926 9.59607 8.91927C9.59113 8.91638 9.58626 8.91723 9.58295 8.92012Z" fill="#FFE500"/>
<path d="M9.99757 8.40283C10 8.40368 10.0009 8.40445 10.0042 8.40445C10.0058 8.40445 10.0075 8.4036 10.0091 8.40283C10.5032 8.19201 11.0269 8.0825 11.5704 8.07672C11.5753 8.07672 11.5803 8.07298 11.5819 8.06804C11.5835 8.06225 11.5819 8.05611 11.5778 8.0528C11.1355 7.68513 10.5772 7.48291 10.0041 7.48291C9.43185 7.48291 8.87269 7.68506 8.43086 8.0528C8.42677 8.05604 8.4243 8.06225 8.42677 8.06804C8.42839 8.07298 8.43333 8.07672 8.43869 8.07672C8.97979 8.0825 9.50516 8.19201 9.99757 8.40283Z" fill="#FFE500"/>
<path d="M12.1541 8.74478C12.1525 8.73942 12.1491 8.73779 12.1408 8.73779C11.7637 8.77321 11.394 8.87122 11.0473 9.02806C11.0432 9.02969 11.0399 9.03385 11.0399 9.03794C11.0375 9.0433 11.0408 9.0474 11.044 9.05071C11.618 9.53657 12.0504 10.1707 12.2957 10.8822C12.2973 10.887 12.3023 10.8903 12.308 10.8903C12.3138 10.8903 12.3188 10.887 12.3205 10.8822C12.4276 10.5972 12.4827 10.2958 12.4827 9.99074C12.4834 9.55343 12.3698 9.12233 12.1541 8.74478Z" fill="#FFE500"/>
<path d="M9.79988 9.58317C9.80319 9.5807 9.80481 9.57738 9.80481 9.57407C9.80481 9.56997 9.80319 9.56631 9.79988 9.56376C9.75458 9.52418 9.71013 9.48721 9.66645 9.45341C9.66151 9.44925 9.65495 9.4501 9.64917 9.45426C8.94797 10.0924 8.51525 10.9673 8.43164 11.9193C8.43164 11.9251 8.43326 11.9284 8.4358 11.9316C8.50001 11.9852 8.56838 12.0354 8.63922 12.0841C8.64084 12.0841 8.64331 12.0856 8.64663 12.0856C8.64747 12.0856 8.65114 12.0841 8.65277 12.0841C8.65693 12.0807 8.6594 12.0766 8.6594 12.0716C8.6812 11.6187 8.7833 11.1798 8.96568 10.7689C9.16289 10.3201 9.44413 9.9224 9.79988 9.58317Z" fill="#FFE500"/>
<path d="M10.7643 9.18112C10.7602 9.17788 10.7537 9.17703 10.7487 9.18027C10.6968 9.20991 10.6433 9.24286 10.5889 9.27743C10.5856 9.2799 10.584 9.28322 10.584 9.28731C10.584 9.29182 10.5848 9.29599 10.5881 9.29846C11.2675 9.89219 11.7228 10.7107 11.8719 11.6033C11.8735 11.6091 11.8768 11.6124 11.8818 11.614C11.8834 11.614 11.8843 11.6156 11.8843 11.6156C11.8891 11.6156 11.8925 11.6124 11.8949 11.6107C11.96 11.5325 12.0201 11.4518 12.0728 11.3703C12.0761 11.367 12.0761 11.3637 12.0761 11.3596C11.8818 10.5032 11.4289 9.75058 10.7643 9.18112Z" fill="#FFE500"/>
<path d="M10.413 8.91927C10.3578 8.94771 10.3034 8.97812 10.2507 9.00944C10.2466 9.01191 10.2441 9.01601 10.2441 9.02094C10.2441 9.02546 10.2458 9.02962 10.2491 9.03209C10.2935 9.06257 10.3371 9.09468 10.3808 9.1272C10.3824 9.12925 10.3857 9.1301 10.3881 9.1301C10.3923 9.1301 10.3939 9.12925 10.3956 9.1272C10.4449 9.09792 10.4993 9.06667 10.5553 9.03618C10.5586 9.03372 10.5611 9.02962 10.5611 9.02553C10.5619 9.02017 10.5595 9.01608 10.5553 9.01361C10.5117 8.97981 10.4681 8.94933 10.4269 8.92012C10.422 8.91723 10.4171 8.91638 10.413 8.91927Z" fill="#FFE500"/>
<path d="M10.3568 9.45517C10.3519 9.45108 10.3453 9.45024 10.3395 9.4544C10.2942 9.48975 10.2498 9.52686 10.2053 9.56475C10.2037 9.56722 10.2012 9.57089 10.2012 9.57505C10.2012 9.57837 10.202 9.58168 10.2053 9.58408C10.5619 9.92254 10.8444 10.321 11.0412 10.7706C11.2223 11.1816 11.3253 11.6221 11.3467 12.0734C11.3467 12.0783 11.35 12.0825 11.3541 12.0857C11.3557 12.0857 11.359 12.0874 11.359 12.0874C11.3631 12.0874 11.3656 12.0857 11.3672 12.0857C11.4389 12.0372 11.5056 11.987 11.5706 11.9334C11.5731 11.9302 11.5748 11.9268 11.5748 11.9211C11.49 10.9691 11.0584 10.0934 10.3568 9.45517Z" fill="#FFE500"/>
<path d="M-4.33594 0.428711V19.5501H24.3473V0.428711H-4.33594ZM15.0197 10.0037C14.8731 10.1683 14.6673 10.2417 14.356 10.2417C14.2086 10.2417 14.0505 10.2252 13.8973 10.2104C13.7409 10.194 13.5819 10.1774 13.4313 10.1774C13.316 10.1774 13.2172 10.189 13.1274 10.2087C13.3983 10.2202 13.6635 10.3438 13.9418 10.4755C14.2374 10.6139 14.5413 10.7571 14.8543 10.7571C14.8831 10.7571 14.9127 10.7555 14.9415 10.7521C14.9506 10.7538 14.9596 10.7571 14.9612 10.7654C14.9646 10.7736 14.9629 10.7818 14.9564 10.7884C14.8312 10.8905 14.6797 10.9399 14.4894 10.9399C14.2778 10.9399 14.0432 10.8773 13.815 10.8164C13.5836 10.7538 13.3439 10.6913 13.1257 10.6913C13.1035 10.6913 13.0813 10.6929 13.0582 10.6954C13.3225 10.749 13.5646 10.9128 13.8175 11.0857C14.1131 11.2858 14.417 11.4917 14.7603 11.5172C14.7703 11.5172 14.7767 11.5246 14.7784 11.5329C14.7801 11.5411 14.7768 11.5493 14.7694 11.5535C14.6665 11.6128 14.5561 11.6416 14.4309 11.6416C14.1781 11.6416 13.9039 11.5197 13.6387 11.4036C13.3966 11.2965 13.1479 11.1854 12.9108 11.1631C13.162 11.2587 13.3768 11.4604 13.5992 11.6696C13.8587 11.9134 14.1279 12.1653 14.4639 12.2427C14.4721 12.2443 14.4787 12.2527 14.4787 12.2609C14.4803 12.2675 14.4754 12.2773 14.4672 12.2798C14.3906 12.3086 14.3124 12.3243 14.2316 12.3243C13.9451 12.3243 13.6536 12.1357 13.3728 11.9546C13.1496 11.8113 12.9223 11.6647 12.6901 11.6055C12.9239 11.7389 13.1034 11.9694 13.292 12.2115C13.511 12.4931 13.7359 12.7847 14.0554 12.9131C14.0644 12.9164 14.0693 12.9247 14.0686 12.9328C14.0677 12.9395 14.0612 12.9493 14.0521 12.9501C14.0077 12.9601 13.9616 12.9658 13.9154 12.9658C13.5893 12.9658 13.3011 12.7064 13.0228 12.4561C12.8268 12.2798 12.6234 12.0979 12.4052 12.0048C12.6143 12.1728 12.756 12.4281 12.905 12.6973C13.0755 13.0086 13.2541 13.3323 13.5498 13.5101C13.5565 13.5151 13.5597 13.5241 13.5597 13.5307C13.5565 13.5389 13.5491 13.5464 13.5408 13.5464C13.5284 13.548 13.516 13.548 13.5038 13.548C13.1283 13.548 12.8598 13.2161 12.602 12.8983C12.4349 12.6925 12.2636 12.4816 12.0619 12.3548C12.2422 12.5541 12.3419 12.8275 12.4464 13.1173C12.5666 13.4509 12.6919 13.7992 12.9569 14.0199C12.9619 14.0265 12.9652 14.0347 12.9619 14.0421C12.9586 14.0512 12.9503 14.0545 12.9437 14.0545C12.9429 14.0545 12.9429 14.0545 12.9429 14.0545C12.5484 14.0166 12.3277 13.6361 12.1153 13.2681C11.9836 13.04 11.8453 12.8028 11.6673 12.6463C11.8148 12.872 11.8699 13.1577 11.9275 13.4616C11.995 13.8107 12.0643 14.1715 12.2915 14.4325C12.2964 14.4399 12.2964 14.4481 12.2931 14.4547C12.2898 14.4605 12.2816 14.4653 12.2749 14.4653C12.2734 14.4653 12.2725 14.4637 12.2708 14.4637C11.8879 14.3632 11.7282 13.954 11.5766 13.5579C11.4811 13.3109 11.3823 13.0572 11.2308 12.8719C11.3411 13.1173 11.3527 13.4097 11.361 13.7169C11.3725 14.0735 11.384 14.4416 11.5676 14.733C11.5726 14.7421 11.5718 14.7512 11.5652 14.756C11.5619 14.761 11.5553 14.7643 11.5495 14.7643C11.5471 14.7643 11.5446 14.7627 11.5413 14.7627C11.1798 14.6045 11.0875 14.1747 10.9986 13.7588C10.9427 13.4994 10.885 13.2334 10.7631 13.0292C10.8348 13.2902 10.7994 13.5784 10.7598 13.8848C10.7154 14.2389 10.6693 14.6045 10.8052 14.9207C10.8084 14.929 10.8068 14.9388 10.7994 14.9438C10.7961 14.9471 10.7911 14.9487 10.7862 14.9487C10.7829 14.9487 10.7796 14.9471 10.7755 14.9454C10.4419 14.7329 10.4189 14.2932 10.3959 13.87C10.3819 13.6048 10.3662 13.3331 10.2781 13.1124C10.3078 13.3792 10.2263 13.6608 10.1414 13.9556C10.0418 14.2965 9.93966 14.6506 10.0228 14.9875C10.0253 14.9956 10.022 15.0047 10.0137 15.008C10.0105 15.0096 10.0072 15.0096 10.0031 15.0096C9.999 15.0096 9.99321 15.008 9.98989 15.0047C9.69426 14.7428 9.74041 14.3047 9.78316 13.8831C9.80955 13.6196 9.83756 13.3479 9.78563 13.1173C9.77166 13.3857 9.64974 13.6501 9.51963 13.9275C9.36645 14.2512 9.21038 14.583 9.24009 14.9281C9.24171 14.9371 9.23592 14.9454 9.22816 14.9471C9.22569 14.9496 9.22238 14.9496 9.22075 14.9496C9.21497 14.9496 9.20883 14.9454 9.20467 14.9422C8.95433 14.6366 9.06793 14.2117 9.17666 13.8008C9.24503 13.5439 9.31417 13.282 9.29978 13.0433C9.24418 13.3076 9.07992 13.5497 8.90699 13.8041C8.70816 14.0989 8.50058 14.4036 8.47716 14.7478C8.47631 14.756 8.46933 14.7627 8.46029 14.7643C8.46029 14.7643 8.45825 14.7659 8.45578 14.7659C8.44915 14.7659 8.44343 14.7626 8.43892 14.756C8.24002 14.415 8.41789 14.0132 8.59005 13.6245C8.69793 13.3824 8.80581 13.1337 8.82888 12.8966C8.73335 13.1469 8.5336 13.361 8.3237 13.5851C8.07908 13.8453 7.82874 14.1137 7.75014 14.4497C7.74852 14.4579 7.74189 14.4645 7.73243 14.4661H7.73081C7.72255 14.4661 7.71472 14.4595 7.71225 14.4529C7.56895 14.0832 7.80652 13.7151 8.03794 13.3594C8.18287 13.1362 8.33026 12.9081 8.38875 12.6766C8.25533 12.9081 8.02355 13.09 7.78062 13.2779C7.49981 13.4977 7.20954 13.7225 7.07985 14.0421C7.07738 14.0502 7.0687 14.0544 7.06214 14.0544H7.06052C7.05107 14.0544 7.04443 14.047 7.04281 14.0387C6.95758 13.6533 7.25194 13.3248 7.53523 13.0085C7.71148 12.8117 7.89344 12.6083 7.98813 12.3917C7.81929 12.6009 7.56324 12.7425 7.29399 12.8892C6.98227 13.0621 6.6599 13.24 6.48287 13.5372C6.47956 13.5422 6.47173 13.5455 6.46516 13.5455C6.46269 13.5455 6.46185 13.5455 6.46023 13.5455C6.45155 13.5439 6.44498 13.5356 6.44414 13.5274C6.42234 13.132 6.76284 12.8554 7.09347 12.587C7.29851 12.4214 7.50933 12.2485 7.63655 12.0468C7.43807 12.2279 7.16262 12.3268 6.87397 12.4322C6.53925 12.5524 6.19296 12.6776 5.97105 12.9427C5.96781 12.946 5.9616 12.9493 5.95581 12.9493C5.95334 12.9493 5.95088 12.9493 5.94756 12.9477C5.93973 12.9443 5.93401 12.9362 5.93564 12.928C5.97437 12.5343 6.35481 12.3136 6.72248 12.1011C6.95102 11.9685 7.18696 11.8319 7.34381 11.6524C7.11859 11.8006 6.83283 11.8541 6.53099 11.9151C6.18018 11.981 5.81823 12.0502 5.55844 12.2774C5.55519 12.2808 5.55018 12.2824 5.54524 12.2824C5.5415 12.2824 5.53826 12.2808 5.53494 12.2791C5.52753 12.2741 5.52302 12.2659 5.52591 12.2576C5.62512 11.8755 6.03604 11.7157 6.43137 11.5643C6.67923 11.4687 6.93246 11.3708 7.11605 11.2185C6.87065 11.3287 6.57918 11.3395 6.27198 11.3486C5.91623 11.3601 5.54856 11.3716 5.25498 11.5544C5.25173 11.5561 5.24841 11.5578 5.2451 11.5578C5.23973 11.5578 5.2348 11.5561 5.23155 11.5528C5.22457 11.5462 5.22287 11.5364 5.22661 11.5297C5.38515 11.1674 5.81421 11.0752 6.23007 10.9863C6.48943 10.9303 6.75628 10.8727 6.96174 10.7507C6.86169 10.7787 6.74845 10.7919 6.62123 10.7919C6.45493 10.7919 6.27706 10.7713 6.10532 10.7475C5.92907 10.726 5.74591 10.703 5.5705 10.703C5.37577 10.703 5.21059 10.7327 5.06899 10.7936C5.06609 10.7936 5.06363 10.7936 5.06031 10.7936C5.05452 10.7936 5.04923 10.7919 5.04507 10.7869C5.03928 10.7796 5.03851 10.7696 5.04345 10.7639C5.25674 10.4304 5.69525 10.4066 6.12014 10.3851C6.38409 10.3703 6.65665 10.3539 6.87735 10.2665C6.83947 10.2698 6.80242 10.2731 6.76369 10.2731C6.76369 10.2731 6.76369 10.2731 6.76284 10.2731C6.52859 10.2731 6.28814 10.204 6.03329 10.1294C5.78048 10.0562 5.51985 9.9804 5.26619 9.9804C5.17228 9.9804 5.0867 9.99112 5.00224 10.0117C4.99356 10.0133 4.98453 10.0097 4.98129 10.0023C4.97592 9.99444 4.97677 9.98456 4.98376 9.97877C5.12953 9.81409 5.33541 9.74078 5.64628 9.74078C5.79325 9.74078 5.95257 9.75765 6.10617 9.77289C6.26097 9.78897 6.42036 9.80499 6.57142 9.80499C6.68791 9.80499 6.78634 9.79384 6.87489 9.77451C6.60522 9.76174 6.33964 9.63862 6.0613 9.50809C5.76524 9.3698 5.461 9.2265 5.14886 9.2265C5.11922 9.2265 5.09001 9.22812 5.06116 9.23059C5.05212 9.23059 5.04345 9.2265 5.04098 9.21782C5.03851 9.20956 5.04098 9.20011 5.04591 9.19517C5.17066 9.09307 5.32257 9.04326 5.51321 9.04326C5.72404 9.04326 5.95913 9.10584 6.18766 9.16638C6.41951 9.22812 6.6599 9.29113 6.87735 9.29113C6.89958 9.29113 6.92223 9.2895 6.94326 9.28781C6.68015 9.23306 6.43807 9.06958 6.18442 8.89671C5.89006 8.69697 5.58574 8.49031 5.24157 8.46604C5.23254 8.46604 5.22548 8.45905 5.22386 8.4508C5.22224 8.44212 5.22548 8.43309 5.23331 8.42935C5.33626 8.36966 5.44654 8.34087 5.5722 8.34087C5.82543 8.34087 6.09841 8.4623 6.36476 8.58048C6.60684 8.68758 6.85718 8.79786 7.09269 8.81931C6.84031 8.72378 6.62702 8.5241 6.40385 8.31328C6.14321 8.07035 5.87559 7.81755 5.53925 7.73973C5.53015 7.7381 5.52401 7.73069 5.52316 7.72202C5.52316 7.71299 5.52768 7.70515 5.53678 7.70268C5.61086 7.67305 5.69038 7.65823 5.77145 7.65823C6.05883 7.65823 6.34952 7.84598 6.63034 8.02753C6.85308 8.1716 7.08239 8.31822 7.31177 8.37833C7.07915 8.24414 6.89965 8.01313 6.71148 7.77105C6.49247 7.48946 6.26725 7.19834 5.94565 7.06951C5.93825 7.06619 5.93246 7.05758 5.93415 7.05018C5.93493 7.04072 5.94156 7.03409 5.95024 7.03247C5.99554 7.02216 6.04126 7.01723 6.08776 7.01723C6.41387 7.01723 6.70125 7.27617 6.97959 7.52573C7.17722 7.70275 7.38099 7.88394 7.5976 7.97785C7.38882 7.80986 7.24721 7.55374 7.09855 7.28449C6.92724 6.97242 6.74937 6.64955 6.45331 6.47253C6.4459 6.46844 6.44258 6.45898 6.44343 6.45157C6.44675 6.44289 6.45331 6.43633 6.46114 6.43549C6.85478 6.41284 7.1339 6.75334 7.40117 7.08397C7.56747 7.28979 7.73963 7.50061 7.94177 7.62782C7.76058 7.42857 7.66096 7.15396 7.55717 6.86532C7.43574 6.53053 7.311 6.18346 7.04789 5.9624C7.04048 5.95662 7.03801 5.94716 7.04133 5.93975C7.04457 5.93192 7.05198 5.92621 7.06066 5.92783C7.45345 5.9665 7.67458 6.34694 7.88787 6.71468C8.01967 6.94314 8.15754 7.17908 8.33583 7.336C8.18802 7.11078 8.13326 6.82418 8.0752 6.52156C8.00852 6.17245 7.9393 5.81049 7.71246 5.55028C7.70668 5.54407 7.70506 5.53419 7.71084 5.52721C7.715 5.5198 7.72439 5.51655 7.73187 5.51895C8.11393 5.61865 8.27247 6.0283 8.42523 6.42441C8.51949 6.67143 8.61912 6.92628 8.77067 7.10831C8.66039 6.86376 8.65009 6.57138 8.64099 6.26424C8.62907 5.9085 8.61834 5.54083 8.43426 5.24809C8.43017 5.24068 8.43101 5.23045 8.43673 5.22544C8.44287 5.21888 8.45112 5.21641 8.4598 5.21965C8.82133 5.37819 8.91313 5.80718 9.00372 6.22304C9.05847 6.48283 9.11654 6.7484 9.23719 6.95217C9.16643 6.69281 9.20262 6.40331 9.24051 6.09822C9.28539 5.7441 9.33153 5.37812 9.19684 5.06189C9.1931 5.05321 9.19394 5.04418 9.20177 5.03882C9.20834 5.03303 9.21786 5.03303 9.22442 5.03719C9.55795 5.25091 9.58095 5.69019 9.60487 6.11346C9.61884 6.37819 9.63365 6.65033 9.72178 6.87061C9.69292 6.60341 9.77364 6.32344 9.85852 6.02823C9.95814 5.68568 10.0611 5.33156 9.97628 4.99683C9.97628 4.9878 9.97959 4.97912 9.98615 4.97588C9.99441 4.97094 10.0034 4.97172 10.0092 4.9775C10.3056 5.24061 10.2595 5.67742 10.215 6.09985C10.1887 6.3638 10.1623 6.63431 10.2134 6.86609C10.2266 6.5972 10.3502 6.33247 10.481 6.05413C10.6325 5.73218 10.7882 5.39908 10.7585 5.05483C10.7569 5.0458 10.7635 5.03712 10.771 5.0355C10.7783 5.03225 10.7882 5.03472 10.7931 5.04086C11.0444 5.3468 10.9315 5.77084 10.8211 6.18261C10.7536 6.43873 10.6844 6.70099 10.6984 6.93898C10.7536 6.67503 10.9174 6.43295 11.0896 6.17894C11.2897 5.88416 11.4972 5.57942 11.521 5.23567C11.521 5.22699 11.5277 5.21958 11.5367 5.21796C11.5458 5.21634 11.554 5.21958 11.5589 5.22699C11.7574 5.56792 11.5795 5.97016 11.4066 6.35886C11.2987 6.60052 11.1901 6.8505 11.1686 7.08644C11.2625 6.83526 11.4635 6.62112 11.6734 6.3976C11.9163 6.13781 12.1691 5.86976 12.2465 5.53335C12.2481 5.52467 12.2572 5.51888 12.2638 5.51811C12.2721 5.51733 12.2811 5.52227 12.2844 5.53045C12.4269 5.89939 12.1897 6.26742 11.9583 6.62444C11.8134 6.84718 11.666 7.07529 11.6075 7.3075C11.7401 7.07367 11.9723 6.8941 12.2152 6.70515C12.4952 6.48607 12.7875 6.26086 12.9152 5.94053C12.9184 5.9327 12.9275 5.92698 12.9357 5.92861C12.9448 5.92938 12.9514 5.93559 12.953 5.94385C13.0378 6.33007 12.7447 6.65739 12.4606 6.9744C12.2843 7.17083 12.1024 7.37382 12.0084 7.59163C12.1764 7.38243 12.4333 7.24082 12.701 7.093C13.014 6.92049 13.3359 6.74339 13.5129 6.44741C13.5187 6.44042 13.5269 6.43548 13.536 6.43795C13.5433 6.44042 13.55 6.44741 13.5508 6.45566C13.5739 6.85057 13.2321 7.1268 12.9027 7.39527C12.6969 7.56199 12.486 7.73415 12.3593 7.93545C12.5569 7.75426 12.8328 7.65548 13.1209 7.55127C13.4561 7.42984 13.8036 7.3051 14.0243 7.04072C14.0293 7.03416 14.0391 7.03246 14.0458 7.03578C14.054 7.03903 14.059 7.04771 14.059 7.05511C14.0194 7.4491 13.639 7.6698 13.2718 7.88147C13.0437 8.0149 12.8073 8.15157 12.6508 8.33029C12.8757 8.18247 13.1622 8.12772 13.4628 8.06965C13.8136 8.00213 14.1767 7.93291 14.4361 7.70607C14.4427 7.70113 14.4526 7.69951 14.4592 7.70445C14.4658 7.70861 14.4707 7.71799 14.469 7.72547C14.3686 8.10754 13.9586 8.26693 13.5616 8.41883C13.3146 8.51472 13.0602 8.61272 12.8774 8.76463C13.1228 8.65393 13.4151 8.64483 13.7223 8.63453C14.078 8.62338 14.4444 8.61188 14.7384 8.42864C14.7458 8.42455 14.7557 8.42455 14.7623 8.43069C14.7681 8.43647 14.7705 8.44635 14.7664 8.45334C14.6075 8.81565 14.1785 8.90786 13.7643 8.99719C13.5033 9.05194 13.2373 9.11001 13.0314 9.23228C13.1335 9.20469 13.2438 9.19115 13.3715 9.19115C13.5378 9.19115 13.7156 9.21217 13.8877 9.23482C14.0639 9.25705 14.2468 9.28047 14.4221 9.28047C14.6174 9.28047 14.782 9.25084 14.9253 9.1903C14.9319 9.18783 14.9417 9.1903 14.9467 9.19609C14.9525 9.20307 14.9533 9.21295 14.9492 9.21951C14.7351 9.55303 14.2979 9.57653 13.8729 9.59833C13.6086 9.61357 13.3352 9.62881 13.1153 9.71651C13.1516 9.7132 13.1894 9.7103 13.2289 9.7103C13.4628 9.7103 13.7049 9.77945 13.9586 9.85403C14.2114 9.92734 14.4724 10.003 14.726 10.003C14.8199 10.003 14.9064 9.99274 14.9895 9.97179C14.9977 9.97016 15.006 9.97341 15.0109 9.98124C15.0255 9.98766 15.0255 9.99789 15.0197 10.0037Z" fill="#E31A30"/>
<path d="M10.0058 6.99072C8.34813 6.99072 7.00586 8.33384 7.00586 9.99065C7.00586 11.6463 8.34806 12.9902 10.0058 12.9902C11.6626 12.9902 13.0065 11.6463 13.0065 9.99065C13.0049 8.33377 11.6626 6.99072 10.0058 6.99072ZM11.997 8.4976C12.0167 8.52519 12.0382 8.55482 12.0579 8.5841C12.0603 8.58862 12.0603 8.59356 12.0587 8.59765C12.0563 8.60217 12.0514 8.60548 12.0481 8.60548C11.633 8.6306 11.232 8.72776 10.854 8.88962C10.8524 8.89124 10.8507 8.89124 10.8491 8.89124C10.8458 8.89124 10.8441 8.89039 10.8409 8.88877C10.7897 8.85088 10.7519 8.82287 10.7157 8.7986C10.7108 8.79493 10.7091 8.79077 10.7091 8.78583C10.7107 8.78089 10.7124 8.77637 10.7174 8.77468C11.12 8.60626 11.5458 8.51073 11.9855 8.49309C11.9903 8.49316 11.9944 8.49393 11.997 8.4976ZM11.7746 8.23534C11.8025 8.26462 11.8306 8.29588 11.8602 8.32798C11.8627 8.33215 11.8652 8.33786 11.8619 8.34238C11.8602 8.34732 11.8561 8.34979 11.8512 8.34979C11.3761 8.36256 10.9124 8.45929 10.4776 8.64083C10.4751 8.64168 10.4734 8.64168 10.4718 8.64168C10.4686 8.64168 10.4669 8.64168 10.4653 8.64006C10.4134 8.61042 10.3615 8.58079 10.308 8.55235C10.3023 8.55073 10.299 8.5453 10.3006 8.53958C10.3006 8.53464 10.3039 8.53013 10.3088 8.52844C10.77 8.33701 11.2599 8.23697 11.7648 8.23076C11.768 8.23005 11.7713 8.23167 11.7746 8.23534ZM10.5616 9.02551C10.5616 9.0296 10.5592 9.03369 10.5558 9.03616C10.4999 9.06664 10.4447 9.0979 10.3961 9.12718C10.3945 9.12922 10.3928 9.13007 10.3887 9.13007C10.3862 9.13007 10.383 9.12922 10.3814 9.12718C10.3377 9.09465 10.2941 9.06248 10.2496 9.03207C10.2463 9.0296 10.2447 9.02551 10.2447 9.02092C10.2447 9.01598 10.2472 9.01189 10.2513 9.00942C10.304 8.97809 10.3584 8.94768 10.4135 8.91925C10.4177 8.91636 10.4226 8.9172 10.4275 8.9201C10.4703 8.94931 10.5132 8.97979 10.5559 9.01358C10.5599 9.01605 10.5625 9.02014 10.5616 9.02551ZM8.43096 8.0538C8.87272 7.68613 9.43188 7.48391 10.0042 7.48391C10.5773 7.48391 11.1356 7.68606 11.5778 8.0538C11.582 8.05705 11.5836 8.06325 11.582 8.06904C11.5803 8.07398 11.5753 8.07772 11.5704 8.07772C11.0269 8.0835 10.5032 8.19301 10.0092 8.40383C10.0076 8.40468 10.0059 8.40546 10.0042 8.40546C10.0009 8.40546 10.0001 8.40461 9.99767 8.40383C9.50526 8.19301 8.97982 8.0835 8.43675 8.07772C8.43181 8.07772 8.42687 8.07398 8.42525 8.06904C8.42518 8.06325 8.42765 8.05705 8.43096 8.0538ZM10.0124 8.87275C10.0091 8.87437 10.0075 8.87437 10.0058 8.87437C10.0025 8.87437 10.0008 8.87437 9.99845 8.87275C9.94652 8.84312 9.89382 8.81384 9.83949 8.7842C9.83455 8.78258 9.83123 8.77842 9.83123 8.77313C9.83123 8.76819 9.83448 8.76402 9.83949 8.7612C9.88972 8.73192 9.94328 8.70151 9.99845 8.67308C10.0025 8.67103 10.0075 8.67103 10.0124 8.67392C10.0667 8.70151 10.1211 8.73199 10.1712 8.76163C10.1754 8.76409 10.1787 8.76819 10.1787 8.7732C10.1787 8.77856 10.1753 8.78265 10.1712 8.78427C10.1161 8.81306 10.0634 8.84227 10.0124 8.87275ZM10.1507 9.2865C10.1507 9.29186 10.1507 9.29602 10.1458 9.29764C10.1022 9.33059 10.0577 9.36517 10.014 9.40059C10.0125 9.40221 10.0075 9.40306 10.0059 9.40306C10.0025 9.40306 9.99852 9.40221 9.99767 9.40059C9.95315 9.36517 9.9087 9.33059 9.86425 9.29764C9.86009 9.29602 9.85931 9.29186 9.85931 9.2865C9.85931 9.28325 9.86009 9.27916 9.86425 9.27662C9.9087 9.24205 9.95315 9.20825 9.99767 9.17699C10.0025 9.17368 10.0092 9.17368 10.0125 9.17699C10.0586 9.2091 10.1022 9.24289 10.1458 9.27662C10.1507 9.27916 10.1507 9.28325 10.1507 9.2865ZM9.76533 9.02092C9.76533 9.02544 9.76371 9.0296 9.76039 9.03207C9.71347 9.06417 9.67064 9.09627 9.62866 9.12718C9.62704 9.12922 9.62372 9.13007 9.6221 9.13007C9.61879 9.13007 9.61716 9.12922 9.61385 9.12718C9.56276 9.09627 9.51013 9.06579 9.45573 9.03616C9.45079 9.03369 9.44917 9.0296 9.44917 9.02551C9.44754 9.02014 9.44917 9.01605 9.45411 9.01358C9.50103 8.97816 9.54223 8.94768 9.58421 8.9201C9.58753 8.9172 9.59247 8.91636 9.59741 8.91925C9.65343 8.94931 9.70938 8.97979 9.76046 9.00942C9.76371 9.01274 9.76533 9.01605 9.76533 9.02092ZM8.1493 8.32798C8.17893 8.29588 8.20737 8.26462 8.23616 8.23534C8.23947 8.23167 8.24272 8.23083 8.24603 8.23083C8.75037 8.23697 9.23954 8.33701 9.70112 8.52851C9.70606 8.53013 9.71016 8.53556 9.71016 8.53965C9.71016 8.54544 9.70853 8.55038 9.70275 8.55327C9.6492 8.58001 9.59734 8.60965 9.54548 8.64097C9.54301 8.6426 9.54054 8.6426 9.53814 8.6426C9.53652 8.6426 9.53567 8.6426 9.5332 8.64175C9.09716 8.46014 8.63685 8.3634 8.15967 8.3507C8.15516 8.3507 8.14937 8.34823 8.14853 8.34329C8.14514 8.33786 8.14761 8.33215 8.1493 8.32798ZM7.95209 8.5841C7.97143 8.55567 7.99245 8.52604 8.01256 8.4976C8.01503 8.49386 8.02039 8.49309 8.02371 8.49224C8.46307 8.50995 8.88874 8.60541 9.29267 8.77383C9.29684 8.77545 9.2993 8.77997 9.3005 8.78498C9.3005 8.78992 9.29846 8.79401 9.29345 8.79775C9.25478 8.82371 9.21443 8.85335 9.1687 8.88792C9.16623 8.88954 9.16461 8.89039 9.16045 8.89039C9.1584 8.89039 9.15678 8.89039 9.15509 8.88877C8.77754 8.72698 8.37607 8.62975 7.96268 8.60471C7.95774 8.60471 7.95365 8.60097 7.95118 8.59688C7.94963 8.59356 7.94963 8.58862 7.95209 8.5841ZM7.71241 10.882C7.71157 10.8869 7.70501 10.8902 7.69887 10.8902C7.69393 10.8902 7.68899 10.8869 7.6873 10.882C7.58026 10.5971 7.52509 10.2957 7.52509 9.99058C7.52509 9.55334 7.63911 9.12309 7.85409 8.74469C7.85656 8.73933 7.86108 8.73771 7.86771 8.73771C8.24526 8.77313 8.61455 8.87113 8.96127 9.02798C8.96621 9.0296 8.9691 9.03376 8.96995 9.03785C8.97079 9.04279 8.9691 9.04731 8.96543 9.05063C8.3906 9.53648 7.95781 10.1705 7.71241 10.882ZM8.12665 11.6132C8.12503 11.6132 8.12418 11.6148 8.12418 11.6148C8.11882 11.6148 8.1155 11.6116 8.11303 11.6099C8.04967 11.5342 7.98914 11.4534 7.93439 11.3695C7.93276 11.3662 7.93192 11.3628 7.93276 11.3595C8.12588 10.5031 8.5792 9.7497 9.24371 9.18108C9.24822 9.17784 9.25485 9.17699 9.25895 9.17946C9.31208 9.21079 9.36683 9.24374 9.41833 9.27746C9.42158 9.27993 9.42447 9.28325 9.42447 9.28734C9.42447 9.29186 9.4232 9.29602 9.41996 9.29849C8.74141 9.89223 8.28519 10.7108 8.1366 11.6034C8.13568 11.6083 8.13074 11.6116 8.12665 11.6132ZM8.66112 12.0727C8.66112 12.0776 8.65865 12.081 8.65449 12.0843C8.65286 12.0843 8.64912 12.0858 8.64835 12.0858C8.64503 12.0858 8.64256 12.0843 8.64094 12.0843C8.5701 12.0364 8.50173 11.9854 8.43753 11.9327C8.43506 11.9295 8.43336 11.9262 8.43336 11.9212C8.51775 10.9693 8.9497 10.0936 9.65089 9.45534C9.65667 9.45125 9.66324 9.4504 9.66817 9.45456C9.71185 9.48836 9.7563 9.52533 9.8016 9.56491C9.80491 9.56738 9.80654 9.57105 9.80654 9.57521C9.80654 9.57853 9.80491 9.58185 9.8016 9.58425C9.44423 9.92271 9.16384 10.3212 8.96741 10.7708C8.78502 11.1817 8.68292 11.6198 8.66112 12.0727ZM11.0318 12.2638C11.0318 12.2671 11.0285 12.272 11.0236 12.2761C10.7008 12.4227 10.3582 12.4968 10.0042 12.4968C9.65089 12.4968 9.30714 12.4227 8.98512 12.2761C8.97975 12.272 8.97728 12.2671 8.97728 12.2638V12.2538C8.97728 11.3134 9.33839 10.4274 9.99429 9.76162C10 9.75626 10.0091 9.75626 10.014 9.76162C10.6687 10.4274 11.0301 11.3134 11.0301 12.2538V12.2638H11.0318ZM11.572 11.9327C11.507 11.9854 11.4403 12.0365 11.3686 12.0843C11.367 12.0843 11.3644 12.0858 11.3613 12.0858C11.3613 12.0858 11.3571 12.0843 11.3546 12.0843C11.3513 12.081 11.3481 12.0776 11.3481 12.0727C11.3266 11.6214 11.2237 11.1817 11.0425 10.77C10.8457 10.3204 10.5633 9.92264 10.2067 9.5834C10.2033 9.58093 10.2025 9.57761 10.2025 9.5743C10.2025 9.56978 10.205 9.56654 10.2067 9.564C10.2511 9.52611 10.2956 9.48899 10.3409 9.45365C10.3466 9.44948 10.3532 9.45033 10.3581 9.45449C11.0597 10.0927 11.4929 10.9676 11.5761 11.9195C11.5762 11.9262 11.5745 11.9295 11.572 11.9327ZM12.0743 11.3695C12.0217 11.4518 11.9615 11.5325 11.8964 11.6099C11.894 11.6116 11.8906 11.6148 11.8874 11.6148C11.8874 11.6148 11.8849 11.6132 11.8832 11.6132C11.8783 11.6116 11.875 11.6083 11.8733 11.6033C11.7234 10.7107 11.2672 9.89131 10.5895 9.29757C10.5863 9.2951 10.5854 9.29101 10.5854 9.28643C10.5854 9.28233 10.587 9.27909 10.5903 9.27655C10.6447 9.24197 10.699 9.20902 10.7501 9.17939C10.755 9.17615 10.7616 9.17692 10.7658 9.18024C11.4303 9.7497 11.8832 10.5031 12.0775 11.3578C12.0776 11.3628 12.0776 11.3662 12.0743 11.3695ZM12.1551 8.74469C12.3709 9.12224 12.4844 9.55334 12.4844 9.99058C12.4844 10.2957 12.43 10.5971 12.3231 10.882C12.3206 10.8869 12.3157 10.8902 12.3098 10.8902C12.3049 10.8902 12.2999 10.8869 12.2966 10.882C12.0512 10.1705 11.6189 9.53648 11.0457 9.05055C11.0425 9.04731 11.04 9.04322 11.0416 9.03778C11.0416 9.03362 11.0449 9.02953 11.049 9.02791C11.3957 8.87106 11.7646 8.77305 12.1425 8.73764C12.1501 8.73771 12.1534 8.73933 12.1551 8.74469Z" fill="#E31A30"/>
</g>
</g>
<defs>
<clipPath id="clip0_582_494">
<rect width="20" height="20" fill="white"/>
</clipPath>
</defs>
</svg>
