<svg width="81" height="81" viewBox="0 0 81 81" fill="none" xmlns="http://www.w3.org/2000/svg">
<path d="M72.6038 75.694H8.77172C8.1022 75.694 7.56348 75.1554 7.56348 74.4859V67.5087C7.56348 66.8391 8.1022 66.3005 8.77172 66.3005L72.6089 66.3004C73.2784 66.3004 73.8171 66.839 73.8171 67.5086V74.4858C73.812 75.1553 73.2734 75.694 72.6038 75.694ZM9.97987 73.2776H71.4007V68.7168H9.97987V73.2776ZM57.9949 68.7168C57.3255 68.7168 56.7867 68.1781 56.7867 67.5086V59.6806C56.7867 56.1416 53.9073 53.2571 50.3633 53.2571C46.8193 53.2571 43.9398 56.1367 43.9398 59.6806V67.5086C43.9398 68.1781 43.4012 68.7168 42.7316 68.7168C42.0622 68.7168 41.5235 68.1781 41.5235 67.5086V59.6806C41.5235 54.8076 45.4904 50.8408 50.3634 50.8408C55.2364 50.8408 59.2032 54.8076 59.2032 59.6806V67.5086C59.2032 68.1781 58.6645 68.7168 57.9949 68.7168ZM57.9949 64.3975C57.4261 64.3975 56.9227 63.9948 56.8119 63.421C56.6861 62.7665 57.114 62.1322 57.7683 62.0064C65.6668 60.4761 71.4007 52.3762 71.4007 42.746C71.4007 35.8091 68.2896 29.3353 63.2858 25.8467C62.7371 25.464 62.6011 24.714 62.9837 24.1652C63.3663 23.6165 64.1164 23.4806 64.6651 23.8632C67.4138 25.7762 69.7093 28.5046 71.3151 31.7516C72.9563 35.0741 73.8222 38.8749 73.8222 42.741C73.8222 45.3839 73.4295 47.9663 72.6491 50.423C71.894 52.7991 70.8017 54.9939 69.3971 56.9321C66.5378 60.8889 62.576 63.5317 58.2366 64.3724C58.151 64.3926 58.0705 64.3975 57.9949 64.3975ZM57.9949 57.8231C57.4966 57.8231 57.0284 57.5109 56.8522 57.0126C56.6307 56.3834 56.963 55.6937 57.5972 55.4722C59.0973 54.9486 60.522 53.9267 61.7051 52.5172C62.7219 51.3089 63.5274 49.8793 64.1013 48.2684C64.7205 46.5316 65.0325 44.6741 65.0325 42.741C65.0325 40.8129 64.7205 38.9503 64.1013 37.2135C63.5274 35.6027 62.7219 34.173 61.7051 32.9648C61.1059 32.255 60.4516 31.6409 59.7518 31.1424C59.2081 30.7548 59.0823 29.9997 59.475 29.4561C59.8626 28.9124 60.6177 28.7866 61.1613 29.1792C62.0221 29.7934 62.8276 30.5485 63.5575 31.4093C64.7606 32.839 65.7121 34.5203 66.3817 36.403C67.0914 38.4016 67.4539 40.531 67.4539 42.741C67.4539 44.9459 67.0914 47.0803 66.3817 49.0789C65.7121 50.9617 64.7606 52.643 63.5575 54.0727C62.0926 55.8144 60.3055 57.0881 58.3926 57.7526C58.2616 57.8029 58.1308 57.8231 57.9949 57.8231ZM32.593 68.7168H15.5778C14.9083 68.7168 14.3696 68.1781 14.3696 67.5086V62.0617C14.3696 61.3922 14.9083 60.8535 15.5778 60.8535H32.593C33.2625 60.8535 33.8011 61.3922 33.8011 62.0617V67.5086C33.8011 68.1781 33.2625 68.7168 32.593 68.7168ZM16.786 66.3004H31.3848V63.2699L16.786 63.27V66.3004ZM36.0263 63.27H12.1445C11.475 63.27 10.9364 62.7313 10.9364 62.0617V56.6149C10.9364 55.9454 11.475 55.4067 12.1445 55.4067L36.0313 55.4067C36.7008 55.4067 37.2394 55.9453 37.2394 56.6149V62.0617C37.2343 62.7313 36.6957 63.27 36.0263 63.27ZM13.3528 60.8535H34.8231V57.8231L13.3528 57.8231V60.8535ZM65.5341 20.3141C67.0076 18.8345 65.911 17.302 65.911 17.302L67.7926 15.4202C68.9698 14.2709 68.8671 13.1635 67.8478 12.0863L61.6136 5.852C60.3901 4.76673 59.227 4.69995 58.1295 5.75712L56.2478 7.63885C55.0638 6.47406 53.7372 7.63881 53.7372 7.63881L51.9179 5.81948C50.9478 4.84936 49.3741 4.84957 48.4041 5.81953L26.618 27.6057C25.6478 28.5758 25.6479 30.1495 26.618 31.1195L28.4371 32.9388C27.5758 33.8001 28.4372 35.4496 28.4372 35.4496L26.6179 37.2688C25.6478 38.2389 25.6479 39.8126 26.618 40.7825L32.7672 46.9318C33.7373 47.902 35.311 47.902 36.281 46.9318L38.1002 45.1125C39.0728 45.6862 40.3136 45.5339 41.1125 44.7358C44.1122 41.7387 49.896 35.9542 55.2962 30.553C54.6026 30.087 54.0055 29.4881 53.5412 28.7933C48.1401 34.1946 42.3547 39.9801 39.3556 42.9787L30.571 34.1941L54.9926 9.77256L63.7771 18.5571L62.3581 19.9762C63.0531 20.4399 63.6521 21.0365 64.1185 21.7295L65.5341 20.3141ZM59.824 7.57649L65.9732 13.7257L64.2164 15.4825L58.0671 9.33329L59.824 7.57649ZM50.161 7.57639L51.9179 9.33329L30.1318 31.1195L28.3749 29.3626L50.161 7.57639ZM28.3749 39.0256L30.1317 37.2688L36.281 43.418L34.5241 45.1749L28.3749 39.0256ZM58.8356 31.6307C55.3269 31.6307 52.4726 28.7764 52.4726 25.2677C52.4726 21.759 55.327 18.9097 58.8356 18.9097C62.3443 18.9097 65.1987 21.764 65.1987 25.2727C65.1987 28.7814 62.3443 31.6307 58.8356 31.6307ZM60.3257 25.2676C60.3257 24.4447 59.6586 23.7776 58.8356 23.7776C58.0127 23.7776 57.3456 24.4447 57.3456 25.2676C57.3456 26.0906 58.0127 26.7577 58.8356 26.7577C59.6586 26.7577 60.3257 26.0906 60.3257 25.2676ZM58.8356 21.326C56.661 21.326 54.889 23.0979 54.889 25.2727C54.889 27.4474 56.661 29.2194 58.8356 29.2194C61.0104 29.2194 62.7824 27.4474 62.7824 25.2727C62.7824 23.0979 61.0104 21.326 58.8356 21.326Z" fill="#295BB8"/>
</svg>
