<svg width="416" height="70" viewBox="0 0 416 70" fill="none" xmlns="http://www.w3.org/2000/svg">
<g clip-path="url(#clip0_15_4788)">
<path fill-rule="evenodd" clip-rule="evenodd" d="M48.8714 69.9193H65.5101V67.0213C65.5101 67.0213 54.448 66.4679 53.9208 55.2585V50.7003C53.9816 48.0135 55.9486 40.9297 61.6064 40.4166C57.0437 39.5411 53.7889 34.8017 53.9106 30.1328C53.9106 30.1328 53.9106 28.9857 53.9106 25.0212C54.1742 12.1012 68.8967 12.2119 69.647 12.2119H69.9106C82.5849 12.2119 83.9132 22.2742 83.9132 22.878H86.7117L85.6978 4.11169L85.4139 0.257812H83.4874C83.4874 0.257812 82.4734 3.55825 75.0717 3.55825H20.1564C12.7445 3.58843 11.7306 0.257812 11.7306 0.257812H9.82436L9.51004 4.13181L8.49609 22.878H11.2946C11.2946 22.244 12.633 12.2119 25.287 12.2119H25.5709C26.311 12.2119 41.0335 12.1012 41.2871 25.0212C41.2871 28.9857 41.2871 30.1328 41.2871 30.1328C41.3985 34.8017 38.1337 39.5009 33.571 40.4166C39.2186 40.9297 41.1958 48.0135 41.2668 50.7003V55.2585C40.7496 66.4679 29.7078 67.0314 29.7078 67.0314V69.9193H48.8714Z" fill="#FF0000"/>
<path fill-rule="evenodd" clip-rule="evenodd" d="M94.6606 40.4168C93.2613 38.2232 87.563 37.3981 85.9406 37.6094C87.3703 35.597 87.5325 32.0952 86.7619 29.8211C85.8494 27.1748 84.156 26.7421 83.9533 29.4589C83.5781 34.5705 78.8835 37.7704 73.1852 37.1969C71.5019 37.0859 69.9062 36.4113 68.6593 35.2835C67.4125 34.1558 66.5879 32.6415 66.3209 30.9884C65.8139 28.0703 66.554 25.1221 69.8798 24.307C72.587 23.653 74.402 25.1422 74.5135 26.9836C74.6859 29.8614 72.2017 28.8049 71.8266 30.6462C71.7636 30.9521 71.7675 31.2679 71.8379 31.5723C71.9084 31.8766 72.0438 32.1624 72.2351 32.4104C72.4263 32.6584 72.6689 32.8627 72.9464 33.0096C73.2241 33.1567 73.5303 33.2429 73.8443 33.2624C79.1168 33.4536 80.6276 28.6237 79.9279 25.3535C79.5456 23.2383 78.4178 21.3269 76.7461 19.9609C75.0744 18.595 72.9676 17.8635 70.8024 17.8973C65.0433 17.7665 59.5477 21.6204 59.5477 29.4186C59.5124 31.6299 60.0658 33.811 61.1518 35.7421C62.2376 37.6732 63.818 39.2856 65.7327 40.4168C63.7976 41.5335 62.1961 43.1402 61.0915 45.0725C59.9871 47.0049 59.4193 49.1935 59.4462 51.4149C59.4462 59.2132 64.9419 63.0671 70.7011 62.9363C72.8662 62.9701 74.973 62.2386 76.6447 60.8726C78.3164 59.5067 79.4443 57.5953 79.8265 55.4801C80.5059 52.2099 78.9951 47.4302 73.7429 47.571C73.429 47.5896 73.1229 47.6744 72.8449 47.8203C72.5669 47.9661 72.3235 48.1693 72.1315 48.4163C71.9393 48.6632 71.8026 48.9482 71.7309 49.2519C71.659 49.5558 71.6536 49.8712 71.7149 50.1773C72.0902 52.0388 74.5744 50.9621 74.402 53.8601C74.2904 55.6813 72.4755 57.1806 69.7682 56.5366C66.4426 55.7115 65.7125 52.7532 66.2092 49.8452C66.4781 48.1929 67.3031 46.6795 68.5496 45.5521C69.7963 44.4247 71.3909 43.7496 73.0737 43.6367C78.843 43.0632 83.5781 46.2629 83.9836 51.3747C84.1865 54.0915 85.8798 53.6588 86.7924 51.0125C87.563 48.7384 87.4006 45.2165 85.9711 43.2141C87.563 43.4858 93.2918 42.6204 94.6909 40.4168" fill="#FF0000"/>
<path fill-rule="evenodd" clip-rule="evenodd" d="M0.839844 40.4161C2.23909 38.2224 7.93745 37.3973 9.54962 37.6086C8.14024 35.5962 7.95773 32.0945 8.74861 29.8205C9.66116 27.1741 11.3443 26.7414 11.5369 29.4582C11.9222 34.5698 16.6067 37.7696 22.3151 37.1961C23.9992 37.09 25.5962 36.4171 26.8425 35.2881C28.0889 34.1593 28.9097 32.6422 29.1695 30.9877C29.6865 28.0697 28.9464 25.1114 25.6206 24.3062C22.9135 23.6522 21.0984 25.1415 20.997 26.9829C20.8146 29.8607 23.2886 28.8042 23.6841 30.6456C23.7453 30.9521 23.7399 31.2682 23.6681 31.5724C23.5964 31.8767 23.4599 32.1623 23.2678 32.41C23.076 32.6577 22.8328 32.8619 22.5548 33.0088C22.2768 33.1557 21.9705 33.2419 21.6561 33.2618C16.3938 33.4529 14.8931 28.6231 15.5724 25.3529C15.9526 23.2358 17.0795 21.3219 18.7514 19.9539C20.4234 18.5861 22.5313 17.8533 24.6979 17.8865C30.4673 17.7658 35.9528 21.6196 35.9528 29.418C35.9777 31.6389 35.409 33.8268 34.3047 35.7587C33.2005 37.6907 31.5999 39.2977 29.6663 40.4161C31.6013 41.5329 33.2029 43.1396 34.3075 45.0718C35.4119 47.0041 35.9797 49.1929 35.9528 51.4141C35.9528 59.2125 30.4673 63.0663 24.6979 62.9355C22.5328 62.9693 20.426 62.2378 18.7543 60.872C17.0826 59.506 15.9548 57.5947 15.5724 55.4794C14.9032 52.209 16.3938 47.4295 21.6561 47.5603C21.9692 47.5834 22.2738 47.6716 22.5501 47.8194C22.8266 47.9673 23.0682 48.1713 23.2596 48.4182C23.4511 48.6653 23.5879 48.9495 23.661 49.2525C23.7342 49.5554 23.7419 49.8703 23.6841 50.1765C23.2784 52.0279 20.8044 50.9613 20.9666 53.8594C21.0882 55.6807 22.9033 57.1799 25.6206 56.5359C28.9362 55.7108 29.6765 52.7526 29.1593 49.8444C28.8943 48.1922 28.0719 46.6781 26.8266 45.5502C25.5813 44.4223 23.9873 43.7475 22.3051 43.636C16.6472 43.0625 11.9121 46.2522 11.5268 51.3739C11.3342 54.1009 9.65102 53.6582 8.72832 51.0116C7.94759 48.7376 8.11996 45.2158 9.53948 43.2235C7.93745 43.5254 2.23909 42.6198 0.839844 40.4161Z" fill="#FF0000"/>
<path d="M134.456 16.1656C138.826 16.1656 144.089 16.0449 145.995 15.9141V26.6103C144.089 26.4695 138.826 26.2884 134.456 26.2884H132.996C132.935 28.6228 132.935 31.7018 132.935 34.3381V47.9927C132.935 52.2693 133.067 57.3004 133.26 59.2525H120.139C120.271 57.3004 120.454 52.2693 120.454 47.9927V34.3482C120.454 31.7018 120.393 28.6228 120.271 26.2984H118.801C114.492 26.2984 109.3 26.4795 107.404 26.6204V15.9141C109.3 16.0449 114.502 16.1656 118.801 16.1656H134.456Z" fill="white"/>
<path d="M173.14 15.3516C186.757 15.3516 196.834 25.3535 196.834 37.6899C196.834 50.0264 186.757 60.0584 173.14 60.0584C159.521 60.0584 149.494 50.0666 149.494 37.6899C149.494 25.3133 159.572 15.3516 173.14 15.3516ZM173.14 49.6943C179.527 49.6943 184.354 44.3411 184.354 37.6899C184.354 31.0387 179.527 25.6151 173.14 25.6151C166.751 25.6151 161.986 30.9682 161.986 37.6899C161.986 44.4115 166.731 49.6943 173.14 49.6943Z" fill="white"/>
<path d="M229.119 38.555L214.924 51.3241C212.59 53.407 208.92 57.1199 206.121 60.0078H203.08C203.334 56.3552 203.394 52.4511 203.394 49.8148V27.4261C203.394 23.9848 203.202 18.9436 203.08 16.1763H216.069C215.887 18.8229 215.765 23.8439 215.765 27.4261V35.9791L231.146 22.395C233.549 20.3825 235.395 18.5109 238.487 15.3513H241.732C241.599 18.7424 241.468 24.025 241.468 27.8587V50.1267C241.468 53.4674 241.599 57.4922 241.732 59.2531H228.854C228.977 57.4922 229.119 53.4674 229.119 50.1971V38.555ZM224.098 7.98568C226.391 7.98568 227.78 6.67758 227.78 5.02734H237.219C237.219 10.5717 232.474 14.5362 224.098 14.5362C215.725 14.5362 211.162 10.5717 211.162 5.02734H220.561C220.561 6.67758 221.878 7.98568 224.098 7.98568Z" fill="white"/>
<path d="M265.835 16.1654C271.846 16.1654 273.692 16.1654 279.705 15.8535V25.282C274.321 24.97 271.592 24.97 265.51 25.0304H263.045V33.1506H270.011C278.508 33.1506 283.841 38.3026 283.841 45.6581C283.841 53.708 278.508 59.2523 269.119 59.2523H250.27C250.472 57.3002 250.594 52.2691 250.594 47.9925V27.4856C250.594 23.833 250.523 20.13 250.341 16.1654H265.835ZM263.045 50.5082H266.847C270.204 50.5082 271.41 48.3044 271.41 46.2316C271.447 45.6332 271.351 45.0341 271.133 44.4752C270.915 43.9162 270.578 43.4105 270.145 42.9924C269.712 42.5743 269.194 42.2535 268.625 42.0519C268.056 41.8504 267.45 41.7728 266.847 41.8244H263.045V50.5082Z" fill="white"/>
<path d="M312.639 15.3516C326.316 15.3516 336.355 25.3535 336.355 37.6899C336.355 50.0264 326.316 60.0584 312.639 60.0584C298.96 60.0584 289.014 50.0666 289.014 37.6899C289.014 25.3133 299.082 15.3516 312.639 15.3516ZM312.639 49.6943C319.046 49.6943 323.862 44.3411 323.862 37.6899C323.862 31.0387 319.046 25.6151 312.639 25.6151C306.23 25.6151 301.485 30.9682 301.485 37.6899C301.485 44.4115 306.241 49.6943 312.639 49.6943Z" fill="white"/>
<path d="M365.86 49.3821C369.512 49.4874 373.06 48.1773 375.755 45.7295V58.9313C372.156 59.1225 370.554 60.0079 364.723 60.0079C350.904 60.0079 341.656 50.006 341.656 37.6194C341.656 25.2326 350.904 15.291 364.723 15.291C370.494 15.291 372.075 16.2369 375.248 16.2369V29.8713C374.008 28.6256 372.527 27.64 370.895 26.9728C369.263 26.3056 367.513 25.9704 365.748 25.9873C364.201 25.9601 362.664 26.2423 361.229 26.8171C359.794 27.3918 358.489 28.2474 357.395 29.3329C356.3 30.4184 355.437 31.7115 354.857 33.135C354.276 34.5588 353.99 36.0837 354.016 37.6194C353.991 39.1699 354.282 40.7097 354.868 42.1472C355.454 43.5847 356.326 44.8906 357.43 45.9877C358.534 47.0848 359.85 47.9505 361.297 48.5336C362.746 49.1168 364.297 49.4053 365.86 49.3821Z" fill="white"/>
<path d="M405.323 49.3821C408.971 49.4891 412.518 48.1785 415.209 45.7295V58.9313C411.598 59.1225 410.017 60.0079 404.177 60.0079C390.367 60.0079 381.119 50.006 381.119 37.6194C381.119 25.2326 390.367 15.291 404.177 15.291C409.946 15.291 411.527 16.2369 414.712 16.2369V29.8713C413.466 28.6259 411.982 27.6406 410.348 26.9736C408.712 26.3065 406.958 25.9712 405.191 25.9873C403.645 25.9615 402.108 26.2446 400.675 26.82C399.242 27.3954 397.938 28.2513 396.845 29.3366C395.75 30.422 394.889 31.7146 394.309 33.1375C393.73 34.5605 393.444 36.0847 393.47 37.6194C393.447 39.1704 393.737 40.7103 394.325 42.1478C394.912 43.5855 395.784 44.8914 396.89 45.9884C397.995 47.0851 399.311 47.9508 400.76 48.5338C402.209 49.1168 403.759 49.4052 405.323 49.3821Z" fill="white"/>
</g>
<defs>
<clipPath id="clip0_15_4788">
<rect width="414.733" height="69.8989" fill="white" transform="translate(0.839844 0.0507812)"/>
</clipPath>
</defs>
</svg>
