<svg width="24" height="25" viewBox="0 0 24 25" fill="none" xmlns="http://www.w3.org/2000/svg">
<path d="M8.75 10.7112C8.75 8.91625 10.2051 7.46118 12 7.46118C13.7949 7.46118 15.25 8.91625 15.25 10.7112C15.25 12.5061 13.7949 13.9612 12 13.9612C10.2051 13.9612 8.75 12.5061 8.75 10.7112Z" fill="#BA2828"/>
<path fill-rule="evenodd" clip-rule="evenodd" d="M3.77159 9.58857C4.11523 5.41963 7.59902 2.21118 11.7821 2.21118H12.214C16.3972 2.21118 19.881 5.41963 20.2246 9.58857C20.4095 11.8332 19.7162 14.062 18.2905 15.8055L13.4976 21.6673C12.7226 22.6151 11.2736 22.6151 10.4986 21.6673L5.70557 15.8055C4.27992 14.062 3.58657 11.8332 3.77159 9.58857ZM11.998 5.96118C9.3747 5.96118 7.24805 8.08783 7.24805 10.7112C7.24805 13.3346 9.3747 15.4612 11.998 15.4612C14.6214 15.4612 16.748 13.3346 16.748 10.7112C16.748 8.08783 14.6214 5.96118 11.998 5.96118Z" fill="#BA2828"/>
</svg>
