<svg width="30" height="30" viewBox="0 0 30 30" fill="none" xmlns="http://www.w3.org/2000/svg">
<circle cx="15" cy="15" r="15" fill="#E87E2D"/>
<g clip-path="url(#clip0_44_11419)">
<path d="M9.34739 15.6843C8.87135 16.62 9.41184 17.0673 10.645 17.8315C11.6934 18.4791 13.1417 18.716 14.072 18.8107C13.6907 19.1773 15.438 17.4968 10.4059 22.3372C9.33884 23.3599 11.0566 25.0008 12.1228 23.9998L15.0094 21.2158C16.1144 22.2789 17.1737 23.2978 17.8959 24.0037C18.9629 25.0086 20.6799 23.3816 19.6245 22.341C19.5453 22.2657 15.7129 18.5894 15.9467 18.8146C16.8887 18.7199 18.3152 18.4691 19.3512 17.8354L19.3504 17.8346C20.5836 17.0666 21.1241 16.62 20.655 15.6843C20.3716 15.1531 19.6074 14.7089 18.5901 15.4769C18.5901 15.4769 17.2164 16.5292 15.0008 16.5292C12.7845 16.5292 11.4115 15.4769 11.4115 15.4769C10.395 14.705 9.62773 15.1531 9.34739 15.6843Z" fill="white"/>
<path d="M14.9994 15.1103C17.7003 15.1103 19.9058 12.9996 19.9058 10.4011C19.9058 7.79187 17.7003 5.68115 14.9994 5.68115C12.2977 5.68115 10.0923 7.79187 10.0923 10.4011C10.0923 12.9996 12.2977 15.1103 14.9994 15.1103ZM14.9994 8.07221C16.3266 8.07221 17.4091 9.11359 17.4091 10.4011C17.4091 11.6778 16.3266 12.7192 14.9994 12.7192C13.6723 12.7192 12.5897 11.6778 12.5897 10.4011C12.589 9.11282 13.6715 8.07221 14.9994 8.07221Z" fill="white"/>
</g>
<defs>
<clipPath id="clip0_44_11419">
<rect width="18.6377" height="18.6377" fill="white" transform="translate(5.68115 5.68091)"/>
</clipPath>
</defs>
</svg>
