<svg width="34" height="35" viewBox="0 0 34 35" fill="none" xmlns="http://www.w3.org/2000/svg">
<ellipse cx="16.8571" cy="17.2368" rx="16.8571" ry="17" fill="#BA2828"/>
<path d="M10.4935 15.2755C12.2354 19.1014 15.3349 22.1434 19.1884 23.7924L19.8062 24.07C21.2195 24.705 22.8808 24.2226 23.7427 22.9269L24.55 21.7135C24.8125 21.319 24.7326 20.7876 24.3659 20.4894L21.6282 18.2621C21.2262 17.9349 20.6349 18.0112 20.3273 18.4297L19.4804 19.5822C17.3073 18.5011 15.5429 16.7219 14.471 14.5303L15.6137 13.6763C16.0288 13.3661 16.1044 12.7698 15.78 12.3643L13.5714 9.60335C13.2757 9.23368 12.7489 9.15304 12.3577 9.41756L11.1463 10.2368C9.85343 11.111 9.37771 12.8002 10.0219 14.2293L10.4928 15.2739L10.4935 15.2755Z" fill="white"/>
</svg>
