<svg width="34" height="35" viewBox="0 0 34 35" fill="none" xmlns="http://www.w3.org/2000/svg">
<circle cx="17" cy="17.5215" r="17" fill="white"/>
<path d="M10.582 15.5601C12.3387 19.3861 15.4644 22.428 19.3506 24.0771L19.9736 24.3547C21.3989 24.9897 23.0742 24.5073 23.9435 23.2116L24.7576 21.9982C25.0223 21.6037 24.9417 21.0723 24.572 20.774L21.8111 18.5467C21.4057 18.2196 20.8094 18.2958 20.4991 18.7144L19.645 19.8669C17.4535 18.7858 15.6742 17.0066 14.5932 14.815L15.7456 13.961C16.1642 13.6507 16.2404 13.0544 15.9132 12.6489L13.6859 9.88802C13.3877 9.51835 12.8565 9.43771 12.462 9.70223L11.2402 10.5214C9.93645 11.3957 9.4567 13.0849 10.1064 14.5139L10.5813 15.5586L10.582 15.5601Z" fill="#295BB8"/>
</svg>
