<svg width="134" height="99" viewBox="0 0 134 99" fill="none" xmlns="http://www.w3.org/2000/svg">
<path fill-rule="evenodd" clip-rule="evenodd" d="M68.2403 98.8471H91.8502V94.7351C91.8502 94.7351 76.1534 93.9498 75.4053 78.044V71.5761C75.4915 67.7637 78.2826 57.712 86.3109 56.9838C79.8366 55.7417 75.2181 49.0165 75.3908 42.3916C75.3908 42.3916 75.3908 40.7639 75.3908 35.1384C75.7649 16.8053 96.6555 16.9624 97.7202 16.9624H98.0943C116.079 16.9624 117.963 31.2405 117.963 32.0972H121.934L120.496 5.46851L120.093 0H117.359C117.359 0 115.92 4.6832 105.418 4.6832H27.4948C16.9776 4.72604 15.5388 0 15.5388 0H12.834L12.388 5.49707L10.9492 32.0972H14.9202C14.9202 31.1977 16.8193 16.9624 34.775 16.9624H35.1778C36.228 16.9624 57.1186 16.8053 57.4784 35.1384C57.4784 40.7639 57.4784 42.3916 57.4784 42.3916C57.6366 49.0165 53.0039 55.6846 46.5296 56.9838C54.5434 57.712 57.349 67.7637 57.4497 71.5761V78.044C56.7158 93.9498 41.0479 94.7494 41.0479 94.7494V98.8471H68.2403Z" fill="#FF0000"/>
<path fill-rule="evenodd" clip-rule="evenodd" d="M133.215 56.9277C131.23 53.8152 123.144 52.6444 120.842 52.9442C122.871 50.0886 123.101 45.1197 122.007 41.8929C120.713 38.1378 118.31 37.5238 118.022 41.3789C117.49 48.6321 110.828 53.1727 102.742 52.3588C100.354 52.2013 98.0898 51.244 96.3204 49.6438C94.5512 48.0436 93.3812 45.8949 93.0023 43.5491C92.2829 39.4085 93.3331 35.2251 98.0523 34.0686C101.894 33.1405 104.469 35.2536 104.627 37.8665C104.872 41.95 101.347 40.4508 100.815 43.0637C100.725 43.4977 100.731 43.9458 100.831 44.3777C100.931 44.8095 101.123 45.215 101.394 45.5669C101.666 45.9188 102.01 46.2088 102.404 46.4172C102.798 46.6259 103.232 46.7482 103.678 46.7759C111.159 47.0472 113.303 40.1938 112.31 35.5535C111.768 32.552 110.167 29.8399 107.795 27.9016C105.423 25.9633 102.434 24.9254 99.3614 24.9733C91.1894 24.7877 83.3913 30.2564 83.3913 41.3218C83.3413 44.4594 84.1265 47.5544 85.6675 50.2944C87.2083 53.0347 89.4507 55.3227 92.1677 56.9277C89.4218 58.5124 87.1493 60.7922 85.582 63.534C84.0148 66.2761 83.2092 69.3816 83.2474 72.5337C83.2474 83.5991 91.0455 89.0678 99.2177 88.8822C102.29 88.93 105.279 87.8922 107.651 85.9539C110.023 84.0156 111.624 81.3035 112.166 78.302C113.13 73.6617 110.987 66.8795 103.534 67.0793C103.088 67.1057 102.654 67.2261 102.26 67.433C101.865 67.6399 101.52 67.9283 101.247 68.2787C100.975 68.6291 100.781 69.0334 100.679 69.4644C100.577 69.8956 100.569 70.3433 100.656 70.7775C101.189 73.419 104.714 71.8912 104.469 76.0033C104.311 78.5876 101.735 80.715 97.8939 79.8012C93.1749 78.6304 92.139 74.4327 92.8439 70.3064C93.2254 67.9617 94.3961 65.8143 96.1648 64.2145C97.9338 62.6147 100.196 61.6568 102.584 61.4967C110.771 60.6828 117.49 65.2232 118.065 72.4766C118.353 76.3317 120.756 75.7177 122.051 71.9626C123.144 68.7358 122.914 63.7383 120.885 60.897C123.144 61.2825 131.273 60.0546 133.258 56.9277" fill="#FF0000"/>
<path fill-rule="evenodd" clip-rule="evenodd" d="M0.0839844 56.9838C2.06946 53.871 10.1552 52.7002 12.4429 53.0001C10.443 50.1445 10.184 45.1758 11.3062 41.949C12.6011 38.1939 14.9894 37.5799 15.2628 41.435C15.8095 48.6881 22.4566 53.2285 30.5566 52.4147C32.9463 52.2642 35.2124 51.3094 36.9809 49.7074C38.7494 48.1056 39.9142 45.9529 40.2828 43.6052C41.0164 39.4646 39.9662 35.2669 35.247 34.1244C31.4057 33.1964 28.8302 35.3097 28.6863 37.9226C28.4274 42.0061 31.9379 40.5069 32.4991 43.1198C32.586 43.5547 32.5783 44.0032 32.4765 44.4349C32.3747 44.8667 32.181 45.272 31.9085 45.6234C31.6363 45.9749 31.2912 46.2646 30.8967 46.4731C30.5022 46.6815 30.0676 46.8039 29.6216 46.832C22.1545 47.1033 20.0251 40.2499 20.989 35.6096C21.5285 32.6055 23.1275 29.8898 25.4998 27.9487C27.8723 26.0078 30.8633 24.9679 33.9377 25.0151C42.1244 24.8438 49.908 30.3122 49.908 41.3778C49.9433 44.5293 49.1364 47.6338 47.5695 50.3751C46.0026 53.1165 43.7314 55.3968 40.9877 56.9838C43.7334 58.5685 46.0061 60.8483 47.5734 63.5901C49.1406 66.3319 49.9462 69.4377 49.908 72.5896C49.908 83.6552 42.1244 89.1236 33.9377 88.938C30.8655 88.9859 27.8761 87.948 25.504 86.01C23.1319 84.0717 21.5315 81.3595 20.989 78.3581C20.0395 73.7176 22.1545 66.9355 29.6216 67.1212C30.0658 67.1539 30.498 67.2791 30.8901 67.4889C31.2824 67.6986 31.6253 67.9882 31.8969 68.3385C32.1685 68.6891 32.3627 69.0924 32.4664 69.5223C32.5702 69.9521 32.5812 70.3989 32.4991 70.8334C31.9234 73.4606 28.4129 71.9471 28.6431 76.0594C28.8157 78.6437 31.3912 80.7711 35.247 79.8573C39.9517 78.6865 41.0022 74.4888 40.2683 70.3622C39.8922 68.0178 38.7253 65.8693 36.9583 64.2689C35.1913 62.6684 32.9294 61.7109 30.5424 61.5528C22.5141 60.7389 15.7951 65.265 15.2484 72.5325C14.975 76.402 12.5867 75.7738 11.2775 72.0185C10.1696 68.7917 10.4142 63.7944 12.4285 60.9674C10.1552 61.3957 2.06946 60.1107 0.0839844 56.9838Z" fill="#FF0000"/>
</svg>
