<svg width="20" height="20" viewBox="0 0 20 20" fill="none" xmlns="http://www.w3.org/2000/svg">
<g clip-path="url(#clip0_582_486)">
<path d="M10 20C15.5228 20 20 15.5228 20 10C20 4.47715 15.5228 0 10 0C4.47715 0 0 4.47715 0 10C0 15.5228 4.47715 20 10 20Z" fill="#F0F0F0"/>
<path d="M0 10.0001C0 15.5334 4.46667 20.0001 10 20.0001C15.5333 20.0001 20 15.5334 20 10.0001C20 8.86676 19.8 7.73343 19.4 6.6001H0.6C0.2 7.73343 0 8.86676 0 10.0001Z" fill="#0071BC"/>
<path d="M9.99961 20.0002C5.73294 20.0002 1.99961 17.3335 0.599609 13.3335H19.4663C17.9996 17.3335 14.2663 20.0002 9.99961 20.0002Z" fill="#ED1C24"/>
</g>
<defs>
<clipPath id="clip0_582_486">
<rect width="20" height="20" fill="white"/>
</clipPath>
</defs>
</svg>
