<svg width="81" height="81" viewBox="0 0 81 81" fill="none" xmlns="http://www.w3.org/2000/svg">
<g clip-path="url(#clip0_273_2164)">
<path d="M17.7799 19.7031L17.78 19.7032C17.78 18.9268 18.4094 18.2973 19.1859 18.2973H56.3377C57.1141 18.2973 57.7436 18.9267 57.7436 19.7032C57.7436 20.4796 57.1141 21.1091 56.3377 21.1091L19.1858 21.109C18.4092 21.109 17.7799 20.4796 17.7799 19.7031ZM62.4121 62.3656C62.6859 62.6393 63.0459 62.7773 63.4065 62.7773C63.7442 62.7773 64.0826 62.6564 64.351 62.4124L68.0838 59.0253C68.6588 58.5035 68.702 57.6144 68.18 57.0394C67.6581 56.4645 66.7691 56.4212 66.1942 56.9431L63.4534 59.4303L62.6807 58.6576C62.1316 58.1085 61.2415 58.1085 60.6926 58.6576C60.1436 59.2066 60.1436 60.0967 60.6926 60.6457L62.4121 62.3656ZM19.1858 45.0727H56.3377C57.1141 45.0727 57.7436 44.4432 57.7436 43.6668C57.7436 42.8903 57.1141 42.2608 56.3377 42.2608L19.1858 42.2609C18.4094 42.2609 17.7799 42.8904 17.7799 43.6668C17.7799 44.4433 18.4092 45.0727 19.1858 45.0727V45.0727ZM19.1858 29.0969H56.3377C57.1141 29.0969 57.7436 28.4674 57.7436 27.691C57.7436 26.9145 57.1141 26.2851 56.3377 26.2851H19.1858C18.4094 26.2851 17.7799 26.9145 17.7799 27.691C17.7799 28.4674 18.4092 29.0969 19.1858 29.0969ZM19.1858 37.0848H56.3377C57.1141 37.0848 57.7436 36.4554 57.7436 35.6789C57.7436 34.9025 57.1141 34.273 56.3377 34.273L19.1858 34.2731C18.4094 34.2731 17.7799 34.9025 17.7799 35.679C17.7799 36.4554 18.4092 37.0849 19.1858 37.0849V37.0848ZM78.7956 62.5701C78.7344 62.917 78.7993 63.4342 78.9286 64.4645C78.9622 64.733 78.9999 65.032 79.0399 65.368C79.2745 67.3321 78.2314 69.1745 76.4393 69.9897L79.507 77.1124C79.7142 77.5934 79.6368 78.1496 79.3062 78.5559C78.9756 78.9623 78.4466 79.151 77.9336 79.0459L73.87 78.2136L71.6828 81.7382C71.4252 82.1533 70.9723 82.4029 70.4885 82.4029C70.4537 82.4029 70.4189 82.4016 70.3837 82.399C69.8615 82.36 69.4042 82.034 69.197 81.5532L66.442 75.1565C66.3782 75.1368 66.3156 75.1175 66.2551 75.0989C65.2629 74.7926 64.7648 74.639 64.4124 74.639C64.1733 74.639 63.8663 74.71 63.3835 74.8515L59.5119 83.1675C59.2908 83.6423 58.8242 83.9548 58.3011 83.9786C58.2796 83.9795 58.2583 83.98 58.2371 83.98C57.738 83.98 57.2741 83.7147 57.0216 83.2805L54.9376 79.6941L50.8513 80.4079C50.3351 80.4979 49.8121 80.2942 49.4935 79.8784C49.1749 79.4629 49.1137 78.9045 49.3349 78.4297L51.038 74.7715L11.8199 74.7714C9.18699 74.7714 7.04492 72.6293 7.04492 69.9963V8.00476C7.04492 5.37182 9.18699 3.22998 11.8199 3.22998H23.3851H52.1385H63.7036C66.3364 3.22998 68.4785 5.37182 68.4785 8.00476V45.7322C68.9019 46.0447 69.1771 46.2261 69.4077 46.3101C69.7388 46.4307 70.2594 46.4565 71.2963 46.5081C71.5669 46.5215 71.8677 46.5366 72.2058 46.5554C74.2156 46.6672 75.8743 48.0591 76.3334 50.0189C76.4106 50.3486 76.4776 50.6424 76.5379 50.9063C76.769 51.9186 76.8849 52.4266 77.061 52.7317C77.237 53.0368 77.6193 53.3912 78.3806 54.0975C78.5788 54.2815 78.7997 54.4864 79.0464 54.718C80.5143 56.0955 80.8901 58.228 79.9821 60.0242C79.8294 60.3263 79.6919 60.5945 79.5684 60.8353C79.0948 61.7593 78.857 62.2231 78.7957 62.57L78.7956 62.5701ZM23.3848 7.91673H62.3861C63.1625 7.91673 63.792 8.54624 63.792 9.32269V43.8412C64.4175 43.7528 65.0556 43.7993 65.6669 43.9793V8.00488C65.6669 6.92249 64.7864 6.04191 63.7037 6.04191L52.1386 6.04184H11.8197C10.7372 6.04184 9.8565 6.92244 9.8565 8.00482V69.9962C9.8565 71.0787 10.7371 71.9594 11.8197 71.9594L52.3475 71.9594L53.1176 70.3053C52.956 70.2371 52.7819 70.1633 52.5971 70.0844L13.1376 70.0844C12.3612 70.0844 11.7317 69.455 11.7317 68.6785V9.32263C11.7317 8.54624 12.3612 7.91668 13.1376 7.91668L23.3848 7.91673ZM23.3848 10.7285H14.5435V67.2726L49.9643 67.2727C49.7748 66.6739 49.7068 66.0283 49.7857 65.368C49.826 65.032 49.8633 64.733 49.897 64.4645C50.0262 63.4341 50.091 62.917 50.0298 62.5701C49.9735 62.2511 49.7674 61.8321 49.3662 61.0487H19.1858C18.4094 61.0487 17.7799 60.4192 17.7799 59.6428C17.7799 58.8663 18.4094 58.2369 19.1858 58.2369H48.3615C48.2881 56.9436 48.78 55.6558 49.779 54.718C50.0257 54.4864 50.2467 54.2815 50.445 54.0975C50.9561 53.6234 51.2935 53.3093 51.5151 53.0608L19.1858 53.0609C18.4094 53.0609 17.7799 52.4314 17.7799 51.655C17.7799 50.8785 18.4094 50.249 19.1858 50.249H52.4386C52.456 50.1742 52.4738 50.0977 52.4922 50.0188C52.9514 48.059 54.61 46.6672 56.6198 46.5554C56.9577 46.5366 57.2587 46.5217 57.5292 46.5081C58.5662 46.4564 59.0868 46.4306 59.4179 46.31C59.7472 46.1902 60.1609 45.8774 60.9802 45.2566V10.7285H52.1386H23.3848ZM59.9618 75.5397C58.6344 75.4148 57.4071 74.7003 56.6364 73.522C56.4512 73.2387 56.2878 72.9857 56.1409 72.7583C55.8827 72.3583 55.6838 72.0506 55.5177 71.8119L53.0212 77.1742L55.4193 76.7552C55.9999 76.6543 56.5811 76.9247 56.8769 77.4338L58.1001 79.5387L59.9618 75.5397ZM75.8592 75.7508L73.8818 71.1595C73.853 71.1802 73.8256 71.2009 73.8006 71.2218C73.5307 71.4483 73.2479 71.8861 72.6845 72.7586C72.5378 72.9859 72.3743 73.239 72.1891 73.5223C71.5657 74.4755 70.6429 75.1248 69.6106 75.4049L70.7141 77.9669L71.9978 75.8982C72.3083 75.3979 72.8976 75.1438 73.4743 75.2623L75.8592 75.7508ZM77.1224 56.7683C76.88 56.541 76.6632 56.3397 76.4685 56.159C74.5336 54.3639 74.3837 54.1045 73.7967 51.5316C73.7375 51.2724 73.6718 50.9839 73.5958 50.6601C73.4212 49.9145 72.8144 49.4052 72.0497 49.3628C71.7178 49.3443 71.4221 49.3296 71.1566 49.3163C68.5207 49.1851 68.2392 49.0826 66.1356 47.4889C65.9239 47.3284 65.688 47.1497 65.4219 46.9506C64.8089 46.4919 64.0167 46.4917 63.4037 46.9506C63.1377 47.1497 62.9018 47.3284 62.6899 47.4889C60.5863 49.0826 60.3048 49.1851 57.6691 49.3163C57.4036 49.3295 57.108 49.3443 56.776 49.3628C56.0114 49.4053 55.4045 49.9146 55.2299 50.6601C55.1541 50.9836 55.0882 51.2722 55.0291 51.5314C54.9973 51.6711 54.9669 51.803 54.9372 51.9298C54.9348 51.9421 54.9314 51.954 54.9286 51.9664C54.4179 54.1402 54.1771 54.4708 52.3573 56.159C52.1626 56.3398 51.9456 56.541 51.7033 56.7684C51.1449 57.2925 51.0073 58.0727 51.3528 58.7562C51.5027 59.0529 51.6379 59.3163 51.7591 59.5527C52.9635 61.901 53.0153 62.1961 52.687 64.8148C52.654 65.0784 52.6173 65.372 52.5777 65.7021C52.4868 66.4625 52.8829 67.1486 53.587 67.45C53.8925 67.5808 54.1653 67.6958 54.4103 67.799C56.8422 68.8239 57.0717 69.0164 58.5032 71.2335C58.6475 71.4568 58.808 71.7053 58.99 71.9837C59.4091 72.6244 60.1536 72.8954 60.8866 72.674C61.2047 72.5779 61.4874 72.4907 61.7413 72.4123C63.0023 72.0232 63.7075 71.8287 64.4129 71.8287C65.1183 71.8287 65.8236 72.0232 67.0847 72.4123C67.3387 72.4907 67.6214 72.5778 67.9397 72.6741C68.6727 72.8954 69.4171 72.6246 69.8362 71.9838C70.0181 71.7057 70.1786 71.4571 70.3229 71.2338C71.7546 69.0167 71.9841 68.824 74.416 67.7991C74.6609 67.696 74.9337 67.5811 75.2394 67.4501C75.9433 67.1487 76.3396 66.4625 76.2487 65.7023C76.2092 65.3724 76.1725 65.0788 76.1392 64.8149C75.8108 62.1963 75.8628 61.9012 77.0671 59.5528C77.1884 59.3163 77.3234 59.053 77.4734 58.7564C77.818 58.0726 77.6806 57.2924 77.1223 56.7683L77.1224 56.7683ZM74.4668 59.6778C74.4668 65.2215 69.9565 69.7317 64.4128 69.7317C58.8692 69.7317 54.3591 65.2215 54.3591 59.6778C54.3591 54.1341 58.8692 49.624 64.4128 49.624C69.9565 49.624 74.4668 54.134 74.4668 59.6778ZM71.6551 59.6778C71.6551 55.6845 68.4061 52.4358 64.4128 52.4358C60.4196 52.4358 57.1709 55.6845 57.1709 59.6778C57.1709 63.6711 60.4196 66.92 64.4128 66.92C68.4061 66.92 71.6551 63.6711 71.6551 59.6778Z" fill="#295BB8"/>
</g>
<defs>
<clipPath id="clip0_273_2164">
<rect width="80.75" height="80.75" fill="white"/>
</clipPath>
</defs>
</svg>
