<svg width="36" height="37" viewBox="0 0 36 37" fill="none" xmlns="http://www.w3.org/2000/svg">
<rect x="0.25" y="0.931641" width="35.2476" height="35.2476" rx="7.50163" fill="#295BB8"/>
<path d="M26.1796 13.9027C25.1054 13.9027 24.1144 13.5468 23.3185 12.9465C22.4057 12.2583 21.7499 11.2489 21.5183 10.0854C21.461 9.79794 21.4301 9.50128 21.4272 9.19727H18.3587V17.5817L18.355 22.1742C18.355 23.402 17.5555 24.4431 16.4472 24.8092C16.1255 24.9155 15.7781 24.9658 15.4164 24.946C14.9547 24.9206 14.522 24.7813 14.1459 24.5563C13.3456 24.0777 12.803 23.2094 12.7883 22.2161C12.7652 20.6637 14.0202 19.398 15.5715 19.398C15.8777 19.398 16.1718 19.448 16.4472 19.5388V17.2472V16.4234C16.1567 16.3803 15.8612 16.3579 15.5623 16.3579C13.8643 16.3579 12.2763 17.0637 11.1411 18.3353C10.2831 19.2962 9.76843 20.5222 9.68903 21.8077C9.585 23.4965 10.2029 25.1019 11.4014 26.2863C11.5774 26.4602 11.7623 26.6216 11.9557 26.7704C12.9832 27.5612 14.2393 27.9898 15.5623 27.9898C15.8612 27.9898 16.1567 27.9677 16.4472 27.9247C17.6831 27.7417 18.8234 27.1759 19.7233 26.2863C20.8291 25.1934 21.44 23.7424 21.4466 22.1981L21.4308 15.34C21.9583 15.747 22.5351 16.0837 23.1542 16.3451C24.1169 16.7513 25.1378 16.9571 26.1884 16.9568V14.7287V13.9019C26.1892 13.9027 26.1803 13.9027 26.1796 13.9027Z" fill="white"/>
</svg>
