<svg width="267" height="45" viewBox="0 0 267 45" fill="none" xmlns="http://www.w3.org/2000/svg">
<g clip-path="url(#clip0_297_4607)">
<path fill-rule="evenodd" clip-rule="evenodd" d="M30.9218 44.9804H41.6336V43.1148C41.6336 43.1148 34.512 42.7585 34.1726 35.542V32.6075C34.2117 30.8778 35.478 26.3174 39.1205 25.987C36.1831 25.4234 34.0877 22.3722 34.166 19.3664C34.166 19.3664 34.166 18.628 34.166 16.0757C34.3357 7.75789 43.8138 7.82916 44.2969 7.82916H44.4666C52.6261 7.82916 53.4813 14.3072 53.4813 14.6959H55.2829L54.6302 2.61437L54.4474 0.133301H53.2071C53.2071 0.133301 52.5544 2.25808 47.7892 2.25808H12.4355C7.66379 2.27751 7.01103 0.133301 7.01103 0.133301H5.78383L5.58148 2.62733L4.92871 14.6959H6.73034C6.73034 14.2878 7.59199 7.82916 15.7385 7.82916H15.9213C16.3977 7.82916 25.8759 7.75789 26.0391 16.0757C26.0391 18.628 26.0391 19.3664 26.0391 19.3664C26.1109 22.3722 24.009 25.3975 21.0716 25.987C24.7075 26.3174 25.9804 30.8778 26.0261 32.6075V35.542C25.6931 42.7585 18.5845 43.1213 18.5845 43.1213V44.9804H30.9218Z" fill="#FF0000"/>
<path fill-rule="evenodd" clip-rule="evenodd" d="M60.4006 25.9872C59.4998 24.575 55.8313 24.0438 54.7868 24.1798C55.7073 22.8842 55.8117 20.6298 55.3156 19.1658C54.7281 17.4621 53.6379 17.1836 53.5074 18.9326C53.2659 22.2234 50.2435 24.2835 46.575 23.9142C45.4913 23.8428 44.4641 23.4085 43.6613 22.6824C42.8586 21.9564 42.3278 20.9815 42.1559 19.9173C41.8295 18.0387 42.306 16.1406 44.4471 15.6159C46.1899 15.1948 47.3584 16.1536 47.4302 17.339C47.5412 19.1917 45.9419 18.5115 45.7004 19.697C45.6599 19.8939 45.6624 20.0972 45.7076 20.2932C45.753 20.4891 45.8402 20.6731 45.9634 20.8327C46.0865 20.9924 46.2427 21.1239 46.4213 21.2185C46.6001 21.3132 46.7972 21.3687 46.9994 21.3813C50.3938 21.5043 51.3664 18.3949 50.9159 16.2896C50.6698 14.9279 49.9437 13.6974 48.8675 12.818C47.7913 11.9385 46.435 11.4677 45.041 11.4894C41.3334 11.4052 37.7954 13.8863 37.7954 18.9067C37.7727 20.3302 38.1289 21.7345 38.8281 22.9776C39.5272 24.2209 40.5445 25.2589 41.7772 25.9872C40.5314 26.7061 39.5004 27.7405 38.7893 28.9845C38.0783 30.2285 37.7128 31.6375 37.7301 33.0676C37.7301 38.088 41.2681 40.5692 44.9758 40.485C46.3697 40.5067 47.726 40.0358 48.8022 39.1564C49.8784 38.277 50.6046 37.0465 50.8506 35.6847C51.288 33.5794 50.3154 30.5023 46.9341 30.593C46.732 30.6049 46.5349 30.6595 46.356 30.7534C46.177 30.8473 46.0203 30.9782 45.8967 31.1371C45.7729 31.2961 45.685 31.4795 45.6388 31.6751C45.5925 31.8707 45.589 32.0738 45.6285 32.2708C45.8701 33.4693 47.4694 32.7761 47.3584 34.6418C47.2865 35.8143 46.1181 36.7795 44.3752 36.3649C42.2342 35.8337 41.7642 33.9292 42.084 32.0571C42.2571 30.9933 42.7883 30.019 43.5907 29.2932C44.3933 28.5674 45.4199 28.1328 46.5033 28.0601C50.2175 27.6909 53.2659 29.7508 53.5269 33.0417C53.6575 34.7908 54.7477 34.5122 55.3352 32.8085C55.8313 31.3445 55.7268 29.0771 54.8064 27.788C55.8313 27.9629 59.5194 27.4058 60.4201 25.9872" fill="#FF0000"/>
<path fill-rule="evenodd" clip-rule="evenodd" d="M0 25.987C0.900814 24.5747 4.56935 24.0435 5.60724 24.1796C4.6999 22.884 4.58241 20.6297 5.09156 19.1656C5.67905 17.4619 6.76263 17.1834 6.88666 18.9324C7.13471 22.2232 10.1505 24.2832 13.8255 23.914C14.9097 23.8457 15.9378 23.4125 16.7402 22.6856C17.5426 21.9589 18.071 20.9823 18.2383 19.9171C18.5711 18.0385 18.0946 16.134 15.9535 15.6156C14.2107 15.1946 13.0422 16.1534 12.9769 17.3389C12.8595 19.1916 14.4522 18.5114 14.7068 19.6968C14.7462 19.8942 14.7428 20.0977 14.6966 20.2935C14.6504 20.4894 14.5625 20.6733 14.4389 20.8328C14.3153 20.9922 14.1588 21.1237 13.9798 21.2182C13.8008 21.3128 13.6036 21.3683 13.4013 21.3811C10.0134 21.5042 9.04731 18.3948 9.48466 16.2894C9.7294 14.9265 10.4549 13.6944 11.5312 12.8137C12.6076 11.9331 13.9647 11.4613 15.3595 11.4827C19.0738 11.405 22.6053 13.886 22.6053 18.9065C22.6213 20.3364 22.2552 21.7449 21.5443 22.9886C20.8334 24.2324 19.8029 25.2669 18.5581 25.987C19.8038 26.7059 20.8349 27.7403 21.5461 28.9843C22.2571 30.2282 22.6226 31.6373 22.6053 33.0674C22.6053 38.0878 19.0738 40.5689 15.3595 40.4847C13.9656 40.5064 12.6093 40.0355 11.5331 39.1562C10.4569 38.2768 9.73078 37.0463 9.48466 35.6845C9.05384 33.5791 10.0134 30.5021 13.4013 30.5863C13.6028 30.6012 13.7989 30.658 13.9768 30.7531C14.1548 30.8483 14.3104 30.9797 14.4336 31.1386C14.5568 31.2977 14.6449 31.4807 14.692 31.6757C14.7391 31.8707 14.744 32.0734 14.7068 32.2706C14.4456 33.4625 12.8529 32.7759 12.9573 34.6416C13.0357 35.8141 14.2041 36.7793 15.9535 36.3647C18.0881 35.8335 18.5647 33.929 18.2317 32.0568C18.0611 30.9931 17.5316 30.0184 16.7299 29.2922C15.9283 28.5661 14.902 28.1317 13.819 28.0599C10.1766 27.6907 7.12818 29.7442 6.88013 33.0415C6.7561 34.7971 5.67252 34.512 5.0785 32.8082C4.57588 31.3442 4.68684 29.077 5.60071 27.7943C4.56935 27.9887 0.900814 27.4057 0 25.987Z" fill="#FF0000"/>
<path d="M86.0211 10.3748C88.8346 10.3748 92.2224 10.2971 93.4497 10.2129V17.099C92.2224 17.0083 88.8346 16.8917 86.0211 16.8917H85.0812C85.0421 18.3946 85.0421 20.3768 85.0421 22.0741V30.8647C85.0421 33.6179 85.1269 36.8569 85.2509 38.1136H76.8041C76.889 36.8569 77.0065 33.6179 77.0065 30.8647V22.0805C77.0065 20.3768 76.9674 18.3946 76.889 16.8982H75.9425C73.1682 16.8982 69.8261 17.0148 68.6055 17.1055V10.2129C69.8261 10.2971 73.1748 10.3748 75.9425 10.3748H86.0211Z" fill="#295BB8"/>
<path d="M110.925 9.85059C119.691 9.85059 126.179 16.2897 126.179 24.2317C126.179 32.1738 119.691 38.6323 110.925 38.6323C102.157 38.6323 95.7021 32.1997 95.7021 24.2317C95.7021 16.2638 102.19 9.85059 110.925 9.85059ZM110.925 31.96C115.037 31.96 118.144 28.5137 118.144 24.2317C118.144 19.9497 115.037 16.4581 110.925 16.4581C106.812 16.4581 103.744 19.9044 103.744 24.2317C103.744 28.559 106.799 31.96 110.925 31.96Z" fill="#295BB8"/>
<path d="M146.964 24.7888L137.825 33.0094C136.323 34.3503 133.96 36.7407 132.158 38.5998H130.2C130.363 36.2483 130.402 33.7349 130.402 32.0377V17.6241C130.402 15.4087 130.279 12.1632 130.2 10.3817H138.562C138.445 12.0855 138.366 15.318 138.366 17.6241V23.1304L148.269 14.3851C149.815 13.0896 151.004 11.8847 152.995 9.85053H155.084C154.998 12.0337 154.914 15.4346 154.914 17.9027V32.2385C154.914 34.3892 154.998 36.9803 155.084 38.114H146.793C146.872 36.9803 146.964 34.3892 146.964 32.2838V24.7888ZM143.732 5.10864C145.208 5.10864 146.102 4.2665 146.102 3.2041H152.178C152.178 6.77348 149.124 9.32581 143.732 9.32581C138.341 9.32581 135.403 6.77348 135.403 3.2041H141.454C141.454 4.2665 142.302 5.10864 143.732 5.10864Z" fill="#295BB8"/>
<path d="M170.601 10.3746C174.471 10.3746 175.659 10.3746 179.53 10.1738V16.2437C176.064 16.0429 174.308 16.0429 170.392 16.0818H168.805V21.3095H173.289C178.76 21.3095 182.193 24.6263 182.193 29.3616C182.193 34.5441 178.76 38.1134 172.715 38.1134H160.58C160.71 36.8567 160.789 33.6177 160.789 30.8645V17.6624C160.789 15.3109 160.743 12.9269 160.626 10.3746H170.601ZM168.805 32.4841H171.253C173.414 32.4841 174.19 31.0653 174.19 29.7309C174.214 29.3456 174.152 28.9599 174.012 28.6001C173.872 28.2402 173.655 27.9147 173.376 27.6455C173.097 27.3763 172.764 27.1698 172.397 27.04C172.031 26.9103 171.641 26.8604 171.253 26.8935H168.805V32.4841Z" fill="#295BB8"/>
<path d="M200.732 9.85059C209.537 9.85059 216 16.2897 216 24.2317C216 32.1738 209.537 38.6323 200.732 38.6323C191.926 38.6323 185.522 32.1997 185.522 24.2317C185.522 16.2638 192.004 9.85059 200.732 9.85059ZM200.732 31.96C204.857 31.96 207.958 28.5137 207.958 24.2317C207.958 19.9497 204.857 16.4581 200.732 16.4581C196.606 16.4581 193.551 19.9044 193.551 24.2317C193.551 28.559 196.613 31.96 200.732 31.96Z" fill="#295BB8"/>
<path d="M234.995 31.7589C237.346 31.8267 239.63 30.9833 241.365 29.4074V37.9066C239.048 38.0297 238.017 38.5997 234.263 38.5997C225.367 38.5997 219.413 32.1606 219.413 24.1862C219.413 16.2118 225.367 9.81152 234.263 9.81152C237.978 9.81152 238.996 10.4205 241.039 10.4205V19.1981C240.241 18.3962 239.287 17.7616 238.237 17.3321C237.186 16.9026 236.059 16.6868 234.923 16.6977C233.927 16.6801 232.937 16.8618 232.014 17.2318C231.09 17.6019 230.25 18.1527 229.545 18.8515C228.84 19.5503 228.285 20.3828 227.912 21.2993C227.537 22.2159 227.353 23.1976 227.37 24.1862C227.354 25.1844 227.541 26.1758 227.919 27.1012C228.296 28.0266 228.857 28.8674 229.568 29.5737C230.279 30.28 231.126 30.8373 232.058 31.2127C232.99 31.5881 233.989 31.7739 234.995 31.7589Z" fill="#295BB8"/>
<path d="M260.4 31.7589C262.749 31.8278 265.033 30.9841 266.765 29.4074V37.9066C264.441 38.0297 263.422 38.5997 259.663 38.5997C250.772 38.5997 244.818 32.1606 244.818 24.1862C244.818 16.2118 250.772 9.81152 259.663 9.81152C263.376 9.81152 264.395 10.4205 266.445 10.4205V19.1981C265.643 18.3964 264.687 17.762 263.635 17.3326C262.582 16.9032 261.453 16.6873 260.316 16.6977C259.32 16.681 258.331 16.8633 257.408 17.2337C256.485 17.6042 255.646 18.1552 254.942 18.8539C254.238 19.5526 253.683 20.3848 253.31 21.3009C252.937 22.217 252.753 23.1982 252.77 24.1862C252.755 25.1847 252.942 26.1762 253.32 27.1016C253.698 28.0271 254.26 28.8679 254.971 29.5741C255.683 30.2802 256.53 30.8375 257.463 31.2128C258.396 31.5881 259.394 31.7738 260.4 31.7589Z" fill="#295BB8"/>
</g>
<defs>
<clipPath id="clip0_297_4607">
<rect width="267" height="45" fill="white"/>
</clipPath>
</defs>
</svg>
