<svg width="267" height="45" viewBox="0 0 267 45" fill="none" xmlns="http://www.w3.org/2000/svg">
<g clip-path="url(#clip0_190_4401)">
<path fill-rule="evenodd" clip-rule="evenodd" d="M30.9228 44.9804H41.6346V43.1148C41.6346 43.1148 34.513 42.7585 34.1735 35.542V32.6075C34.2127 30.8778 35.479 26.3174 39.1214 25.987C36.184 25.4234 34.0886 22.3722 34.167 19.3664C34.167 19.3664 34.167 18.628 34.167 16.0757C34.3367 7.75789 43.8148 7.82916 44.2979 7.82916H44.4676C52.6271 7.82916 53.4823 14.3072 53.4823 14.6959H55.2839L54.6311 2.61437L54.4484 0.133301H53.2081C53.2081 0.133301 52.5553 2.25808 47.7902 2.25808H12.4365C7.66477 2.27751 7.01201 0.133301 7.01201 0.133301H5.78481L5.58246 2.62733L4.92969 14.6959H6.73132C6.73132 14.2878 7.59297 7.82916 15.7395 7.82916H15.9222C16.3987 7.82916 25.8768 7.75789 26.0401 16.0757C26.0401 18.628 26.0401 19.3664 26.0401 19.3664C26.1119 22.3722 24.01 25.3975 21.0726 25.987C24.7085 26.3174 25.9814 30.8778 26.0271 32.6075V35.542C25.6941 42.7585 18.5855 43.1213 18.5855 43.1213V44.9804H30.9228Z" fill="#FF0000"/>
<path fill-rule="evenodd" clip-rule="evenodd" d="M60.4016 25.9872C59.5008 24.575 55.8323 24.0438 54.7878 24.1798C55.7082 22.8842 55.8127 20.6298 55.3165 19.1658C54.7291 17.4621 53.6389 17.1836 53.5084 18.9326C53.2668 22.2234 50.2445 24.2835 46.576 23.9142C45.4923 23.8428 44.4651 23.4085 43.6623 22.6824C42.8596 21.9564 42.3288 20.9815 42.1569 19.9173C41.8305 18.0387 42.307 16.1406 44.4481 15.6159C46.1909 15.1948 47.3594 16.1536 47.4312 17.339C47.5421 19.1917 45.9428 18.5115 45.7014 19.697C45.6608 19.8939 45.6633 20.0972 45.7086 20.2932C45.754 20.4891 45.8412 20.6731 45.9643 20.8327C46.0875 20.9924 46.2436 21.1239 46.4223 21.2185C46.6011 21.3132 46.7982 21.3687 47.0003 21.3813C50.3947 21.5043 51.3673 18.3949 50.9169 16.2896C50.6708 14.9279 49.9447 13.6974 48.8685 12.818C47.7923 11.9385 46.436 11.4677 45.042 11.4894C41.3344 11.4052 37.7964 13.8863 37.7964 18.9067C37.7737 20.3302 38.1299 21.7345 38.8291 22.9776C39.5281 24.2209 40.5455 25.2589 41.7782 25.9872C40.5324 26.7061 39.5014 27.7405 38.7903 28.9845C38.0792 30.2285 37.7137 31.6375 37.7311 33.0676C37.7311 38.088 41.2691 40.5692 44.9768 40.485C46.3707 40.5067 47.727 40.0358 48.8032 39.1564C49.8794 38.277 50.6056 37.0465 50.8516 35.6847C51.289 33.5794 50.3164 30.5023 46.9351 30.593C46.733 30.6049 46.5359 30.6595 46.3569 30.7534C46.178 30.8473 46.0213 30.9782 45.8977 31.1371C45.7739 31.2961 45.6859 31.4795 45.6397 31.6751C45.5935 31.8707 45.59 32.0738 45.6295 32.2708C45.8711 33.4693 47.4704 32.7761 47.3594 34.6418C47.2875 35.8143 46.1191 36.7795 44.3762 36.3649C42.2352 35.8337 41.7652 33.9292 42.085 32.0571C42.2581 30.9933 42.7892 30.019 43.5917 29.2932C44.3943 28.5674 45.4209 28.1328 46.5042 28.0601C50.2184 27.6909 53.2668 29.7508 53.5279 33.0417C53.6585 34.7908 54.7487 34.5122 55.3362 32.8085C55.8323 31.3445 55.7277 29.0771 54.8074 27.788C55.8323 27.9629 59.5204 27.4058 60.4211 25.9872" fill="#FF0000"/>
<path fill-rule="evenodd" clip-rule="evenodd" d="M0 25.987C0.900814 24.5747 4.56935 24.0435 5.60724 24.1796C4.6999 22.884 4.58241 20.6297 5.09156 19.1656C5.67905 17.4619 6.76263 17.1834 6.88666 18.9324C7.13471 22.2232 10.1505 24.2832 13.8255 23.914C14.9097 23.8457 15.9378 23.4125 16.7402 22.6856C17.5426 21.9589 18.071 20.9823 18.2383 19.9171C18.5711 18.0385 18.0946 16.134 15.9535 15.6156C14.2107 15.1946 13.0422 16.1534 12.9769 17.3389C12.8595 19.1916 14.4522 18.5114 14.7068 19.6968C14.7462 19.8942 14.7428 20.0977 14.6966 20.2935C14.6504 20.4894 14.5625 20.6733 14.4389 20.8328C14.3153 20.9922 14.1588 21.1237 13.9798 21.2182C13.8008 21.3128 13.6036 21.3683 13.4013 21.3811C10.0134 21.5042 9.04731 18.3948 9.48466 16.2894C9.7294 14.9265 10.4549 13.6944 11.5312 12.8137C12.6076 11.9331 13.9647 11.4613 15.3595 11.4827C19.0738 11.405 22.6053 13.886 22.6053 18.9065C22.6213 20.3364 22.2552 21.7449 21.5443 22.9886C20.8334 24.2324 19.8029 25.2669 18.5581 25.987C19.8038 26.7059 20.8349 27.7403 21.5461 28.9843C22.2571 30.2282 22.6226 31.6373 22.6053 33.0674C22.6053 38.0878 19.0738 40.5689 15.3595 40.4847C13.9656 40.5064 12.6093 40.0355 11.5331 39.1562C10.4569 38.2768 9.73078 37.0463 9.48466 35.6845C9.05384 33.5791 10.0134 30.5021 13.4013 30.5863C13.6028 30.6012 13.7989 30.658 13.9768 30.7531C14.1548 30.8483 14.3104 30.9797 14.4336 31.1386C14.5568 31.2977 14.6449 31.4807 14.692 31.6757C14.7391 31.8707 14.744 32.0734 14.7068 32.2706C14.4456 33.4625 12.8529 32.7759 12.9573 34.6416C13.0357 35.8141 14.2041 36.7793 15.9535 36.3647C18.0881 35.8335 18.5647 33.929 18.2317 32.0568C18.0611 30.9931 17.5316 30.0184 16.7299 29.2922C15.9283 28.5661 14.902 28.1317 13.819 28.0599C10.1766 27.6907 7.12818 29.7442 6.88013 33.0415C6.7561 34.7971 5.67252 34.512 5.0785 32.8082C4.57588 31.3442 4.68684 29.077 5.60071 27.7943C4.56935 27.9887 0.900814 27.4057 0 25.987Z" fill="#FF0000"/>
<path d="M86.0211 10.3748C88.8346 10.3748 92.2224 10.2971 93.4497 10.2129V17.099C92.2224 17.0083 88.8346 16.8917 86.0211 16.8917H85.0812C85.0421 18.3946 85.0421 20.3768 85.0421 22.0741V30.8647C85.0421 33.6179 85.1269 36.8569 85.2509 38.1136H76.8041C76.889 36.8569 77.0065 33.6179 77.0065 30.8647V22.0805C77.0065 20.3768 76.9674 18.3946 76.889 16.8982H75.9425C73.1682 16.8982 69.8261 17.0148 68.6055 17.1055V10.2129C69.8261 10.2971 73.1748 10.3748 75.9425 10.3748H86.0211Z" fill="white"/>
<path d="M110.926 9.85059C119.692 9.85059 126.18 16.2897 126.18 24.2317C126.18 32.1738 119.692 38.6323 110.926 38.6323C102.158 38.6323 95.7031 32.1997 95.7031 24.2317C95.7031 16.2638 102.191 9.85059 110.926 9.85059ZM110.926 31.96C115.038 31.96 118.145 28.5137 118.145 24.2317C118.145 19.9497 115.038 16.4581 110.926 16.4581C106.813 16.4581 103.745 19.9044 103.745 24.2317C103.745 28.559 106.8 31.96 110.926 31.96Z" fill="white"/>
<path d="M146.963 24.7888L137.824 33.0094C136.322 34.3503 133.959 36.7407 132.157 38.5998H130.199C130.362 36.2483 130.401 33.7349 130.401 32.0377V17.6241C130.401 15.4087 130.278 12.1632 130.199 10.3817H138.562C138.444 12.0855 138.365 15.318 138.365 17.6241V23.1304L148.268 14.3851C149.814 13.0896 151.003 11.8847 152.994 9.85053H155.083C154.997 12.0337 154.913 15.4346 154.913 17.9027V32.2385C154.913 34.3892 154.997 36.9803 155.083 38.114H146.792C146.871 36.9803 146.963 34.3892 146.963 32.2838V24.7888ZM143.731 5.10864C145.207 5.10864 146.101 4.2665 146.101 3.2041H152.177C152.177 6.77348 149.123 9.32581 143.731 9.32581C138.34 9.32581 135.402 6.77348 135.402 3.2041H141.453C141.453 4.2665 142.301 5.10864 143.731 5.10864Z" fill="white"/>
<path d="M170.601 10.3746C174.471 10.3746 175.659 10.3746 179.53 10.1738V16.2437C176.064 16.0429 174.308 16.0429 170.392 16.0818H168.805V21.3095H173.289C178.76 21.3095 182.193 24.6263 182.193 29.3616C182.193 34.5441 178.76 38.1134 172.715 38.1134H160.58C160.71 36.8567 160.789 33.6177 160.789 30.8645V17.6624C160.789 15.3109 160.743 12.9269 160.626 10.3746H170.601ZM168.805 32.4841H171.253C173.414 32.4841 174.19 31.0653 174.19 29.7309C174.214 29.3456 174.152 28.9599 174.012 28.6001C173.872 28.2402 173.655 27.9147 173.376 27.6455C173.097 27.3763 172.764 27.1698 172.397 27.04C172.031 26.9103 171.641 26.8604 171.253 26.8935H168.805V32.4841Z" fill="white"/>
<path d="M200.733 9.85059C209.538 9.85059 216.001 16.2897 216.001 24.2317C216.001 32.1738 209.538 38.6323 200.733 38.6323C191.927 38.6323 185.523 32.1997 185.523 24.2317C185.523 16.2638 192.005 9.85059 200.733 9.85059ZM200.733 31.96C204.858 31.96 207.959 28.5137 207.959 24.2317C207.959 19.9497 204.858 16.4581 200.733 16.4581C196.607 16.4581 193.552 19.9044 193.552 24.2317C193.552 28.559 196.614 31.96 200.733 31.96Z" fill="white"/>
<path d="M234.996 31.7589C237.347 31.8267 239.631 30.9833 241.366 29.4074V37.9066C239.049 38.0297 238.018 38.5997 234.264 38.5997C225.368 38.5997 219.414 32.1606 219.414 24.1862C219.414 16.2118 225.368 9.81152 234.264 9.81152C237.979 9.81152 238.997 10.4205 241.04 10.4205V19.1981C240.242 18.3962 239.288 17.7616 238.238 17.3321C237.187 16.9026 236.06 16.6868 234.924 16.6977C233.928 16.6801 232.938 16.8618 232.015 17.2318C231.091 17.6019 230.251 18.1527 229.546 18.8515C228.841 19.5503 228.286 20.3828 227.913 21.2993C227.538 22.2159 227.354 23.1976 227.371 24.1862C227.355 25.1844 227.542 26.1758 227.92 27.1012C228.297 28.0266 228.858 28.8674 229.569 29.5737C230.28 30.28 231.127 30.8373 232.059 31.2127C232.991 31.5881 233.99 31.7739 234.996 31.7589Z" fill="white"/>
<path d="M260.4 31.7589C262.749 31.8278 265.033 30.9841 266.765 29.4074V37.9066C264.441 38.0297 263.422 38.5997 259.663 38.5997C250.772 38.5997 244.818 32.1606 244.818 24.1862C244.818 16.2118 250.772 9.81152 259.663 9.81152C263.376 9.81152 264.395 10.4205 266.445 10.4205V19.1981C265.643 18.3964 264.687 17.762 263.635 17.3326C262.582 16.9032 261.453 16.6873 260.316 16.6977C259.32 16.681 258.331 16.8633 257.408 17.2337C256.485 17.6042 255.646 18.1552 254.942 18.8539C254.238 19.5526 253.683 20.3848 253.31 21.3009C252.937 22.217 252.753 23.1982 252.77 24.1862C252.755 25.1847 252.942 26.1762 253.32 27.1016C253.698 28.0271 254.26 28.8679 254.971 29.5741C255.683 30.2802 256.53 30.8375 257.463 31.2128C258.396 31.5881 259.394 31.7738 260.4 31.7589Z" fill="white"/>
</g>
<defs>
<clipPath id="clip0_190_4401">
<rect width="267" height="45" fill="white"/>
</clipPath>
</defs>
</svg>
