<svg width="30" height="30" viewBox="0 0 30 30" fill="none" xmlns="http://www.w3.org/2000/svg">
<circle cx="15" cy="15" r="15" fill="#4E7DB2"/>
<path d="M23.0971 20.4362H21.1534C20.418 20.4362 20.1968 19.8407 18.8779 18.5218C17.7269 17.412 17.2406 17.2734 16.9489 17.2734C16.5465 17.2734 16.4359 17.384 16.4359 17.9395V19.6874C16.4359 20.1604 16.2827 20.4374 15.0478 20.4374C13.8492 20.3569 12.6869 19.9928 11.6567 19.3751C10.6264 18.7573 9.75768 17.9037 9.12198 16.8844C7.61278 15.0059 6.56268 12.8013 6.05518 10.4457C6.05518 10.154 6.16575 9.89018 6.72129 9.89018H8.66369C9.16327 9.89018 9.34313 10.1127 9.53897 10.6256C10.4822 13.402 12.0915 15.816 12.7443 15.816C12.9948 15.816 13.104 15.7054 13.104 15.0806V12.2216C13.0214 10.9173 12.3287 10.8068 12.3287 10.3351C12.3376 10.2107 12.3946 10.0947 12.4876 10.0116C12.5806 9.92858 12.7023 9.88502 12.8269 9.89018H15.8804C16.2974 9.89018 16.4359 10.098 16.4359 10.5976V14.4557C16.4359 14.8728 16.6158 15.0113 16.741 15.0113C16.9915 15.0113 17.1846 14.8728 17.643 14.4144C18.6273 13.214 19.4315 11.8766 20.0303 10.4444C20.0915 10.2723 20.2073 10.1251 20.3601 10.025C20.5128 9.92493 20.6941 9.87758 20.8763 9.89018H22.82C23.4022 9.89018 23.5261 10.1819 23.4022 10.5976C22.6954 12.1809 21.8209 13.6838 20.7936 15.0806C20.5845 15.4003 20.5006 15.5669 20.7936 15.9412C20.9869 16.2329 21.6677 16.8018 22.1259 17.3427C22.7919 18.007 23.345 18.7756 23.7632 19.6181C23.9297 20.159 23.6513 20.4362 23.0971 20.4362Z" fill="white"/>
</svg>
