<svg width="28" height="29" viewBox="0 0 28 29" fill="none" xmlns="http://www.w3.org/2000/svg">
<g clip-path="url(#clip0_609_109)">
<path d="M13.9795 0.179199H13.9725C6.2665 0.179199 0 6.44745 0 14.1552C0 17.2125 0.98531 20.0461 2.66069 22.3469L0.918924 27.539L6.29096 25.8217C8.50092 27.2857 11.1372 28.1313 13.9795 28.1313C21.6856 28.1313 27.9521 21.8613 27.9521 14.1552C27.9521 6.4492 21.6856 0.179199 13.9795 0.179199Z" fill="#4CAF50"/>
<path d="M22.1113 19.9149C21.7742 20.867 20.436 21.6567 19.3685 21.8873C18.6383 22.0428 17.6844 22.1668 14.4734 20.8356C10.3662 19.134 7.72127 14.9604 7.51512 14.6896C7.31771 14.4188 5.85547 12.4797 5.85547 10.4741C5.85547 8.46854 6.87397 7.49196 7.28452 7.07268C7.62169 6.72852 8.17898 6.57129 8.71357 6.57129C8.88652 6.57129 9.042 6.58002 9.18176 6.58701C9.59231 6.60448 9.79846 6.62894 10.0692 7.27708C10.4064 8.08944 11.2275 10.095 11.3253 10.3011C11.4249 10.5073 11.5245 10.7868 11.3847 11.0576C11.2537 11.3371 11.1384 11.4612 10.9323 11.6987C10.7261 11.9363 10.5305 12.118 10.3243 12.3731C10.1356 12.595 9.92249 12.8326 10.1601 13.2431C10.3977 13.6449 11.2188 14.9849 12.4277 16.061C13.9878 17.4499 15.2526 17.8936 15.7051 18.0823C16.0422 18.2221 16.4441 18.1889 16.6904 17.9268C17.0031 17.5896 17.3892 17.0306 17.7823 16.4803C18.0618 16.0855 18.4147 16.0366 18.785 16.1763C19.1624 16.3073 21.1592 17.2944 21.5698 17.4988C21.9803 17.7049 22.2511 17.8028 22.3507 17.9757C22.4485 18.1487 22.4485 18.961 22.1113 19.9149Z" fill="#FAFAFA"/>
</g>
<defs>
<clipPath id="clip0_609_109">
<rect width="27.9521" height="27.9521" fill="white" transform="translate(0 0.179199)"/>
</clipPath>
</defs>
</svg>
