<svg width="30" height="30" viewBox="0 0 30 30" fill="none" xmlns="http://www.w3.org/2000/svg">
<g clip-path="url(#clip0_44_11428)">
<path d="M0 30L2.06895 22.5C0.72416 20.1724 0 17.5862 0 14.8965C0 6.72416 6.72416 0 14.9483 0C23.1724 0 30 6.72416 30 14.8965C30 23.0689 23.1724 30 14.9483 30C12.3621 30 9.87932 29.1724 7.65516 27.9311L0 30Z" fill="#EDEDED"/>
<path d="M8.06916 25.2413L8.53469 25.5C10.4485 26.6896 12.6726 27.4138 15.0002 27.4138C21.7761 27.4138 27.414 21.7758 27.414 14.8965C27.414 8.01718 21.7761 2.58618 14.9485 2.58618C8.1209 2.58618 2.58643 8.06892 2.58643 14.8965C2.58643 17.2758 3.25885 19.6034 4.50022 21.5689L4.81059 22.0344L3.62096 26.3793L8.06916 25.2413Z" fill="#55CD6C"/>
<path d="M10.9654 7.96556L9.9827 7.91382C9.67233 7.91382 9.36202 8.01729 9.15513 8.22419C8.6896 8.63798 7.91376 9.41382 7.70686 10.4483C7.34481 12.0001 7.91376 13.8621 9.2586 15.7242C10.6034 17.5862 13.1897 20.5862 17.7413 21.8793C19.1896 22.2931 20.3275 22.0345 21.2586 21.4656C21.9828 21 22.4482 20.2759 22.6034 19.5L22.7586 18.7759C22.8103 18.569 22.7069 18.3103 22.5 18.2069L19.2413 16.7069C19.0344 16.6034 18.7758 16.6552 18.6207 16.8621L17.3275 18.5172C17.2241 18.6207 17.0689 18.6724 16.9138 18.6207C16.0344 18.3103 13.0862 17.069 11.4827 13.9656C11.431 13.8104 11.431 13.6552 11.5344 13.5518L12.7758 12.1552C12.8793 12.0001 12.931 11.7932 12.8793 11.638L11.3793 8.27593C11.3275 8.12071 11.1723 7.96556 10.9654 7.96556Z" fill="#FEFEFE"/>
</g>
<defs>
<clipPath id="clip0_44_11428">
<rect width="30" height="30" fill="white"/>
</clipPath>
</defs>
</svg>
