<svg width="36" height="37" viewBox="0 0 36 37" fill="none" xmlns="http://www.w3.org/2000/svg">
<rect x="0.751953" y="0.931641" width="35.2476" height="35.2476" rx="7.50163" fill="#295BB8"/>
<path fill-rule="evenodd" clip-rule="evenodd" d="M13.1559 11.1492C16.6308 10.8773 20.1214 10.8773 23.5962 11.1492L25.9304 11.3318C27.2305 11.4335 28.2941 12.4079 28.509 13.6942C29.0467 16.9125 29.0467 20.1978 28.509 23.4162C28.2941 24.7024 27.2305 25.6768 25.9304 25.7786L23.5962 25.9612C20.1214 26.233 16.6308 26.233 13.1559 25.9612L10.8218 25.7786C9.52166 25.6768 8.45806 24.7024 8.24315 23.4162C7.70541 20.1978 7.70541 16.9125 8.24315 13.6942C8.45806 12.4079 9.52166 11.4335 10.8218 11.3318L13.1559 11.1492ZM16.2926 21.1283V15.982C16.2926 15.7391 16.5576 15.5891 16.7659 15.714L21.0546 18.2873C21.2569 18.4086 21.2569 18.7017 21.0546 18.8231L16.7659 21.3963C16.5576 21.5213 16.2926 21.3712 16.2926 21.1283Z" fill="white"/>
</svg>
